<?xml version="1.0" encoding="UTF-8" standalone="no"?>
<!-- Created with Inkscape (http://www.inkscape.org/) -->

<svg
   width="16"
   height="16"
   viewBox="0 0 16 16"
   version="1.1"
   id="svg1"
   inkscape:version="1.3.2 (091e20ef0f, 2023-11-25)"
   sodipodi:docname="text-x-python.svg"
   xml:space="preserve"
   xmlns:inkscape="http://www.inkscape.org/namespaces/inkscape"
   xmlns:sodipodi="http://sodipodi.sourceforge.net/DTD/sodipodi-0.dtd"
   xmlns="http://www.w3.org/2000/svg"
   xmlns:svg="http://www.w3.org/2000/svg"><sodipodi:namedview
     id="namedview1"
     pagecolor="#00e022"
     bordercolor="#000000"
     borderopacity="0.25"
     inkscape:showpageshadow="2"
     inkscape:pageopacity="0.0"
     inkscape:pagecheckerboard="0"
     inkscape:deskcolor="#d1d1d1"
     inkscape:document-units="px"
     showgrid="true"
     inkscape:zoom="32"
     inkscape:cx="7.140625"
     inkscape:cy="10.25"
     inkscape:window-width="1390"
     inkscape:window-height="1392"
     inkscape:window-x="0"
     inkscape:window-y="0"
     inkscape:window-maximized="0"
     inkscape:current-layer="layer1"><inkscape:grid
       id="grid1"
       units="px"
       originx="0"
       originy="0"
       spacingx="1"
       spacingy="1"
       empcolor="#0099e5"
       empopacity="0.30196078"
       color="#0099e5"
       opacity="0.14901961"
       empspacing="1"
       dotted="false"
       gridanglex="30"
       gridanglez="30"
       visible="true" /></sodipodi:namedview><defs
     id="defs1" /><g
     inkscape:groupmode="layer"
     id="layer1"
     inkscape:label="text"><path
       id="path48-14-4-5"
       style="display:inline;fill:#ffffff;fill-rule:evenodd"
       d="m 14,15 h -1 v -1 h 1 z" /><path
       id="path48-14-4-2"
       style="display:inline;fill:#ffffff;fill-rule:evenodd"
       d="m 14,14 h -1 v -1 h 1 z" /><path
       id="path48-14-4-7"
       style="display:inline;fill:#ffffff;fill-rule:evenodd"
       d="m 14,13 h -1 v -1 h 1 z" /><path
       id="path48-14-4-6"
       style="display:inline;fill:#ffffff;fill-rule:evenodd"
       d="m 14,12 h -1 v -1 h 1 z" /><path
       id="path48-14-4-61"
       style="display:inline;fill:#ffffff;fill-rule:evenodd"
       d="m 14,11 h -1 v -1 h 1 z" /><path
       id="path48-14-4-20"
       style="display:inline;fill:#ffffff;fill-rule:evenodd"
       d="M 14,10 H 13 V 9 h 1 z" /><path
       id="path48-14-4-59"
       style="display:inline;fill:#ffffff;fill-rule:evenodd"
       d="M 14,9 H 13 V 8 h 1 z" /><path
       id="path48-14-4-9"
       style="display:inline;fill:#ffffff;fill-rule:evenodd"
       d="M 14,8 H 13 V 7 h 1 z" /><path
       id="path48-14-4-1"
       style="display:inline;fill:#ffffff;fill-rule:evenodd"
       d="M 14,7 H 13 V 6 h 1 z" /><path
       id="path48-14-4-19"
       style="display:inline;fill:#ffffff;fill-rule:evenodd"
       d="M 14,6 H 13 V 5 h 1 z" /><path
       id="path48-14-4-4"
       style="display:inline;fill:#ffffff;fill-rule:evenodd"
       d="M 14,5 H 13 V 4 h 1 z" /><path
       id="path48-14-4-610"
       style="display:inline;fill:#ffffff;fill-rule:evenodd"
       d="M 14,4 H 13 V 3 h 1 z" /><path
       id="path48-14-4-0"
       style="display:inline;fill:#ffffff;fill-rule:evenodd"
       d="M 14,3 H 13 V 2 h 1 z" /><path
       id="path48-14-4-54"
       style="display:inline;fill:#ffffff;fill-rule:evenodd"
       d="M 14,2 H 13 V 1 h 1 z" /><path
       id="path48-14-4"
       style="display:inline;fill:#ffffff;fill-rule:evenodd"
       d="m 13,15 h -1 v -1 h 1 z" /><path
       id="path48-14-4-74"
       style="display:inline;fill:#ffffff;fill-rule:evenodd"
       d="m 12,15 h -1 v -1 h 1 z" /><path
       id="path48-14-4-47"
       style="display:inline;fill:#ffffff;fill-rule:evenodd"
       d="m 11,15 h -1 v -1 h 1 z" /><path
       id="path48-14-4-07"
       style="display:inline;fill:#ffffff;fill-rule:evenodd"
       d="M 10,15 H 9 v -1 h 1 z" /><path
       id="path48-14-4-8"
       style="display:inline;fill:#ffffff;fill-rule:evenodd"
       d="M 9,15 H 8 v -1 h 1 z" /><path
       id="path48-14-4-49"
       style="display:inline;fill:#ffffff;fill-rule:evenodd"
       d="M 8,15 H 7 v -1 h 1 z" /><path
       id="path48-14-4-89"
       style="display:inline;fill:#ffffff;fill-rule:evenodd"
       d="M 7,15 H 6 v -1 h 1 z" /><path
       id="path48-14-4-495"
       style="display:inline;fill:#ffffff;fill-rule:evenodd"
       d="M 6,15 H 5 v -1 h 1 z" /><path
       id="path48-14-4-71"
       style="display:inline;fill:#ffffff;fill-rule:evenodd"
       d="M 5,15 H 4 v -1 h 1 z" /><path
       id="path48-14-4-22"
       style="display:inline;fill:#ffffff;fill-rule:evenodd"
       d="M 4,15 H 3 v -1 h 1 z" /><path
       id="path48-14-4-615"
       style="display:inline;fill:#ffffff;fill-rule:evenodd"
       d="M 3,15 H 2 v -1 h 1 z" /><path
       id="path48-14-4-09"
       style="display:inline;fill:#ffffff;fill-rule:evenodd"
       d="M 3,14 H 2 v -1 h 1 z" /><path
       id="path48-14-4-11"
       style="display:inline;fill:#ffffff;fill-rule:evenodd"
       d="M 3,13 H 2 v -1 h 1 z" /><path
       id="path48-14-4-76"
       style="display:inline;fill:#ffffff;fill-rule:evenodd"
       d="M 3,12 H 2 v -1 h 1 z" /><path
       id="path48-14-4-56"
       style="display:inline;fill:#ffffff;fill-rule:evenodd"
       d="M 3,11 H 2 v -1 h 1 z" /><path
       id="path48-14-4-02"
       style="display:inline;fill:#ffffff;fill-rule:evenodd"
       d="M 7,6 H 6 V 5 h 1 z" /><path
       id="path48-14-4-32"
       style="display:inline;fill:#ffffff;fill-rule:evenodd"
       d="M 6,6 H 5 V 5 h 1 z" /><path
       id="path48-14-4-914"
       style="display:inline;fill:#ffffff;fill-rule:evenodd"
       d="M 5,6 H 4 V 5 h 1 z" /><path
       id="path48-14-4-75"
       style="display:inline;fill:#ffffff;fill-rule:evenodd"
       d="M 4,6 H 3 V 5 h 1 z" /><path
       id="path48-14-4-480"
       style="display:inline;fill:#ffffff;fill-rule:evenodd"
       d="M 3,6 H 2 V 5 h 1 z" /><path
       id="path48-14-4-6104"
       style="display:inline;fill:#ffffff;fill-rule:evenodd"
       d="M 3,7 H 2 V 6 h 1 z" /><path
       id="path48-14-4-05"
       style="display:inline;fill:#ffffff;fill-rule:evenodd"
       d="M 3,8 H 2 V 7 h 1 z" /><path
       id="path48-14-4-028"
       style="display:inline;fill:#ffffff;fill-rule:evenodd"
       d="M 3,9 H 2 V 8 h 1 z" /><path
       id="path48-14-4-40"
       style="display:inline;fill:#ffffff;fill-rule:evenodd"
       d="M 3,10 H 2 V 9 h 1 z" /><path
       id="path48-14-4-62"
       style="display:inline;fill:#ffffff;fill-rule:evenodd"
       d="M 4,5 H 3 V 4 h 1 z" /><path
       id="path48-14-4-50"
       style="display:inline;fill:#ffffff;fill-rule:evenodd"
       d="M 5,4 H 4 V 3 h 1 z" /><path
       id="path48-14-4-35"
       style="display:inline;fill:#ffffff;fill-rule:evenodd"
       d="M 6,3 H 5 V 2 h 1 z" /><path
       id="path48-14-4-31"
       style="display:inline;fill:#ffffff;fill-rule:evenodd"
       d="M 7,5 H 6 V 4 h 1 z" /><path
       id="path48-14-4-42"
       style="display:inline;fill:#ffffff;fill-rule:evenodd"
       d="M 7,4 H 6 V 3 h 1 z" /><path
       id="path48-14-4-12"
       style="display:inline;fill:#ffffff;fill-rule:evenodd"
       d="M 7,3 H 6 V 2 h 1 z" /><path
       id="path48-14-4-28"
       style="display:inline;fill:#ffffff;fill-rule:evenodd"
       d="M 7,2 H 6 V 1 h 1 z" /><path
       id="path48-14-4-83"
       style="display:inline;fill:#ffffff;fill-rule:evenodd"
       d="M 8,2 H 7 V 1 h 1 z" /><path
       id="path48-14-4-38"
       style="display:inline;fill:#ffffff;fill-rule:evenodd"
       d="M 9,2 H 8 V 1 h 1 z" /><path
       id="path48-14-4-68"
       style="display:inline;fill:#ffffff;fill-rule:evenodd"
       d="M 10,2 H 9 V 1 h 1 z" /><path
       id="path48-14-4-87"
       style="display:inline;fill:#ffffff;fill-rule:evenodd"
       d="M 11,2 H 10 V 1 h 1 z" /><path
       id="path48-14-4-33"
       style="display:inline;fill:#ffffff;fill-rule:evenodd"
       d="M 12,2 H 11 V 1 h 1 z" /><path
       id="path48-14-4-65"
       style="display:inline;fill:#ffffff;fill-rule:evenodd"
       d="M 13,2 H 12 V 1 h 1 z" /><path
       id="path48-14-4-859"
       style="display:inline;fill:#ffffff;fill-rule:evenodd"
       d="M 7,8 H 6 V 7 h 1 z" /><path
       id="path48-14-4-859-2"
       style="display:inline;fill:#ffffff;fill-rule:evenodd"
       d="M 8,8 H 7 V 7 h 1 z" /><path
       id="path48-14-4-859-3"
       style="display:inline;fill:#ffffff;fill-rule:evenodd"
       d="M 9,8 H 8 V 7 h 1 z" /><path
       id="path48-14-4-859-5"
       style="display:inline;fill:#ffffff;fill-rule:evenodd"
       d="M 9,8 H 8 v 1 h 1 z" /><path
       id="path48-14-4-859-0"
       style="display:inline;fill:#ffffff;fill-rule:evenodd"
       d="M 8,10 H 7 V 9 h 1 z" /><path
       id="path48-14-4-859-6"
       style="display:inline;fill:#ffffff;fill-rule:evenodd"
       d="M 7,10 H 6 V 9 h 1 z" /><path
       id="path48-14-4-859-8"
       style="display:inline;fill:#ffffff;fill-rule:evenodd"
       d="M 6,11 H 5 v -1 h 1 z" /><path
       id="path48-14-4-859-60"
       style="display:inline;fill:#ffffff;fill-rule:evenodd"
       d="M 6,12 H 5 v -1 h 1 z" /><path
       id="path48-14-4-859-82"
       style="display:inline;fill:#ffffff;fill-rule:evenodd"
       d="M 10,10 H 9 V 9 h 1 z" /><path
       id="path48-14-4-859-85"
       style="display:inline;fill:#ffffff;fill-rule:evenodd"
       d="M 10,11 H 9 v -1 h 1 z" /><path
       id="path48-14-4-859-38"
       style="display:inline;fill:#ffffff;fill-rule:evenodd"
       d="M 9,12 H 8 v -1 h 1 z" /><path
       id="path48-14-4-859-7"
       style="display:inline;fill:#ffffff;fill-rule:evenodd"
       d="M 8,12 H 7 v -1 h 1 z" /><path
       id="path48-14-4-859-9"
       style="display:inline;fill:#ffffff;fill-rule:evenodd"
       d="M 7,13 H 6 v -1 h 1 z" /><path
       id="path48-14-4-859-97"
       style="display:inline;fill:#ffffff;fill-rule:evenodd"
       d="M 8,14 H 7 v -1 h 1 z" /><path
       id="path48-14-4-859-4"
       style="display:inline;fill:#ffffff;fill-rule:evenodd"
       d="M 9,14 H 8 v -1 h 1 z" /><path
       id="path48-14-4-859-68"
       style="display:inline;fill:#ffffff;fill-rule:evenodd"
       d="M 7,14 H 6 v -1 h 1 z" /></g></svg>
