<?xml version="1.0" encoding="UTF-8" standalone="no"?>
<!-- Created with Inkscape (http://www.inkscape.org/) -->

<svg
   width="16"
   height="16"
   viewBox="0 0 16 16"
   version="1.1"
   id="svg1"
   inkscape:version="1.3.2 (091e20ef0f, 2023-11-25)"
   sodipodi:docname="action-unavailable-symbolic.svg"
   xmlns:inkscape="http://www.inkscape.org/namespaces/inkscape"
   xmlns:sodipodi="http://sodipodi.sourceforge.net/DTD/sodipodi-0.dtd"
   xmlns="http://www.w3.org/2000/svg"
   xmlns:svg="http://www.w3.org/2000/svg">
  <sodipodi:namedview
     id="namedview1"
     pagecolor="#00e927"
     bordercolor="#000000"
     borderopacity="0.25"
     inkscape:showpageshadow="2"
     inkscape:pageopacity="0.0"
     inkscape:pagecheckerboard="0"
     inkscape:deskcolor="#d1d1d1"
     inkscape:document-units="px"
     showgrid="true"
     inkscape:zoom="32"
     inkscape:cx="5.890625"
     inkscape:cy="12.75"
     inkscape:window-width="1261"
     inkscape:window-height="1392"
     inkscape:window-x="0"
     inkscape:window-y="0"
     inkscape:window-maximized="0"
     inkscape:current-layer="layer38">
    <inkscape:grid
       id="grid1"
       units="px"
       originx="0"
       originy="0"
       spacingx="1"
       spacingy="1"
       empcolor="#0099e5"
       empopacity="0.30196078"
       color="#0099e5"
       opacity="0.14901961"
       empspacing="1"
       dotted="false"
       gridanglex="30"
       gridanglez="30"
       visible="true" />
  </sodipodi:namedview>
  <defs
     id="defs1" />
  <g
     inkscape:groupmode="layer"
     id="layer38"
     inkscape:label="process-stop"
     style="display:inline">
    <path
       id="rect2-2"
       style="display:inline;fill:#ffffff;fill-rule:evenodd"
       d="M 5,0 H 6 V 1 H 5 Z" />
    <path
       id="rect2-2-5"
       style="display:inline;fill:#ffffff;fill-rule:evenodd"
       d="M 6,0 H 7 V 1 H 6 Z" />
    <path
       id="rect2-2-4"
       style="display:inline;fill:#ffffff;fill-rule:evenodd"
       d="M 7,0 H 8 V 1 H 7 Z" />
    <path
       id="rect2-2-2"
       style="display:inline;fill:#ffffff;fill-rule:evenodd"
       d="M 8,0 H 9 V 1 H 8 Z" />
    <path
       id="rect2-2-58"
       style="display:inline;fill:#ffffff;fill-rule:evenodd"
       d="m 9,0 h 1 V 1 H 9 Z" />
    <path
       id="rect2-2-48"
       style="display:inline;fill:#ffffff;fill-rule:evenodd"
       d="m 10,0 h 1 v 1 h -1 z" />
    <path
       id="rect2-2-23"
       style="display:inline;fill:#ffffff;fill-rule:evenodd"
       d="M 4,1 H 5 V 2 H 4 Z" />
    <path
       id="rect2-2-29"
       style="display:inline;fill:#ffffff;fill-rule:evenodd"
       d="M 3,2 H 4 V 3 H 3 Z" />
    <path
       id="rect2-2-8"
       style="display:inline;fill:#ffffff;fill-rule:evenodd"
       d="M 2,3 H 3 V 4 H 2 Z" />
    <path
       id="rect2-2-83"
       style="display:inline;fill:#ffffff;fill-rule:evenodd"
       d="M 1,4 H 2 V 5 H 1 Z" />
    <path
       id="rect2-2-9"
       style="display:inline;fill:#ffffff;fill-rule:evenodd"
       d="M 0,5 H 1 V 6 H 0 Z" />
    <path
       id="rect2-2-92"
       style="display:inline;fill:#ffffff;fill-rule:evenodd"
       d="m 0,10 h 1 v 1 H 0 Z" />
    <path
       id="rect2-2-96"
       style="display:inline;fill:#ffffff;fill-rule:evenodd"
       d="m 1,11 h 1 v 1 H 1 Z" />
    <path
       id="rect2-2-6"
       style="display:inline;fill:#ffffff;fill-rule:evenodd"
       d="m 2,12 h 1 v 1 H 2 Z" />
    <path
       id="rect2-2-7"
       style="display:inline;fill:#ffffff;fill-rule:evenodd"
       d="m 3,13 h 1 v 1 H 3 Z" />
    <path
       id="rect2-2-1"
       style="display:inline;fill:#ffffff;fill-rule:evenodd"
       d="m 4,14 h 1 v 1 H 4 Z" />
    <path
       id="rect2-2-54"
       style="display:inline;fill:#ffffff;fill-rule:evenodd"
       d="m 5,15 h 1 v 1 H 5 Z" />
    <path
       id="rect2-2-91"
       style="display:inline;fill:#ffffff;fill-rule:evenodd"
       d="m 10,15 h 1 v 1 h -1 z" />
    <path
       id="rect2-2-55"
       style="display:inline;fill:#ffffff;fill-rule:evenodd"
       d="m 11,14 h 1 v 1 h -1 z" />
    <path
       id="rect2-2-42"
       style="display:inline;fill:#ffffff;fill-rule:evenodd"
       d="m 12,13 h 1 v 1 h -1 z" />
    <path
       id="rect2-2-52"
       style="display:inline;fill:#ffffff;fill-rule:evenodd"
       d="m 13,12 h 1 v 1 h -1 z" />
    <path
       id="rect2-2-3"
       style="display:inline;fill:#ffffff;fill-rule:evenodd"
       d="m 14,11 h 1 v 1 h -1 z" />
    <path
       id="rect2-2-76"
       style="display:inline;fill:#ffffff;fill-rule:evenodd"
       d="m 15,10 h 1 v 1 h -1 z" />
    <path
       id="rect2-2-426"
       style="display:inline;fill:#ffffff;fill-rule:evenodd"
       d="m 15,5 h 1 v 1 h -1 z" />
    <path
       id="rect2-2-70"
       style="display:inline;fill:#ffffff;fill-rule:evenodd"
       d="m 14,4 h 1 v 1 h -1 z" />
    <path
       id="rect2-2-832"
       style="display:inline;fill:#ffffff;fill-rule:evenodd"
       d="m 13,3 h 1 v 1 h -1 z" />
    <path
       id="rect2-2-35"
       style="display:inline;fill:#ffffff;fill-rule:evenodd"
       d="m 12,2 h 1 v 1 h -1 z" />
    <path
       id="rect2-2-95"
       style="display:inline;fill:#ffffff;fill-rule:evenodd"
       d="m 11,1 h 1 v 1 h -1 z" />
    <path
       id="rect2-2-0"
       style="display:inline;fill:#ffffff;fill-rule:evenodd"
       d="M 0,6 H 1 V 7 H 0 Z" />
    <path
       id="rect2-2-38"
       style="display:inline;fill:#ffffff;fill-rule:evenodd"
       d="M 0,7 H 1 V 8 H 0 Z" />
    <path
       id="rect2-2-30"
       style="display:inline;fill:#ffffff;fill-rule:evenodd"
       d="M 0,8 H 1 V 9 H 0 Z" />
    <path
       id="rect2-2-65"
       style="display:inline;fill:#ffffff;fill-rule:evenodd"
       d="m 0,9 h 1 v 1 H 0 Z" />
    <path
       id="rect2-2-44"
       style="display:inline;fill:#ffffff;fill-rule:evenodd"
       d="m 15,6 h 1 v 1 h -1 z" />
    <path
       id="rect2-2-53"
       style="display:inline;fill:#ffffff;fill-rule:evenodd"
       d="m 15,8 h 1 v 1 h -1 z" />
    <path
       id="rect2-2-27"
       style="display:inline;fill:#ffffff;fill-rule:evenodd"
       d="m 15,7 h 1 v 1 h -1 z" />
    <path
       id="rect2-2-533"
       style="display:inline;fill:#ffffff;fill-rule:evenodd"
       d="m 15,9 h 1 v 1 h -1 z" />
    <path
       id="rect2-2-448"
       style="display:inline;fill:#ffffff;fill-rule:evenodd"
       d="m 9,15 h 1 v 1 H 9 Z" />
    <path
       id="rect2-2-67"
       style="display:inline;fill:#ffffff;fill-rule:evenodd"
       d="m 8,15 h 1 v 1 H 8 Z" />
    <path
       id="rect2-2-18"
       style="display:inline;fill:#ffffff;fill-rule:evenodd"
       d="m 7,15 h 1 v 1 H 7 Z" />
    <path
       id="rect2-2-63"
       style="display:inline;fill:#ffffff;fill-rule:evenodd"
       d="m 6,15 h 1 v 1 H 6 Z" />
    <path
       id="rect2-2-235"
       style="display:inline;fill:#ffffff;fill-rule:evenodd"
       d="M 3,3 H 4 V 4 H 3 Z" />
    <path
       id="rect2-2-187"
       style="display:inline;fill:#ffffff;fill-rule:evenodd"
       d="M 1,5 H 2 V 6 H 1 Z" />
    <path
       id="rect2-2-732"
       style="display:inline;fill:#ffffff;fill-rule:evenodd"
       d="M 1,6 H 2 V 7 H 1 Z" />
    <path
       id="rect2-2-967"
       style="display:inline;fill:#ffffff;fill-rule:evenodd"
       d="M 1,8 H 2 V 9 H 1 Z" />
    <path
       id="rect2-2-31"
       style="display:inline;fill:#ffffff;fill-rule:evenodd"
       d="m 1,9 h 1 v 1 H 1 Z" />
    <path
       id="rect2-2-387"
       style="display:inline;fill:#ffffff;fill-rule:evenodd"
       d="m 1,10 h 1 v 1 H 1 Z" />
    <path
       id="rect2-2-838"
       style="display:inline;fill:#ffffff;fill-rule:evenodd"
       d="m 2,11 h 1 v 1 H 2 Z" />
    <path
       id="rect2-2-711"
       style="display:inline;fill:#ffffff;fill-rule:evenodd"
       d="M 1,7 H 2 V 8 H 1 Z" />
    <path
       id="rect2-2-28"
       style="display:inline;fill:#ffffff;fill-rule:evenodd"
       d="m 3,12 h 1 v 1 H 3 Z" />
    <path
       id="rect2-2-704"
       style="display:inline;fill:#ffffff;fill-rule:evenodd"
       d="m 4,13 h 1 v 1 H 4 Z" />
    <path
       id="rect2-2-916"
       style="display:inline;fill:#ffffff;fill-rule:evenodd"
       d="m 5,14 h 1 v 1 H 5 Z" />
    <path
       id="rect2-2-00"
       style="display:inline;fill:#ffffff;fill-rule:evenodd"
       d="m 6,14 h 1 v 1 H 6 Z" />
    <path
       id="rect2-2-266"
       style="display:inline;fill:#ffffff;fill-rule:evenodd"
       d="m 7,14 h 1 v 1 H 7 Z" />
    <path
       id="rect2-2-273"
       style="display:inline;fill:#ffffff;fill-rule:evenodd"
       d="m 8,14 h 1 v 1 H 8 Z" />
    <path
       id="rect2-2-77"
       style="display:inline;fill:#ffffff;fill-rule:evenodd"
       d="m 9,14 h 1 v 1 H 9 Z" />
    <path
       id="rect2-2-548"
       style="display:inline;fill:#ffffff;fill-rule:evenodd"
       d="m 10,14 h 1 v 1 h -1 z" />
    <path
       id="rect2-2-335"
       style="display:inline;fill:#ffffff;fill-rule:evenodd"
       d="m 11,13 h 1 v 1 h -1 z" />
    <path
       id="rect2-2-2358"
       style="display:inline;fill:#ffffff;fill-rule:evenodd"
       d="m 12,12 h 1 v 1 h -1 z" />
    <path
       id="rect2-2-4268"
       style="display:inline;fill:#ffffff;fill-rule:evenodd"
       d="m 13,4 h 1 v 1 h -1 z" />
    <path
       id="rect2-2-01"
       style="display:inline;fill:#ffffff;fill-rule:evenodd"
       d="m 14,10 h 1 v 1 h -1 z" />
    <path
       id="rect2-2-291"
       style="display:inline;fill:#ffffff;fill-rule:evenodd"
       d="m 14,9 h 1 v 1 h -1 z" />
    <path
       id="rect2-2-395"
       style="display:inline;fill:#ffffff;fill-rule:evenodd"
       d="m 14,8 h 1 v 1 h -1 z" />
    <path
       id="rect2-2-531"
       style="display:inline;fill:#ffffff;fill-rule:evenodd"
       d="m 14,7 h 1 v 1 h -1 z" />
    <path
       id="rect2-2-443"
       style="display:inline;fill:#ffffff;fill-rule:evenodd"
       d="m 14,6 h 1 v 1 h -1 z" />
    <path
       id="rect2-2-188"
       style="display:inline;fill:#ffffff;fill-rule:evenodd"
       d="m 14,5 h 1 v 1 h -1 z" />
    <path
       id="rect2-2-211"
       style="display:inline;fill:#ffffff;fill-rule:evenodd"
       d="m 12,3 h 1 v 1 h -1 z" />
    <path
       id="rect2-2-144"
       style="display:inline;fill:#ffffff;fill-rule:evenodd"
       d="m 11,2 h 1 v 1 h -1 z" />
    <path
       id="rect2-2-884"
       style="display:inline;fill:#ffffff;fill-rule:evenodd"
       d="m 10,1 h 1 v 1 h -1 z" />
    <path
       id="rect2-2-68"
       style="display:inline;fill:#ffffff;fill-rule:evenodd"
       d="m 9,1 h 1 V 2 H 9 Z" />
    <path
       id="rect2-2-977"
       style="display:inline;fill:#ffffff;fill-rule:evenodd"
       d="M 8,1 H 9 V 2 H 8 Z" />
    <path
       id="rect2-2-674"
       style="display:inline;fill:#ffffff;fill-rule:evenodd"
       d="M 7,1 H 8 V 2 H 7 Z" />
    <path
       id="rect2-2-051"
       style="display:inline;fill:#ffffff;fill-rule:evenodd"
       d="M 6,1 H 7 V 2 H 6 Z" />
    <path
       id="rect2-2-917"
       style="display:inline;fill:#ffffff;fill-rule:evenodd"
       d="M 5,1 H 6 V 2 H 5 Z" />
    <path
       id="rect2-2-23-5"
       style="display:inline;fill:#ffffff;fill-rule:evenodd"
       d="M 3,1 H 4 V 2 H 3 Z" />
    <path
       id="rect2-2-23-2"
       style="display:inline;fill:#ffffff;fill-rule:evenodd"
       d="M 1,3 H 2 V 4 H 1 Z" />
    <path
       id="rect2-2-23-7"
       style="display:inline;fill:#ffffff;fill-rule:evenodd"
       d="M 2,2 H 3 V 3 H 2 Z" />
    <path
       id="rect2-2-23-6"
       style="display:inline;fill:#ffffff;fill-rule:evenodd"
       d="m 12,1 h 1 v 1 h -1 z" />
    <path
       id="rect2-2-23-61"
       style="display:inline;fill:#ffffff;fill-rule:evenodd"
       d="m 13,2 h 1 v 1 h -1 z" />
    <path
       id="rect2-2-23-20"
       style="display:inline;fill:#ffffff;fill-rule:evenodd"
       d="m 14,3 h 1 v 1 h -1 z" />
    <path
       id="rect2-2-23-59"
       style="display:inline;fill:#ffffff;fill-rule:evenodd"
       d="m 1,12 h 1 v 1 H 1 Z" />
    <path
       id="rect2-2-23-9"
       style="display:inline;fill:#ffffff;fill-rule:evenodd"
       d="m 2,13 h 1 v 1 H 2 Z" />
    <path
       id="rect2-2-23-1"
       style="display:inline;fill:#ffffff;fill-rule:evenodd"
       d="m 3,14 h 1 v 1 H 3 Z" />
    <path
       id="rect2-2-23-610"
       style="display:inline;fill:#ffffff;fill-rule:evenodd"
       d="m 14,12 h 1 v 1 h -1 z" />
    <path
       id="rect2-2-23-0"
       style="display:inline;fill:#ffffff;fill-rule:evenodd"
       d="m 12,14 h 1 v 1 h -1 z" />
    <path
       id="rect2-2-23-54"
       style="display:inline;fill:#ffffff;fill-rule:evenodd"
       d="m 13,13 h 1 v 1 h -1 z" />
    <path
       id="rect2-2-23-69"
       style="display:inline;fill:#ffffff;fill-rule:evenodd"
       d="M 4,3 H 5 V 4 H 4 Z" />
    <path
       id="rect2-2-23-52"
       style="display:inline;fill:#ffffff;fill-rule:evenodd"
       d="M 5,4 H 6 V 5 H 5 Z" />
    <path
       id="rect2-2-23-4"
       style="display:inline;fill:#ffffff;fill-rule:evenodd"
       d="M 6,5 H 7 V 6 H 6 Z" />
    <path
       id="rect2-2-23-78"
       style="display:inline;fill:#ffffff;fill-rule:evenodd"
       d="M 3,4 H 4 V 5 H 3 Z" />
    <path
       id="rect2-2-23-43"
       style="display:inline;fill:#ffffff;fill-rule:evenodd"
       d="M 4,4 H 5 V 5 H 4 Z" />
    <path
       id="rect2-2-23-206"
       style="display:inline;fill:#ffffff;fill-rule:evenodd"
       d="M 4,5 H 5 V 6 H 4 Z" />
    <path
       id="rect2-2-23-66"
       style="display:inline;fill:#ffffff;fill-rule:evenodd"
       d="M 5,5 H 6 V 6 H 5 Z" />
    <path
       id="rect2-2-23-04"
       style="display:inline;fill:#ffffff;fill-rule:evenodd"
       d="M 5,6 H 6 V 7 H 5 Z" />
    <path
       id="rect2-2-23-72"
       style="display:inline;fill:#ffffff;fill-rule:evenodd"
       d="M 6,6 H 7 V 7 H 6 Z" />
    <path
       id="rect2-2-23-77"
       style="display:inline;fill:#ffffff;fill-rule:evenodd"
       d="M 2,4 H 3 V 5 H 2 Z" />
    <path
       id="rect2-2-23-3"
       style="display:inline;fill:#ffffff;fill-rule:evenodd"
       d="M 4,2 H 5 V 3 H 4 Z" />
    <path
       id="rect2-2-23-48"
       style="display:inline;fill:#ffffff;fill-rule:evenodd"
       d="M 6,7 H 7 V 8 H 6 Z" />
    <path
       id="rect2-2-23-044"
       style="display:inline;fill:#ffffff;fill-rule:evenodd"
       d="M 7,6 H 8 V 7 H 7 Z" />
    <path
       id="rect2-2-23-63"
       style="display:inline;fill:#ffffff;fill-rule:evenodd"
       d="M 7,7 H 8 V 8 H 7 Z" />
    <path
       id="rect2-2-23-96"
       style="display:inline;fill:#ffffff;fill-rule:evenodd"
       d="m 12,11 h 1 v 1 h -1 z" />
    <path
       id="rect2-2-23-85"
       style="display:inline;fill:#ffffff;fill-rule:evenodd"
       d="m 11,12 h 1 v 1 h -1 z" />
    <path
       id="rect2-2-23-859"
       style="display:inline;fill:#ffffff;fill-rule:evenodd"
       d="m 11,11 h 1 v 1 h -1 z" />
    <path
       id="rect2-2-23-88"
       style="display:inline;fill:#ffffff;fill-rule:evenodd"
       d="m 11,10 h 1 v 1 h -1 z" />
    <path
       id="rect2-2-23-964"
       style="display:inline;fill:#ffffff;fill-rule:evenodd"
       d="m 10,11 h 1 v 1 h -1 z" />
    <path
       id="rect2-2-23-86"
       style="display:inline;fill:#ffffff;fill-rule:evenodd"
       d="m 10,10 h 1 v 1 h -1 z" />
    <path
       id="rect2-2-23-889"
       style="display:inline;fill:#ffffff;fill-rule:evenodd"
       d="m 10,9 h 1 v 1 h -1 z" />
    <path
       id="rect2-2-23-430"
       style="display:inline;fill:#ffffff;fill-rule:evenodd"
       d="m 9,10 h 1 v 1 H 9 Z" />
    <path
       id="rect2-2-23-25"
       style="display:inline;fill:#ffffff;fill-rule:evenodd"
       d="m 9,9 h 1 v 1 H 9 Z" />
    <path
       id="rect2-2-23-94"
       style="display:inline;fill:#ffffff;fill-rule:evenodd"
       d="m 9,8 h 1 V 9 H 9 Z" />
    <path
       id="rect2-2-23-24"
       style="display:inline;fill:#ffffff;fill-rule:evenodd"
       d="M 8,8 H 9 V 9 H 8 Z" />
    <path
       id="rect2-2-23-481"
       style="display:inline;fill:#ffffff;fill-rule:evenodd"
       d="M 8,7 H 9 V 8 H 8 Z" />
    <path
       id="rect2-2-23-36"
       style="display:inline;fill:#ffffff;fill-rule:evenodd"
       d="M 7,8 H 8 V 9 H 7 Z" />
    <path
       id="rect2-2-23-10"
       style="display:inline;fill:#ffffff;fill-rule:evenodd"
       d="m 8,9 h 1 v 1 H 8 Z" />
    <path
       id="rect2-2-23-08"
       style="display:inline;fill:#ffffff;fill-rule:evenodd"
       d="m 13,11 h 1 v 1 h -1 z" />
  </g>
</svg>
