<?xml version="1.0" encoding="UTF-8" standalone="no"?>
<!-- Created with Inkscape (http://www.inkscape.org/) -->

<svg
   width="16"
   height="16"
   viewBox="0 0 16 16"
   version="1.1"
   id="svg1"
   inkscape:version="1.3.2 (091e20ef0f, 2023-11-25)"
   sodipodi:docname="folder-recent-symbolic.svg"
   xmlns:inkscape="http://www.inkscape.org/namespaces/inkscape"
   xmlns:sodipodi="http://sodipodi.sourceforge.net/DTD/sodipodi-0.dtd"
   xmlns="http://www.w3.org/2000/svg"
   xmlns:svg="http://www.w3.org/2000/svg">
  <sodipodi:namedview
     id="namedview1"
     pagecolor="#00e927"
     bordercolor="#000000"
     borderopacity="0.25"
     inkscape:showpageshadow="2"
     inkscape:pageopacity="0.0"
     inkscape:pagecheckerboard="0"
     inkscape:deskcolor="#d1d1d1"
     inkscape:document-units="px"
     showgrid="true"
     inkscape:zoom="45.254834"
     inkscape:cx="8.783592"
     inkscape:cy="5.6126601"
     inkscape:window-width="1261"
     inkscape:window-height="1392"
     inkscape:window-x="0"
     inkscape:window-y="0"
     inkscape:window-maximized="0"
     inkscape:current-layer="layer2">
    <inkscape:grid
       id="grid1"
       units="px"
       originx="0"
       originy="0"
       spacingx="1"
       spacingy="1"
       empcolor="#0099e5"
       empopacity="0.30196078"
       color="#0099e5"
       opacity="0.14901961"
       empspacing="1"
       dotted="false"
       gridanglex="30"
       gridanglez="30"
       visible="true" />
  </sodipodi:namedview>
  <defs
     id="defs1" />
  <g
     inkscape:groupmode="layer"
     id="layer2"
     inkscape:label="view-refresh"
     transform="matrix(0,1,1,0,0,-1)">
    <path
       id="rect2-2-23-0487"
       style="display:inline;fill:#ffffff;fill-rule:evenodd"
       d="M 8,2 V 1 h 1 v 1 z" />
    <path
       id="rect2-2-23-0487-4"
       style="display:inline;fill:#ffffff;fill-rule:evenodd"
       d="M 7,2 V 1 h 1 v 1 z" />
    <path
       id="rect2-2-23-0487-2"
       style="display:inline;fill:#ffffff;fill-rule:evenodd"
       d="M 6,3 V 2 h 1 v 1 z" />
    <path
       id="rect2-2-23-0487-9"
       style="display:inline;fill:#ffffff;fill-rule:evenodd"
       d="M 5,3 V 2 h 1 v 1 z" />
    <path
       id="rect2-2-23-0487-0"
       style="display:inline;fill:#ffffff;fill-rule:evenodd"
       d="M 4,4 V 3 h 1 v 1 z" />
    <path
       id="rect2-2-23-0487-8"
       style="display:inline;fill:#ffffff;fill-rule:evenodd"
       d="M 3,5 V 4 h 1 v 1 z" />
    <path
       id="rect2-2-23-0487-6"
       style="display:inline;fill:#ffffff;fill-rule:evenodd"
       d="M 3,6 V 5 h 1 v 1 z" />
    <path
       id="rect2-2-23-0487-97"
       style="display:inline;fill:#ffffff;fill-rule:evenodd"
       d="M 2,7 V 6 h 1 v 1 z" />
    <path
       id="rect2-2-23-0487-85"
       style="display:inline;fill:#ffffff;fill-rule:evenodd"
       d="M 2,8 V 7 h 1 v 1 z" />
    <path
       id="rect2-2-23-0487-3"
       style="display:inline;fill:#ffffff;fill-rule:evenodd"
       d="M 2,9 V 8 h 1 v 1 z" />
    <path
       id="rect2-2-23-0487-7"
       style="display:inline;fill:#ffffff;fill-rule:evenodd"
       d="M 2,10 V 9 h 1 v 1 z" />
    <path
       id="rect2-2-23-0487-1"
       style="display:inline;fill:#ffffff;fill-rule:evenodd"
       d="M 9,2 V 1 h 1 v 1 z" />
    <path
       id="rect2-2-23-0487-88"
       style="display:inline;fill:#ffffff;fill-rule:evenodd"
       d="M 10,2 V 1 h 1 v 1 z" />
    <path
       id="rect2-2-23-0487-37"
       style="display:inline;fill:#ffffff;fill-rule:evenodd"
       d="m 3,11 v -1 h 1 v 1 z" />
    <path
       id="rect2-2-23-0487-09"
       style="display:inline;fill:#ffffff;fill-rule:evenodd"
       d="m 3,12 v -1 h 1 v 1 z" />
    <path
       id="rect2-2-23-0487-32"
       style="display:inline;fill:#ffffff;fill-rule:evenodd"
       d="m 4,13 v -1 h 1 v 1 z" />
    <path
       id="rect2-2-23-0487-12"
       style="display:inline;fill:#ffffff;fill-rule:evenodd"
       d="m 5,14 v -1 h 1 v 1 z" />
    <path
       id="rect2-2-23-0487-17"
       style="display:inline;fill:#ffffff;fill-rule:evenodd"
       d="m 6,14 v -1 h 1 v 1 z" />
    <path
       id="rect2-2-23-0487-41"
       style="display:inline;fill:#ffffff;fill-rule:evenodd"
       d="m 7,15 v -1 h 1 v 1 z" />
    <path
       id="rect2-2-23-0487-170"
       style="display:inline;fill:#ffffff;fill-rule:evenodd"
       d="m 8,15 v -1 h 1 v 1 z" />
    <path
       id="rect2-2-23-0487-5"
       style="display:inline;fill:#ffffff;fill-rule:evenodd"
       d="m 9,15 v -1 h 1 v 1 z" />
    <path
       id="rect2-2-23-0487-21"
       style="display:inline;fill:#ffffff;fill-rule:evenodd"
       d="m 10,14 v -1 h 1 v 1 z" />
    <path
       id="rect2-2-23-0487-80"
       style="display:inline;fill:#ffffff;fill-rule:evenodd"
       d="m 11,14 v -1 h 1 v 1 z" />
    <path
       id="rect2-2-23-0487-22"
       style="display:inline;fill:#ffffff;fill-rule:evenodd"
       d="m 12,13 v -1 h 1 v 1 z" />
    <path
       id="rect2-2-23-0487-64"
       style="display:inline;fill:#ffffff;fill-rule:evenodd"
       d="M 11,3 V 2 h 1 v 1 z" />
    <path
       id="rect2-2-23-0487-974"
       style="display:inline;fill:#ffffff;fill-rule:evenodd"
       d="M 12,4 V 3 h 1 v 1 z" />
    <path
       id="rect2-2-23-0487-39"
       style="display:inline;fill:#ffffff;fill-rule:evenodd"
       d="M 13,4 V 3 h 1 v 1 z" />
    <path
       id="rect2-2-23-0487-415"
       style="display:inline;fill:#ffffff;fill-rule:evenodd"
       d="M 13,3 V 2 h 1 v 1 z" />
    <path
       id="rect2-2-23-0487-83"
       style="display:inline;fill:#ffffff;fill-rule:evenodd"
       d="M 12,3 V 2 h 1 v 1 z" />
    <path
       id="rect2-2-23-0487-227"
       style="display:inline;fill:#ffffff;fill-rule:evenodd"
       d="M 11,4 V 3 h 1 v 1 z" />
    <path
       id="rect2-2-23-0487-63"
       style="display:inline;fill:#ffffff;fill-rule:evenodd"
       d="M 10,3 V 2 h 1 v 1 z" />
    <path
       id="rect2-2-23-0487-44"
       style="display:inline;fill:#ffffff;fill-rule:evenodd"
       d="M 11,2 V 1 h 1 v 1 z" />
    <path
       id="rect2-2-23-0487-25"
       style="display:inline;fill:#ffffff;fill-rule:evenodd"
       d="M 13,2 V 1 h 1 v 1 z" />
    <path
       id="rect2-2-23-0487-71"
       style="display:inline;fill:#ffffff;fill-rule:evenodd"
       d="M 11,5 V 4 h 1 v 1 z" />
    <path
       id="rect2-2-23-0487-411"
       style="display:inline;fill:#ffffff;fill-rule:evenodd"
       d="M 12,5 V 4 h 1 v 1 z" />
    <path
       id="rect2-2-23-0487-34"
       style="display:inline;fill:#ffffff;fill-rule:evenodd"
       d="M 13,5 V 4 h 1 v 1 z" />
    <path
       id="rect2-2-23-0487-835"
       style="display:inline;fill:#ffffff;fill-rule:evenodd"
       d="M 10,5 V 4 h 1 v 1 z" />
    <path
       id="rect2-2-23-0487-90"
       style="display:inline;fill:#ffffff;fill-rule:evenodd"
       d="M 10,1 V 0 h 1 v 1 z" />
    <path
       id="rect2-2-23-0487-76"
       style="display:inline;fill:#ffffff;fill-rule:evenodd"
       d="M 9,1 V 0 h 1 v 1 z" />
    <path
       id="rect2-2-23-0487-65"
       style="display:inline;fill:#ffffff;fill-rule:evenodd"
       d="M 8,1 V 0 h 1 v 1 z" />
    <path
       id="rect2-2-23-0487-226"
       style="display:inline;fill:#ffffff;fill-rule:evenodd"
       d="M 7,1 V 0 h 1 v 1 z" />
    <path
       id="rect2-2-23-0487-42"
       style="display:inline;fill:#ffffff;fill-rule:evenodd"
       d="M 6,2 V 1 h 1 v 1 z" />
    <path
       id="rect2-2-23-0487-328"
       style="display:inline;fill:#ffffff;fill-rule:evenodd"
       d="M 5,2 V 1 h 1 v 1 z" />
    <path
       id="rect2-2-23-0487-00"
       style="display:inline;fill:#ffffff;fill-rule:evenodd"
       d="M 4,3 V 2 h 1 v 1 z" />
    <path
       id="rect2-2-23-0487-27"
       style="display:inline;fill:#ffffff;fill-rule:evenodd"
       d="M 3,4 V 3 h 1 v 1 z" />
    <path
       id="rect2-2-23-0487-24"
       style="display:inline;fill:#ffffff;fill-rule:evenodd"
       d="M 2,5 V 4 h 1 v 1 z" />
    <path
       id="rect2-2-23-0487-60"
       style="display:inline;fill:#ffffff;fill-rule:evenodd"
       d="M 2,6 V 5 h 1 v 1 z" />
    <path
       id="rect2-2-23-0487-23"
       style="display:inline;fill:#ffffff;fill-rule:evenodd"
       d="M 1,7 V 6 h 1 v 1 z" />
    <path
       id="rect2-2-23-0487-422"
       style="display:inline;fill:#ffffff;fill-rule:evenodd"
       d="M 1,8 V 7 h 1 v 1 z" />
    <path
       id="rect2-2-23-0487-75"
       style="display:inline;fill:#ffffff;fill-rule:evenodd"
       d="M 1,9 V 8 h 1 v 1 z" />
    <path
       id="rect2-2-23-0487-98"
       style="display:inline;fill:#ffffff;fill-rule:evenodd"
       d="M 1,10 V 9 h 1 v 1 z" />
    <path
       id="rect2-2-23-0487-379"
       style="display:inline;fill:#ffffff;fill-rule:evenodd"
       d="M 3,7 V 6 h 1 v 1 z" />
    <path
       id="rect2-2-23-0487-04"
       style="display:inline;fill:#ffffff;fill-rule:evenodd"
       d="M 3,8 V 7 h 1 v 1 z" />
    <path
       id="rect2-2-23-0487-16"
       style="display:inline;fill:#ffffff;fill-rule:evenodd"
       d="M 3,9 V 8 h 1 v 1 z" />
    <path
       id="rect2-2-23-0487-16-4"
       style="display:inline;fill:#ffffff;fill-rule:evenodd"
       d="M 4,9 V 8 h 1 v 1 z" />
    <path
       id="rect2-2-23-0487-16-44"
       style="display:inline;fill:#ffffff;fill-rule:evenodd"
       d="M 5,9 V 8 h 1 v 1 z" />
    <path
       id="rect2-2-23-0487-16-1"
       style="display:inline;fill:#ffffff;fill-rule:evenodd"
       d="M 6,9 V 8 h 1 v 1 z" />
    <path
       id="rect2-2-23-0487-16-5"
       style="display:inline;fill:#ffffff;fill-rule:evenodd"
       d="M 7,9 V 8 h 1 v 1 z" />
    <path
       id="rect2-2-23-0487-16-9"
       style="display:inline;fill:#ffffff;fill-rule:evenodd"
       d="M 8,9 V 8 h 1 v 1 z" />
    <path
       id="rect2-2-23-0487-16-8"
       style="display:inline;fill:#ffffff;fill-rule:evenodd"
       d="M 9,10 V 9 h 1 v 1 z" />
    <path
       id="rect2-2-23-0487-16-48"
       style="display:inline;fill:#ffffff;fill-rule:evenodd"
       d="m 10,11 v -1 h 1 v 1 z" />
    <path
       id="rect2-2-23-0487-16-99"
       style="display:inline;fill:#ffffff;fill-rule:evenodd"
       d="m 11,12 v -1 h 1 v 1 z" />
    <path
       id="rect2-2-23-0487-19"
       style="display:inline;fill:#ffffff;fill-rule:evenodd"
       d="M 3,10 V 9 h 1 v 1 z" />
    <path
       id="rect2-2-23-0487-649"
       style="display:inline;fill:#ffffff;fill-rule:evenodd"
       d="M 4,5 V 4 h 1 v 1 z" />
    <path
       id="rect2-2-23-0487-93"
       style="display:inline;fill:#ffffff;fill-rule:evenodd"
       d="M 5,4 V 3 h 1 v 1 z" />
    <path
       id="rect2-2-23-0487-96"
       style="display:inline;fill:#ffffff;fill-rule:evenodd"
       d="M 6,4 V 3 h 1 v 1 z" />
    <path
       id="rect2-2-23-0487-712"
       style="display:inline;fill:#ffffff;fill-rule:evenodd"
       d="M 7,3 V 2 h 1 v 1 z" />
    <path
       id="rect2-2-23-0487-090"
       style="display:inline;fill:#ffffff;fill-rule:evenodd"
       d="M 8,3 V 2 h 1 v 1 z" />
    <path
       id="rect2-2-23-0487-374"
       style="display:inline;fill:#ffffff;fill-rule:evenodd"
       d="M 9,3 V 2 h 1 v 1 z" />
    <path
       id="rect2-2-23-0487-03"
       style="display:inline;fill:#ffffff;fill-rule:evenodd"
       d="m 2,11 v -1 h 1 v 1 z" />
    <path
       id="rect2-2-23-0487-56"
       style="display:inline;fill:#ffffff;fill-rule:evenodd"
       d="m 2,12 v -1 h 1 v 1 z" />
    <path
       id="rect2-2-23-0487-217"
       style="display:inline;fill:#ffffff;fill-rule:evenodd"
       d="m 4,12 v -1 h 1 v 1 z" />
    <path
       id="rect2-2-23-0487-273"
       style="display:inline;fill:#ffffff;fill-rule:evenodd"
       d="m 3,13 v -1 h 1 v 1 z" />
    <path
       id="rect2-2-23-0487-972"
       style="display:inline;fill:#ffffff;fill-rule:evenodd"
       d="m 4,14 v -1 h 1 v 1 z" />
    <path
       id="rect2-2-23-0487-30"
       style="display:inline;fill:#ffffff;fill-rule:evenodd"
       d="m 5,13 v -1 h 1 v 1 z" />
    <path
       id="rect2-2-23-0487-66"
       style="display:inline;fill:#ffffff;fill-rule:evenodd"
       d="m 5,15 v -1 h 1 v 1 z" />
    <path
       id="rect2-2-23-0487-89"
       style="display:inline;fill:#ffffff;fill-rule:evenodd"
       d="m 6,15 v -1 h 1 v 1 z" />
    <path
       id="rect2-2-23-0487-08"
       style="display:inline;fill:#ffffff;fill-rule:evenodd"
       d="m 7,14 v -1 h 1 v 1 z" />
    <path
       id="rect2-2-23-0487-210"
       style="display:inline;fill:#ffffff;fill-rule:evenodd"
       d="m 8,14 v -1 h 1 v 1 z" />
    <path
       id="rect2-2-23-0487-50"
       style="display:inline;fill:#ffffff;fill-rule:evenodd"
       d="m 9,14 v -1 h 1 v 1 z" />
    <path
       id="rect2-2-23-0487-230"
       style="display:inline;fill:#ffffff;fill-rule:evenodd"
       d="m 9,16 v -1 h 1 v 1 z" />
    <path
       id="rect2-2-23-0487-69"
       style="display:inline;fill:#ffffff;fill-rule:evenodd"
       d="m 8,16 v -1 h 1 v 1 z" />
    <path
       id="rect2-2-23-0487-089"
       style="display:inline;fill:#ffffff;fill-rule:evenodd"
       d="m 7,16 v -1 h 1 v 1 z" />
    <path
       id="rect2-2-23-0487-370"
       style="display:inline;fill:#ffffff;fill-rule:evenodd"
       d="m 6,16 v -1 h 1 v 1 z" />
    <path
       id="rect2-2-23-0487-177"
       style="display:inline;fill:#ffffff;fill-rule:evenodd"
       d="m 10,15 v -1 h 1 v 1 z" />
    <path
       id="rect2-2-23-0487-271"
       style="display:inline;fill:#ffffff;fill-rule:evenodd"
       d="m 11,15 v -1 h 1 v 1 z" />
    <path
       id="rect2-2-23-0487-45"
       style="display:inline;fill:#ffffff;fill-rule:evenodd"
       d="m 11,13 v -1 h 1 v 1 z" />
    <path
       id="rect2-2-23-0487-84"
       style="display:inline;fill:#ffffff;fill-rule:evenodd"
       d="m 10,13 v -1 h 1 v 1 z" />
    <path
       id="rect2-2-23-0487-87"
       style="display:inline;fill:#ffffff;fill-rule:evenodd"
       d="m 12,12 v -1 h 1 v 1 z" />
    <path
       id="rect2-2-23-0487-505"
       style="display:inline;fill:#ffffff;fill-rule:evenodd"
       d="m 13,13 v -1 h 1 v 1 z" />
    <path
       id="rect2-2-23-0487-72"
       style="display:inline;fill:#ffffff;fill-rule:evenodd"
       d="m 12,14 v -1 h 1 v 1 z" />
    <path
       id="rect2-2-23-0487-94"
       style="display:inline;fill:#ffffff;fill-rule:evenodd"
       d="m 13,12 v -1 h 1 v 1 z" />
    <path
       id="rect2-2-23-0487-74"
       style="display:inline;fill:#ffffff;fill-rule:evenodd"
       d="m 13,11 v -1 h 1 v 1 z" />
    <path
       id="rect2-2-23-0487-28"
       style="display:inline;fill:#ffffff;fill-rule:evenodd"
       d="m 14,11 v -1 h 1 v 1 z" />
    <path
       id="rect2-2-23-0487-640"
       style="display:inline;fill:#ffffff;fill-rule:evenodd"
       d="m 14,12 v -1 h 1 v 1 z" />
    <path
       id="rect2-2-23-0487-46"
       style="display:inline;fill:#ffffff;fill-rule:evenodd"
       d="M 14,10 V 9 h 1 v 1 z" />
    <path
       id="rect2-2-23-0487-95"
       style="display:inline;fill:#ffffff;fill-rule:evenodd"
       d="M 13,10 V 9 h 1 v 1 z" />
  </g>
</svg>
