<?xml version="1.0" encoding="UTF-8" standalone="no"?>
<!-- Created with Inkscape (http://www.inkscape.org/) -->

<svg
   width="16"
   height="16"
   viewBox="0 0 16 16"
   version="1.1"
   id="svg1"
   inkscape:version="1.3.2 (091e20ef0f, 2023-11-25)"
   sodipodi:docname="folder-home-symbolic.svg"
   xmlns:inkscape="http://www.inkscape.org/namespaces/inkscape"
   xmlns:sodipodi="http://sodipodi.sourceforge.net/DTD/sodipodi-0.dtd"
   xmlns="http://www.w3.org/2000/svg"
   xmlns:svg="http://www.w3.org/2000/svg">
  <sodipodi:namedview
     id="namedview1"
     pagecolor="#14fd2f"
     bordercolor="#000000"
     borderopacity="0.25"
     inkscape:showpageshadow="2"
     inkscape:pageopacity="0.0"
     inkscape:pagecheckerboard="0"
     inkscape:deskcolor="#d1d1d1"
     inkscape:document-units="px"
     showgrid="true"
     inkscape:zoom="45.254834"
     inkscape:cx="7.6787377"
     inkscape:cy="5.1707183"
     inkscape:window-width="1390"
     inkscape:window-height="1392"
     inkscape:window-x="0"
     inkscape:window-y="0"
     inkscape:window-maximized="0"
     inkscape:current-layer="layer2">
    <inkscape:grid
       id="grid1"
       units="px"
       originx="0"
       originy="0"
       spacingx="1"
       spacingy="1"
       empcolor="#0099e5"
       empopacity="0.30196078"
       color="#0099e5"
       opacity="0.14901961"
       empspacing="1"
       dotted="false"
       gridanglex="30"
       gridanglez="30"
       visible="true" />
  </sodipodi:namedview>
  <defs
     id="defs1" />
  <g
     inkscape:groupmode="layer"
     id="layer2"
     inkscape:label="user-home"
     transform="translate(0,-1)">
    <path
       id="rect2-2-15-5"
       style="display:inline;fill:#ffffff;fill-rule:evenodd"
       d="m 6,14 h 1 v 1 H 6 Z" />
    <path
       id="rect2-2-15-2"
       style="display:inline;fill:#ffffff;fill-rule:evenodd"
       d="m 7,14 h 1 v 1 H 7 Z" />
    <path
       id="rect2-2-15-7"
       style="display:inline;fill:#ffffff;fill-rule:evenodd"
       d="m 8,14 h 1 v 1 H 8 Z" />
    <path
       id="rect2-2-15-6"
       style="display:inline;fill:#ffffff;fill-rule:evenodd"
       d="m 9,14 h 1 v 1 H 9 Z" />
    <path
       id="rect2-2-15-61"
       style="display:inline;fill:#ffffff;fill-rule:evenodd"
       d="m 10,14 h 1 v 1 h -1 z" />
    <path
       id="rect2-2-15-20"
       style="display:inline;fill:#ffffff;fill-rule:evenodd"
       d="m 5,14 h 1 v 1 H 5 Z" />
    <path
       id="rect2-2-15-59"
       style="display:inline;fill:#ffffff;fill-rule:evenodd"
       d="m 4,14 h 1 v 1 H 4 Z" />
    <path
       id="rect2-2-15-9"
       style="display:inline;fill:#ffffff;fill-rule:evenodd"
       d="m 11,14 h 1 v 1 h -1 z" />
    <path
       id="rect2-2-15-1"
       style="display:inline;fill:#ffffff;fill-rule:evenodd"
       d="m 4,13 h 1 v 1 H 4 Z" />
    <path
       id="rect2-2-15-19"
       style="display:inline;fill:#ffffff;fill-rule:evenodd"
       d="m 4,12 h 1 v 1 H 4 Z" />
    <path
       id="rect2-2-15-4"
       style="display:inline;fill:#ffffff;fill-rule:evenodd"
       d="m 4,11 h 1 v 1 H 4 Z" />
    <path
       id="rect2-2-15-610"
       style="display:inline;fill:#ffffff;fill-rule:evenodd"
       d="m 4,10 h 1 v 1 H 4 Z" />
    <path
       id="rect2-2-15-0"
       style="display:inline;fill:#ffffff;fill-rule:evenodd"
       d="m 4,9 h 1 v 1 H 4 Z" />
    <path
       id="rect2-2-15-54"
       style="display:inline;fill:#ffffff;fill-rule:evenodd"
       d="m 3,9 h 1 v 1 H 3 Z" />
    <path
       id="rect2-2-15-69"
       style="display:inline;fill:#ffffff;fill-rule:evenodd"
       d="m 2,9 h 1 v 1 H 2 Z" />
    <path
       id="rect2-2-15-52"
       style="display:inline;fill:#ffffff;fill-rule:evenodd"
       d="m 11,13 h 1 v 1 h -1 z" />
    <path
       id="rect2-2-15-44"
       style="display:inline;fill:#ffffff;fill-rule:evenodd"
       d="m 11,12 h 1 v 1 h -1 z" />
    <path
       id="rect2-2-15-8"
       style="display:inline;fill:#ffffff;fill-rule:evenodd"
       d="m 11,11 h 1 v 1 h -1 z" />
    <path
       id="rect2-2-15-43"
       style="display:inline;fill:#ffffff;fill-rule:evenodd"
       d="m 11,10 h 1 v 1 h -1 z" />
    <path
       id="rect2-2-15-206"
       style="display:inline;fill:#ffffff;fill-rule:evenodd"
       d="m 11,9 h 1 v 1 h -1 z" />
    <path
       id="rect2-2-15-66"
       style="display:inline;fill:#ffffff;fill-rule:evenodd"
       d="m 12,9 h 1 v 1 h -1 z" />
    <path
       id="rect2-2-15-04"
       style="display:inline;fill:#ffffff;fill-rule:evenodd"
       d="m 13,9 h 1 v 1 h -1 z" />
    <path
       id="rect2-2-15-6106"
       style="display:inline;fill:#ffffff;fill-rule:evenodd"
       d="m 12,8 h 1 v 1 h -1 z" />
    <path
       id="rect2-2-15-49"
       style="display:inline;fill:#ffffff;fill-rule:evenodd"
       d="m 11,7 h 1 v 1 h -1 z" />
    <path
       id="rect2-2-15-77"
       style="display:inline;fill:#ffffff;fill-rule:evenodd"
       d="m 10,6 h 1 v 1 h -1 z" />
    <path
       id="rect2-2-15-97"
       style="display:inline;fill:#ffffff;fill-rule:evenodd"
       d="m 9,5 h 1 V 6 H 9 Z" />
    <path
       id="rect2-2-15-3"
       style="display:inline;fill:#ffffff;fill-rule:evenodd"
       d="M 8,4 H 9 V 5 H 8 Z" />
    <path
       id="rect2-2-15-39"
       style="display:inline;fill:#ffffff;fill-rule:evenodd"
       d="M 3,8 H 4 V 9 H 3 Z" />
    <path
       id="rect2-2-15-29"
       style="display:inline;fill:#ffffff;fill-rule:evenodd"
       d="M 4,7 H 5 V 8 H 4 Z" />
    <path
       id="rect2-2-15-88"
       style="display:inline;fill:#ffffff;fill-rule:evenodd"
       d="M 5,6 H 6 V 7 H 5 Z" />
    <path
       id="rect2-2-15-63"
       style="display:inline;fill:#ffffff;fill-rule:evenodd"
       d="M 6,5 H 7 V 6 H 6 Z" />
    <path
       id="rect2-2-15-11"
       style="display:inline;fill:#ffffff;fill-rule:evenodd"
       d="M 7,4 H 8 V 5 H 7 Z" />
    <path
       id="rect2-2-15-48"
       style="display:inline;fill:#ffffff;fill-rule:evenodd"
       d="M 7,5 H 8 V 6 H 7 Z" />
    <path
       id="rect2-2-15-044"
       style="display:inline;fill:#ffffff;fill-rule:evenodd"
       d="M 8,5 H 9 V 6 H 8 Z" />
    <path
       id="rect2-2-15-631"
       style="display:inline;fill:#ffffff;fill-rule:evenodd"
       d="M 7,6 H 8 V 7 H 7 Z" />
    <path
       id="rect2-2-15-62"
       style="display:inline;fill:#ffffff;fill-rule:evenodd"
       d="M 8,6 H 9 V 7 H 8 Z" />
    <path
       id="rect2-2-15-57"
       style="display:inline;fill:#ffffff;fill-rule:evenodd"
       d="m 9,6 h 1 V 7 H 9 Z" />
    <path
       id="rect2-2-15-597"
       style="display:inline;fill:#ffffff;fill-rule:evenodd"
       d="M 8,7 H 9 V 8 H 8 Z" />
    <path
       id="rect2-2-15-83"
       style="display:inline;fill:#ffffff;fill-rule:evenodd"
       d="M 7,7 H 8 V 8 H 7 Z" />
    <path
       id="rect2-2-15-64"
       style="display:inline;fill:#ffffff;fill-rule:evenodd"
       d="M 6,6 H 7 V 7 H 6 Z" />
    <path
       id="rect2-2-15-86"
       style="display:inline;fill:#ffffff;fill-rule:evenodd"
       d="M 5,7 H 6 V 8 H 5 Z" />
    <path
       id="rect2-2-15-889"
       style="display:inline;fill:#ffffff;fill-rule:evenodd"
       d="M 6,7 H 7 V 8 H 6 Z" />
    <path
       id="rect2-2-15-430"
       style="display:inline;fill:#ffffff;fill-rule:evenodd"
       d="M 4,8 H 5 V 9 H 4 Z" />
    <path
       id="rect2-2-15-25"
       style="display:inline;fill:#ffffff;fill-rule:evenodd"
       d="M 5,8 H 6 V 9 H 5 Z" />
    <path
       id="rect2-2-15-94"
       style="display:inline;fill:#ffffff;fill-rule:evenodd"
       d="M 6,8 H 7 V 9 H 6 Z" />
    <path
       id="rect2-2-15-24"
       style="display:inline;fill:#ffffff;fill-rule:evenodd"
       d="M 7,8 H 8 V 9 H 7 Z" />
    <path
       id="rect2-2-15-481"
       style="display:inline;fill:#ffffff;fill-rule:evenodd"
       d="M 8,8 H 9 V 9 H 8 Z" />
    <path
       id="rect2-2-15-36"
       style="display:inline;fill:#ffffff;fill-rule:evenodd"
       d="m 9,7 h 1 V 8 H 9 Z" />
    <path
       id="rect2-2-15-10"
       style="display:inline;fill:#ffffff;fill-rule:evenodd"
       d="m 10,7 h 1 v 1 h -1 z" />
    <path
       id="rect2-2-15-08"
       style="display:inline;fill:#ffffff;fill-rule:evenodd"
       d="m 10,8 h 1 v 1 h -1 z" />
    <path
       id="rect2-2-15-46"
       style="display:inline;fill:#ffffff;fill-rule:evenodd"
       d="m 11,8 h 1 v 1 h -1 z" />
    <path
       id="rect2-2-15-628"
       style="display:inline;fill:#ffffff;fill-rule:evenodd"
       d="m 9,8 h 1 V 9 H 9 Z" />
    <path
       id="rect2-2-15-110"
       style="display:inline;fill:#ffffff;fill-rule:evenodd"
       d="m 5,9 h 1 v 1 H 5 Z" />
    <path
       id="rect2-2-15-391"
       style="display:inline;fill:#ffffff;fill-rule:evenodd"
       d="m 6,9 h 1 v 1 H 6 Z" />
    <path
       id="rect2-2-15-33"
       style="display:inline;fill:#ffffff;fill-rule:evenodd"
       d="m 7,9 h 1 v 1 H 7 Z" />
    <path
       id="rect2-2-15-664"
       style="display:inline;fill:#ffffff;fill-rule:evenodd"
       d="m 8,9 h 1 v 1 H 8 Z" />
    <path
       id="rect2-2-15-626"
       style="display:inline;fill:#ffffff;fill-rule:evenodd"
       d="m 9,9 h 1 v 1 H 9 Z" />
    <path
       id="rect2-2-15-299"
       style="display:inline;fill:#ffffff;fill-rule:evenodd"
       d="m 10,9 h 1 v 1 h -1 z" />
    <path
       id="rect2-2-15-76"
       style="display:inline;fill:#ffffff;fill-rule:evenodd"
       d="m 10,10 h 1 v 1 h -1 z" />
    <path
       id="rect2-2-15-15"
       style="display:inline;fill:#ffffff;fill-rule:evenodd"
       d="m 9,10 h 1 v 1 H 9 Z" />
    <path
       id="rect2-2-15-491"
       style="display:inline;fill:#ffffff;fill-rule:evenodd"
       d="m 8,10 h 1 v 1 H 8 Z" />
    <path
       id="rect2-2-15-87"
       style="display:inline;fill:#ffffff;fill-rule:evenodd"
       d="m 7,10 h 1 v 1 H 7 Z" />
    <path
       id="rect2-2-15-042"
       style="display:inline;fill:#ffffff;fill-rule:evenodd"
       d="m 6,10 h 1 v 1 H 6 Z" />
    <path
       id="rect2-2-15-0422"
       style="display:inline;fill:#ffffff;fill-rule:evenodd"
       d="m 5,10 h 1 v 1 H 5 Z" />
    <path
       id="rect2-2-15-529"
       style="display:inline;fill:#ffffff;fill-rule:evenodd"
       d="m 5,11 h 1 v 1 H 5 Z" />
    <path
       id="rect2-2-15-38"
       style="display:inline;fill:#ffffff;fill-rule:evenodd"
       d="m 6,11 h 1 v 1 H 6 Z" />
    <path
       id="rect2-2-15-91"
       style="display:inline;fill:#ffffff;fill-rule:evenodd"
       d="m 7,11 h 1 v 1 H 7 Z" />
    <path
       id="rect2-2-15-544"
       style="display:inline;fill:#ffffff;fill-rule:evenodd"
       d="m 8,11 h 1 v 1 H 8 Z" />
    <path
       id="rect2-2-15-60"
       style="display:inline;fill:#ffffff;fill-rule:evenodd"
       d="m 9,11 h 1 v 1 H 9 Z" />
    <path
       id="rect2-2-15-943"
       style="display:inline;fill:#ffffff;fill-rule:evenodd"
       d="m 10,11 h 1 v 1 h -1 z" />
    <path
       id="rect2-2-15-431"
       style="display:inline;fill:#ffffff;fill-rule:evenodd"
       d="m 10,12 h 1 v 1 h -1 z" />
    <path
       id="rect2-2-15-42"
       style="display:inline;fill:#ffffff;fill-rule:evenodd"
       d="m 9,12 h 1 v 1 H 9 Z" />
    <path
       id="rect2-2-15-12"
       style="display:inline;fill:#ffffff;fill-rule:evenodd"
       d="m 8,12 h 1 v 1 H 8 Z" />
    <path
       id="rect2-2-15-28"
       style="display:inline;fill:#ffffff;fill-rule:evenodd"
       d="m 7,12 h 1 v 1 H 7 Z" />
    <path
       id="rect2-2-15-838"
       style="display:inline;fill:#ffffff;fill-rule:evenodd"
       d="m 6,12 h 1 v 1 H 6 Z" />
    <path
       id="rect2-2-15-80"
       style="display:inline;fill:#ffffff;fill-rule:evenodd"
       d="m 5,12 h 1 v 1 H 5 Z" />
    <path
       id="rect2-2-15-89"
       style="display:inline;fill:#ffffff;fill-rule:evenodd"
       d="m 5,13 h 1 v 1 H 5 Z" />
    <path
       id="rect2-2-15-79"
       style="display:inline;fill:#ffffff;fill-rule:evenodd"
       d="m 6,13 h 1 v 1 H 6 Z" />
    <path
       id="rect2-2-15-37"
       style="display:inline;fill:#ffffff;fill-rule:evenodd"
       d="m 7,13 h 1 v 1 H 7 Z" />
    <path
       id="rect2-2-15-526"
       style="display:inline;fill:#ffffff;fill-rule:evenodd"
       d="m 8,13 h 1 v 1 H 8 Z" />
    <path
       id="rect2-2-15-96"
       style="display:inline;fill:#ffffff;fill-rule:evenodd"
       d="m 9,13 h 1 v 1 H 9 Z" />
    <path
       id="rect2-2-15-048"
       style="display:inline;fill:#ffffff;fill-rule:evenodd"
       d="m 10,13 h 1 v 1 h -1 z" />
  </g>
</svg>
