<?xml version="1.0" encoding="UTF-8" standalone="no"?>
<!-- Created with Inkscape (http://www.inkscape.org/) -->

<svg
   width="16"
   height="16"
   viewBox="0 0 16 16"
   version="1.1"
   id="svg1"
   inkscape:version="1.3.2 (091e20ef0f, 2023-11-25)"
   sodipodi:docname="folder-videos-symbolic.svg"
   xmlns:inkscape="http://www.inkscape.org/namespaces/inkscape"
   xmlns:sodipodi="http://sodipodi.sourceforge.net/DTD/sodipodi-0.dtd"
   xmlns="http://www.w3.org/2000/svg"
   xmlns:svg="http://www.w3.org/2000/svg">
  <sodipodi:namedview
     id="namedview1"
     pagecolor="#00e927"
     bordercolor="#000000"
     borderopacity="0.25"
     inkscape:showpageshadow="2"
     inkscape:pageopacity="0.0"
     inkscape:pagecheckerboard="0"
     inkscape:deskcolor="#d1d1d1"
     inkscape:document-units="px"
     showgrid="true"
     inkscape:zoom="32"
     inkscape:cx="5.734375"
     inkscape:cy="4.125"
     inkscape:window-width="1261"
     inkscape:window-height="1392"
     inkscape:window-x="0"
     inkscape:window-y="0"
     inkscape:window-maximized="0"
     inkscape:current-layer="layer7">
    <inkscape:grid
       id="grid1"
       units="px"
       originx="0"
       originy="0"
       spacingx="1"
       spacingy="1"
       empcolor="#0099e5"
       empopacity="0.30196078"
       color="#0099e5"
       opacity="0.14901961"
       empspacing="1"
       dotted="false"
       gridanglex="30"
       gridanglez="30"
       visible="true" />
  </sodipodi:namedview>
  <defs
     id="defs1" />
  <g
     inkscape:groupmode="layer"
     id="layer7"
     inkscape:label="videos">
    <path
       id="rect2-2-23-0487-374-81-65"
       style="display:inline;fill:#ffffff;fill-rule:evenodd"
       d="M 3,2 V 1 H 2 v 1 z" />
    <path
       id="rect2-2-23-0487-374-81-65-9"
       style="display:inline;fill:#ffffff;fill-rule:evenodd"
       d="M 3,3 V 2 H 2 v 1 z" />
    <path
       id="rect2-2-23-0487-374-81-65-5"
       style="display:inline;fill:#ffffff;fill-rule:evenodd"
       d="M 3,4 V 3 H 2 v 1 z" />
    <path
       id="rect2-2-23-0487-374-81-65-3"
       style="display:inline;fill:#ffffff;fill-rule:evenodd"
       d="M 3,5 V 4 H 2 v 1 z" />
    <path
       id="rect2-2-23-0487-374-81-65-7"
       style="display:inline;fill:#ffffff;fill-rule:evenodd"
       d="M 3,6 V 5 H 2 v 1 z" />
    <path
       id="rect2-2-23-0487-374-81-65-6"
       style="display:inline;fill:#ffffff;fill-rule:evenodd"
       d="M 3,7 V 6 H 2 v 1 z" />
    <path
       id="rect2-2-23-0487-374-81-65-8"
       style="display:inline;fill:#ffffff;fill-rule:evenodd"
       d="M 3,8 V 7 H 2 v 1 z" />
    <path
       id="rect2-2-23-0487-374-81-65-74"
       style="display:inline;fill:#ffffff;fill-rule:evenodd"
       d="M 3,9 V 8 H 2 v 1 z" />
    <path
       id="rect2-2-23-0487-374-81-65-2"
       style="display:inline;fill:#ffffff;fill-rule:evenodd"
       d="M 3,10 V 9 H 2 v 1 z" />
    <path
       id="rect2-2-23-0487-374-81-65-20"
       style="display:inline;fill:#ffffff;fill-rule:evenodd"
       d="M 3,11 V 10 H 2 v 1 z" />
    <path
       id="rect2-2-23-0487-374-81-65-23"
       style="display:inline;fill:#ffffff;fill-rule:evenodd"
       d="M 3,12 V 11 H 2 v 1 z" />
    <path
       id="rect2-2-23-0487-374-81-65-24"
       style="display:inline;fill:#ffffff;fill-rule:evenodd"
       d="M 3,13 V 12 H 2 v 1 z" />
    <path
       id="rect2-2-23-0487-374-81-65-68"
       style="display:inline;fill:#ffffff;fill-rule:evenodd"
       d="M 3,14 V 13 H 2 v 1 z" />
    <path
       id="rect2-2-23-0487-374-81-65-83"
       style="display:inline;fill:#ffffff;fill-rule:evenodd"
       d="M 3,15 V 14 H 2 v 1 z" />
    <path
       id="rect2-2-23-0487-374-81-65-747"
       style="display:inline;fill:#ffffff;fill-rule:evenodd"
       d="m 14,15 v -1 h -1 v 1 z" />
    <path
       id="rect2-2-23-0487-374-81-65-76"
       style="display:inline;fill:#ffffff;fill-rule:evenodd"
       d="m 14,14 v -1 h -1 v 1 z" />
    <path
       id="rect2-2-23-0487-374-81-65-32"
       style="display:inline;fill:#ffffff;fill-rule:evenodd"
       d="m 14,13 v -1 h -1 v 1 z" />
    <path
       id="rect2-2-23-0487-374-81-65-52"
       style="display:inline;fill:#ffffff;fill-rule:evenodd"
       d="m 14,12 v -1 h -1 v 1 z" />
    <path
       id="rect2-2-23-0487-374-81-65-1"
       style="display:inline;fill:#ffffff;fill-rule:evenodd"
       d="m 14,11 v -1 h -1 v 1 z" />
    <path
       id="rect2-2-23-0487-374-81-65-93"
       style="display:inline;fill:#ffffff;fill-rule:evenodd"
       d="M 14,10 V 9 h -1 v 1 z" />
    <path
       id="rect2-2-23-0487-374-81-65-86"
       style="display:inline;fill:#ffffff;fill-rule:evenodd"
       d="M 14,9 V 8 h -1 v 1 z" />
    <path
       id="rect2-2-23-0487-374-81-65-0"
       style="display:inline;fill:#ffffff;fill-rule:evenodd"
       d="M 14,8 V 7 h -1 v 1 z" />
    <path
       id="rect2-2-23-0487-374-81-65-28"
       style="display:inline;fill:#ffffff;fill-rule:evenodd"
       d="M 14,7 V 6 h -1 v 1 z" />
    <path
       id="rect2-2-23-0487-374-81-65-15"
       style="display:inline;fill:#ffffff;fill-rule:evenodd"
       d="M 14,6 V 5 h -1 v 1 z" />
    <path
       id="rect2-2-23-0487-374-81-65-71"
       style="display:inline;fill:#ffffff;fill-rule:evenodd"
       d="M 14,5 V 4 h -1 v 1 z" />
    <path
       id="rect2-2-23-0487-374-81-65-39"
       style="display:inline;fill:#ffffff;fill-rule:evenodd"
       d="M 14,4 V 3 h -1 v 1 z" />
    <path
       id="rect2-2-23-0487-374-81-65-36"
       style="display:inline;fill:#ffffff;fill-rule:evenodd"
       d="M 14,3 V 2 h -1 v 1 z" />
    <path
       id="rect2-2-23-0487-374-81-65-70"
       style="display:inline;fill:#ffffff;fill-rule:evenodd"
       d="M 14,2 V 1 h -1 v 1 z" />
    <path
       id="rect2-2-23-0487-374-81-65-04"
       style="display:inline;fill:#ffffff;fill-rule:evenodd"
       d="M 12,2 V 1 h -1 v 1 z" />
    <path
       id="rect2-2-23-0487-374-81-65-19"
       style="display:inline;fill:#ffffff;fill-rule:evenodd"
       d="M 12,3 V 2 h -1 v 1 z" />
    <path
       id="rect2-2-23-0487-374-81-65-91"
       style="display:inline;fill:#ffffff;fill-rule:evenodd"
       d="M 12,4 V 3 h -1 v 1 z" />
    <path
       id="rect2-2-23-0487-374-81-65-79"
       style="display:inline;fill:#ffffff;fill-rule:evenodd"
       d="M 12,5 V 4 h -1 v 1 z" />
    <path
       id="rect2-2-23-0487-374-81-65-75"
       style="display:inline;fill:#ffffff;fill-rule:evenodd"
       d="M 12,6 V 5 h -1 v 1 z" />
    <path
       id="rect2-2-23-0487-374-81-65-69"
       style="display:inline;fill:#ffffff;fill-rule:evenodd"
       d="M 12,7 V 6 h -1 v 1 z" />
    <path
       id="rect2-2-23-0487-374-81-65-685"
       style="display:inline;fill:#ffffff;fill-rule:evenodd"
       d="M 12,8 V 7 h -1 v 1 z" />
    <path
       id="rect2-2-23-0487-374-81-65-07"
       style="display:inline;fill:#ffffff;fill-rule:evenodd"
       d="M 12,9 V 8 h -1 v 1 z" />
    <path
       id="rect2-2-23-0487-374-81-65-78"
       style="display:inline;fill:#ffffff;fill-rule:evenodd"
       d="M 12,10 V 9 h -1 v 1 z" />
    <path
       id="rect2-2-23-0487-374-81-65-85"
       style="display:inline;fill:#ffffff;fill-rule:evenodd"
       d="m 12,11 v -1 h -1 v 1 z" />
    <path
       id="rect2-2-23-0487-374-81-65-791"
       style="display:inline;fill:#ffffff;fill-rule:evenodd"
       d="m 12,12 v -1 h -1 v 1 z" />
    <path
       id="rect2-2-23-0487-374-81-65-699"
       style="display:inline;fill:#ffffff;fill-rule:evenodd"
       d="m 12,13 v -1 h -1 v 1 z" />
    <path
       id="rect2-2-23-0487-374-81-65-365"
       style="display:inline;fill:#ffffff;fill-rule:evenodd"
       d="m 12,14 v -1 h -1 v 1 z" />
    <path
       id="rect2-2-23-0487-374-81-65-06"
       style="display:inline;fill:#ffffff;fill-rule:evenodd"
       d="m 12,15 v -1 h -1 v 1 z" />
    <path
       id="rect2-2-23-0487-374-81-65-65"
       style="display:inline;fill:#ffffff;fill-rule:evenodd"
       d="M 5,15 V 14 H 4 v 1 z" />
    <path
       id="rect2-2-23-0487-374-81-65-88"
       style="display:inline;fill:#ffffff;fill-rule:evenodd"
       d="M 5,14 V 13 H 4 v 1 z" />
    <path
       id="rect2-2-23-0487-374-81-65-02"
       style="display:inline;fill:#ffffff;fill-rule:evenodd"
       d="M 5,13 V 12 H 4 v 1 z" />
    <path
       id="rect2-2-23-0487-374-81-65-38"
       style="display:inline;fill:#ffffff;fill-rule:evenodd"
       d="M 5,12 V 11 H 4 v 1 z" />
    <path
       id="rect2-2-23-0487-374-81-65-61"
       style="display:inline;fill:#ffffff;fill-rule:evenodd"
       d="M 5,11 V 10 H 4 v 1 z" />
    <path
       id="rect2-2-23-0487-374-81-65-01"
       style="display:inline;fill:#ffffff;fill-rule:evenodd"
       d="M 5,10 V 9 H 4 v 1 z" />
    <path
       id="rect2-2-23-0487-374-81-65-4"
       style="display:inline;fill:#ffffff;fill-rule:evenodd"
       d="M 5,9 V 8 H 4 v 1 z" />
    <path
       id="rect2-2-23-0487-374-81-65-94"
       style="display:inline;fill:#ffffff;fill-rule:evenodd"
       d="M 5,8 V 7 H 4 v 1 z" />
    <path
       id="rect2-2-23-0487-374-81-65-99"
       style="display:inline;fill:#ffffff;fill-rule:evenodd"
       d="M 5,7 V 6 H 4 v 1 z" />
    <path
       id="rect2-2-23-0487-374-81-65-25"
       style="display:inline;fill:#ffffff;fill-rule:evenodd"
       d="M 5,6 V 5 H 4 v 1 z" />
    <path
       id="rect2-2-23-0487-374-81-65-014"
       style="display:inline;fill:#ffffff;fill-rule:evenodd"
       d="M 5,5 V 4 H 4 v 1 z" />
    <path
       id="rect2-2-23-0487-374-81-65-57"
       style="display:inline;fill:#ffffff;fill-rule:evenodd"
       d="M 5,4 V 3 H 4 v 1 z" />
    <path
       id="rect2-2-23-0487-374-81-65-207"
       style="display:inline;fill:#ffffff;fill-rule:evenodd"
       d="M 5,3 V 2 H 4 v 1 z" />
    <path
       id="rect2-2-23-0487-374-81-65-81"
       style="display:inline;fill:#ffffff;fill-rule:evenodd"
       d="M 5,2 V 1 H 4 v 1 z" />
    <path
       id="rect2-2-23-0487-374-81-65-72"
       style="display:inline;fill:#ffffff;fill-rule:evenodd"
       d="M 4,2 V 1 H 3 v 1 z" />
    <path
       id="rect2-2-23-0487-374-81-65-47"
       style="display:inline;fill:#ffffff;fill-rule:evenodd"
       d="M 13,2 V 1 h -1 v 1 z" />
    <path
       id="rect2-2-23-0487-374-81-65-16"
       style="display:inline;fill:#ffffff;fill-rule:evenodd"
       d="M 13,4 V 3 h -1 v 1 z" />
    <path
       id="rect2-2-23-0487-374-81-65-859"
       style="display:inline;fill:#ffffff;fill-rule:evenodd"
       d="M 4,4 V 3 H 3 v 1 z" />
    <path
       id="rect2-2-23-0487-374-81-65-477"
       style="display:inline;fill:#ffffff;fill-rule:evenodd"
       d="M 4,6 V 5 H 3 v 1 z" />
    <path
       id="rect2-2-23-0487-374-81-65-54"
       style="display:inline;fill:#ffffff;fill-rule:evenodd"
       d="M 13,6 V 5 h -1 v 1 z" />
    <path
       id="rect2-2-23-0487-374-81-65-05"
       style="display:inline;fill:#ffffff;fill-rule:evenodd"
       d="M 13,8 V 7 h -1 v 1 z" />
    <path
       id="rect2-2-23-0487-374-81-65-18"
       style="display:inline;fill:#ffffff;fill-rule:evenodd"
       d="M 4,8 V 7 H 3 v 1 z" />
    <path
       id="rect2-2-23-0487-374-81-65-73"
       style="display:inline;fill:#ffffff;fill-rule:evenodd"
       d="M 4,10 V 9 H 3 v 1 z" />
    <path
       id="rect2-2-23-0487-374-81-65-62"
       style="display:inline;fill:#ffffff;fill-rule:evenodd"
       d="M 13,10 V 9 h -1 v 1 z" />
    <path
       id="rect2-2-23-0487-374-81-65-054"
       style="display:inline;fill:#ffffff;fill-rule:evenodd"
       d="m 13,12 v -1 h -1 v 1 z" />
    <path
       id="rect2-2-23-0487-374-81-65-87"
       style="display:inline;fill:#ffffff;fill-rule:evenodd"
       d="M 4,12 V 11 H 3 v 1 z" />
    <path
       id="rect2-2-23-0487-374-81-65-732"
       style="display:inline;fill:#ffffff;fill-rule:evenodd"
       d="M 4,14 V 13 H 3 v 1 z" />
    <path
       id="rect2-2-23-0487-374-81-65-575"
       style="display:inline;fill:#ffffff;fill-rule:evenodd"
       d="m 13,14 v -1 h -1 v 1 z" />
    <path
       id="rect2-2-23-0487-374-81-65-0541"
       style="display:inline;fill:#ffffff;fill-rule:evenodd"
       d="M 6,12 V 11 H 5 v 1 z" />
    <path
       id="rect2-2-23-0487-374-81-65-519"
       style="display:inline;fill:#ffffff;fill-rule:evenodd"
       d="M 7,12 V 11 H 6 v 1 z" />
    <path
       id="rect2-2-23-0487-374-81-65-90"
       style="display:inline;fill:#ffffff;fill-rule:evenodd"
       d="M 8,12 V 11 H 7 v 1 z" />
    <path
       id="rect2-2-23-0487-374-81-65-66"
       style="display:inline;fill:#ffffff;fill-rule:evenodd"
       d="M 9,12 V 11 H 8 v 1 z" />
    <path
       id="rect2-2-23-0487-374-81-65-92"
       style="display:inline;fill:#ffffff;fill-rule:evenodd"
       d="M 10,12 V 11 H 9 v 1 z" />
    <path
       id="rect2-2-23-0487-374-81-65-627"
       style="display:inline;fill:#ffffff;fill-rule:evenodd"
       d="m 11,12 v -1 h -1 v 1 z" />
    <path
       id="rect2-2-23-0487-374-81-65-718"
       style="display:inline;fill:#ffffff;fill-rule:evenodd"
       d="M 6,5 V 4 H 5 v 1 z" />
    <path
       id="rect2-2-23-0487-374-81-65-786"
       style="display:inline;fill:#ffffff;fill-rule:evenodd"
       d="M 7,5 V 4 H 6 v 1 z" />
    <path
       id="rect2-2-23-0487-374-81-65-185"
       style="display:inline;fill:#ffffff;fill-rule:evenodd"
       d="M 8,5 V 4 H 7 v 1 z" />
    <path
       id="rect2-2-23-0487-374-81-65-17"
       style="display:inline;fill:#ffffff;fill-rule:evenodd"
       d="M 9,5 V 4 H 8 v 1 z" />
    <path
       id="rect2-2-23-0487-374-81-65-30"
       style="display:inline;fill:#ffffff;fill-rule:evenodd"
       d="M 10,5 V 4 H 9 v 1 z" />
    <path
       id="rect2-2-23-0487-374-81-65-82"
       style="display:inline;fill:#ffffff;fill-rule:evenodd"
       d="M 11,5 V 4 h -1 v 1 z" />
  </g>
</svg>
