<?xml version="1.0" encoding="UTF-8" standalone="no"?>
<!-- Created with Inkscape (http://www.inkscape.org/) -->

<svg
   width="16"
   height="16"
   viewBox="0 0 16 16"
   version="1.1"
   id="svg1"
   inkscape:version="1.3.2 (091e20ef0f, 2023-11-25)"
   sodipodi:docname="start-here-symbolic.svg"
   xmlns:inkscape="http://www.inkscape.org/namespaces/inkscape"
   xmlns:sodipodi="http://sodipodi.sourceforge.net/DTD/sodipodi-0.dtd"
   xmlns="http://www.w3.org/2000/svg"
   xmlns:svg="http://www.w3.org/2000/svg">
  <sodipodi:namedview
     id="namedview1"
     pagecolor="#00bd0e"
     bordercolor="#000000"
     borderopacity="0.25"
     inkscape:showpageshadow="2"
     inkscape:pageopacity="0.0"
     inkscape:pagecheckerboard="0"
     inkscape:deskcolor="#d1d1d1"
     inkscape:document-units="px"
     showgrid="true"
     inkscape:zoom="32"
     inkscape:cx="5.890625"
     inkscape:cy="12.75"
     inkscape:window-width="1390"
     inkscape:window-height="1392"
     inkscape:window-x="0"
     inkscape:window-y="0"
     inkscape:window-maximized="0"
     inkscape:current-layer="layer1">
    <inkscape:grid
       id="grid1"
       units="px"
       originx="0"
       originy="0"
       spacingx="1"
       spacingy="1"
       empcolor="#0099e5"
       empopacity="0.30196078"
       color="#0099e5"
       opacity="0.14901961"
       empspacing="1"
       dotted="false"
       gridanglex="30"
       gridanglez="30"
       visible="true" />
  </sodipodi:namedview>
  <defs
     id="defs1" />
  <g
     inkscape:groupmode="layer"
     id="layer1"
     inkscape:label="start here">
    <path
       id="rect2-2-776"
       style="display:inline;fill:#ffffff;fill-rule:evenodd"
       d="m 8,15 h 1 v 1 H 8 Z" />
    <path
       id="rect2-2-776-2"
       style="display:inline;fill:#ffffff;fill-rule:evenodd"
       d="m 8,14 h 1 v 1 H 8 Z" />
    <path
       id="rect2-2-776-3"
       style="display:inline;fill:#ffffff;fill-rule:evenodd"
       d="m 8,13 h 1 v 1 H 8 Z" />
    <path
       id="rect2-2-776-26"
       style="display:inline;fill:#ffffff;fill-rule:evenodd"
       d="M 8,0 H 9 V 1 H 8 Z" />
    <path
       id="rect2-2-776-9"
       style="display:inline;fill:#ffffff;fill-rule:evenodd"
       d="M 7,0 H 8 V 1 H 7 Z" />
    <path
       id="rect2-2-776-37"
       style="display:inline;fill:#ffffff;fill-rule:evenodd"
       d="m 9,0 h 1 V 1 H 9 Z" />
    <path
       id="rect2-2-776-31"
       style="display:inline;fill:#ffffff;fill-rule:evenodd"
       d="m 10,1 h 1 v 1 h -1 z" />
    <path
       id="rect2-2-776-8"
       style="display:inline;fill:#ffffff;fill-rule:evenodd"
       d="M 6,1 H 7 V 2 H 6 Z" />
    <path
       id="rect2-2-776-36"
       style="display:inline;fill:#ffffff;fill-rule:evenodd"
       d="M 5,2 H 6 V 3 H 5 Z" />
    <path
       id="rect2-2-776-32"
       style="display:inline;fill:#ffffff;fill-rule:evenodd"
       d="M 5,3 H 6 V 4 H 5 Z" />
    <path
       id="rect2-2-776-5"
       style="display:inline;fill:#ffffff;fill-rule:evenodd"
       d="m 11,2 h 1 v 1 h -1 z" />
    <path
       id="rect2-2-776-6"
       style="display:inline;fill:#ffffff;fill-rule:evenodd"
       d="m 11,3 h 1 v 1 h -1 z" />
    <path
       id="rect2-2-776-374"
       style="display:inline;fill:#ffffff;fill-rule:evenodd"
       d="M 5,4 H 6 V 5 H 5 Z" />
    <path
       id="rect2-2-776-4"
       style="display:inline;fill:#ffffff;fill-rule:evenodd"
       d="m 11,4 h 1 v 1 h -1 z" />
    <path
       id="rect2-2-776-30"
       style="display:inline;fill:#ffffff;fill-rule:evenodd"
       d="M 6,5 H 7 V 6 H 6 Z" />
    <path
       id="rect2-2-776-88"
       style="display:inline;fill:#ffffff;fill-rule:evenodd"
       d="M 7,6 H 8 V 7 H 7 Z" />
    <path
       id="rect2-2-776-49"
       style="display:inline;fill:#ffffff;fill-rule:evenodd"
       d="m 10,5 h 1 v 1 h -1 z" />
    <path
       id="rect2-2-776-89"
       style="display:inline;fill:#ffffff;fill-rule:evenodd"
       d="m 9,6 h 1 V 7 H 9 Z" />
    <path
       id="rect2-2-776-495"
       style="display:inline;fill:#ffffff;fill-rule:evenodd"
       d="M 8,6 H 9 V 7 H 8 Z" />
    <path
       id="rect2-2-776-7"
       style="display:inline;fill:#ffffff;fill-rule:evenodd"
       d="M 8,7 H 9 V 8 H 8 Z" />
    <path
       id="rect2-2-776-72"
       style="display:inline;fill:#ffffff;fill-rule:evenodd"
       d="M 8,8 H 9 V 9 H 8 Z" />
    <path
       id="rect2-2-776-0"
       style="display:inline;fill:#ffffff;fill-rule:evenodd"
       d="m 8,9 h 1 v 1 H 8 Z" />
    <path
       id="rect2-2-776-94"
       style="display:inline;fill:#ffffff;fill-rule:evenodd"
       d="m 8,10 h 1 v 1 H 8 Z" />
    <path
       id="rect2-2-776-1"
       style="display:inline;fill:#ffffff;fill-rule:evenodd"
       d="m 8,11 h 1 v 1 H 8 Z" />
    <path
       id="rect2-2-776-15"
       style="display:inline;fill:#ffffff;fill-rule:evenodd"
       d="m 8,12 h 1 v 1 H 8 Z" />
    <path
       id="rect2-2-776-67"
       style="display:inline;fill:#ffffff;fill-rule:evenodd"
       d="m 9,8 h 1 V 9 H 9 Z" />
    <path
       id="rect2-2-776-63"
       style="display:inline;fill:#ffffff;fill-rule:evenodd"
       d="m 9,9 h 1 v 1 H 9 Z" />
    <path
       id="rect2-2-776-12"
       style="display:inline;fill:#ffffff;fill-rule:evenodd"
       d="M 7,8 H 8 V 9 H 7 Z" />
    <path
       id="rect2-2-776-08"
       style="display:inline;fill:#ffffff;fill-rule:evenodd"
       d="m 7,9 h 1 v 1 H 7 Z" />
    <path
       id="rect2-2-776-96"
       style="display:inline;fill:#ffffff;fill-rule:evenodd"
       d="M 6,7 H 7 V 8 H 6 Z" />
    <path
       id="rect2-2-776-61"
       style="display:inline;fill:#ffffff;fill-rule:evenodd"
       d="M 5,6 H 6 V 7 H 5 Z" />
    <path
       id="rect2-2-776-84"
       style="display:inline;fill:#ffffff;fill-rule:evenodd"
       d="M 4,6 H 5 V 7 H 4 Z" />
    <path
       id="rect2-2-776-304"
       style="display:inline;fill:#ffffff;fill-rule:evenodd"
       d="m 10,7 h 1 v 1 h -1 z" />
    <path
       id="rect2-2-776-76"
       style="display:inline;fill:#ffffff;fill-rule:evenodd"
       d="m 11,6 h 1 v 1 h -1 z" />
    <path
       id="rect2-2-776-59"
       style="display:inline;fill:#ffffff;fill-rule:evenodd"
       d="m 12,6 h 1 v 1 h -1 z" />
    <path
       id="rect2-2-776-78"
       style="display:inline;fill:#ffffff;fill-rule:evenodd"
       d="M 3,6 H 4 V 7 H 3 Z" />
    <path
       id="rect2-2-776-18"
       style="display:inline;fill:#ffffff;fill-rule:evenodd"
       d="m 13,6 h 1 v 1 h -1 z" />
    <path
       id="rect2-2-776-53"
       style="display:inline;fill:#ffffff;fill-rule:evenodd"
       d="m 14,7 h 1 v 1 h -1 z" />
    <path
       id="rect2-2-776-189"
       style="display:inline;fill:#ffffff;fill-rule:evenodd"
       d="m 15,8 h 1 v 1 h -1 z" />
    <path
       id="rect2-2-776-33"
       style="display:inline;fill:#ffffff;fill-rule:evenodd"
       d="M 2,7 H 3 V 8 H 2 Z" />
    <path
       id="rect2-2-776-48"
       style="display:inline;fill:#ffffff;fill-rule:evenodd"
       d="M 1,8 H 2 V 9 H 1 Z" />
    <path
       id="rect2-2-776-03"
       style="display:inline;fill:#ffffff;fill-rule:evenodd"
       d="m 1,9 h 1 v 1 H 1 Z" />
    <path
       id="rect2-2-776-54"
       style="display:inline;fill:#ffffff;fill-rule:evenodd"
       d="m 1,10 h 1 v 1 H 1 Z" />
    <path
       id="rect2-2-776-46"
       style="display:inline;fill:#ffffff;fill-rule:evenodd"
       d="m 15,9 h 1 v 1 h -1 z" />
    <path
       id="rect2-2-776-47"
       style="display:inline;fill:#ffffff;fill-rule:evenodd"
       d="m 15,10 h 1 v 1 h -1 z" />
    <path
       id="rect2-2-776-81"
       style="display:inline;fill:#ffffff;fill-rule:evenodd"
       d="m 14,11 h 1 v 1 h -1 z" />
    <path
       id="rect2-2-776-368"
       style="display:inline;fill:#ffffff;fill-rule:evenodd"
       d="m 13,11 h 1 v 1 h -1 z" />
    <path
       id="rect2-2-776-05"
       style="display:inline;fill:#ffffff;fill-rule:evenodd"
       d="m 12,11 h 1 v 1 h -1 z" />
    <path
       id="rect2-2-776-85"
       style="display:inline;fill:#ffffff;fill-rule:evenodd"
       d="m 10,10 h 1 v 1 h -1 z" />
    <path
       id="rect2-2-776-62"
       style="display:inline;fill:#ffffff;fill-rule:evenodd"
       d="m 11,11 h 1 v 1 h -1 z" />
    <path
       id="rect2-2-776-28"
       style="display:inline;fill:#ffffff;fill-rule:evenodd"
       d="m 6,10 h 1 v 1 H 6 Z" />
    <path
       id="rect2-2-776-40"
       style="display:inline;fill:#ffffff;fill-rule:evenodd"
       d="m 5,11 h 1 v 1 H 5 Z" />
    <path
       id="rect2-2-776-90"
       style="display:inline;fill:#ffffff;fill-rule:evenodd"
       d="m 4,11 h 1 v 1 H 4 Z" />
    <path
       id="rect2-2-776-11"
       style="display:inline;fill:#ffffff;fill-rule:evenodd"
       d="m 2,11 h 1 v 1 H 2 Z" />
    <path
       id="rect2-2-776-039"
       style="display:inline;fill:#ffffff;fill-rule:evenodd"
       d="m 3,11 h 1 v 1 H 3 Z" />
    <path
       id="rect2-2-776-93"
       style="display:inline;fill:#ffffff;fill-rule:evenodd"
       d="M 6,3 H 7 V 4 H 6 Z" />
    <path
       id="rect2-2-776-56"
       style="display:inline;fill:#ffffff;fill-rule:evenodd"
       d="M 6,2 H 7 V 3 H 6 Z" />
    <path
       id="rect2-2-776-04"
       style="display:inline;fill:#ffffff;fill-rule:evenodd"
       d="M 7,1 H 8 V 2 H 7 Z" />
    <path
       id="rect2-2-776-75"
       style="display:inline;fill:#ffffff;fill-rule:evenodd"
       d="M 8,1 H 9 V 2 H 8 Z" />
    <path
       id="rect2-2-776-728"
       style="display:inline;fill:#ffffff;fill-rule:evenodd"
       d="m 9,1 h 1 V 2 H 9 Z" />
    <path
       id="rect2-2-776-60"
       style="display:inline;fill:#ffffff;fill-rule:evenodd"
       d="m 10,2 h 1 v 1 h -1 z" />
    <path
       id="rect2-2-776-13"
       style="display:inline;fill:#ffffff;fill-rule:evenodd"
       d="m 9,2 h 1 V 3 H 9 Z" />
    <path
       id="rect2-2-776-99"
       style="display:inline;fill:#ffffff;fill-rule:evenodd"
       d="M 8,2 H 9 V 3 H 8 Z" />
    <path
       id="rect2-2-776-10"
       style="display:inline;fill:#ffffff;fill-rule:evenodd"
       d="M 7,2 H 8 V 3 H 7 Z" />
    <path
       id="rect2-2-776-70"
       style="display:inline;fill:#ffffff;fill-rule:evenodd"
       d="M 7,3 H 8 V 4 H 7 Z" />
    <path
       id="rect2-2-776-42"
       style="display:inline;fill:#ffffff;fill-rule:evenodd"
       d="M 8,3 H 9 V 4 H 8 Z" />
    <path
       id="rect2-2-776-042"
       style="display:inline;fill:#ffffff;fill-rule:evenodd"
       d="m 9,3 h 1 V 4 H 9 Z" />
    <path
       id="rect2-2-776-55"
       style="display:inline;fill:#ffffff;fill-rule:evenodd"
       d="m 10,3 h 1 v 1 h -1 z" />
    <path
       id="rect2-2-776-283"
       style="display:inline;fill:#ffffff;fill-rule:evenodd"
       d="m 10,4 h 1 v 1 h -1 z" />
    <path
       id="rect2-2-776-09"
       style="display:inline;fill:#ffffff;fill-rule:evenodd"
       d="m 9,4 h 1 V 5 H 9 Z" />
    <path
       id="rect2-2-776-25"
       style="display:inline;fill:#ffffff;fill-rule:evenodd"
       d="M 8,4 H 9 V 5 H 8 Z" />
    <path
       id="rect2-2-776-936"
       style="display:inline;fill:#ffffff;fill-rule:evenodd"
       d="M 7,4 H 8 V 5 H 7 Z" />
    <path
       id="rect2-2-776-29"
       style="display:inline;fill:#ffffff;fill-rule:evenodd"
       d="M 6,4 H 7 V 5 H 6 Z" />
    <path
       id="rect2-2-776-17"
       style="display:inline;fill:#ffffff;fill-rule:evenodd"
       d="M 7,5 H 8 V 6 H 7 Z" />
    <path
       id="rect2-2-776-469"
       style="display:inline;fill:#ffffff;fill-rule:evenodd"
       d="M 8,5 H 9 V 6 H 8 Z" />
    <path
       id="rect2-2-776-64"
       style="display:inline;fill:#ffffff;fill-rule:evenodd"
       d="m 9,5 h 1 V 6 H 9 Z" />
    <path
       id="rect2-2-776-892"
       style="display:inline;fill:#ffffff;fill-rule:evenodd"
       d="M 5,7 H 6 V 8 H 5 Z" />
    <path
       id="rect2-2-776-68"
       style="display:inline;fill:#ffffff;fill-rule:evenodd"
       d="M 4,7 H 5 V 8 H 4 Z" />
    <path
       id="rect2-2-776-338"
       style="display:inline;fill:#ffffff;fill-rule:evenodd"
       d="M 3,7 H 4 V 8 H 3 Z" />
    <path
       id="rect2-2-776-689"
       style="display:inline;fill:#ffffff;fill-rule:evenodd"
       d="M 2,8 H 3 V 9 H 2 Z" />
    <path
       id="rect2-2-776-79"
       style="display:inline;fill:#ffffff;fill-rule:evenodd"
       d="M 3,8 H 4 V 9 H 3 Z" />
    <path
       id="rect2-2-776-373"
       style="display:inline;fill:#ffffff;fill-rule:evenodd"
       d="M 4,8 H 5 V 9 H 4 Z" />
    <path
       id="rect2-2-776-265"
       style="display:inline;fill:#ffffff;fill-rule:evenodd"
       d="M 5,8 H 6 V 9 H 5 Z" />
    <path
       id="rect2-2-776-604"
       style="display:inline;fill:#ffffff;fill-rule:evenodd"
       d="M 6,8 H 7 V 9 H 6 Z" />
    <path
       id="rect2-2-776-87"
       style="display:inline;fill:#ffffff;fill-rule:evenodd"
       d="m 6,9 h 1 v 1 H 6 Z" />
    <path
       id="rect2-2-776-24"
       style="display:inline;fill:#ffffff;fill-rule:evenodd"
       d="m 5,9 h 1 v 1 H 5 Z" />
    <path
       id="rect2-2-776-92"
       style="display:inline;fill:#ffffff;fill-rule:evenodd"
       d="m 4,9 h 1 v 1 H 4 Z" />
    <path
       id="rect2-2-776-178"
       style="display:inline;fill:#ffffff;fill-rule:evenodd"
       d="m 3,9 h 1 v 1 H 3 Z" />
    <path
       id="rect2-2-776-492"
       style="display:inline;fill:#ffffff;fill-rule:evenodd"
       d="m 2,9 h 1 v 1 H 2 Z" />
    <path
       id="rect2-2-776-994"
       style="display:inline;fill:#ffffff;fill-rule:evenodd"
       d="m 2,10 h 1 v 1 H 2 Z" />
    <path
       id="rect2-2-776-57"
       style="display:inline;fill:#ffffff;fill-rule:evenodd"
       d="m 3,10 h 1 v 1 H 3 Z" />
    <path
       id="rect2-2-776-997"
       style="display:inline;fill:#ffffff;fill-rule:evenodd"
       d="m 4,10 h 1 v 1 H 4 Z" />
    <path
       id="rect2-2-776-34"
       style="display:inline;fill:#ffffff;fill-rule:evenodd"
       d="m 5,10 h 1 v 1 H 5 Z" />
    <path
       id="rect2-2-776-01"
       style="display:inline;fill:#ffffff;fill-rule:evenodd"
       d="m 10,9 h 1 v 1 h -1 z" />
    <path
       id="rect2-2-776-120"
       style="display:inline;fill:#ffffff;fill-rule:evenodd"
       d="m 10,8 h 1 v 1 h -1 z" />
    <path
       id="rect2-2-776-19"
       style="display:inline;fill:#ffffff;fill-rule:evenodd"
       d="m 11,7 h 1 v 1 h -1 z" />
    <path
       id="rect2-2-776-77"
       style="display:inline;fill:#ffffff;fill-rule:evenodd"
       d="m 12,7 h 1 v 1 h -1 z" />
    <path
       id="rect2-2-776-474"
       style="display:inline;fill:#ffffff;fill-rule:evenodd"
       d="m 13,7 h 1 v 1 h -1 z" />
    <path
       id="rect2-2-776-260"
       style="display:inline;fill:#ffffff;fill-rule:evenodd"
       d="m 11,8 h 1 v 1 h -1 z" />
    <path
       id="rect2-2-776-628"
       style="display:inline;fill:#ffffff;fill-rule:evenodd"
       d="m 12,8 h 1 v 1 h -1 z" />
    <path
       id="rect2-2-776-701"
       style="display:inline;fill:#ffffff;fill-rule:evenodd"
       d="m 13,8 h 1 v 1 h -1 z" />
    <path
       id="rect2-2-776-772"
       style="display:inline;fill:#ffffff;fill-rule:evenodd"
       d="m 14,8 h 1 v 1 h -1 z" />
    <path
       id="rect2-2-776-20"
       style="display:inline;fill:#ffffff;fill-rule:evenodd"
       d="m 14,9 h 1 v 1 h -1 z" />
    <path
       id="rect2-2-776-9945"
       style="display:inline;fill:#ffffff;fill-rule:evenodd"
       d="m 13,9 h 1 v 1 h -1 z" />
    <path
       id="rect2-2-776-788"
       style="display:inline;fill:#ffffff;fill-rule:evenodd"
       d="m 12,9 h 1 v 1 h -1 z" />
    <path
       id="rect2-2-776-676"
       style="display:inline;fill:#ffffff;fill-rule:evenodd"
       d="m 11,9 h 1 v 1 h -1 z" />
    <path
       id="rect2-2-776-597"
       style="display:inline;fill:#ffffff;fill-rule:evenodd"
       d="m 11,10 h 1 v 1 h -1 z" />
    <path
       id="rect2-2-776-38"
       style="display:inline;fill:#ffffff;fill-rule:evenodd"
       d="m 12,10 h 1 v 1 h -1 z" />
    <path
       id="rect2-2-776-378"
       style="display:inline;fill:#ffffff;fill-rule:evenodd"
       d="m 13,10 h 1 v 1 h -1 z" />
    <path
       id="rect2-2-776-909"
       style="display:inline;fill:#ffffff;fill-rule:evenodd"
       d="m 14,10 h 1 v 1 h -1 z" />
  </g>
</svg>
