<?xml version="1.0" encoding="UTF-8" standalone="no"?>
<!-- Created with Inkscape (http://www.inkscape.org/) -->

<svg
   width="16"
   height="16"
   viewBox="0 0 16 16"
   version="1.1"
   id="svg1"
   inkscape:version="1.3.2 (091e20ef0f, 2023-11-25)"
   sodipodi:docname="audio-volume-medium-symbolic.svg"
   xmlns:inkscape="http://www.inkscape.org/namespaces/inkscape"
   xmlns:sodipodi="http://sodipodi.sourceforge.net/DTD/sodipodi-0.dtd"
   xmlns="http://www.w3.org/2000/svg"
   xmlns:svg="http://www.w3.org/2000/svg">
  <sodipodi:namedview
     id="namedview1"
     pagecolor="#00e927"
     bordercolor="#000000"
     borderopacity="0.25"
     inkscape:showpageshadow="2"
     inkscape:pageopacity="0.0"
     inkscape:pagecheckerboard="0"
     inkscape:deskcolor="#d1d1d1"
     inkscape:document-units="px"
     showgrid="true"
     inkscape:zoom="45.254834"
     inkscape:cx="9.1923882"
     inkscape:cy="5.6347572"
     inkscape:window-width="1390"
     inkscape:window-height="1392"
     inkscape:window-x="0"
     inkscape:window-y="0"
     inkscape:window-maximized="0"
     inkscape:current-layer="layer2">
    <inkscape:grid
       id="grid1"
       units="px"
       originx="0"
       originy="0"
       spacingx="1"
       spacingy="1"
       empcolor="#0099e5"
       empopacity="0.30196078"
       color="#0099e5"
       opacity="0.14901961"
       empspacing="1"
       dotted="false"
       gridanglex="30"
       gridanglez="30"
       visible="true" />
  </sodipodi:namedview>
  <defs
     id="defs1" />
  <g
     inkscape:groupmode="layer"
     id="layer2"
     inkscape:label="volume muted">
    <path
       id="rect2-2-23-010"
       style="display:inline;fill:#ffffff;fill-rule:evenodd"
       d="M 3,8 H 2 V 7 h 1 z" />
    <path
       id="rect2-2-23-010-6"
       style="display:inline;fill:#ffffff;fill-rule:evenodd"
       d="M 3,9 H 2 V 8 h 1 z" />
    <path
       id="rect2-2-23-010-5"
       style="display:inline;fill:#ffffff;fill-rule:evenodd"
       d="M 4,8 H 3 V 7 h 1 z" />
    <path
       id="rect2-2-23-010-1"
       style="display:inline;fill:#ffffff;fill-rule:evenodd"
       d="M 4,9 H 3 V 8 h 1 z" />
    <path
       id="rect2-2-23-010-2"
       style="display:inline;fill:#ffffff;fill-rule:evenodd"
       d="M 5,7 H 4 V 6 h 1 z" />
    <path
       id="rect2-2-23-010-55"
       style="display:inline;fill:#ffffff;fill-rule:evenodd"
       d="M 6,6 H 5 V 5 h 1 z" />
    <path
       id="rect2-2-23-010-56"
       style="display:inline;fill:#ffffff;fill-rule:evenodd"
       d="M 7,5 H 6 V 4 h 1 z" />
    <path
       id="rect2-2-23-010-4"
       style="display:inline;fill:#ffffff;fill-rule:evenodd"
       d="M 5,10 H 4 V 9 h 1 z" />
    <path
       id="rect2-2-23-010-47"
       style="display:inline;fill:#ffffff;fill-rule:evenodd"
       d="M 6,11 H 5 v -1 h 1 z" />
    <path
       id="rect2-2-23-010-0"
       style="display:inline;fill:#ffffff;fill-rule:evenodd"
       d="M 7,12 H 6 v -1 h 1 z" />
    <path
       id="rect2-2-23-010-8"
       style="display:inline;fill:#ffffff;fill-rule:evenodd"
       d="M 8,13 H 7 v -1 h 1 z" />
    <path
       id="rect2-2-23-010-14"
       style="display:inline;fill:#ffffff;fill-rule:evenodd"
       d="M 8,4 H 7 V 3 h 1 z" />
    <path
       id="rect2-2-23-010-68"
       style="display:inline;fill:#ffffff;fill-rule:evenodd"
       d="M 8,5 H 7 V 4 h 1 z" />
    <path
       id="rect2-2-23-010-64"
       style="display:inline;fill:#ffffff;fill-rule:evenodd"
       d="M 8,6 H 7 V 5 h 1 z" />
    <path
       id="rect2-2-23-010-48"
       style="display:inline;fill:#ffffff;fill-rule:evenodd"
       d="M 8,7 H 7 V 6 h 1 z" />
    <path
       id="rect2-2-23-010-27"
       style="display:inline;fill:#ffffff;fill-rule:evenodd"
       d="M 8,8 H 7 V 7 h 1 z" />
    <path
       id="rect2-2-23-010-10"
       style="display:inline;fill:#ffffff;fill-rule:evenodd"
       d="M 8,9 H 7 V 8 h 1 z" />
    <path
       id="rect2-2-23-010-9"
       style="display:inline;fill:#ffffff;fill-rule:evenodd"
       d="M 8,10 H 7 V 9 h 1 z" />
    <path
       id="rect2-2-23-010-91"
       style="display:inline;fill:#ffffff;fill-rule:evenodd"
       d="M 8,12 H 7 v -1 h 1 z" />
    <path
       id="rect2-2-23-010-15"
       style="display:inline;fill:#ffffff;fill-rule:evenodd"
       d="M 8,11 H 7 v -1 h 1 z" />
    <path
       id="rect2-2-23-010-67"
       style="display:inline;fill:#ffffff;fill-rule:evenodd"
       d="M 7,11 H 6 v -1 h 1 z" />
    <path
       id="rect2-2-23-010-63"
       style="display:inline;fill:#ffffff;fill-rule:evenodd"
       d="M 7,10 H 6 V 9 h 1 z" />
    <path
       id="rect2-2-23-010-12"
       style="display:inline;fill:#ffffff;fill-rule:evenodd"
       d="M 7,9 H 6 V 8 h 1 z" />
    <path
       id="rect2-2-23-010-08"
       style="display:inline;fill:#ffffff;fill-rule:evenodd"
       d="M 7,8 H 6 V 7 h 1 z" />
    <path
       id="rect2-2-23-010-96"
       style="display:inline;fill:#ffffff;fill-rule:evenodd"
       d="M 7,6 H 6 V 5 h 1 z" />
    <path
       id="rect2-2-23-010-61"
       style="display:inline;fill:#ffffff;fill-rule:evenodd"
       d="M 7,7 H 6 V 6 h 1 z" />
    <path
       id="rect2-2-23-010-84"
       style="display:inline;fill:#ffffff;fill-rule:evenodd"
       d="M 6,7 H 5 V 6 h 1 z" />
    <path
       id="rect2-2-23-010-3"
       style="display:inline;fill:#ffffff;fill-rule:evenodd"
       d="M 6,8 H 5 V 7 h 1 z" />
    <path
       id="rect2-2-23-010-44"
       style="display:inline;fill:#ffffff;fill-rule:evenodd"
       d="M 5,8 H 4 V 7 h 1 z" />
    <path
       id="rect2-2-23-010-17"
       style="display:inline;fill:#ffffff;fill-rule:evenodd"
       d="M 5,9 H 4 V 8 h 1 z" />
    <path
       id="rect2-2-23-010-21"
       style="display:inline;fill:#ffffff;fill-rule:evenodd"
       d="M 6,9 H 5 V 8 h 1 z" />
    <path
       id="rect2-2-23-010-7"
       style="display:inline;fill:#ffffff;fill-rule:evenodd"
       d="M 6,10 H 5 V 9 h 1 z" />
    <path
       id="rect2-2-23-010-59"
       style="display:inline;fill:#ffffff;fill-rule:evenodd"
       d="M 8,3 H 7 V 2 h 1 z" />
    <path
       id="rect2-2-23-010-88"
       style="display:inline;fill:#ffffff;fill-rule:evenodd"
       d="M 7,4 H 6 V 3 h 1 z" />
    <path
       id="rect2-2-23-010-964"
       style="display:inline;fill:#ffffff;fill-rule:evenodd"
       d="M 6,5 H 5 V 4 h 1 z" />
    <path
       id="rect2-2-23-010-86"
       style="display:inline;fill:#ffffff;fill-rule:evenodd"
       d="M 5,6 H 4 V 5 h 1 z" />
    <path
       id="rect2-2-23-010-889"
       style="display:inline;fill:#ffffff;fill-rule:evenodd"
       d="M 4,7 H 3 V 6 h 1 z" />
    <path
       id="rect2-2-23-010-43"
       style="display:inline;fill:#ffffff;fill-rule:evenodd"
       d="M 4,10 H 3 V 9 h 1 z" />
    <path
       id="rect2-2-23-010-92"
       style="display:inline;fill:#ffffff;fill-rule:evenodd"
       d="M 5,11 H 4 v -1 h 1 z" />
    <path
       id="rect2-2-23-010-594"
       style="display:inline;fill:#ffffff;fill-rule:evenodd"
       d="M 6,12 H 5 v -1 h 1 z" />
    <path
       id="rect2-2-23-010-24"
       style="display:inline;fill:#ffffff;fill-rule:evenodd"
       d="M 7,13 H 6 v -1 h 1 z" />
    <path
       id="rect2-2-23-010-481"
       style="display:inline;fill:#ffffff;fill-rule:evenodd"
       d="M 8,14 H 7 v -1 h 1 z" />
    <path
       id="rect2-2-23-010-83"
       style="display:inline;fill:#ffffff;fill-rule:evenodd"
       d="M 10,6 H 9 V 5 h 1 z" />
    <path
       id="rect2-2-23-010-09"
       style="display:inline;fill:#ffffff;fill-rule:evenodd"
       d="M 11,7 H 10 V 6 h 1 z" />
    <path
       id="rect2-2-23-010-25"
       style="display:inline;fill:#ffffff;fill-rule:evenodd"
       d="M 11,8 H 10 V 7 h 1 z" />
    <path
       id="rect2-2-23-010-93"
       style="display:inline;fill:#ffffff;fill-rule:evenodd"
       d="M 11,9 H 10 V 8 h 1 z" />
    <path
       id="rect2-2-23-010-02"
       style="display:inline;fill:#ffffff;fill-rule:evenodd"
       d="M 11,10 H 10 V 9 h 1 z" />
    <path
       id="rect2-2-23-010-51"
       style="display:inline;fill:#ffffff;fill-rule:evenodd"
       d="M 10,11 H 9 v -1 h 1 z" />
    <path
       id="rect2-2-23-010-146"
       style="display:inline;fill:#ffffff;fill-rule:evenodd"
       d="M 11,4 H 10 V 3 h 1 z" />
    <path
       id="rect2-2-23-010-26"
       style="display:inline;fill:#ffffff;fill-rule:evenodd"
       d="M 12,5 H 11 V 4 h 1 z" />
    <path
       id="rect2-2-23-010-8892"
       style="display:inline;fill:#ffffff;fill-rule:evenodd"
       d="M 13,6 H 12 V 5 h 1 z" />
    <path
       id="rect2-2-23-010-683"
       style="display:inline;fill:#ffffff;fill-rule:evenodd"
       d="M 13,7 H 12 V 6 h 1 z" />
    <path
       id="rect2-2-23-010-38"
       style="display:inline;fill:#ffffff;fill-rule:evenodd"
       d="M 13,8 H 12 V 7 h 1 z" />
    <path
       id="rect2-2-23-010-689"
       style="display:inline;fill:#ffffff;fill-rule:evenodd"
       d="M 13,9 H 12 V 8 h 1 z" />
    <path
       id="rect2-2-23-010-79"
       style="display:inline;fill:#ffffff;fill-rule:evenodd"
       d="M 13,10 H 12 V 9 h 1 z" />
    <path
       id="rect2-2-23-010-37"
       style="display:inline;fill:#ffffff;fill-rule:evenodd"
       d="m 13,11 h -1 v -1 h 1 z" />
    <path
       id="rect2-2-23-010-52"
       style="display:inline;fill:#ffffff;fill-rule:evenodd"
       d="m 12,12 h -1 v -1 h 1 z" />
    <path
       id="rect2-2-23-010-796"
       style="display:inline;fill:#ffffff;fill-rule:evenodd"
       d="m 11,13 h -1 v -1 h 1 z" />
  </g>
</svg>
