<?xml version="1.0" encoding="UTF-8" standalone="no"?>
<!-- Created with Inkscape (http://www.inkscape.org/) -->

<svg
   width="16"
   height="16"
   viewBox="0 0 16 16"
   version="1.1"
   id="svg1"
   inkscape:version="1.3.2 (091e20ef0f, 2023-11-25)"
   sodipodi:docname="display-brightness-symbolic.svg"
   xmlns:inkscape="http://www.inkscape.org/namespaces/inkscape"
   xmlns:sodipodi="http://sodipodi.sourceforge.net/DTD/sodipodi-0.dtd"
   xmlns="http://www.w3.org/2000/svg"
   xmlns:svg="http://www.w3.org/2000/svg">
  <sodipodi:namedview
     id="namedview1"
     pagecolor="#00e927"
     bordercolor="#000000"
     borderopacity="0.25"
     inkscape:showpageshadow="2"
     inkscape:pageopacity="0.0"
     inkscape:pagecheckerboard="0"
     inkscape:deskcolor="#d1d1d1"
     inkscape:document-units="px"
     showgrid="true"
     inkscape:zoom="45.254834"
     inkscape:cx="7.1042134"
     inkscape:cy="5.6568542"
     inkscape:window-width="1390"
     inkscape:window-height="1392"
     inkscape:window-x="0"
     inkscape:window-y="0"
     inkscape:window-maximized="0"
     inkscape:current-layer="layer1">
    <inkscape:grid
       id="grid1"
       units="px"
       originx="0"
       originy="0"
       spacingx="1"
       spacingy="1"
       empcolor="#0099e5"
       empopacity="0.30196078"
       color="#0099e5"
       opacity="0.14901961"
       empspacing="1"
       dotted="false"
       gridanglex="30"
       gridanglez="30"
       visible="true" />
  </sodipodi:namedview>
  <defs
     id="defs1" />
  <g
     inkscape:groupmode="layer"
     id="layer1"
     inkscape:label="display brightness">
    <path
       id="rect2-2-23-010-64"
       style="display:inline;fill:#ffffff;fill-rule:evenodd"
       d="M 8,9 H 7 V 8 h 1 z" />
    <path
       id="rect2-2-23-010-64-6"
       style="display:inline;fill:#ffffff;fill-rule:evenodd"
       d="M 9,8 H 8 V 7 h 1 z" />
    <path
       id="rect2-2-23-010-64-2"
       style="display:inline;fill:#ffffff;fill-rule:evenodd"
       d="M 8,8 H 7 V 7 h 1 z" />
    <path
       id="rect2-2-23-010-64-3"
       style="display:inline;fill:#ffffff;fill-rule:evenodd"
       d="M 9,9 H 8 V 8 h 1 z" />
    <path
       id="rect2-2-23-010-64-8"
       style="display:inline;fill:#ffffff;fill-rule:evenodd"
       d="M 8,6 H 7 V 5 h 1 z" />
    <path
       id="rect2-2-23-010-64-4"
       style="display:inline;fill:#ffffff;fill-rule:evenodd"
       d="M 9,6 H 8 V 5 h 1 z" />
    <path
       id="rect2-2-23-010-64-9"
       style="display:inline;fill:#ffffff;fill-rule:evenodd"
       d="M 10,7 H 9 V 6 h 1 z" />
    <path
       id="rect2-2-23-010-64-89"
       style="display:inline;fill:#ffffff;fill-rule:evenodd"
       d="M 11,8 H 10 V 7 h 1 z" />
    <path
       id="rect2-2-23-010-64-49"
       style="display:inline;fill:#ffffff;fill-rule:evenodd"
       d="M 11,9 H 10 V 8 h 1 z" />
    <path
       id="rect2-2-23-010-64-87"
       style="display:inline;fill:#ffffff;fill-rule:evenodd"
       d="M 10,10 H 9 V 9 h 1 z" />
    <path
       id="rect2-2-23-010-64-7"
       style="display:inline;fill:#ffffff;fill-rule:evenodd"
       d="M 9,11 H 8 v -1 h 1 z" />
    <path
       id="rect2-2-23-010-64-5"
       style="display:inline;fill:#ffffff;fill-rule:evenodd"
       d="M 8,11 H 7 v -1 h 1 z" />
    <path
       id="rect2-2-23-010-64-0"
       style="display:inline;fill:#ffffff;fill-rule:evenodd"
       d="M 7,10 H 6 V 9 h 1 z" />
    <path
       id="rect2-2-23-010-64-71"
       style="display:inline;fill:#ffffff;fill-rule:evenodd"
       d="M 6,9 H 5 V 8 h 1 z" />
    <path
       id="rect2-2-23-010-64-77"
       style="display:inline;fill:#ffffff;fill-rule:evenodd"
       d="M 6,8 H 5 V 7 h 1 z" />
    <path
       id="rect2-2-23-010-64-65"
       style="display:inline;fill:#ffffff;fill-rule:evenodd"
       d="M 7,7 H 6 V 6 h 1 z" />
    <path
       id="rect2-2-23-010-64-48"
       style="display:inline;fill:#ffffff;fill-rule:evenodd"
       d="M 8,7 H 7 V 6 h 1 z" />
    <path
       id="rect2-2-23-010-64-39"
       style="display:inline;fill:#ffffff;fill-rule:evenodd"
       d="M 9,7 H 8 V 6 h 1 z" />
    <path
       id="rect2-2-23-010-64-50"
       style="display:inline;fill:#ffffff;fill-rule:evenodd"
       d="M 10,8 H 9 V 7 h 1 z" />
    <path
       id="rect2-2-23-010-64-85"
       style="display:inline;fill:#ffffff;fill-rule:evenodd"
       d="M 10,9 H 9 V 8 h 1 z" />
    <path
       id="rect2-2-23-010-64-59"
       style="display:inline;fill:#ffffff;fill-rule:evenodd"
       d="M 7,8 H 6 V 7 h 1 z" />
    <path
       id="rect2-2-23-010-64-1"
       style="display:inline;fill:#ffffff;fill-rule:evenodd"
       d="M 7,9 H 6 V 8 h 1 z" />
    <path
       id="rect2-2-23-010-64-44"
       style="display:inline;fill:#ffffff;fill-rule:evenodd"
       d="M 8,10 H 7 V 9 h 1 z" />
    <path
       id="rect2-2-23-010-64-63"
       style="display:inline;fill:#ffffff;fill-rule:evenodd"
       d="M 9,10 H 8 V 9 h 1 z" />
    <path
       id="rect2-2-23-010-64-10"
       style="display:inline;fill:#ffffff;fill-rule:evenodd"
       d="M 7,5 H 6 V 4 h 1 z" />
    <path
       id="rect2-2-23-010-64-08"
       style="display:inline;fill:#ffffff;fill-rule:evenodd"
       d="M 8,5 H 7 V 4 h 1 z" />
    <path
       id="rect2-2-23-010-64-79"
       style="display:inline;fill:#ffffff;fill-rule:evenodd"
       d="M 9,5 H 8 V 4 h 1 z" />
    <path
       id="rect2-2-23-010-64-83"
       style="display:inline;fill:#ffffff;fill-rule:evenodd"
       d="M 10,5 H 9 V 4 h 1 z" />
    <path
       id="rect2-2-23-010-64-891"
       style="display:inline;fill:#ffffff;fill-rule:evenodd"
       d="M 12,8 H 11 V 7 h 1 z" />
    <path
       id="rect2-2-23-010-64-25"
       style="display:inline;fill:#ffffff;fill-rule:evenodd"
       d="M 12,7 H 11 V 6 h 1 z" />
    <path
       id="rect2-2-23-010-64-94"
       style="display:inline;fill:#ffffff;fill-rule:evenodd"
       d="M 12,9 H 11 V 8 h 1 z" />
    <path
       id="rect2-2-23-010-64-57"
       style="display:inline;fill:#ffffff;fill-rule:evenodd"
       d="M 12,10 H 11 V 9 h 1 z" />
    <path
       id="rect2-2-23-010-64-99"
       style="display:inline;fill:#ffffff;fill-rule:evenodd"
       d="M 5,7 H 4 V 6 h 1 z" />
    <path
       id="rect2-2-23-010-64-53"
       style="display:inline;fill:#ffffff;fill-rule:evenodd"
       d="M 5,8 H 4 V 7 h 1 z" />
    <path
       id="rect2-2-23-010-64-20"
       style="display:inline;fill:#ffffff;fill-rule:evenodd"
       d="M 5,9 H 4 V 8 h 1 z" />
    <path
       id="rect2-2-23-010-64-21"
       style="display:inline;fill:#ffffff;fill-rule:evenodd"
       d="M 5,10 H 4 V 9 h 1 z" />
    <path
       id="rect2-2-23-010-64-31"
       style="display:inline;fill:#ffffff;fill-rule:evenodd"
       d="M 7,12 H 6 v -1 h 1 z" />
    <path
       id="rect2-2-23-010-64-56"
       style="display:inline;fill:#ffffff;fill-rule:evenodd"
       d="M 8,12 H 7 v -1 h 1 z" />
    <path
       id="rect2-2-23-010-64-06"
       style="display:inline;fill:#ffffff;fill-rule:evenodd"
       d="M 9,12 H 8 v -1 h 1 z" />
    <path
       id="rect2-2-23-010-64-858"
       style="display:inline;fill:#ffffff;fill-rule:evenodd"
       d="M 10,12 H 9 v -1 h 1 z" />
    <path
       id="rect2-2-23-010-64-66"
       style="display:inline;fill:#ffffff;fill-rule:evenodd"
       d="m 11,11 h -1 v -1 h 1 z" />
    <path
       id="rect2-2-23-010-64-896"
       style="display:inline;fill:#ffffff;fill-rule:evenodd"
       d="M 11,10 H 10 V 9 h 1 z" />
    <path
       id="rect2-2-23-010-64-101"
       style="display:inline;fill:#ffffff;fill-rule:evenodd"
       d="M 10,11 H 9 v -1 h 1 z" />
    <path
       id="rect2-2-23-010-64-26"
       style="display:inline;fill:#ffffff;fill-rule:evenodd"
       d="M 6,11 H 5 v -1 h 1 z" />
    <path
       id="rect2-2-23-010-64-02"
       style="display:inline;fill:#ffffff;fill-rule:evenodd"
       d="M 6,10 H 5 V 9 h 1 z" />
    <path
       id="rect2-2-23-010-64-945"
       style="display:inline;fill:#ffffff;fill-rule:evenodd"
       d="M 7,11 H 6 v -1 h 1 z" />
    <path
       id="rect2-2-23-010-64-78"
       style="display:inline;fill:#ffffff;fill-rule:evenodd"
       d="M 6,7 H 5 V 6 h 1 z" />
    <path
       id="rect2-2-23-010-64-46"
       style="display:inline;fill:#ffffff;fill-rule:evenodd"
       d="M 6,6 H 5 V 5 h 1 z" />
    <path
       id="rect2-2-23-010-64-97"
       style="display:inline;fill:#ffffff;fill-rule:evenodd"
       d="M 7,6 H 6 V 5 h 1 z" />
    <path
       id="rect2-2-23-010-64-853"
       style="display:inline;fill:#ffffff;fill-rule:evenodd"
       d="M 10,6 H 9 V 5 h 1 z" />
    <path
       id="rect2-2-23-010-64-793"
       style="display:inline;fill:#ffffff;fill-rule:evenodd"
       d="M 11,6 H 10 V 5 h 1 z" />
    <path
       id="rect2-2-23-010-64-41"
       style="display:inline;fill:#ffffff;fill-rule:evenodd"
       d="M 11,7 H 10 V 6 h 1 z" />
    <path
       id="rect2-2-23-010-64-88"
       style="display:inline;fill:#ffffff;fill-rule:evenodd"
       d="M 8,3 H 7 V 2 h 1 z" />
    <path
       id="rect2-2-23-010-64-37"
       style="display:inline;fill:#ffffff;fill-rule:evenodd"
       d="M 9,3 H 8 V 2 h 1 z" />
    <path
       id="rect2-2-23-010-64-09"
       style="display:inline;fill:#ffffff;fill-rule:evenodd"
       d="M 9,2 H 8 V 1 h 1 z" />
    <path
       id="rect2-2-23-010-64-32"
       style="display:inline;fill:#ffffff;fill-rule:evenodd"
       d="M 8,14 H 7 v -1 h 1 z" />
    <path
       id="rect2-2-23-010-64-12"
       style="display:inline;fill:#ffffff;fill-rule:evenodd"
       d="M 9,14 H 8 v -1 h 1 z" />
    <path
       id="rect2-2-23-010-64-17"
       style="display:inline;fill:#ffffff;fill-rule:evenodd"
       d="M 8,15 H 7 v -1 h 1 z" />
    <path
       id="rect2-2-23-010-64-417"
       style="display:inline;fill:#ffffff;fill-rule:evenodd"
       d="M 2,9 H 1 V 8 h 1 z" />
    <path
       id="rect2-2-23-010-64-70"
       style="display:inline;fill:#ffffff;fill-rule:evenodd"
       d="M 3,9 H 2 V 8 h 1 z" />
    <path
       id="rect2-2-23-010-64-51"
       style="display:inline;fill:#ffffff;fill-rule:evenodd"
       d="M 3,8 H 2 V 7 h 1 z" />
    <path
       id="rect2-2-23-010-64-19"
       style="display:inline;fill:#ffffff;fill-rule:evenodd"
       d="M 14,8 H 13 V 7 h 1 z" />
    <path
       id="rect2-2-23-010-64-081"
       style="display:inline;fill:#ffffff;fill-rule:evenodd"
       d="M 14,9 H 13 V 8 h 1 z" />
    <path
       id="rect2-2-23-010-64-379"
       style="display:inline;fill:#ffffff;fill-rule:evenodd"
       d="m 15,7 h -1 v 1 h 1 z" />
    <path
       id="rect2-2-23-010-64-170"
       style="display:inline;fill:#ffffff;fill-rule:evenodd"
       d="M 12,4 H 11 V 3 h 1 z" />
    <path
       id="rect2-2-23-010-64-539"
       style="display:inline;fill:#ffffff;fill-rule:evenodd"
       d="M 13,4 H 12 V 3 h 1 z" />
    <path
       id="rect2-2-23-010-64-415"
       style="display:inline;fill:#ffffff;fill-rule:evenodd"
       d="M 13,5 H 12 V 4 h 1 z" />
    <path
       id="rect2-2-23-010-64-838"
       style="display:inline;fill:#ffffff;fill-rule:evenodd"
       d="M 4,4 H 3 V 3 h 1 z" />
    <path
       id="rect2-2-23-010-64-27"
       style="display:inline;fill:#ffffff;fill-rule:evenodd"
       d="M 3,4 H 2 V 3 h 1 z" />
    <path
       id="rect2-2-23-010-64-636"
       style="display:inline;fill:#ffffff;fill-rule:evenodd"
       d="M 3,5 H 2 V 4 h 1 z" />
    <path
       id="rect2-2-23-010-64-43"
       style="display:inline;fill:#ffffff;fill-rule:evenodd"
       d="m 13,12 h -1 v -1 h 1 z" />
    <path
       id="rect2-2-23-010-64-58"
       style="display:inline;fill:#ffffff;fill-rule:evenodd"
       d="m 13,13 h -1 v -1 h 1 z" />
    <path
       id="rect2-2-23-010-64-13"
       style="display:inline;fill:#ffffff;fill-rule:evenodd"
       d="m 12,13 h -1 v -1 h 1 z" />
    <path
       id="rect2-2-23-010-64-510"
       style="display:inline;fill:#ffffff;fill-rule:evenodd"
       d="M 4,13 H 3 v -1 h 1 z" />
    <path
       id="rect2-2-23-010-64-35"
       style="display:inline;fill:#ffffff;fill-rule:evenodd"
       d="M 4,12 H 3 v -1 h 1 z" />
    <path
       id="rect2-2-23-010-64-411"
       style="display:inline;fill:#ffffff;fill-rule:evenodd"
       d="M 5,13 H 4 v -1 h 1 z" />
  </g>
</svg>
