<?xml version="1.0" encoding="UTF-8" standalone="no"?>
<!-- Created with Inkscape (http://www.inkscape.org/) -->

<svg
   width="16"
   height="16"
   viewBox="0 0 16 16"
   version="1.1"
   id="svg1"
   inkscape:version="1.3.2 (091e20ef0f, 2023-11-25)"
   sodipodi:docname="drive-removable-media-symbolic.svg"
   xmlns:inkscape="http://www.inkscape.org/namespaces/inkscape"
   xmlns:sodipodi="http://sodipodi.sourceforge.net/DTD/sodipodi-0.dtd"
   xmlns="http://www.w3.org/2000/svg"
   xmlns:svg="http://www.w3.org/2000/svg">
  <sodipodi:namedview
     id="namedview1"
     pagecolor="#1aff29"
     bordercolor="#000000"
     borderopacity="0.25"
     inkscape:showpageshadow="2"
     inkscape:pageopacity="0.0"
     inkscape:pagecheckerboard="0"
     inkscape:deskcolor="#d1d1d1"
     inkscape:document-units="px"
     showgrid="true"
     inkscape:zoom="32"
     inkscape:cx="6.34375"
     inkscape:cy="12.03125"
     inkscape:window-width="1390"
     inkscape:window-height="1392"
     inkscape:window-x="0"
     inkscape:window-y="0"
     inkscape:window-maximized="0"
     inkscape:current-layer="layer24">
    <inkscape:grid
       id="grid1"
       units="px"
       originx="0"
       originy="0"
       spacingx="1"
       spacingy="1"
       empcolor="#0099e5"
       empopacity="0.30196078"
       color="#0099e5"
       opacity="0.14901961"
       empspacing="1"
       dotted="false"
       gridanglex="30"
       gridanglez="30"
       visible="true" />
  </sodipodi:namedview>
  <defs
     id="defs1" />
  <g
     inkscape:label="Visibility"
     inkscape:groupmode="layer"
     id="layer1"
     style="display:none">
    <rect
       style="fill:#00ffff;fill-rule:evenodd;stroke:none"
       id="rect3"
       width="16"
       height="16"
       x="0"
       y="0" />
  </g>
  <g
     inkscape:groupmode="layer"
     id="layer24"
     inkscape:label="drive-harddisk"
     style="display:inline">
    <path
       id="rect2-2-530"
       style="display:inline;fill:#ffffff;fill-rule:evenodd"
       d="m 12,1 h 1 v 1 h -1 z" />
    <path
       id="rect2-2-339"
       style="display:inline;fill:#ffffff;fill-rule:evenodd"
       d="M 3,1 H 4 V 2 H 3 Z" />
    <path
       id="rect2-2-758"
       style="display:inline;fill:#ffffff;fill-rule:evenodd"
       d="m 3,14 h 1 v 1 H 3 Z" />
    <path
       id="rect2-2-307"
       style="display:inline;fill:#ffffff;fill-rule:evenodd"
       d="m 12,14 h 1 v 1 h -1 z" />
    <path
       id="rect2-2-336"
       style="display:inline;fill:#ffffff;fill-rule:evenodd"
       d="m 12,2 h 1 v 1 h -1 z" />
    <path
       id="rect2-2-897"
       style="display:inline;fill:#ffffff;fill-rule:evenodd"
       d="m 12,3 h 1 v 1 h -1 z" />
    <path
       id="rect2-2-274"
       style="display:inline;fill:#ffffff;fill-rule:evenodd"
       d="m 12,4 h 1 v 1 h -1 z" />
    <path
       id="rect2-2-268"
       style="display:inline;fill:#ffffff;fill-rule:evenodd"
       d="m 12,5 h 1 v 1 h -1 z" />
    <path
       id="rect2-2-240"
       style="display:inline;fill:#ffffff;fill-rule:evenodd"
       d="m 12,6 h 1 v 1 h -1 z" />
    <path
       id="rect2-2-253"
       style="display:inline;fill:#ffffff;fill-rule:evenodd"
       d="m 12,7 h 1 v 1 h -1 z" />
    <path
       id="rect2-2-486"
       style="display:inline;fill:#ffffff;fill-rule:evenodd"
       d="m 12,8 h 1 v 1 h -1 z" />
    <path
       id="rect2-2-3170"
       style="display:inline;fill:#ffffff;fill-rule:evenodd"
       d="m 12,9 h 1 v 1 h -1 z" />
    <path
       id="rect2-2-831"
       style="display:inline;fill:#ffffff;fill-rule:evenodd"
       d="m 12,10 h 1 v 1 h -1 z" />
    <path
       id="rect2-2-3215"
       style="display:inline;fill:#ffffff;fill-rule:evenodd"
       d="m 12,11 h 1 v 1 h -1 z" />
    <path
       id="rect2-2-047"
       style="display:inline;fill:#ffffff;fill-rule:evenodd"
       d="m 12,12 h 1 v 1 h -1 z" />
    <path
       id="rect2-2-895"
       style="display:inline;fill:#ffffff;fill-rule:evenodd"
       d="m 12,13 h 1 v 1 h -1 z" />
    <path
       id="rect2-2-973"
       style="display:inline;fill:#ffffff;fill-rule:evenodd"
       d="m 11,14 h 1 v 1 h -1 z" />
    <path
       id="rect2-2-407"
       style="display:inline;fill:#ffffff;fill-rule:evenodd"
       d="m 10,14 h 1 v 1 h -1 z" />
    <path
       id="rect2-2-993"
       style="display:inline;fill:#ffffff;fill-rule:evenodd"
       d="m 9,14 h 1 v 1 H 9 Z" />
    <path
       id="rect2-2-332"
       style="display:inline;fill:#ffffff;fill-rule:evenodd"
       d="m 8,14 h 1 v 1 H 8 Z" />
    <path
       id="rect2-2-543"
       style="display:inline;fill:#ffffff;fill-rule:evenodd"
       d="m 6,14 h 1 v 1 H 6 Z" />
    <path
       id="rect2-2-654"
       style="display:inline;fill:#ffffff;fill-rule:evenodd"
       d="m 7,14 h 1 v 1 H 7 Z" />
    <path
       id="rect2-2-560"
       style="display:inline;fill:#ffffff;fill-rule:evenodd"
       d="m 5,14 h 1 v 1 H 5 Z" />
    <path
       id="rect2-2-429"
       style="display:inline;fill:#ffffff;fill-rule:evenodd"
       d="m 4,14 h 1 v 1 H 4 Z" />
    <path
       id="rect2-2-5387"
       style="display:inline;fill:#ffffff;fill-rule:evenodd"
       d="m 3,13 h 1 v 1 H 3 Z" />
    <path
       id="rect2-2-3078"
       style="display:inline;fill:#ffffff;fill-rule:evenodd"
       d="m 3,12 h 1 v 1 H 3 Z" />
    <path
       id="rect2-2-985"
       style="display:inline;fill:#ffffff;fill-rule:evenodd"
       d="m 3,11 h 1 v 1 H 3 Z" />
    <path
       id="rect2-2-79"
       style="display:inline;fill:#ffffff;fill-rule:evenodd"
       d="m 3,10 h 1 v 1 H 3 Z" />
    <path
       id="rect2-2-2391"
       style="display:inline;fill:#ffffff;fill-rule:evenodd"
       d="m 3,9 h 1 v 1 H 3 Z" />
    <path
       id="rect2-2-535"
       style="display:inline;fill:#ffffff;fill-rule:evenodd"
       d="M 3,8 H 4 V 9 H 3 Z" />
    <path
       id="rect2-2-798"
       style="display:inline;fill:#ffffff;fill-rule:evenodd"
       d="M 3,7 H 4 V 8 H 3 Z" />
    <path
       id="rect2-2-142"
       style="display:inline;fill:#ffffff;fill-rule:evenodd"
       d="M 3,6 H 4 V 7 H 3 Z" />
    <path
       id="rect2-2-861"
       style="display:inline;fill:#ffffff;fill-rule:evenodd"
       d="M 3,5 H 4 V 6 H 3 Z" />
    <path
       id="rect2-2-00"
       style="display:inline;fill:#ffffff;fill-rule:evenodd"
       d="M 3,4 H 4 V 5 H 3 Z" />
    <path
       id="rect2-2-510"
       style="display:inline;fill:#ffffff;fill-rule:evenodd"
       d="M 3,3 H 4 V 4 H 3 Z" />
    <path
       id="rect2-2-982"
       style="display:inline;fill:#ffffff;fill-rule:evenodd"
       d="M 3,2 H 4 V 3 H 3 Z" />
    <path
       id="rect2-2-501"
       style="display:inline;fill:#ffffff;fill-rule:evenodd"
       d="M 4,1 H 5 V 2 H 4 Z" />
    <path
       id="rect2-2-138"
       style="display:inline;fill:#ffffff;fill-rule:evenodd"
       d="M 5,1 H 6 V 2 H 5 Z" />
    <path
       id="rect2-2-4776"
       style="display:inline;fill:#ffffff;fill-rule:evenodd"
       d="M 6,1 H 7 V 2 H 6 Z" />
    <path
       id="rect2-2-5425"
       style="display:inline;fill:#ffffff;fill-rule:evenodd"
       d="M 7,1 H 8 V 2 H 7 Z" />
    <path
       id="rect2-2-3281"
       style="display:inline;fill:#ffffff;fill-rule:evenodd"
       d="M 8,1 H 9 V 2 H 8 Z" />
    <path
       id="rect2-2-587"
       style="display:inline;fill:#ffffff;fill-rule:evenodd"
       d="m 9,1 h 1 V 2 H 9 Z" />
    <path
       id="rect2-2-4771"
       style="display:inline;fill:#ffffff;fill-rule:evenodd"
       d="m 10,1 h 1 v 1 h -1 z" />
    <path
       id="rect2-2-0732"
       style="display:inline;fill:#ffffff;fill-rule:evenodd"
       d="m 11,1 h 1 v 1 h -1 z" />
    <path
       id="rect2-2-806"
       style="display:inline;fill:#ffffff;fill-rule:evenodd"
       d="m 5,10 h 1 v 1 H 5 Z" />
    <path
       id="rect2-2-806-6"
       style="display:inline;fill:#ffffff;fill-rule:evenodd"
       d="m 6,10 h 1 v 1 H 6 Z" />
    <path
       id="rect2-2-806-2"
       style="display:inline;fill:#ffffff;fill-rule:evenodd"
       d="m 7,10 h 1 v 1 H 7 Z" />
    <path
       id="rect2-2-806-3"
       style="display:inline;fill:#ffffff;fill-rule:evenodd"
       d="m 8,10 h 1 v 1 H 8 Z" />
    <path
       id="rect2-2-806-26"
       style="display:inline;fill:#ffffff;fill-rule:evenodd"
       d="m 9,10 h 1 v 1 H 9 Z" />
    <path
       id="rect2-2-806-9"
       style="display:inline;fill:#ffffff;fill-rule:evenodd"
       d="m 10,10 h 1 v 1 h -1 z" />
    <path
       id="rect2-2-806-37"
       style="display:inline;fill:#ffffff;fill-rule:evenodd"
       d="M 5,8 H 6 V 9 H 5 Z" />
    <path
       id="rect2-2-806-28"
       style="display:inline;fill:#ffffff;fill-rule:evenodd"
       d="M 6,8 H 7 V 9 H 6 Z" />
    <path
       id="rect2-2-806-61"
       style="display:inline;fill:#ffffff;fill-rule:evenodd"
       d="M 7,8 H 8 V 9 H 7 Z" />
    <path
       id="rect2-2-806-1"
       style="display:inline;fill:#ffffff;fill-rule:evenodd"
       d="M 8,8 H 9 V 9 H 8 Z" />
    <path
       id="rect2-2-806-8"
       style="display:inline;fill:#ffffff;fill-rule:evenodd"
       d="m 9,8 h 1 V 9 H 9 Z" />
    <path
       id="rect2-2-806-36"
       style="display:inline;fill:#ffffff;fill-rule:evenodd"
       d="m 10,8 h 1 v 1 h -1 z" />
    <path
       id="rect2-2-806-32"
       style="display:inline;fill:#ffffff;fill-rule:evenodd"
       d="m 9,7 h 1 V 8 H 9 Z" />
    <path
       id="rect2-2-806-5"
       style="display:inline;fill:#ffffff;fill-rule:evenodd"
       d="M 8,7 H 9 V 8 H 8 Z" />
    <path
       id="rect2-2-806-65"
       style="display:inline;fill:#ffffff;fill-rule:evenodd"
       d="M 7,7 H 8 V 8 H 7 Z" />
    <path
       id="rect2-2-806-7"
       style="display:inline;fill:#ffffff;fill-rule:evenodd"
       d="M 6,7 H 7 V 8 H 6 Z" />
    <path
       id="rect2-2-806-30"
       style="display:inline;fill:#ffffff;fill-rule:evenodd"
       d="M 7,6 H 8 V 7 H 7 Z" />
    <path
       id="rect2-2-806-88"
       style="display:inline;fill:#ffffff;fill-rule:evenodd"
       d="M 8,6 H 9 V 7 H 8 Z" />
    <path
       id="rect2-2-806-4"
       style="display:inline;fill:#ffffff;fill-rule:evenodd"
       d="m 10,7 h 1 v 1 h -1 z" />
    <path
       id="rect2-2-806-68"
       style="display:inline;fill:#ffffff;fill-rule:evenodd"
       d="m 9,6 h 1 V 7 H 9 Z" />
    <path
       id="rect2-2-806-64"
       style="display:inline;fill:#ffffff;fill-rule:evenodd"
       d="M 5,7 H 6 V 8 H 5 Z" />
    <path
       id="rect2-2-806-48"
       style="display:inline;fill:#ffffff;fill-rule:evenodd"
       d="M 6,6 H 7 V 7 H 6 Z" />
    <path
       id="rect2-2-806-27"
       style="display:inline;fill:#ffffff;fill-rule:evenodd"
       d="M 7,5 H 8 V 6 H 7 Z" />
    <path
       id="rect2-2-806-10"
       style="display:inline;fill:#ffffff;fill-rule:evenodd"
       d="M 8,5 H 9 V 6 H 8 Z" />
  </g>
</svg>
