<?xml version="1.0" encoding="UTF-8" standalone="no"?>
<!-- Created with Inkscape (http://www.inkscape.org/) -->

<svg
   width="16"
   height="16"
   viewBox="0 0 16 16"
   version="1.1"
   id="svg1"
   inkscape:version="1.3.2 (091e20ef0f, 2023-11-25)"
   sodipodi:docname="go-previous-symbolic-rtl.svg"
   xmlns:inkscape="http://www.inkscape.org/namespaces/inkscape"
   xmlns:sodipodi="http://sodipodi.sourceforge.net/DTD/sodipodi-0.dtd"
   xmlns="http://www.w3.org/2000/svg"
   xmlns:svg="http://www.w3.org/2000/svg">
  <sodipodi:namedview
     id="namedview1"
     pagecolor="#00e927"
     bordercolor="#000000"
     borderopacity="0.25"
     inkscape:showpageshadow="2"
     inkscape:pageopacity="0.0"
     inkscape:pagecheckerboard="0"
     inkscape:deskcolor="#d1d1d1"
     inkscape:document-units="px"
     showgrid="true"
     inkscape:zoom="45.254834"
     inkscape:cx="5.8446795"
     inkscape:cy="5.6126601"
     inkscape:window-width="1261"
     inkscape:window-height="1392"
     inkscape:window-x="0"
     inkscape:window-y="0"
     inkscape:window-maximized="0"
     inkscape:current-layer="layer1">
    <inkscape:grid
       id="grid1"
       units="px"
       originx="0"
       originy="0"
       spacingx="1"
       spacingy="1"
       empcolor="#0099e5"
       empopacity="0.30196078"
       color="#0099e5"
       opacity="0.14901961"
       empspacing="1"
       dotted="false"
       gridanglex="30"
       gridanglez="30"
       visible="true" />
  </sodipodi:namedview>
  <defs
     id="defs1" />
  <g
     inkscape:groupmode="layer"
     id="layer1"
     inkscape:label="go down"
     transform="rotate(-90,8,8)">
    <path
       id="rect2-2-23"
       style="display:inline;fill:#ffffff;fill-rule:evenodd"
       d="m 7,11 h 1 v 1 H 7 Z" />
    <path
       id="rect2-2-23-4"
       style="display:inline;fill:#ffffff;fill-rule:evenodd"
       d="m 8,11 h 1 v 1 H 8 Z" />
    <path
       id="rect2-2-23-0"
       style="display:inline;fill:#ffffff;fill-rule:evenodd"
       d="m 9,10 h 1 v 1 H 9 Z" />
    <path
       id="rect2-2-23-9"
       style="display:inline;fill:#ffffff;fill-rule:evenodd"
       d="m 10,9 h 1 v 1 h -1 z" />
    <path
       id="rect2-2-23-3"
       style="display:inline;fill:#ffffff;fill-rule:evenodd"
       d="m 11,8 h 1 v 1 h -1 z" />
    <path
       id="rect2-2-23-33"
       style="display:inline;fill:#ffffff;fill-rule:evenodd"
       d="m 12,7 h 1 v 1 h -1 z" />
    <path
       id="rect2-2-23-6"
       style="display:inline;fill:#ffffff;fill-rule:evenodd"
       d="m 13,6 h 1 v 1 h -1 z" />
    <path
       id="rect2-2-23-04"
       style="display:inline;fill:#ffffff;fill-rule:evenodd"
       d="m 13,5 h 1 v 1 h -1 z" />
    <path
       id="rect2-2-23-7"
       style="display:inline;fill:#ffffff;fill-rule:evenodd"
       d="m 6,10 h 1 v 1 H 6 Z" />
    <path
       id="rect2-2-23-8"
       style="display:inline;fill:#ffffff;fill-rule:evenodd"
       d="m 5,9 h 1 v 1 H 5 Z" />
    <path
       id="rect2-2-23-2"
       style="display:inline;fill:#ffffff;fill-rule:evenodd"
       d="M 4,8 H 5 V 9 H 4 Z" />
    <path
       id="rect2-2-23-02"
       style="display:inline;fill:#ffffff;fill-rule:evenodd"
       d="M 3,7 H 4 V 8 H 3 Z" />
    <path
       id="rect2-2-23-32"
       style="display:inline;fill:#ffffff;fill-rule:evenodd"
       d="M 2,6 H 3 V 7 H 2 Z" />
    <path
       id="rect2-2-23-91"
       style="display:inline;fill:#ffffff;fill-rule:evenodd"
       d="M 2,5 H 3 V 6 H 2 Z" />
    <path
       id="rect2-2-23-07"
       style="display:inline;fill:#ffffff;fill-rule:evenodd"
       d="M 3,5 H 4 V 6 H 3 Z" />
    <path
       id="rect2-2-23-048"
       style="display:inline;fill:#ffffff;fill-rule:evenodd"
       d="M 4,5 H 5 V 6 H 4 Z" />
    <path
       id="rect2-2-23-96"
       style="display:inline;fill:#ffffff;fill-rule:evenodd"
       d="M 5,5 H 6 V 6 H 5 Z" />
    <path
       id="rect2-2-23-22"
       style="display:inline;fill:#ffffff;fill-rule:evenodd"
       d="M 6,5 H 7 V 6 H 6 Z" />
    <path
       id="rect2-2-23-5"
       style="display:inline;fill:#ffffff;fill-rule:evenodd"
       d="M 7,5 H 8 V 6 H 7 Z" />
    <path
       id="rect2-2-23-28"
       style="display:inline;fill:#ffffff;fill-rule:evenodd"
       d="M 8,5 H 9 V 6 H 8 Z" />
    <path
       id="rect2-2-23-40"
       style="display:inline;fill:#ffffff;fill-rule:evenodd"
       d="m 10,5 h 1 v 1 h -1 z" />
    <path
       id="rect2-2-23-62"
       style="display:inline;fill:#ffffff;fill-rule:evenodd"
       d="m 11,5 h 1 v 1 h -1 z" />
    <path
       id="rect2-2-23-99"
       style="display:inline;fill:#ffffff;fill-rule:evenodd"
       d="m 12,5 h 1 v 1 h -1 z" />
    <path
       id="rect2-2-23-50"
       style="display:inline;fill:#ffffff;fill-rule:evenodd"
       d="m 9,5 h 1 V 6 H 9 Z" />
    <path
       id="rect2-2-23-35"
       style="display:inline;fill:#ffffff;fill-rule:evenodd"
       d="M 8,6 H 9 V 7 H 8 Z" />
    <path
       id="rect2-2-23-31"
       style="display:inline;fill:#ffffff;fill-rule:evenodd"
       d="M 7,6 H 8 V 7 H 7 Z" />
    <path
       id="rect2-2-23-42"
       style="display:inline;fill:#ffffff;fill-rule:evenodd"
       d="M 6,6 H 7 V 7 H 6 Z" />
    <path
       id="rect2-2-23-1"
       style="display:inline;fill:#ffffff;fill-rule:evenodd"
       d="M 5,6 H 6 V 7 H 5 Z" />
    <path
       id="rect2-2-23-92"
       style="display:inline;fill:#ffffff;fill-rule:evenodd"
       d="M 4,6 H 5 V 7 H 4 Z" />
    <path
       id="rect2-2-23-68"
       style="display:inline;fill:#ffffff;fill-rule:evenodd"
       d="M 3,6 H 4 V 7 H 3 Z" />
    <path
       id="rect2-2-23-338"
       style="display:inline;fill:#ffffff;fill-rule:evenodd"
       d="m 9,6 h 1 V 7 H 9 Z" />
    <path
       id="rect2-2-23-689"
       style="display:inline;fill:#ffffff;fill-rule:evenodd"
       d="m 11,6 h 1 v 1 h -1 z" />
    <path
       id="rect2-2-23-79"
       style="display:inline;fill:#ffffff;fill-rule:evenodd"
       d="m 10,6 h 1 v 1 h -1 z" />
    <path
       id="rect2-2-23-37"
       style="display:inline;fill:#ffffff;fill-rule:evenodd"
       d="m 12,6 h 1 v 1 h -1 z" />
    <path
       id="rect2-2-23-52"
       style="display:inline;fill:#ffffff;fill-rule:evenodd"
       d="m 11,7 h 1 v 1 h -1 z" />
    <path
       id="rect2-2-23-796"
       style="display:inline;fill:#ffffff;fill-rule:evenodd"
       d="m 10,7 h 1 v 1 h -1 z" />
    <path
       id="rect2-2-23-0487"
       style="display:inline;fill:#ffffff;fill-rule:evenodd"
       d="m 9,7 h 1 V 8 H 9 Z" />
    <path
       id="rect2-2-23-24"
       style="display:inline;fill:#ffffff;fill-rule:evenodd"
       d="M 8,7 H 9 V 8 H 8 Z" />
    <path
       id="rect2-2-23-928"
       style="display:inline;fill:#ffffff;fill-rule:evenodd"
       d="M 7,7 H 8 V 8 H 7 Z" />
    <path
       id="rect2-2-23-78"
       style="display:inline;fill:#ffffff;fill-rule:evenodd"
       d="M 6,7 H 7 V 8 H 6 Z" />
    <path
       id="rect2-2-23-49"
       style="display:inline;fill:#ffffff;fill-rule:evenodd"
       d="M 5,7 H 6 V 8 H 5 Z" />
    <path
       id="rect2-2-23-499"
       style="display:inline;fill:#ffffff;fill-rule:evenodd"
       d="M 4,7 H 5 V 8 H 4 Z" />
    <path
       id="rect2-2-23-357"
       style="display:inline;fill:#ffffff;fill-rule:evenodd"
       d="M 5,8 H 6 V 9 H 5 Z" />
    <path
       id="rect2-2-23-997"
       style="display:inline;fill:#ffffff;fill-rule:evenodd"
       d="M 6,8 H 7 V 9 H 6 Z" />
    <path
       id="rect2-2-23-34"
       style="display:inline;fill:#ffffff;fill-rule:evenodd"
       d="M 7,8 H 8 V 9 H 7 Z" />
    <path
       id="rect2-2-23-01"
       style="display:inline;fill:#ffffff;fill-rule:evenodd"
       d="M 8,8 H 9 V 9 H 8 Z" />
    <path
       id="rect2-2-23-12"
       style="display:inline;fill:#ffffff;fill-rule:evenodd"
       d="m 9,8 h 1 V 9 H 9 Z" />
    <path
       id="rect2-2-23-11"
       style="display:inline;fill:#ffffff;fill-rule:evenodd"
       d="m 10,8 h 1 v 1 h -1 z" />
    <path
       id="rect2-2-23-67"
       style="display:inline;fill:#ffffff;fill-rule:evenodd"
       d="m 9,9 h 1 v 1 H 9 Z" />
    <path
       id="rect2-2-23-64"
       style="display:inline;fill:#ffffff;fill-rule:evenodd"
       d="m 8,9 h 1 v 1 H 8 Z" />
    <path
       id="rect2-2-23-58"
       style="display:inline;fill:#ffffff;fill-rule:evenodd"
       d="m 7,9 h 1 v 1 H 7 Z" />
    <path
       id="rect2-2-23-66"
       style="display:inline;fill:#ffffff;fill-rule:evenodd"
       d="m 6,9 h 1 v 1 H 6 Z" />
    <path
       id="rect2-2-23-89"
       style="display:inline;fill:#ffffff;fill-rule:evenodd"
       d="m 7,10 h 1 v 1 H 7 Z" />
    <path
       id="rect2-2-23-010"
       style="display:inline;fill:#ffffff;fill-rule:evenodd"
       d="m 8,10 h 1 v 1 H 8 Z" />
  </g>
</svg>
