<?xml version="1.0" encoding="UTF-8" standalone="no"?>
<!-- Created with Inkscape (http://www.inkscape.org/) -->

<svg
   width="16"
   height="16"
   viewBox="0 0 16 16"
   version="1.1"
   id="svg1"
   inkscape:version="1.3.2 (091e20ef0f, 2023-11-25)"
   sodipodi:docname="location-symbolic.svg"
   xmlns:inkscape="http://www.inkscape.org/namespaces/inkscape"
   xmlns:sodipodi="http://sodipodi.sourceforge.net/DTD/sodipodi-0.dtd"
   xmlns="http://www.w3.org/2000/svg"
   xmlns:svg="http://www.w3.org/2000/svg">
  <sodipodi:namedview
     id="namedview1"
     pagecolor="#00e927"
     bordercolor="#000000"
     borderopacity="0.25"
     inkscape:showpageshadow="2"
     inkscape:pageopacity="0.0"
     inkscape:pagecheckerboard="0"
     inkscape:deskcolor="#d1d1d1"
     inkscape:document-units="px"
     showgrid="true"
     inkscape:zoom="32"
     inkscape:cx="5.734375"
     inkscape:cy="4.125"
     inkscape:window-width="1261"
     inkscape:window-height="1392"
     inkscape:window-x="0"
     inkscape:window-y="0"
     inkscape:window-maximized="0"
     inkscape:current-layer="layer6">
    <inkscape:grid
       id="grid1"
       units="px"
       originx="0"
       originy="0"
       spacingx="1"
       spacingy="1"
       empcolor="#0099e5"
       empopacity="0.30196078"
       color="#0099e5"
       opacity="0.14901961"
       empspacing="1"
       dotted="false"
       gridanglex="30"
       gridanglez="30"
       visible="true" />
  </sodipodi:namedview>
  <defs
     id="defs1" />
  <g
     inkscape:groupmode="layer"
     id="layer6"
     inkscape:label="location">
    <path
       id="rect2-2-23-0487-374-81"
       style="display:inline;fill:#ffffff;fill-rule:evenodd"
       d="M 7,3 V 2 h 1 v 1 z" />
    <path
       id="rect2-2-23-0487-374-81-6"
       style="display:inline;fill:#ffffff;fill-rule:evenodd"
       d="M 7,4 V 3 h 1 v 1 z" />
    <path
       id="rect2-2-23-0487-374-81-7"
       style="display:inline;fill:#ffffff;fill-rule:evenodd"
       d="M 8,3 V 2 h 1 v 1 z" />
    <path
       id="rect2-2-23-0487-374-81-65"
       style="display:inline;fill:#ffffff;fill-rule:evenodd"
       d="M 8,4 V 3 h 1 v 1 z" />
    <path
       id="rect2-2-23-0487-374-81-78"
       style="display:inline;fill:#ffffff;fill-rule:evenodd"
       d="M 9,3 V 2 h 1 v 1 z" />
    <path
       id="rect2-2-23-0487-374-81-76"
       style="display:inline;fill:#ffffff;fill-rule:evenodd"
       d="M 9,4 V 3 h 1 v 1 z" />
    <path
       id="rect2-2-23-0487-374-81-1"
       style="display:inline;fill:#ffffff;fill-rule:evenodd"
       d="M 10,4 V 3 h 1 v 1 z" />
    <path
       id="rect2-2-23-0487-374-81-4"
       style="display:inline;fill:#ffffff;fill-rule:evenodd"
       d="M 10,3 V 2 h 1 v 1 z" />
    <path
       id="rect2-2-23-0487-374-81-3"
       style="display:inline;fill:#ffffff;fill-rule:evenodd"
       d="M 11,3 V 2 h 1 v 1 z" />
    <path
       id="rect2-2-23-0487-374-81-8"
       style="display:inline;fill:#ffffff;fill-rule:evenodd"
       d="M 11,4 V 3 h 1 v 1 z" />
    <path
       id="rect2-2-23-0487-374-81-2"
       style="display:inline;fill:#ffffff;fill-rule:evenodd"
       d="M 12,3 V 2 h 1 v 1 z" />
    <path
       id="rect2-2-23-0487-374-81-9"
       style="display:inline;fill:#ffffff;fill-rule:evenodd"
       d="M 13,3 V 2 h 1 v 1 z" />
    <path
       id="rect2-2-23-0487-374-81-68"
       style="display:inline;fill:#ffffff;fill-rule:evenodd"
       d="M 13,4 V 3 h 1 v 1 z" />
    <path
       id="rect2-2-23-0487-374-81-44"
       style="display:inline;fill:#ffffff;fill-rule:evenodd"
       d="M 12,4 V 3 h 1 v 1 z" />
    <path
       id="rect2-2-23-0487-374-81-45"
       style="display:inline;fill:#ffffff;fill-rule:evenodd"
       d="M 12,5 V 4 h 1 v 1 z" />
    <path
       id="rect2-2-23-0487-374-81-0"
       style="display:inline;fill:#ffffff;fill-rule:evenodd"
       d="M 12,6 V 5 h 1 v 1 z" />
    <path
       id="rect2-2-23-0487-374-81-43"
       style="display:inline;fill:#ffffff;fill-rule:evenodd"
       d="M 12,7 V 6 h 1 v 1 z" />
    <path
       id="rect2-2-23-0487-374-81-32"
       style="display:inline;fill:#ffffff;fill-rule:evenodd"
       d="M 12,8 V 7 h 1 v 1 z" />
    <path
       id="rect2-2-23-0487-374-81-19"
       style="display:inline;fill:#ffffff;fill-rule:evenodd"
       d="M 12,9 V 8 h 1 v 1 z" />
    <path
       id="rect2-2-23-0487-374-81-23"
       style="display:inline;fill:#ffffff;fill-rule:evenodd"
       d="M 12,10 V 9 h 1 v 1 z" />
    <path
       id="rect2-2-23-0487-374-81-26"
       style="display:inline;fill:#ffffff;fill-rule:evenodd"
       d="m 12,11 v -1 h 1 v 1 z" />
    <path
       id="rect2-2-23-0487-374-81-71"
       style="display:inline;fill:#ffffff;fill-rule:evenodd"
       d="m 12,12 v -1 h 1 v 1 z" />
    <path
       id="rect2-2-23-0487-374-81-689"
       style="display:inline;fill:#ffffff;fill-rule:evenodd"
       d="m 12,12 v -1 h 1 v 1 z" />
    <path
       id="rect2-2-23-0487-374-81-69"
       style="display:inline;fill:#ffffff;fill-rule:evenodd"
       d="m 12,13 v -1 h 1 v 1 z" />
    <path
       id="rect2-2-23-0487-374-81-05"
       style="display:inline;fill:#ffffff;fill-rule:evenodd"
       d="m 12,14 v -1 h 1 v 1 z" />
    <path
       id="rect2-2-23-0487-374-81-63"
       style="display:inline;fill:#ffffff;fill-rule:evenodd"
       d="m 11,14 v -1 h 1 v 1 z" />
    <path
       id="rect2-2-23-0487-374-81-60"
       style="display:inline;fill:#ffffff;fill-rule:evenodd"
       d="m 10,14 v -1 h 1 v 1 z" />
    <path
       id="rect2-2-23-0487-374-81-37"
       style="display:inline;fill:#ffffff;fill-rule:evenodd"
       d="m 9,14 v -1 h 1 v 1 z" />
    <path
       id="rect2-2-23-0487-374-81-29"
       style="display:inline;fill:#ffffff;fill-rule:evenodd"
       d="m 8,14 v -1 h 1 v 1 z" />
    <path
       id="rect2-2-23-0487-374-81-454"
       style="display:inline;fill:#ffffff;fill-rule:evenodd"
       d="m 7,14 v -1 h 1 v 1 z" />
    <path
       id="rect2-2-23-0487-374-81-47"
       style="display:inline;fill:#ffffff;fill-rule:evenodd"
       d="m 7,13 v -1 h 1 v 1 z" />
    <path
       id="rect2-2-23-0487-374-81-16"
       style="display:inline;fill:#ffffff;fill-rule:evenodd"
       d="m 8,12 v -1 h 1 v 1 z" />
    <path
       id="rect2-2-23-0487-374-81-49"
       style="display:inline;fill:#ffffff;fill-rule:evenodd"
       d="m 8,15 v -1 h 1 v 1 z" />
    <path
       id="rect2-2-23-0487-374-81-160"
       style="display:inline;fill:#ffffff;fill-rule:evenodd"
       d="m 8,13 v -1 h 1 v 1 z" />
    <path
       id="rect2-2-23-0487-374-81-27"
       style="display:inline;fill:#ffffff;fill-rule:evenodd"
       d="m 9,13 v -1 h 1 v 1 z" />
    <path
       id="rect2-2-23-0487-374-81-00"
       style="display:inline;fill:#ffffff;fill-rule:evenodd"
       d="m 10,13 v -1 h 1 v 1 z" />
    <path
       id="rect2-2-23-0487-374-81-10"
       style="display:inline;fill:#ffffff;fill-rule:evenodd"
       d="m 11,13 v -1 h 1 v 1 z" />
    <path
       id="rect2-2-23-0487-374-81-01"
       style="display:inline;fill:#ffffff;fill-rule:evenodd"
       d="m 9,16 v -1 h 1 v 1 z" />
    <path
       id="rect2-2-23-0487-374-81-471"
       style="display:inline;fill:#ffffff;fill-rule:evenodd"
       d="m 9,15 v -1 h 1 v 1 z" />
    <path
       id="rect2-2-23-0487-374-81-24"
       style="display:inline;fill:#ffffff;fill-rule:evenodd"
       d="m 9,12 v -1 h 1 v 1 z" />
    <path
       id="rect2-2-23-0487-374-81-84"
       style="display:inline;fill:#ffffff;fill-rule:evenodd"
       d="m 9,11 v -1 h 1 v 1 z" />
    <path
       id="rect2-2-23-0487-374-81-274"
       style="display:inline;fill:#ffffff;fill-rule:evenodd"
       d="M 13,5 V 4 h 1 v 1 z" />
    <path
       id="rect2-2-23-0487-374-81-600"
       style="display:inline;fill:#ffffff;fill-rule:evenodd"
       d="M 13,6 V 5 h 1 v 1 z" />
    <path
       id="rect2-2-23-0487-374-81-20"
       style="display:inline;fill:#ffffff;fill-rule:evenodd"
       d="M 13,7 V 6 h 1 v 1 z" />
    <path
       id="rect2-2-23-0487-374-81-92"
       style="display:inline;fill:#ffffff;fill-rule:evenodd"
       d="M 13,8 V 7 h 1 v 1 z" />
    <path
       id="rect2-2-23-0487-374-81-81"
       style="display:inline;fill:#ffffff;fill-rule:evenodd"
       d="M 13,9 V 8 h 1 v 1 z" />
    <path
       id="rect2-2-23-0487-374-81-499"
       style="display:inline;fill:#ffffff;fill-rule:evenodd"
       d="M 13,10 V 9 h 1 v 1 z" />
    <path
       id="rect2-2-23-0487-374-81-67"
       style="display:inline;fill:#ffffff;fill-rule:evenodd"
       d="m 13,11 v -1 h 1 v 1 z" />
    <path
       id="rect2-2-23-0487-374-81-96"
       style="display:inline;fill:#ffffff;fill-rule:evenodd"
       d="m 13,12 v -1 h 1 v 1 z" />
    <path
       id="rect2-2-23-0487-374-81-5"
       style="display:inline;fill:#ffffff;fill-rule:evenodd"
       d="m 13,13 v -1 h 1 v 1 z" />
    <path
       id="rect2-2-23-0487-374-81-08"
       style="display:inline;fill:#ffffff;fill-rule:evenodd"
       d="m 13,14 v -1 h 1 v 1 z" />
    <path
       id="rect2-2-23-0487-374-81-94"
       style="display:inline;fill:#ffffff;fill-rule:evenodd"
       d="m 4,14 v -1 h 1 v 1 z" />
    <path
       id="rect2-2-23-0487-374-81-86"
       style="display:inline;fill:#ffffff;fill-rule:evenodd"
       d="m 3,14 v -1 h 1 v 1 z" />
    <path
       id="rect2-2-23-0487-374-81-767"
       style="display:inline;fill:#ffffff;fill-rule:evenodd"
       d="m 3,13 v -1 h 1 v 1 z" />
    <path
       id="rect2-2-23-0487-374-81-247"
       style="display:inline;fill:#ffffff;fill-rule:evenodd"
       d="m 4,13 v -1 h 1 v 1 z" />
    <path
       id="rect2-2-23-0487-374-81-07"
       style="display:inline;fill:#ffffff;fill-rule:evenodd"
       d="m 4,12 v -1 h 1 v 1 z" />
    <path
       id="rect2-2-23-0487-374-81-79"
       style="display:inline;fill:#ffffff;fill-rule:evenodd"
       d="m 3,12 v -1 h 1 v 1 z" />
    <path
       id="rect2-2-23-0487-374-81-46"
       style="display:inline;fill:#ffffff;fill-rule:evenodd"
       d="m 2,13 v -1 h 1 v 1 z" />
    <path
       id="rect2-2-23-0487-374-81-88"
       style="display:inline;fill:#ffffff;fill-rule:evenodd"
       d="m 2,14 v -1 h 1 v 1 z" />
    <path
       id="rect2-2-23-0487-374-81-107"
       style="display:inline;fill:#ffffff;fill-rule:evenodd"
       d="m 3,15 v -1 h 1 v 1 z" />
    <path
       id="rect2-2-23-0487-374-81-693"
       style="display:inline;fill:#ffffff;fill-rule:evenodd"
       d="m 4,15 v -1 h 1 v 1 z" />
    <path
       id="rect2-2-23-0487-374-81-98"
       style="display:inline;fill:#ffffff;fill-rule:evenodd"
       d="m 5,14 v -1 h 1 v 1 z" />
    <path
       id="rect2-2-23-0487-374-81-97"
       style="display:inline;fill:#ffffff;fill-rule:evenodd"
       d="m 5,13 v -1 h 1 v 1 z" />
  </g>
</svg>
