<?xml version="1.0" encoding="UTF-8" standalone="no"?>
<!-- Created with Inkscape (http://www.inkscape.org/) -->

<svg
   width="16"
   height="16"
   viewBox="0 0 16 16"
   version="1.1"
   id="svg1"
   inkscape:version="1.3.2 (091e20ef0f, 2023-11-25)"
   sodipodi:docname="network-wireless-signal-excellent-symbolic.svg"
   xmlns:inkscape="http://www.inkscape.org/namespaces/inkscape"
   xmlns:sodipodi="http://sodipodi.sourceforge.net/DTD/sodipodi-0.dtd"
   xmlns="http://www.w3.org/2000/svg"
   xmlns:svg="http://www.w3.org/2000/svg">
  <sodipodi:namedview
     id="namedview1"
     pagecolor="#02ff4a"
     bordercolor="#000000"
     borderopacity="0.25"
     inkscape:showpageshadow="2"
     inkscape:pageopacity="0.0"
     inkscape:pagecheckerboard="0"
     inkscape:deskcolor="#d1d1d1"
     inkscape:document-units="px"
     showgrid="true"
     inkscape:zoom="32"
     inkscape:cx="5.890625"
     inkscape:cy="12.75"
     inkscape:window-width="1390"
     inkscape:window-height="1392"
     inkscape:window-x="0"
     inkscape:window-y="0"
     inkscape:window-maximized="0"
     inkscape:current-layer="layer26">
    <inkscape:grid
       id="grid1"
       units="px"
       originx="0"
       originy="0"
       spacingx="1"
       spacingy="1"
       empcolor="#0099e5"
       empopacity="0.30196078"
       color="#0099e5"
       opacity="0.14901961"
       empspacing="1"
       dotted="false"
       gridanglex="30"
       gridanglez="30"
       visible="true" />
  </sodipodi:namedview>
  <defs
     id="defs1" />
  <g
     inkscape:groupmode="layer"
     id="layer26"
     inkscape:label="network-wireless"
     transform="translate(0,-2)"
     style="display:inline">
    <path
       id="rect2-2-024"
       style="display:inline;fill:#ffffff;fill-rule:evenodd"
       d="m 7,14 h 1 v 1 H 7 Z" />
    <path
       id="rect2-2-722"
       style="display:inline;fill:#ffffff;fill-rule:evenodd"
       d="m 8,14 h 1 v 1 H 8 Z" />
    <path
       id="rect2-2-695"
       style="display:inline;fill:#ffffff;fill-rule:evenodd"
       d="m 7,13 h 1 v 1 H 7 Z" />
    <path
       id="rect2-2-264"
       style="display:inline;fill:#ffffff;fill-rule:evenodd"
       d="m 8,13 h 1 v 1 H 8 Z" />
    <path
       id="rect2-2-4294"
       style="display:inline;fill:#ffffff;fill-rule:evenodd"
       d="m 7,11 h 1 v 1 H 7 Z" />
    <path
       id="rect2-2-107"
       style="display:inline;fill:#ffffff;fill-rule:evenodd"
       d="m 8,11 h 1 v 1 H 8 Z" />
    <path
       id="rect2-2-710"
       style="display:inline;fill:#ffffff;fill-rule:evenodd"
       d="m 9,11 h 1 v 1 H 9 Z" />
    <path
       id="rect2-2-435"
       style="display:inline;fill:#ffffff;fill-rule:evenodd"
       d="m 6,11 h 1 v 1 H 6 Z" />
    <path
       id="rect2-2-15"
       style="display:inline;fill:#ffffff;fill-rule:evenodd"
       d="m 5,12 h 1 v 1 H 5 Z" />
    <path
       id="rect2-2-0612"
       style="display:inline;fill:#ffffff;fill-rule:evenodd"
       d="m 10,12 h 1 v 1 h -1 z" />
    <path
       id="rect2-2-2825"
       style="display:inline;fill:#ffffff;fill-rule:evenodd"
       d="m 10,9 h 1 v 1 h -1 z" />
    <path
       id="rect2-2-2382"
       style="display:inline;fill:#ffffff;fill-rule:evenodd"
       d="m 11,10 h 1 v 1 h -1 z" />
    <path
       id="rect2-2-5230"
       style="display:inline;fill:#ffffff;fill-rule:evenodd"
       d="m 5,9 h 1 v 1 H 5 Z" />
    <path
       id="rect2-2-6046"
       style="display:inline;fill:#ffffff;fill-rule:evenodd"
       d="m 4,10 h 1 v 1 H 4 Z" />
    <path
       id="rect2-2-463"
       style="display:inline;fill:#ffffff;fill-rule:evenodd"
       d="m 3,11 h 1 v 1 H 3 Z" />
    <path
       id="rect2-2-493"
       style="display:inline;fill:#ffffff;fill-rule:evenodd"
       d="m 12,11 h 1 v 1 h -1 z" />
    <path
       id="rect2-2-4680"
       style="display:inline;fill:#ffffff;fill-rule:evenodd"
       d="M 7,8 H 8 V 9 H 7 Z" />
    <path
       id="rect2-2-3422"
       style="display:inline;fill:#ffffff;fill-rule:evenodd"
       d="M 8,8 H 9 V 9 H 8 Z" />
    <path
       id="rect2-2-6854"
       style="display:inline;fill:#ffffff;fill-rule:evenodd"
       d="m 9,8 h 1 V 9 H 9 Z" />
    <path
       id="rect2-2-306"
       style="display:inline;fill:#ffffff;fill-rule:evenodd"
       d="M 6,8 H 7 V 9 H 6 Z" />
    <path
       id="rect2-2-920"
       style="display:inline;fill:#ffffff;fill-rule:evenodd"
       d="M 5,5 H 6 V 6 H 5 Z" />
    <path
       id="rect2-2-940"
       style="display:inline;fill:#ffffff;fill-rule:evenodd"
       d="M 6,5 H 7 V 6 H 6 Z" />
    <path
       id="rect2-2-479"
       style="display:inline;fill:#ffffff;fill-rule:evenodd"
       d="M 7,5 H 8 V 6 H 7 Z" />
    <path
       id="rect2-2-593"
       style="display:inline;fill:#ffffff;fill-rule:evenodd"
       d="M 8,5 H 9 V 6 H 8 Z" />
    <path
       id="rect2-2-09"
       style="display:inline;fill:#ffffff;fill-rule:evenodd"
       d="m 9,5 h 1 V 6 H 9 Z" />
    <path
       id="rect2-2-7546"
       style="display:inline;fill:#ffffff;fill-rule:evenodd"
       d="m 10,5 h 1 v 1 h -1 z" />
    <path
       id="rect2-2-8542"
       style="display:inline;fill:#ffffff;fill-rule:evenodd"
       d="m 11,6 h 1 v 1 h -1 z" />
    <path
       id="rect2-2-6107"
       style="display:inline;fill:#ffffff;fill-rule:evenodd"
       d="M 4,6 H 5 V 7 H 4 Z" />
    <path
       id="rect2-2-554"
       style="display:inline;fill:#ffffff;fill-rule:evenodd"
       d="M 3,7 H 4 V 8 H 3 Z" />
    <path
       id="rect2-2-065"
       style="display:inline;fill:#ffffff;fill-rule:evenodd"
       d="M 2,8 H 3 V 9 H 2 Z" />
    <path
       id="rect2-2-224"
       style="display:inline;fill:#ffffff;fill-rule:evenodd"
       d="m 2,9 h 1 v 1 H 2 Z" />
    <path
       id="rect2-2-888"
       style="display:inline;fill:#ffffff;fill-rule:evenodd"
       d="m 12,7 h 1 v 1 h -1 z" />
    <path
       id="rect2-2-2259"
       style="display:inline;fill:#ffffff;fill-rule:evenodd"
       d="m 13,8 h 1 v 1 h -1 z" />
    <path
       id="rect2-2-707"
       style="display:inline;fill:#ffffff;fill-rule:evenodd"
       d="m 13,9 h 1 v 1 h -1 z" />
    <path
       id="rect2-2-015"
       style="display:inline;fill:#ffffff;fill-rule:evenodd"
       d="m 3,10 h 1 v 1 H 3 Z" />
    <path
       id="rect2-2-627"
       style="display:inline;fill:#ffffff;fill-rule:evenodd"
       d="m 4,9 h 1 v 1 H 4 Z" />
    <path
       id="rect2-2-582"
       style="display:inline;fill:#ffffff;fill-rule:evenodd"
       d="M 5,8 H 6 V 9 H 5 Z" />
    <path
       id="rect2-2-020"
       style="display:inline;fill:#ffffff;fill-rule:evenodd"
       d="M 6,7 H 7 V 8 H 6 Z" />
    <path
       id="rect2-2-446"
       style="display:inline;fill:#ffffff;fill-rule:evenodd"
       d="M 7,7 H 8 V 8 H 7 Z" />
    <path
       id="rect2-2-619"
       style="display:inline;fill:#ffffff;fill-rule:evenodd"
       d="M 8,7 H 9 V 8 H 8 Z" />
    <path
       id="rect2-2-465"
       style="display:inline;fill:#ffffff;fill-rule:evenodd"
       d="m 9,7 h 1 V 8 H 9 Z" />
    <path
       id="rect2-2-891"
       style="display:inline;fill:#ffffff;fill-rule:evenodd"
       d="m 10,8 h 1 v 1 h -1 z" />
    <path
       id="rect2-2-3273"
       style="display:inline;fill:#ffffff;fill-rule:evenodd"
       d="m 11,9 h 1 v 1 h -1 z" />
    <path
       id="rect2-2-788"
       style="display:inline;fill:#ffffff;fill-rule:evenodd"
       d="m 12,10 h 1 v 1 h -1 z" />
    <path
       id="rect2-2-6259"
       style="display:inline;fill:#ffffff;fill-rule:evenodd"
       d="M 2,7 H 3 V 8 H 2 Z" />
    <path
       id="rect2-2-957"
       style="display:inline;fill:#ffffff;fill-rule:evenodd"
       d="M 3,6 H 4 V 7 H 3 Z" />
    <path
       id="rect2-2-629"
       style="display:inline;fill:#ffffff;fill-rule:evenodd"
       d="M 4,5 H 5 V 6 H 4 Z" />
    <path
       id="rect2-2-1676"
       style="display:inline;fill:#ffffff;fill-rule:evenodd"
       d="M 5,4 H 6 V 5 H 5 Z" />
    <path
       id="rect2-2-705"
       style="display:inline;fill:#ffffff;fill-rule:evenodd"
       d="M 6,4 H 7 V 5 H 6 Z" />
    <path
       id="rect2-2-222"
       style="display:inline;fill:#ffffff;fill-rule:evenodd"
       d="M 7,4 H 8 V 5 H 7 Z" />
    <path
       id="rect2-2-785"
       style="display:inline;fill:#ffffff;fill-rule:evenodd"
       d="M 8,4 H 9 V 5 H 8 Z" />
    <path
       id="rect2-2-1420"
       style="display:inline;fill:#ffffff;fill-rule:evenodd"
       d="m 9,4 h 1 V 5 H 9 Z" />
    <path
       id="rect2-2-950"
       style="display:inline;fill:#ffffff;fill-rule:evenodd"
       d="m 10,4 h 1 v 1 h -1 z" />
    <path
       id="rect2-2-882"
       style="display:inline;fill:#ffffff;fill-rule:evenodd"
       d="m 11,5 h 1 v 1 h -1 z" />
    <path
       id="rect2-2-199"
       style="display:inline;fill:#ffffff;fill-rule:evenodd"
       d="m 12,6 h 1 v 1 h -1 z" />
    <path
       id="rect2-2-651"
       style="display:inline;fill:#ffffff;fill-rule:evenodd"
       d="m 13,7 h 1 v 1 h -1 z" />
    <path
       id="rect2-2-659"
       style="display:inline;fill:#ffffff;fill-rule:evenodd"
       d="m 7,15 h 1 v 1 H 7 Z" />
    <path
       id="rect2-2-180"
       style="display:inline;fill:#ffffff;fill-rule:evenodd"
       d="m 8,15 h 1 v 1 H 8 Z" />
    <path
       id="rect2-2-470"
       style="display:inline;fill:#ffffff;fill-rule:evenodd"
       d="m 6,14 h 1 v 1 H 6 Z" />
    <path
       id="rect2-2-041"
       style="display:inline;fill:#ffffff;fill-rule:evenodd"
       d="m 6,15 h 1 v 1 H 6 Z" />
    <path
       id="rect2-2-792"
       style="display:inline;fill:#ffffff;fill-rule:evenodd"
       d="m 9,14 h 1 v 1 H 9 Z" />
    <path
       id="rect2-2-553"
       style="display:inline;fill:#ffffff;fill-rule:evenodd"
       d="m 9,15 h 1 v 1 H 9 Z" />
    <path
       id="rect2-2-913"
       style="display:inline;fill:#ffffff;fill-rule:evenodd"
       d="m 7,16 h 1 v 1 H 7 Z" />
    <path
       id="rect2-2-081"
       style="display:inline;fill:#ffffff;fill-rule:evenodd"
       d="m 8,16 h 1 v 1 H 8 Z" />
  </g>
</svg>
