<?xml version="1.0" encoding="UTF-8" standalone="no"?>
<!-- Created with Inkscape (http://www.inkscape.org/) -->

<svg
   width="16"
   height="16"
   viewBox="0 0 16 16"
   version="1.1"
   id="svg1"
   inkscape:version="1.3.2 (091e20ef0f, 2023-11-25)"
   sodipodi:docname="battery-level-60-symbolic.svg"
   xmlns:inkscape="http://www.inkscape.org/namespaces/inkscape"
   xmlns:sodipodi="http://sodipodi.sourceforge.net/DTD/sodipodi-0.dtd"
   xmlns="http://www.w3.org/2000/svg"
   xmlns:svg="http://www.w3.org/2000/svg">
  <sodipodi:namedview
     id="namedview1"
     pagecolor="#00e927"
     bordercolor="#000000"
     borderopacity="0.25"
     inkscape:showpageshadow="2"
     inkscape:pageopacity="0.0"
     inkscape:pagecheckerboard="0"
     inkscape:deskcolor="#d1d1d1"
     inkscape:document-units="px"
     showgrid="true"
     inkscape:zoom="32"
     inkscape:cx="5.734375"
     inkscape:cy="4.125"
     inkscape:window-width="1261"
     inkscape:window-height="1392"
     inkscape:window-x="0"
     inkscape:window-y="0"
     inkscape:window-maximized="0"
     inkscape:current-layer="layer10">
    <inkscape:grid
       id="grid1"
       units="px"
       originx="0"
       originy="0"
       spacingx="1"
       spacingy="1"
       empcolor="#0099e5"
       empopacity="0.30196078"
       color="#0099e5"
       opacity="0.14901961"
       empspacing="1"
       dotted="false"
       gridanglex="30"
       gridanglez="30"
       visible="true" />
  </sodipodi:namedview>
  <defs
     id="defs1" />
  <g
     inkscape:groupmode="layer"
     id="layer10"
     inkscape:label="battery">
    <path
       id="rect2-2-23-0487-374-81-65-47-38"
       style="display:inline;fill:#ffffff;fill-rule:evenodd"
       d="M 8,15 V 14 H 7 v 1 z" />
    <path
       id="rect2-2-23-0487-374-81-65-47-38-9"
       style="display:inline;fill:#ffffff;fill-rule:evenodd"
       d="M 9,15 V 14 H 8 v 1 z" />
    <path
       id="rect2-2-23-0487-374-81-65-47-38-5"
       style="display:inline;fill:#ffffff;fill-rule:evenodd"
       d="M 10,15 V 14 H 9 v 1 z" />
    <path
       id="rect2-2-23-0487-374-81-65-47-38-4"
       style="display:inline;fill:#ffffff;fill-rule:evenodd"
       d="m 11,15 v -1 h -1 v 1 z" />
    <path
       id="rect2-2-23-0487-374-81-65-47-38-93"
       style="display:inline;fill:#ffffff;fill-rule:evenodd"
       d="m 13,15 v -1 h -1 v 1 z" />
    <path
       id="rect2-2-23-0487-374-81-65-47-38-48"
       style="display:inline;fill:#ffffff;fill-rule:evenodd"
       d="m 12,15 v -1 h -1 v 1 z" />
    <path
       id="rect2-2-23-0487-374-81-65-47-38-2"
       style="display:inline;fill:#ffffff;fill-rule:evenodd"
       d="M 7,15 V 14 H 6 v 1 z" />
    <path
       id="rect2-2-23-0487-374-81-65-47-38-25"
       style="display:inline;fill:#ffffff;fill-rule:evenodd"
       d="M 6,15 V 14 H 5 v 1 z" />
    <path
       id="rect2-2-23-0487-374-81-65-47-38-47"
       style="display:inline;fill:#ffffff;fill-rule:evenodd"
       d="M 5,15 V 14 H 4 v 1 z" />
    <path
       id="rect2-2-23-0487-374-81-65-47-38-3"
       style="display:inline;fill:#ffffff;fill-rule:evenodd"
       d="M 4,15 V 14 H 3 v 1 z" />
    <path
       id="rect2-2-23-0487-374-81-65-47-38-7"
       style="display:inline;fill:#ffffff;fill-rule:evenodd"
       d="M 4,14 V 13 H 3 v 1 z" />
    <path
       id="rect2-2-23-0487-374-81-65-47-38-38"
       style="display:inline;fill:#ffffff;fill-rule:evenodd"
       d="M 4,13 V 12 H 3 v 1 z" />
    <path
       id="rect2-2-23-0487-374-81-65-47-38-1"
       style="display:inline;fill:#ffffff;fill-rule:evenodd"
       d="M 4,12 V 11 H 3 v 1 z" />
    <path
       id="rect2-2-23-0487-374-81-65-47-38-8"
       style="display:inline;fill:#ffffff;fill-rule:evenodd"
       d="M 4,11 V 10 H 3 v 1 z" />
    <path
       id="rect2-2-23-0487-374-81-65-47-38-938"
       style="display:inline;fill:#ffffff;fill-rule:evenodd"
       d="M 4,10 V 9 H 3 v 1 z" />
    <path
       id="rect2-2-23-0487-374-81-65-47-38-259"
       style="display:inline;fill:#ffffff;fill-rule:evenodd"
       d="M 4,9 V 8 H 3 v 1 z" />
    <path
       id="rect2-2-23-0487-374-81-65-47-38-41"
       style="display:inline;fill:#ffffff;fill-rule:evenodd"
       d="M 4,8 V 7 H 3 v 1 z" />
    <path
       id="rect2-2-23-0487-374-81-65-47-38-40"
       style="display:inline;fill:#ffffff;fill-rule:evenodd"
       d="M 4,7 V 6 H 3 v 1 z" />
    <path
       id="rect2-2-23-0487-374-81-65-47-38-409"
       style="display:inline;fill:#ffffff;fill-rule:evenodd"
       d="M 4,6 V 5 H 3 v 1 z" />
    <path
       id="rect2-2-23-0487-374-81-65-47-38-0"
       style="display:inline;fill:#ffffff;fill-rule:evenodd"
       d="M 4,5 V 4 H 3 v 1 z" />
    <path
       id="rect2-2-23-0487-374-81-65-47-38-6"
       style="display:inline;fill:#ffffff;fill-rule:evenodd"
       d="m 13,14 v -1 h -1 v 1 z" />
    <path
       id="rect2-2-23-0487-374-81-65-47-38-68"
       style="display:inline;fill:#ffffff;fill-rule:evenodd"
       d="m 13,13 v -1 h -1 v 1 z" />
    <path
       id="rect2-2-23-0487-374-81-65-47-38-46"
       style="display:inline;fill:#ffffff;fill-rule:evenodd"
       d="m 13,12 v -1 h -1 v 1 z" />
    <path
       id="rect2-2-23-0487-374-81-65-47-38-89"
       style="display:inline;fill:#ffffff;fill-rule:evenodd"
       d="m 13,11 v -1 h -1 v 1 z" />
    <path
       id="rect2-2-23-0487-374-81-65-47-38-86"
       style="display:inline;fill:#ffffff;fill-rule:evenodd"
       d="M 13,10 V 9 h -1 v 1 z" />
    <path
       id="rect2-2-23-0487-374-81-65-47-38-66"
       style="display:inline;fill:#ffffff;fill-rule:evenodd"
       d="M 13,9 V 8 h -1 v 1 z" />
    <path
       id="rect2-2-23-0487-374-81-65-47-38-11"
       style="display:inline;fill:#ffffff;fill-rule:evenodd"
       d="M 13,8 V 7 h -1 v 1 z" />
    <path
       id="rect2-2-23-0487-374-81-65-47-38-60"
       style="display:inline;fill:#ffffff;fill-rule:evenodd"
       d="M 13,7 V 6 h -1 v 1 z" />
    <path
       id="rect2-2-23-0487-374-81-65-47-38-36"
       style="display:inline;fill:#ffffff;fill-rule:evenodd"
       d="M 13,6 V 5 h -1 v 1 z" />
    <path
       id="rect2-2-23-0487-374-81-65-47-38-935"
       style="display:inline;fill:#ffffff;fill-rule:evenodd"
       d="M 13,5 V 4 h -1 v 1 z" />
    <path
       id="rect2-2-23-0487-374-81-65-47-38-937"
       style="display:inline;fill:#ffffff;fill-rule:evenodd"
       d="M 13,4 V 3 h -1 v 1 z" />
    <path
       id="rect2-2-23-0487-374-81-65-47-38-69"
       style="display:inline;fill:#ffffff;fill-rule:evenodd"
       d="M 13,3 V 2 h -1 v 1 z" />
    <path
       id="rect2-2-23-0487-374-81-65-47-38-78"
       style="display:inline;fill:#ffffff;fill-rule:evenodd"
       d="M 4,4 V 3 H 3 v 1 z" />
    <path
       id="rect2-2-23-0487-374-81-65-47-38-83"
       style="display:inline;fill:#ffffff;fill-rule:evenodd"
       d="M 4,3 V 2 H 3 v 1 z" />
    <path
       id="rect2-2-23-0487-374-81-65-47-38-13"
       style="display:inline;fill:#ffffff;fill-rule:evenodd"
       d="M 5,3 V 2 H 4 v 1 z" />
    <path
       id="rect2-2-23-0487-374-81-65-47-38-94"
       style="display:inline;fill:#ffffff;fill-rule:evenodd"
       d="M 6,3 V 2 H 5 v 1 z" />
    <path
       id="rect2-2-23-0487-374-81-65-47-38-59"
       style="display:inline;fill:#ffffff;fill-rule:evenodd"
       d="M 7,3 V 2 H 6 v 1 z" />
    <path
       id="rect2-2-23-0487-374-81-65-47-38-31"
       style="display:inline;fill:#ffffff;fill-rule:evenodd"
       d="M 8,3 V 2 H 7 v 1 z" />
    <path
       id="rect2-2-23-0487-374-81-65-47-38-369"
       style="display:inline;fill:#ffffff;fill-rule:evenodd"
       d="M 9,3 V 2 H 8 v 1 z" />
    <path
       id="rect2-2-23-0487-374-81-65-47-38-98"
       style="display:inline;fill:#ffffff;fill-rule:evenodd"
       d="M 10,3 V 2 H 9 v 1 z" />
    <path
       id="rect2-2-23-0487-374-81-65-47-38-30"
       style="display:inline;fill:#ffffff;fill-rule:evenodd"
       d="M 11,3 V 2 h -1 v 1 z" />
    <path
       id="rect2-2-23-0487-374-81-65-47-38-592"
       style="display:inline;fill:#ffffff;fill-rule:evenodd"
       d="M 12,3 V 2 h -1 v 1 z" />
    <path
       id="rect2-2-23-0487-374-81-65-47-38-473"
       style="display:inline;fill:#ffffff;fill-rule:evenodd"
       d="M 8,2 V 1 H 7 v 1 z" />
    <path
       id="rect2-2-23-0487-374-81-65-47-38-92"
       style="display:inline;fill:#ffffff;fill-rule:evenodd"
       d="M 9,2 V 1 H 8 v 1 z" />
    <path
       id="rect2-2-23-0487-374-81-65-47-38-84"
       style="display:inline;fill:#ffffff;fill-rule:evenodd"
       d="M 10,2 V 1 H 9 v 1 z" />
    <path
       id="rect2-2-23-0487-374-81-65-47-38-54"
       style="display:inline;fill:#ffffff;fill-rule:evenodd"
       d="M 7,2 V 1 H 6 v 1 z" />
    <path
       id="rect2-2-23-0487-374-81-65-47-38-16"
       style="display:inline;fill:#ffffff;fill-rule:evenodd"
       d="M 11,8 V 7 h -1 v 1 z" />
    <path
       id="rect2-2-23-0487-374-81-65-47-38-381"
       style="display:inline;fill:#ffffff;fill-rule:evenodd"
       d="M 11,9 V 8 h -1 v 1 z" />
    <path
       id="rect2-2-23-0487-374-81-65-47-38-927"
       style="display:inline;fill:#ffffff;fill-rule:evenodd"
       d="M 11,10 V 9 h -1 v 1 z" />
    <path
       id="rect2-2-23-0487-374-81-65-47-38-90"
       style="display:inline;fill:#ffffff;fill-rule:evenodd"
       d="M 6,8 V 7 H 5 v 1 z" />
    <path
       id="rect2-2-23-0487-374-81-65-47-38-687"
       style="display:inline;fill:#ffffff;fill-rule:evenodd"
       d="M 6,9 V 8 H 5 v 1 z" />
    <path
       id="rect2-2-23-0487-374-81-65-47-38-04"
       style="display:inline;fill:#ffffff;fill-rule:evenodd"
       d="M 6,10 V 9 H 5 v 1 z" />
    <path
       id="rect2-2-23-0487-374-81-65-47-38-18"
       style="display:inline;fill:#ffffff;fill-rule:evenodd"
       d="M 6,11 V 10 H 5 v 1 z" />
    <path
       id="rect2-2-23-0487-374-81-65-47-38-00"
       style="display:inline;fill:#ffffff;fill-rule:evenodd"
       d="M 6,12 V 11 H 5 v 1 z" />
    <path
       id="rect2-2-23-0487-374-81-65-47-38-99"
       style="display:inline;fill:#ffffff;fill-rule:evenodd"
       d="M 6,13 V 12 H 5 v 1 z" />
    <path
       id="rect2-2-23-0487-374-81-65-47-38-09"
       style="display:inline;fill:#ffffff;fill-rule:evenodd"
       d="M 7,13 V 12 H 6 v 1 z" />
    <path
       id="rect2-2-23-0487-374-81-65-47-38-73"
       style="display:inline;fill:#ffffff;fill-rule:evenodd"
       d="M 8,13 V 12 H 7 v 1 z" />
    <path
       id="rect2-2-23-0487-374-81-65-47-38-615"
       style="display:inline;fill:#ffffff;fill-rule:evenodd"
       d="M 9,13 V 12 H 8 v 1 z" />
    <path
       id="rect2-2-23-0487-374-81-65-47-38-21"
       style="display:inline;fill:#ffffff;fill-rule:evenodd"
       d="M 10,13 V 12 H 9 v 1 z" />
    <path
       id="rect2-2-23-0487-374-81-65-47-38-905"
       style="display:inline;fill:#ffffff;fill-rule:evenodd"
       d="m 11,13 v -1 h -1 v 1 z" />
    <path
       id="rect2-2-23-0487-374-81-65-47-38-4736"
       style="display:inline;fill:#ffffff;fill-rule:evenodd"
       d="m 11,12 v -1 h -1 v 1 z" />
    <path
       id="rect2-2-23-0487-374-81-65-47-38-53"
       style="display:inline;fill:#ffffff;fill-rule:evenodd"
       d="m 11,11 v -1 h -1 v 1 z" />
    <path
       id="rect2-2-23-0487-374-81-65-47-38-72"
       style="display:inline;fill:#ffffff;fill-rule:evenodd"
       d="M 10,11 V 10 H 9 v 1 z" />
    <path
       id="rect2-2-23-0487-374-81-65-47-38-91"
       style="display:inline;fill:#ffffff;fill-rule:evenodd"
       d="M 10,12 V 11 H 9 v 1 z" />
    <path
       id="rect2-2-23-0487-374-81-65-47-38-419"
       style="display:inline;fill:#ffffff;fill-rule:evenodd"
       d="M 9,12 V 11 H 8 v 1 z" />
    <path
       id="rect2-2-23-0487-374-81-65-47-38-892"
       style="display:inline;fill:#ffffff;fill-rule:evenodd"
       d="M 9,11 V 10 H 8 v 1 z" />
    <path
       id="rect2-2-23-0487-374-81-65-47-38-19"
       style="display:inline;fill:#ffffff;fill-rule:evenodd"
       d="M 9,10 V 9 H 8 v 1 z" />
    <path
       id="rect2-2-23-0487-374-81-65-47-38-51"
       style="display:inline;fill:#ffffff;fill-rule:evenodd"
       d="M 9,9 V 8 H 8 v 1 z" />
    <path
       id="rect2-2-23-0487-374-81-65-47-38-26"
       style="display:inline;fill:#ffffff;fill-rule:evenodd"
       d="M 9,8 V 7 H 8 v 1 z" />
    <path
       id="rect2-2-23-0487-374-81-65-47-38-58"
       style="display:inline;fill:#ffffff;fill-rule:evenodd"
       d="M 8,8 V 7 H 7 v 1 z" />
    <path
       id="rect2-2-23-0487-374-81-65-47-38-542"
       style="display:inline;fill:#ffffff;fill-rule:evenodd"
       d="M 7,8 V 7 H 6 v 1 z" />
    <path
       id="rect2-2-23-0487-374-81-65-47-38-20"
       style="display:inline;fill:#ffffff;fill-rule:evenodd"
       d="M 7,9 V 8 H 6 v 1 z" />
    <path
       id="rect2-2-23-0487-374-81-65-47-38-515"
       style="display:inline;fill:#ffffff;fill-rule:evenodd"
       d="M 8,9 V 8 H 7 v 1 z" />
    <path
       id="rect2-2-23-0487-374-81-65-47-38-488"
       style="display:inline;fill:#ffffff;fill-rule:evenodd"
       d="M 8,10 V 9 H 7 v 1 z" />
    <path
       id="rect2-2-23-0487-374-81-65-47-38-167"
       style="display:inline;fill:#ffffff;fill-rule:evenodd"
       d="M 7,10 V 9 H 6 v 1 z" />
    <path
       id="rect2-2-23-0487-374-81-65-47-38-85"
       style="display:inline;fill:#ffffff;fill-rule:evenodd"
       d="M 7,11 V 10 H 6 v 1 z" />
    <path
       id="rect2-2-23-0487-374-81-65-47-38-67"
       style="display:inline;fill:#ffffff;fill-rule:evenodd"
       d="M 8,11 V 10 H 7 v 1 z" />
    <path
       id="rect2-2-23-0487-374-81-65-47-38-477"
       style="display:inline;fill:#ffffff;fill-rule:evenodd"
       d="M 8,12 V 11 H 7 v 1 z" />
    <path
       id="rect2-2-23-0487-374-81-65-47-38-193"
       style="display:inline;fill:#ffffff;fill-rule:evenodd"
       d="M 7,12 V 11 H 6 v 1 z" />
    <path
       id="rect2-2-23-0487-374-81-65-47-38-34"
       style="display:inline;fill:#ffffff;fill-rule:evenodd"
       d="M 10,10 V 9 H 9 v 1 z" />
    <path
       id="rect2-2-23-0487-374-81-65-47-38-14"
       style="display:inline;fill:#ffffff;fill-rule:evenodd"
       d="M 10,9 V 8 H 9 v 1 z" />
    <path
       id="rect2-2-23-0487-374-81-65-47-38-326"
       style="display:inline;fill:#ffffff;fill-rule:evenodd"
       d="M 10,8 V 7 H 9 v 1 z" />
  </g>
</svg>
