<?xml version="1.0" encoding="UTF-8" standalone="no"?>
<!-- Created with Inkscape (http://www.inkscape.org/) -->

<svg
   width="16"
   height="16"
   viewBox="0 0 16 16"
   version="1.1"
   id="svg1"
   inkscape:version="1.3.2 (091e20ef0f, 2023-11-25)"
   sodipodi:docname="folder-downloads-symbolic.svg"
   xmlns:inkscape="http://www.inkscape.org/namespaces/inkscape"
   xmlns:sodipodi="http://sodipodi.sourceforge.net/DTD/sodipodi-0.dtd"
   xmlns="http://www.w3.org/2000/svg"
   xmlns:svg="http://www.w3.org/2000/svg">
  <sodipodi:namedview
     id="namedview1"
     pagecolor="#00e927"
     bordercolor="#000000"
     borderopacity="0.25"
     inkscape:showpageshadow="2"
     inkscape:pageopacity="0.0"
     inkscape:pagecheckerboard="0"
     inkscape:deskcolor="#d1d1d1"
     inkscape:document-units="px"
     showgrid="true"
     inkscape:zoom="32"
     inkscape:cx="5.734375"
     inkscape:cy="4.125"
     inkscape:window-width="1261"
     inkscape:window-height="1392"
     inkscape:window-x="0"
     inkscape:window-y="0"
     inkscape:window-maximized="0"
     inkscape:current-layer="layer9">
    <inkscape:grid
       id="grid1"
       units="px"
       originx="0"
       originy="0"
       spacingx="1"
       spacingy="1"
       empcolor="#0099e5"
       empopacity="0.30196078"
       color="#0099e5"
       opacity="0.14901961"
       empspacing="1"
       dotted="false"
       gridanglex="30"
       gridanglez="30"
       visible="true" />
  </sodipodi:namedview>
  <defs
     id="defs1" />
  <g
     inkscape:groupmode="layer"
     id="layer9"
     inkscape:label="downloads"
     transform="translate(0,-1)">
    <path
       id="rect2-2-23-0487-374-81-65-47"
       style="display:inline;fill:#ffffff;fill-rule:evenodd"
       d="M 8,15 V 14 H 7 v 1 z" />
    <path
       id="rect2-2-23-0487-374-81-65-47-2"
       style="display:inline;fill:#ffffff;fill-rule:evenodd"
       d="M 9,15 V 14 H 8 v 1 z" />
    <path
       id="rect2-2-23-0487-374-81-65-47-7"
       style="display:inline;fill:#ffffff;fill-rule:evenodd"
       d="M 10,14 V 13 H 9 v 1 z" />
    <path
       id="rect2-2-23-0487-374-81-65-47-29"
       style="display:inline;fill:#ffffff;fill-rule:evenodd"
       d="m 11,13 v -1 h -1 v 1 z" />
    <path
       id="rect2-2-23-0487-374-81-65-47-0"
       style="display:inline;fill:#ffffff;fill-rule:evenodd"
       d="m 12,12 v -1 h -1 v 1 z" />
    <path
       id="rect2-2-23-0487-374-81-65-47-1"
       style="display:inline;fill:#ffffff;fill-rule:evenodd"
       d="M 7,14 V 13 H 6 v 1 z" />
    <path
       id="rect2-2-23-0487-374-81-65-47-4"
       style="display:inline;fill:#ffffff;fill-rule:evenodd"
       d="M 6,13 V 12 H 5 v 1 z" />
    <path
       id="rect2-2-23-0487-374-81-65-47-78"
       style="display:inline;fill:#ffffff;fill-rule:evenodd"
       d="M 5,12 V 11 H 4 v 1 z" />
    <path
       id="rect2-2-23-0487-374-81-65-47-3"
       style="display:inline;fill:#ffffff;fill-rule:evenodd"
       d="M 4,11 V 10 H 3 v 1 z" />
    <path
       id="rect2-2-23-0487-374-81-65-47-71"
       style="display:inline;fill:#ffffff;fill-rule:evenodd"
       d="m 13,11 v -1 h -1 v 1 z" />
    <path
       id="rect2-2-23-0487-374-81-65-47-10"
       style="display:inline;fill:#ffffff;fill-rule:evenodd"
       d="m 12,11 v -1 h -1 v 1 z" />
    <path
       id="rect2-2-23-0487-374-81-65-47-02"
       style="display:inline;fill:#ffffff;fill-rule:evenodd"
       d="m 11,11 v -1 h -1 v 1 z" />
    <path
       id="rect2-2-23-0487-374-81-65-47-43"
       style="display:inline;fill:#ffffff;fill-rule:evenodd"
       d="M 10,11 V 10 H 9 v 1 z" />
    <path
       id="rect2-2-23-0487-374-81-65-47-07"
       style="display:inline;fill:#ffffff;fill-rule:evenodd"
       d="M 9,11 V 10 H 8 v 1 z" />
    <path
       id="rect2-2-23-0487-374-81-65-47-25"
       style="display:inline;fill:#ffffff;fill-rule:evenodd"
       d="M 9,10 V 9 H 8 v 1 z" />
    <path
       id="rect2-2-23-0487-374-81-65-47-9"
       style="display:inline;fill:#ffffff;fill-rule:evenodd"
       d="M 9,9 V 8 H 8 v 1 z" />
    <path
       id="rect2-2-23-0487-374-81-65-47-97"
       style="display:inline;fill:#ffffff;fill-rule:evenodd"
       d="M 9,8 V 7 H 8 v 1 z" />
    <path
       id="rect2-2-23-0487-374-81-65-47-6"
       style="display:inline;fill:#ffffff;fill-rule:evenodd"
       d="M 9,7 V 6 H 8 v 1 z" />
    <path
       id="rect2-2-23-0487-374-81-65-47-16"
       style="display:inline;fill:#ffffff;fill-rule:evenodd"
       d="M 9,6 V 5 H 8 v 1 z" />
    <path
       id="rect2-2-23-0487-374-81-65-47-37"
       style="display:inline;fill:#ffffff;fill-rule:evenodd"
       d="M 9,5 V 4 H 8 v 1 z" />
    <path
       id="rect2-2-23-0487-374-81-65-47-74"
       style="display:inline;fill:#ffffff;fill-rule:evenodd"
       d="M 9,4 V 3 H 8 v 1 z" />
    <path
       id="rect2-2-23-0487-374-81-65-47-94"
       style="display:inline;fill:#ffffff;fill-rule:evenodd"
       d="M 10,10 V 9 H 9 v 1 z" />
    <path
       id="rect2-2-23-0487-374-81-65-47-11"
       style="display:inline;fill:#ffffff;fill-rule:evenodd"
       d="M 10,9 V 8 H 9 v 1 z" />
    <path
       id="rect2-2-23-0487-374-81-65-47-8"
       style="display:inline;fill:#ffffff;fill-rule:evenodd"
       d="M 10,8 V 7 H 9 v 1 z" />
    <path
       id="rect2-2-23-0487-374-81-65-47-5"
       style="display:inline;fill:#ffffff;fill-rule:evenodd"
       d="M 10,7 V 6 H 9 v 1 z" />
    <path
       id="rect2-2-23-0487-374-81-65-47-51"
       style="display:inline;fill:#ffffff;fill-rule:evenodd"
       d="M 10,6 V 5 H 9 v 1 z" />
    <path
       id="rect2-2-23-0487-374-81-65-47-56"
       style="display:inline;fill:#ffffff;fill-rule:evenodd"
       d="M 10,5 V 4 H 9 v 1 z" />
    <path
       id="rect2-2-23-0487-374-81-65-47-55"
       style="display:inline;fill:#ffffff;fill-rule:evenodd"
       d="M 10,4 V 3 H 9 v 1 z" />
    <path
       id="rect2-2-23-0487-374-81-65-47-09"
       style="display:inline;fill:#ffffff;fill-rule:evenodd"
       d="M 7,11 V 10 H 6 v 1 z" />
    <path
       id="rect2-2-23-0487-374-81-65-47-62"
       style="display:inline;fill:#ffffff;fill-rule:evenodd"
       d="M 7,10 V 9 H 6 v 1 z" />
    <path
       id="rect2-2-23-0487-374-81-65-47-27"
       style="display:inline;fill:#ffffff;fill-rule:evenodd"
       d="M 7,9 V 8 H 6 v 1 z" />
    <path
       id="rect2-2-23-0487-374-81-65-47-90"
       style="display:inline;fill:#ffffff;fill-rule:evenodd"
       d="M 7,8 V 7 H 6 v 1 z" />
    <path
       id="rect2-2-23-0487-374-81-65-47-67"
       style="display:inline;fill:#ffffff;fill-rule:evenodd"
       d="M 7,7 V 6 H 6 v 1 z" />
    <path
       id="rect2-2-23-0487-374-81-65-47-01"
       style="display:inline;fill:#ffffff;fill-rule:evenodd"
       d="M 7,6 V 5 H 6 v 1 z" />
    <path
       id="rect2-2-23-0487-374-81-65-47-14"
       style="display:inline;fill:#ffffff;fill-rule:evenodd"
       d="M 7,5 V 4 H 6 v 1 z" />
    <path
       id="rect2-2-23-0487-374-81-65-47-971"
       style="display:inline;fill:#ffffff;fill-rule:evenodd"
       d="M 7,4 V 3 H 6 v 1 z" />
    <path
       id="rect2-2-23-0487-374-81-65-47-84"
       style="display:inline;fill:#ffffff;fill-rule:evenodd"
       d="M 8,4 V 3 H 7 v 1 z" />
    <path
       id="rect2-2-23-0487-374-81-65-47-83"
       style="display:inline;fill:#ffffff;fill-rule:evenodd"
       d="M 8,5 V 4 H 7 v 1 z" />
    <path
       id="rect2-2-23-0487-374-81-65-47-40"
       style="display:inline;fill:#ffffff;fill-rule:evenodd"
       d="M 8,6 V 5 H 7 v 1 z" />
    <path
       id="rect2-2-23-0487-374-81-65-47-403"
       style="display:inline;fill:#ffffff;fill-rule:evenodd"
       d="M 8,7 V 6 H 7 v 1 z" />
    <path
       id="rect2-2-23-0487-374-81-65-47-49"
       style="display:inline;fill:#ffffff;fill-rule:evenodd"
       d="M 8,8 V 7 H 7 v 1 z" />
    <path
       id="rect2-2-23-0487-374-81-65-47-75"
       style="display:inline;fill:#ffffff;fill-rule:evenodd"
       d="M 8,9 V 8 H 7 v 1 z" />
    <path
       id="rect2-2-23-0487-374-81-65-47-38"
       style="display:inline;fill:#ffffff;fill-rule:evenodd"
       d="M 8,10 V 9 H 7 v 1 z" />
    <path
       id="rect2-2-23-0487-374-81-65-47-91"
       style="display:inline;fill:#ffffff;fill-rule:evenodd"
       d="M 8,11 V 10 H 7 v 1 z" />
    <path
       id="rect2-2-23-0487-374-81-65-47-092"
       style="display:inline;fill:#ffffff;fill-rule:evenodd"
       d="M 6,11 V 10 H 5 v 1 z" />
    <path
       id="rect2-2-23-0487-374-81-65-47-99"
       style="display:inline;fill:#ffffff;fill-rule:evenodd"
       d="M 5,11 V 10 H 4 v 1 z" />
    <path
       id="rect2-2-23-0487-374-81-65-47-30"
       style="display:inline;fill:#ffffff;fill-rule:evenodd"
       d="M 6,12 V 11 H 5 v 1 z" />
    <path
       id="rect2-2-23-0487-374-81-65-47-33"
       style="display:inline;fill:#ffffff;fill-rule:evenodd"
       d="M 7,12 V 11 H 6 v 1 z" />
    <path
       id="rect2-2-23-0487-374-81-65-47-073"
       style="display:inline;fill:#ffffff;fill-rule:evenodd"
       d="M 8,12 V 11 H 7 v 1 z" />
    <path
       id="rect2-2-23-0487-374-81-65-47-13"
       style="display:inline;fill:#ffffff;fill-rule:evenodd"
       d="M 9,12 V 11 H 8 v 1 z" />
    <path
       id="rect2-2-23-0487-374-81-65-47-32"
       style="display:inline;fill:#ffffff;fill-rule:evenodd"
       d="M 10,12 V 11 H 9 v 1 z" />
    <path
       id="rect2-2-23-0487-374-81-65-47-59"
       style="display:inline;fill:#ffffff;fill-rule:evenodd"
       d="m 11,12 v -1 h -1 v 1 z" />
    <path
       id="rect2-2-23-0487-374-81-65-47-563"
       style="display:inline;fill:#ffffff;fill-rule:evenodd"
       d="M 10,13 V 12 H 9 v 1 z" />
    <path
       id="rect2-2-23-0487-374-81-65-47-52"
       style="display:inline;fill:#ffffff;fill-rule:evenodd"
       d="M 9,13 V 12 H 8 v 1 z" />
    <path
       id="rect2-2-23-0487-374-81-65-47-82"
       style="display:inline;fill:#ffffff;fill-rule:evenodd"
       d="M 8,13 V 12 H 7 v 1 z" />
    <path
       id="rect2-2-23-0487-374-81-65-47-100"
       style="display:inline;fill:#ffffff;fill-rule:evenodd"
       d="M 7,13 V 12 H 6 v 1 z" />
    <path
       id="rect2-2-23-0487-374-81-65-47-623"
       style="display:inline;fill:#ffffff;fill-rule:evenodd"
       d="M 8,14 V 13 H 7 v 1 z" />
    <path
       id="rect2-2-23-0487-374-81-65-47-142"
       style="display:inline;fill:#ffffff;fill-rule:evenodd"
       d="M 9,14 V 13 H 8 v 1 z" />
  </g>
</svg>
