<?xml version="1.0" encoding="UTF-8" standalone="no"?>
<!-- Created with Inkscape (http://www.inkscape.org/) -->

<svg
   width="16"
   height="16"
   viewBox="0 0 16 16"
   version="1.1"
   id="svg1"
   inkscape:version="1.3.2 (091e20ef0f, 2023-11-25)"
   sodipodi:docname="folder-documents-symbolic.svg"
   xmlns:inkscape="http://www.inkscape.org/namespaces/inkscape"
   xmlns:sodipodi="http://sodipodi.sourceforge.net/DTD/sodipodi-0.dtd"
   xmlns="http://www.w3.org/2000/svg"
   xmlns:svg="http://www.w3.org/2000/svg">
  <sodipodi:namedview
     id="namedview1"
     pagecolor="#00e927"
     bordercolor="#000000"
     borderopacity="0.25"
     inkscape:showpageshadow="2"
     inkscape:pageopacity="0.0"
     inkscape:pagecheckerboard="0"
     inkscape:deskcolor="#d1d1d1"
     inkscape:document-units="px"
     showgrid="true"
     inkscape:zoom="32"
     inkscape:cx="5.734375"
     inkscape:cy="4.125"
     inkscape:window-width="1261"
     inkscape:window-height="1392"
     inkscape:window-x="0"
     inkscape:window-y="0"
     inkscape:window-maximized="0"
     inkscape:current-layer="layer8">
    <inkscape:grid
       id="grid1"
       units="px"
       originx="0"
       originy="0"
       spacingx="1"
       spacingy="1"
       empcolor="#0099e5"
       empopacity="0.30196078"
       color="#0099e5"
       opacity="0.14901961"
       empspacing="1"
       dotted="false"
       gridanglex="30"
       gridanglez="30"
       visible="true" />
  </sodipodi:namedview>
  <defs
     id="defs1" />
  <g
     inkscape:groupmode="layer"
     id="layer8"
     inkscape:label="documents">
    <path
       id="rect2-2-23-0487-374-81-65"
       style="display:inline;fill:#ffffff;fill-rule:evenodd"
       d="M 4,2 V 1 H 3 v 1 z" />
    <path
       id="rect2-2-23-0487-374-81-65-1"
       style="display:inline;fill:#ffffff;fill-rule:evenodd"
       d="M 4,3 V 2 H 3 v 1 z" />
    <path
       id="rect2-2-23-0487-374-81-65-9"
       style="display:inline;fill:#ffffff;fill-rule:evenodd"
       d="M 4,4 V 3 H 3 v 1 z" />
    <path
       id="rect2-2-23-0487-374-81-65-6"
       style="display:inline;fill:#ffffff;fill-rule:evenodd"
       d="M 4,5 V 4 H 3 v 1 z" />
    <path
       id="rect2-2-23-0487-374-81-65-0"
       style="display:inline;fill:#ffffff;fill-rule:evenodd"
       d="M 4,6 V 5 H 3 v 1 z" />
    <path
       id="rect2-2-23-0487-374-81-65-2"
       style="display:inline;fill:#ffffff;fill-rule:evenodd"
       d="M 4,7 V 6 H 3 v 1 z" />
    <path
       id="rect2-2-23-0487-374-81-65-3"
       style="display:inline;fill:#ffffff;fill-rule:evenodd"
       d="M 4,8 V 7 H 3 v 1 z" />
    <path
       id="rect2-2-23-0487-374-81-65-07"
       style="display:inline;fill:#ffffff;fill-rule:evenodd"
       d="M 4,9 V 8 H 3 v 1 z" />
    <path
       id="rect2-2-23-0487-374-81-65-7"
       style="display:inline;fill:#ffffff;fill-rule:evenodd"
       d="M 4,10 V 9 H 3 v 1 z" />
    <path
       id="rect2-2-23-0487-374-81-65-12"
       style="display:inline;fill:#ffffff;fill-rule:evenodd"
       d="M 4,11 V 10 H 3 v 1 z" />
    <path
       id="rect2-2-23-0487-374-81-65-63"
       style="display:inline;fill:#ffffff;fill-rule:evenodd"
       d="M 4,12 V 11 H 3 v 1 z" />
    <path
       id="rect2-2-23-0487-374-81-65-8"
       style="display:inline;fill:#ffffff;fill-rule:evenodd"
       d="M 4,13 V 12 H 3 v 1 z" />
    <path
       id="rect2-2-23-0487-374-81-65-99"
       style="display:inline;fill:#ffffff;fill-rule:evenodd"
       d="M 4,14 V 13 H 3 v 1 z" />
    <path
       id="rect2-2-23-0487-374-81-65-68"
       style="display:inline;fill:#ffffff;fill-rule:evenodd"
       d="M 4,15 V 14 H 3 v 1 z" />
    <path
       id="rect2-2-23-0487-374-81-65-98"
       style="display:inline;fill:#ffffff;fill-rule:evenodd"
       d="m 13,15 v -1 h -1 v 1 z" />
    <path
       id="rect2-2-23-0487-374-81-65-71"
       style="display:inline;fill:#ffffff;fill-rule:evenodd"
       d="m 13,14 v -1 h -1 v 1 z" />
    <path
       id="rect2-2-23-0487-374-81-65-4"
       style="display:inline;fill:#ffffff;fill-rule:evenodd"
       d="m 13,13 v -1 h -1 v 1 z" />
    <path
       id="rect2-2-23-0487-374-81-65-00"
       style="display:inline;fill:#ffffff;fill-rule:evenodd"
       d="m 13,12 v -1 h -1 v 1 z" />
    <path
       id="rect2-2-23-0487-374-81-65-19"
       style="display:inline;fill:#ffffff;fill-rule:evenodd"
       d="m 13,11 v -1 h -1 v 1 z" />
    <path
       id="rect2-2-23-0487-374-81-65-34"
       style="display:inline;fill:#ffffff;fill-rule:evenodd"
       d="M 13,10 V 9 h -1 v 1 z" />
    <path
       id="rect2-2-23-0487-374-81-65-78"
       style="display:inline;fill:#ffffff;fill-rule:evenodd"
       d="M 13,9 V 8 h -1 v 1 z" />
    <path
       id="rect2-2-23-0487-374-81-65-121"
       style="display:inline;fill:#ffffff;fill-rule:evenodd"
       d="M 13,8 V 7 h -1 v 1 z" />
    <path
       id="rect2-2-23-0487-374-81-65-64"
       style="display:inline;fill:#ffffff;fill-rule:evenodd"
       d="M 13,7 V 6 h -1 v 1 z" />
    <path
       id="rect2-2-23-0487-374-81-65-10"
       style="display:inline;fill:#ffffff;fill-rule:evenodd"
       d="M 13,6 V 5 h -1 v 1 z" />
    <path
       id="rect2-2-23-0487-374-81-65-32"
       style="display:inline;fill:#ffffff;fill-rule:evenodd"
       d="M 12,5 V 4 h -1 v 1 z" />
    <path
       id="rect2-2-23-0487-374-81-65-61"
       style="display:inline;fill:#ffffff;fill-rule:evenodd"
       d="M 11,4 V 3 h -1 v 1 z" />
    <path
       id="rect2-2-23-0487-374-81-65-14"
       style="display:inline;fill:#ffffff;fill-rule:evenodd"
       d="M 10,3 V 2 H 9 v 1 z" />
    <path
       id="rect2-2-23-0487-374-81-65-36"
       style="display:inline;fill:#ffffff;fill-rule:evenodd"
       d="M 9,2 V 1 H 8 v 1 z" />
    <path
       id="rect2-2-23-0487-374-81-65-43"
       style="display:inline;fill:#ffffff;fill-rule:evenodd"
       d="M 8,2 V 1 H 7 v 1 z" />
    <path
       id="rect2-2-23-0487-374-81-65-67"
       style="display:inline;fill:#ffffff;fill-rule:evenodd"
       d="M 7,2 V 1 H 6 v 1 z" />
    <path
       id="rect2-2-23-0487-374-81-65-996"
       style="display:inline;fill:#ffffff;fill-rule:evenodd"
       d="M 6,2 V 1 H 5 v 1 z" />
    <path
       id="rect2-2-23-0487-374-81-65-5"
       style="display:inline;fill:#ffffff;fill-rule:evenodd"
       d="M 5,2 V 1 H 4 v 1 z" />
    <path
       id="rect2-2-23-0487-374-81-65-47"
       style="display:inline;fill:#ffffff;fill-rule:evenodd"
       d="M 8,3 V 2 H 7 v 1 z" />
    <path
       id="rect2-2-23-0487-374-81-65-06"
       style="display:inline;fill:#ffffff;fill-rule:evenodd"
       d="M 8,4 V 3 H 7 v 1 z" />
    <path
       id="rect2-2-23-0487-374-81-65-90"
       style="display:inline;fill:#ffffff;fill-rule:evenodd"
       d="M 8,5 V 4 H 7 v 1 z" />
    <path
       id="rect2-2-23-0487-374-81-65-04"
       style="display:inline;fill:#ffffff;fill-rule:evenodd"
       d="M 8,6 V 5 H 7 v 1 z" />
    <path
       id="rect2-2-23-0487-374-81-65-062"
       style="display:inline;fill:#ffffff;fill-rule:evenodd"
       d="M 9,7 V 6 H 8 v 1 z" />
    <path
       id="rect2-2-23-0487-374-81-65-41"
       style="display:inline;fill:#ffffff;fill-rule:evenodd"
       d="M 10,7 V 6 H 9 v 1 z" />
    <path
       id="rect2-2-23-0487-374-81-65-103"
       style="display:inline;fill:#ffffff;fill-rule:evenodd"
       d="M 11,7 V 6 h -1 v 1 z" />
    <path
       id="rect2-2-23-0487-374-81-65-0622"
       style="display:inline;fill:#ffffff;fill-rule:evenodd"
       d="M 12,7 V 6 h -1 v 1 z" />
    <path
       id="rect2-2-23-0487-374-81-65-51"
       style="display:inline;fill:#ffffff;fill-rule:evenodd"
       d="m 12,15 v -1 h -1 v 1 z" />
    <path
       id="rect2-2-23-0487-374-81-65-62"
       style="display:inline;fill:#ffffff;fill-rule:evenodd"
       d="m 11,15 v -1 h -1 v 1 z" />
    <path
       id="rect2-2-23-0487-374-81-65-999"
       style="display:inline;fill:#ffffff;fill-rule:evenodd"
       d="M 10,15 V 14 H 9 v 1 z" />
    <path
       id="rect2-2-23-0487-374-81-65-70"
       style="display:inline;fill:#ffffff;fill-rule:evenodd"
       d="M 9,15 V 14 H 8 v 1 z" />
    <path
       id="rect2-2-23-0487-374-81-65-89"
       style="display:inline;fill:#ffffff;fill-rule:evenodd"
       d="M 8,15 V 14 H 7 v 1 z" />
    <path
       id="rect2-2-23-0487-374-81-65-22"
       style="display:inline;fill:#ffffff;fill-rule:evenodd"
       d="M 7,15 V 14 H 6 v 1 z" />
    <path
       id="rect2-2-23-0487-374-81-65-18"
       style="display:inline;fill:#ffffff;fill-rule:evenodd"
       d="M 6,15 V 14 H 5 v 1 z" />
    <path
       id="rect2-2-23-0487-374-81-65-77"
       style="display:inline;fill:#ffffff;fill-rule:evenodd"
       d="M 5,15 V 14 H 4 v 1 z" />
    <path
       id="rect2-2-23-0487-374-81-65-11"
       style="display:inline;fill:#ffffff;fill-rule:evenodd"
       d="M 5,14 V 13 H 4 v 1 z" />
    <path
       id="rect2-2-23-0487-374-81-65-86"
       style="display:inline;fill:#ffffff;fill-rule:evenodd"
       d="M 5,13 V 12 H 4 v 1 z" />
    <path
       id="rect2-2-23-0487-374-81-65-23"
       style="display:inline;fill:#ffffff;fill-rule:evenodd"
       d="M 5,12 V 11 H 4 v 1 z" />
    <path
       id="rect2-2-23-0487-374-81-65-56"
       style="display:inline;fill:#ffffff;fill-rule:evenodd"
       d="M 5,11 V 10 H 4 v 1 z" />
    <path
       id="rect2-2-23-0487-374-81-65-232"
       style="display:inline;fill:#ffffff;fill-rule:evenodd"
       d="M 5,10 V 9 H 4 v 1 z" />
    <path
       id="rect2-2-23-0487-374-81-65-38"
       style="display:inline;fill:#ffffff;fill-rule:evenodd"
       d="M 5,9 V 8 H 4 v 1 z" />
    <path
       id="rect2-2-23-0487-374-81-65-88"
       style="display:inline;fill:#ffffff;fill-rule:evenodd"
       d="M 5,8 V 7 H 4 v 1 z" />
    <path
       id="rect2-2-23-0487-374-81-65-53"
       style="display:inline;fill:#ffffff;fill-rule:evenodd"
       d="M 5,7 V 6 H 4 v 1 z" />
    <path
       id="rect2-2-23-0487-374-81-65-16"
       style="display:inline;fill:#ffffff;fill-rule:evenodd"
       d="M 5,6 V 5 H 4 v 1 z" />
    <path
       id="rect2-2-23-0487-374-81-65-21"
       style="display:inline;fill:#ffffff;fill-rule:evenodd"
       d="M 5,5 V 4 H 4 v 1 z" />
    <path
       id="rect2-2-23-0487-374-81-65-58"
       style="display:inline;fill:#ffffff;fill-rule:evenodd"
       d="M 5,3 V 2 H 4 v 1 z" />
    <path
       id="rect2-2-23-0487-374-81-65-347"
       style="display:inline;fill:#ffffff;fill-rule:evenodd"
       d="M 5,4 V 3 H 4 v 1 z" />
    <path
       id="rect2-2-23-0487-374-81-65-01"
       style="display:inline;fill:#ffffff;fill-rule:evenodd"
       d="M 6,3 V 2 H 5 v 1 z" />
    <path
       id="rect2-2-23-0487-374-81-65-30"
       style="display:inline;fill:#ffffff;fill-rule:evenodd"
       d="M 7,3 V 2 H 6 v 1 z" />
    <path
       id="rect2-2-23-0487-374-81-65-82"
       style="display:inline;fill:#ffffff;fill-rule:evenodd"
       d="M 7,4 V 3 H 6 v 1 z" />
    <path
       id="rect2-2-23-0487-374-81-65-39"
       style="display:inline;fill:#ffffff;fill-rule:evenodd"
       d="M 6,4 V 3 H 5 v 1 z" />
    <path
       id="rect2-2-23-0487-374-81-65-185"
       style="display:inline;fill:#ffffff;fill-rule:evenodd"
       d="M 6,5 V 4 H 5 v 1 z" />
    <path
       id="rect2-2-23-0487-374-81-65-76"
       style="display:inline;fill:#ffffff;fill-rule:evenodd"
       d="M 7,5 V 4 H 6 v 1 z" />
    <path
       id="rect2-2-23-0487-374-81-65-327"
       style="display:inline;fill:#ffffff;fill-rule:evenodd"
       d="M 7,6 V 5 H 6 v 1 z" />
    <path
       id="rect2-2-23-0487-374-81-65-33"
       style="display:inline;fill:#ffffff;fill-rule:evenodd"
       d="M 6,6 V 5 H 5 v 1 z" />
    <path
       id="rect2-2-23-0487-374-81-65-96"
       style="display:inline;fill:#ffffff;fill-rule:evenodd"
       d="M 6,7 V 6 H 5 v 1 z" />
    <path
       id="rect2-2-23-0487-374-81-65-81"
       style="display:inline;fill:#ffffff;fill-rule:evenodd"
       d="M 7,7 V 6 H 6 v 1 z" />
    <path
       id="rect2-2-23-0487-374-81-65-80"
       style="display:inline;fill:#ffffff;fill-rule:evenodd"
       d="M 8,7 V 6 H 7 v 1 z" />
    <path
       id="rect2-2-23-0487-374-81-65-46"
       style="display:inline;fill:#ffffff;fill-rule:evenodd"
       d="M 8,8 V 7 H 7 v 1 z" />
    <path
       id="rect2-2-23-0487-374-81-65-893"
       style="display:inline;fill:#ffffff;fill-rule:evenodd"
       d="M 7,8 V 7 H 6 v 1 z" />
    <path
       id="rect2-2-23-0487-374-81-65-415"
       style="display:inline;fill:#ffffff;fill-rule:evenodd"
       d="M 6,8 V 7 H 5 v 1 z" />
    <path
       id="rect2-2-23-0487-374-81-65-681"
       style="display:inline;fill:#ffffff;fill-rule:evenodd"
       d="M 6,9 V 8 H 5 v 1 z" />
    <path
       id="rect2-2-23-0487-374-81-65-537"
       style="display:inline;fill:#ffffff;fill-rule:evenodd"
       d="M 6,10 V 9 H 5 v 1 z" />
    <path
       id="rect2-2-23-0487-374-81-65-181"
       style="display:inline;fill:#ffffff;fill-rule:evenodd"
       d="M 6,11 V 10 H 5 v 1 z" />
    <path
       id="rect2-2-23-0487-374-81-65-24"
       style="display:inline;fill:#ffffff;fill-rule:evenodd"
       d="M 6,12 V 11 H 5 v 1 z" />
    <path
       id="rect2-2-23-0487-374-81-65-337"
       style="display:inline;fill:#ffffff;fill-rule:evenodd"
       d="M 6,13 V 12 H 5 v 1 z" />
    <path
       id="rect2-2-23-0487-374-81-65-646"
       style="display:inline;fill:#ffffff;fill-rule:evenodd"
       d="M 6,14 V 13 H 5 v 1 z" />
    <path
       id="rect2-2-23-0487-374-81-65-20"
       style="display:inline;fill:#ffffff;fill-rule:evenodd"
       d="M 7,14 V 13 H 6 v 1 z" />
    <path
       id="rect2-2-23-0487-374-81-65-54"
       style="display:inline;fill:#ffffff;fill-rule:evenodd"
       d="M 8,14 V 13 H 7 v 1 z" />
    <path
       id="rect2-2-23-0487-374-81-65-65"
       style="display:inline;fill:#ffffff;fill-rule:evenodd"
       d="M 9,14 V 13 H 8 v 1 z" />
    <path
       id="rect2-2-23-0487-374-81-65-52"
       style="display:inline;fill:#ffffff;fill-rule:evenodd"
       d="M 10,14 V 13 H 9 v 1 z" />
    <path
       id="rect2-2-23-0487-374-81-65-006"
       style="display:inline;fill:#ffffff;fill-rule:evenodd"
       d="m 11,14 v -1 h -1 v 1 z" />
    <path
       id="rect2-2-23-0487-374-81-65-586"
       style="display:inline;fill:#ffffff;fill-rule:evenodd"
       d="m 12,14 v -1 h -1 v 1 z" />
    <path
       id="rect2-2-23-0487-374-81-65-31"
       style="display:inline;fill:#ffffff;fill-rule:evenodd"
       d="m 12,13 v -1 h -1 v 1 z" />
    <path
       id="rect2-2-23-0487-374-81-65-674"
       style="display:inline;fill:#ffffff;fill-rule:evenodd"
       d="m 12,12 v -1 h -1 v 1 z" />
    <path
       id="rect2-2-23-0487-374-81-65-49"
       style="display:inline;fill:#ffffff;fill-rule:evenodd"
       d="m 12,11 v -1 h -1 v 1 z" />
    <path
       id="rect2-2-23-0487-374-81-65-02"
       style="display:inline;fill:#ffffff;fill-rule:evenodd"
       d="M 12,10 V 9 h -1 v 1 z" />
    <path
       id="rect2-2-23-0487-374-81-65-73"
       style="display:inline;fill:#ffffff;fill-rule:evenodd"
       d="M 12,9 V 8 h -1 v 1 z" />
    <path
       id="rect2-2-23-0487-374-81-65-5867"
       style="display:inline;fill:#ffffff;fill-rule:evenodd"
       d="M 12,8 V 7 h -1 v 1 z" />
    <path
       id="rect2-2-23-0487-374-81-65-239"
       style="display:inline;fill:#ffffff;fill-rule:evenodd"
       d="M 11,8 V 7 h -1 v 1 z" />
    <path
       id="rect2-2-23-0487-374-81-65-15"
       style="display:inline;fill:#ffffff;fill-rule:evenodd"
       d="M 9,8 V 7 H 8 v 1 z" />
    <path
       id="rect2-2-23-0487-374-81-65-09"
       style="display:inline;fill:#ffffff;fill-rule:evenodd"
       d="M 10,8 V 7 H 9 v 1 z" />
    <path
       id="rect2-2-23-0487-374-81-65-148"
       style="display:inline;fill:#ffffff;fill-rule:evenodd"
       d="M 10,9 V 8 H 9 v 1 z" />
    <path
       id="rect2-2-23-0487-374-81-65-13"
       style="display:inline;fill:#ffffff;fill-rule:evenodd"
       d="M 11,9 V 8 h -1 v 1 z" />
    <path
       id="rect2-2-23-0487-374-81-65-92"
       style="display:inline;fill:#ffffff;fill-rule:evenodd"
       d="M 11,10 V 9 h -1 v 1 z" />
    <path
       id="rect2-2-23-0487-374-81-65-397"
       style="display:inline;fill:#ffffff;fill-rule:evenodd"
       d="M 10,10 V 9 H 9 v 1 z" />
    <path
       id="rect2-2-23-0487-374-81-65-338"
       style="display:inline;fill:#ffffff;fill-rule:evenodd"
       d="M 10,11 V 10 H 9 v 1 z" />
    <path
       id="rect2-2-23-0487-374-81-65-151"
       style="display:inline;fill:#ffffff;fill-rule:evenodd"
       d="m 11,11 v -1 h -1 v 1 z" />
    <path
       id="rect2-2-23-0487-374-81-65-3274"
       style="display:inline;fill:#ffffff;fill-rule:evenodd"
       d="m 11,12 v -1 h -1 v 1 z" />
    <path
       id="rect2-2-23-0487-374-81-65-490"
       style="display:inline;fill:#ffffff;fill-rule:evenodd"
       d="M 10,12 V 11 H 9 v 1 z" />
    <path
       id="rect2-2-23-0487-374-81-65-905"
       style="display:inline;fill:#ffffff;fill-rule:evenodd"
       d="M 10,13 V 12 H 9 v 1 z" />
    <path
       id="rect2-2-23-0487-374-81-65-104"
       style="display:inline;fill:#ffffff;fill-rule:evenodd"
       d="m 11,13 v -1 h -1 v 1 z" />
    <path
       id="rect2-2-23-0487-374-81-65-435"
       style="display:inline;fill:#ffffff;fill-rule:evenodd"
       d="M 9,9 V 8 H 8 v 1 z" />
    <path
       id="rect2-2-23-0487-374-81-65-27"
       style="display:inline;fill:#ffffff;fill-rule:evenodd"
       d="M 8,9 V 8 H 7 v 1 z" />
    <path
       id="rect2-2-23-0487-374-81-65-538"
       style="display:inline;fill:#ffffff;fill-rule:evenodd"
       d="M 7,9 V 8 H 6 v 1 z" />
    <path
       id="rect2-2-23-0487-374-81-65-713"
       style="display:inline;fill:#ffffff;fill-rule:evenodd"
       d="M 7,10 V 9 H 6 v 1 z" />
    <path
       id="rect2-2-23-0487-374-81-65-74"
       style="display:inline;fill:#ffffff;fill-rule:evenodd"
       d="M 8,10 V 9 H 7 v 1 z" />
    <path
       id="rect2-2-23-0487-374-81-65-55"
       style="display:inline;fill:#ffffff;fill-rule:evenodd"
       d="M 9,10 V 9 H 8 v 1 z" />
    <path
       id="rect2-2-23-0487-374-81-65-715"
       style="display:inline;fill:#ffffff;fill-rule:evenodd"
       d="M 9,11 V 10 H 8 v 1 z" />
    <path
       id="rect2-2-23-0487-374-81-65-108"
       style="display:inline;fill:#ffffff;fill-rule:evenodd"
       d="M 8,11 V 10 H 7 v 1 z" />
    <path
       id="rect2-2-23-0487-374-81-65-492"
       style="display:inline;fill:#ffffff;fill-rule:evenodd"
       d="M 7,11 V 10 H 6 v 1 z" />
    <path
       id="rect2-2-23-0487-374-81-65-228"
       style="display:inline;fill:#ffffff;fill-rule:evenodd"
       d="M 7,12 V 11 H 6 v 1 z" />
    <path
       id="rect2-2-23-0487-374-81-65-160"
       style="display:inline;fill:#ffffff;fill-rule:evenodd"
       d="M 8,12 V 11 H 7 v 1 z" />
    <path
       id="rect2-2-23-0487-374-81-65-885"
       style="display:inline;fill:#ffffff;fill-rule:evenodd"
       d="M 9,12 V 11 H 8 v 1 z" />
    <path
       id="rect2-2-23-0487-374-81-65-989"
       style="display:inline;fill:#ffffff;fill-rule:evenodd"
       d="M 9,13 V 12 H 8 v 1 z" />
    <path
       id="rect2-2-23-0487-374-81-65-535"
       style="display:inline;fill:#ffffff;fill-rule:evenodd"
       d="M 8,13 V 12 H 7 v 1 z" />
    <path
       id="rect2-2-23-0487-374-81-65-511"
       style="display:inline;fill:#ffffff;fill-rule:evenodd"
       d="M 7,13 V 12 H 6 v 1 z" />
  </g>
</svg>
