<?xml version="1.0" encoding="UTF-8" standalone="no"?>
<!-- Created with Inkscape (http://www.inkscape.org/) -->

<svg
   width="16"
   height="16"
   viewBox="0 0 16 16"
   version="1.1"
   id="svg1"
   inkscape:version="1.3.2 (091e20ef0f, 2023-11-25)"
   sodipodi:docname="multimedia-audio-player.svg"
   xml:space="preserve"
   xmlns:inkscape="http://www.inkscape.org/namespaces/inkscape"
   xmlns:sodipodi="http://sodipodi.sourceforge.net/DTD/sodipodi-0.dtd"
   xmlns="http://www.w3.org/2000/svg"
   xmlns:svg="http://www.w3.org/2000/svg"><sodipodi:namedview
     id="namedview1"
     pagecolor="#ffffff"
     bordercolor="#000000"
     borderopacity="0.25"
     inkscape:showpageshadow="2"
     inkscape:pageopacity="0.0"
     inkscape:pagecheckerboard="0"
     inkscape:deskcolor="#d1d1d1"
     inkscape:document-units="px"
     showgrid="true"
     inkscape:zoom="32"
     inkscape:cx="7.15625"
     inkscape:cy="10.25"
     inkscape:window-width="1390"
     inkscape:window-height="1392"
     inkscape:window-x="0"
     inkscape:window-y="0"
     inkscape:window-maximized="0"
     inkscape:current-layer="layer15"><inkscape:grid
       id="grid1"
       units="px"
       originx="0"
       originy="0"
       spacingx="1"
       spacingy="1"
       empcolor="#0099e5"
       empopacity="0.30196078"
       color="#0099e5"
       opacity="0.14901961"
       empspacing="1"
       dotted="false"
       gridanglex="30"
       gridanglez="30"
       visible="true" /></sodipodi:namedview><defs
     id="defs1" /><g
     inkscape:label="Visibility"
     inkscape:groupmode="layer"
     id="layer1"
     style="display:none"><rect
       style="display:inline;fill:#00ffff;fill-rule:evenodd;stroke:none"
       id="rect3"
       width="16"
       height="16"
       x="0"
       y="0" /></g><g
     inkscape:groupmode="layer"
     id="layer15"
     inkscape:label="audio-player"><path
       id="path48-14"
       style="display:inline;fill:#ffffff;fill-rule:evenodd"
       d="M 13,4 H 12 V 3 h 1 z" /><path
       id="path48-14-8"
       style="display:inline;fill:#ffffff;fill-rule:evenodd"
       d="M 13,3 H 12 V 2 h 1 z" /><path
       id="path48-14-4"
       style="display:inline;fill:#ffffff;fill-rule:evenodd"
       d="M 12,3 H 11 V 2 h 1 z" /><path
       id="path48-14-46"
       style="display:inline;fill:#ffffff;fill-rule:evenodd"
       d="M 12,4 H 11 V 3 h 1 z" /><path
       id="path48-14-9"
       style="display:inline;fill:#ffffff;fill-rule:evenodd"
       d="M 11,4 H 10 V 3 h 1 z" /><path
       id="path48-14-6"
       style="display:inline;fill:#ffffff;fill-rule:evenodd"
       d="M 11,3 H 10 V 2 h 1 z" /><path
       id="path48-14-44"
       style="display:inline;fill:#ffffff;fill-rule:evenodd"
       d="M 11,5 H 10 V 4 h 1 z" /><path
       id="path48-14-1"
       style="display:inline;fill:#ffffff;fill-rule:evenodd"
       d="M 13,5 H 12 V 4 h 1 z" /><path
       id="path48-14-16"
       style="display:inline;fill:#ffffff;fill-rule:evenodd"
       d="M 13,6 H 12 V 5 h 1 z" /><path
       id="path48-14-66"
       style="display:inline;fill:#ffffff;fill-rule:evenodd"
       d="M 13,7 H 12 V 6 h 1 z" /><path
       id="path48-14-11"
       style="display:inline;fill:#ffffff;fill-rule:evenodd"
       d="m 11,13 h -1 v -1 h 1 z" /><path
       id="path48-14-0"
       style="display:inline;fill:#ffffff;fill-rule:evenodd"
       d="M 13,8 H 12 V 7 h 1 z" /><path
       id="path48-14-446"
       style="display:inline;fill:#ffffff;fill-rule:evenodd"
       d="M 13,9 H 12 V 8 h 1 z" /><path
       id="path48-14-61"
       style="display:inline;fill:#ffffff;fill-rule:evenodd"
       d="M 13,10 H 12 V 9 h 1 z" /><path
       id="path48-14-3"
       style="display:inline;fill:#ffffff;fill-rule:evenodd"
       d="m 13,11 h -1 v -1 h 1 z" /><path
       id="path48-14-2"
       style="display:inline;fill:#ffffff;fill-rule:evenodd"
       d="m 13,12 h -1 v -1 h 1 z" /><path
       id="path48-14-91"
       style="display:inline;fill:#ffffff;fill-rule:evenodd"
       d="m 12,13 h -1 v -1 h 1 z" /><path
       id="path48-14-32"
       style="display:inline;fill:#ffffff;fill-rule:evenodd"
       d="M 10,12 H 9 v -1 h 1 z" /><path
       id="path48-14-327"
       style="display:inline;fill:#ffffff;fill-rule:evenodd"
       d="M 10,11 H 9 v -1 h 1 z" /><path
       id="path48-14-14"
       style="display:inline;fill:#ffffff;fill-rule:evenodd"
       d="M 11,10 H 10 V 9 h 1 z" /><path
       id="path48-14-918"
       style="display:inline;fill:#ffffff;fill-rule:evenodd"
       d="M 12,10 H 11 V 9 h 1 z" /><path
       id="path48-14-7"
       style="display:inline;fill:#ffffff;fill-rule:evenodd"
       d="m 11,11 h -1 v -1 h 1 z" /><path
       id="path48-14-62"
       style="display:inline;fill:#ffffff;fill-rule:evenodd"
       d="m 11,12 h -1 v -1 h 1 z" /><path
       id="path48-14-41"
       style="display:inline;fill:#ffffff;fill-rule:evenodd"
       d="m 12,11 h -1 v -1 h 1 z" /><path
       id="path48-14-92"
       style="display:inline;fill:#ffffff;fill-rule:evenodd"
       d="m 12,12 h -1 v -1 h 1 z" /><path
       id="path48-14-5"
       style="display:inline;fill:#ffffff;fill-rule:evenodd"
       d="M 10,5 H 9 V 4 h 1 z" /><path
       id="path48-14-22"
       style="display:inline;fill:#ffffff;fill-rule:evenodd"
       d="M 10,4 H 9 V 3 h 1 z" /><path
       id="path48-14-77"
       style="display:inline;fill:#ffffff;fill-rule:evenodd"
       d="M 9,4 H 8 V 3 h 1 z" /><path
       id="path48-14-93"
       style="display:inline;fill:#ffffff;fill-rule:evenodd"
       d="M 9,5 H 8 V 4 h 1 z" /><path
       id="path48-14-01"
       style="display:inline;fill:#ffffff;fill-rule:evenodd"
       d="M 8,4 H 7 V 3 h 1 z" /><path
       id="path48-14-50"
       style="display:inline;fill:#ffffff;fill-rule:evenodd"
       d="M 8,5 H 7 V 4 h 1 z" /><path
       id="path48-14-88"
       style="display:inline;fill:#ffffff;fill-rule:evenodd"
       d="M 8,6 H 7 V 5 h 1 z" /><path
       id="path48-14-51"
       style="display:inline;fill:#ffffff;fill-rule:evenodd"
       d="M 7,5 H 6 V 4 h 1 z" /><path
       id="path48-14-466"
       style="display:inline;fill:#ffffff;fill-rule:evenodd"
       d="M 6,5 H 5 V 4 h 1 z" /><path
       id="path48-14-441"
       style="display:inline;fill:#ffffff;fill-rule:evenodd"
       d="M 6,6 H 5 V 5 h 1 z" /><path
       id="path48-14-149"
       style="display:inline;fill:#ffffff;fill-rule:evenodd"
       d="M 7,6 H 6 V 5 h 1 z" /><path
       id="path48-14-116"
       style="display:inline;fill:#ffffff;fill-rule:evenodd"
       d="M 6,7 H 5 V 6 h 1 z" /><path
       id="path48-14-78"
       style="display:inline;fill:#ffffff;fill-rule:evenodd"
       d="M 6,8 H 5 V 7 h 1 z" /><path
       id="path48-14-49"
       style="display:inline;fill:#ffffff;fill-rule:evenodd"
       d="M 6,9 H 5 V 8 h 1 z" /><path
       id="path48-14-72"
       style="display:inline;fill:#ffffff;fill-rule:evenodd"
       d="M 6,10 H 5 V 9 h 1 z" /><path
       id="path48-14-04"
       style="display:inline;fill:#ffffff;fill-rule:evenodd"
       d="M 6,11 H 5 v -1 h 1 z" /><path
       id="path48-14-25"
       style="display:inline;fill:#ffffff;fill-rule:evenodd"
       d="M 6,12 H 5 v -1 h 1 z" /><path
       id="path48-14-17"
       style="display:inline;fill:#ffffff;fill-rule:evenodd"
       d="M 4,12 H 3 v -1 h 1 z" /><path
       id="path48-14-40"
       style="display:inline;fill:#ffffff;fill-rule:evenodd"
       d="M 5,12 H 4 v -1 h 1 z" /><path
       id="path48-14-76"
       style="display:inline;fill:#ffffff;fill-rule:evenodd"
       d="M 3,13 H 2 v -1 h 1 z" /><path
       id="path48-14-89"
       style="display:inline;fill:#ffffff;fill-rule:evenodd"
       d="M 3,14 H 2 v -1 h 1 z" /><path
       id="path48-14-08"
       style="display:inline;fill:#ffffff;fill-rule:evenodd"
       d="M 4,15 H 3 v -1 h 1 z" /><path
       id="path48-14-02"
       style="display:inline;fill:#ffffff;fill-rule:evenodd"
       d="M 5,15 H 4 v -1 h 1 z" /><path
       id="path48-14-64"
       style="display:inline;fill:#ffffff;fill-rule:evenodd"
       d="M 6,14 H 5 v -1 h 1 z" /><path
       id="path48-14-668"
       style="display:inline;fill:#ffffff;fill-rule:evenodd"
       d="M 6,13 H 5 v -1 h 1 z" /><path
       id="path48-14-13"
       style="display:inline;fill:#ffffff;fill-rule:evenodd"
       d="M 5,13 H 4 v -1 h 1 z" /><path
       id="path48-14-55"
       style="display:inline;fill:#ffffff;fill-rule:evenodd"
       d="M 4,13 H 3 v -1 h 1 z" /><path
       id="path48-14-624"
       style="display:inline;fill:#ffffff;fill-rule:evenodd"
       d="M 4,14 H 3 v -1 h 1 z" /><path
       id="path48-14-00"
       style="display:inline;fill:#ffffff;fill-rule:evenodd"
       d="M 5,14 H 4 v -1 h 1 z" /></g></svg>
