<?xml version="1.0" encoding="UTF-8" standalone="no"?>
<!-- Created with Inkscape (http://www.inkscape.org/) -->

<svg
   width="16"
   height="16"
   viewBox="0 0 16 16"
   version="1.1"
   id="svg1"
   inkscape:version="1.3.2 (091e20ef0f, 2023-11-25)"
   sodipodi:docname="system-search-symbolic.svg"
   xmlns:inkscape="http://www.inkscape.org/namespaces/inkscape"
   xmlns:sodipodi="http://sodipodi.sourceforge.net/DTD/sodipodi-0.dtd"
   xmlns="http://www.w3.org/2000/svg"
   xmlns:svg="http://www.w3.org/2000/svg">
  <sodipodi:namedview
     id="namedview1"
     pagecolor="#00e927"
     bordercolor="#000000"
     borderopacity="0.25"
     inkscape:showpageshadow="2"
     inkscape:pageopacity="0.0"
     inkscape:pagecheckerboard="0"
     inkscape:deskcolor="#d1d1d1"
     inkscape:document-units="px"
     showgrid="true"
     inkscape:zoom="32"
     inkscape:cx="5.734375"
     inkscape:cy="4.125"
     inkscape:window-width="1261"
     inkscape:window-height="1392"
     inkscape:window-x="0"
     inkscape:window-y="0"
     inkscape:window-maximized="0"
     inkscape:current-layer="layer4">
    <inkscape:grid
       id="grid1"
       units="px"
       originx="0"
       originy="0"
       spacingx="1"
       spacingy="1"
       empcolor="#0099e5"
       empopacity="0.30196078"
       color="#0099e5"
       opacity="0.14901961"
       empspacing="1"
       dotted="false"
       gridanglex="30"
       gridanglez="30"
       visible="true" />
  </sodipodi:namedview>
  <defs
     id="defs1" />
  <g
     inkscape:groupmode="layer"
     id="layer4"
     inkscape:label="search"
     transform="translate(1,1)">
    <path
       id="rect2-2-23-0487-374"
       style="display:inline;fill:#ffffff;fill-rule:evenodd"
       d="M 2,3 V 2 h 1 v 1 z" />
    <path
       id="rect2-2-23-0487-374-6"
       style="display:inline;fill:#ffffff;fill-rule:evenodd"
       d="M 3,2 V 1 h 1 v 1 z" />
    <path
       id="rect2-2-23-0487-374-3"
       style="display:inline;fill:#ffffff;fill-rule:evenodd"
       d="M 4,2 V 1 h 1 v 1 z" />
    <path
       id="rect2-2-23-0487-374-4"
       style="display:inline;fill:#ffffff;fill-rule:evenodd"
       d="M 1,4 V 3 h 1 v 1 z" />
    <path
       id="rect2-2-23-0487-374-9"
       style="display:inline;fill:#ffffff;fill-rule:evenodd"
       d="M 1,5 V 4 h 1 v 1 z" />
    <path
       id="rect2-2-23-0487-374-7"
       style="display:inline;fill:#ffffff;fill-rule:evenodd"
       d="M 6,7 V 6 h 1 v 1 z" />
    <path
       id="rect2-2-23-0487-374-07"
       style="display:inline;fill:#ffffff;fill-rule:evenodd"
       d="M 5,8 V 7 h 1 v 1 z" />
    <path
       id="rect2-2-23-0487-374-072"
       style="display:inline;fill:#ffffff;fill-rule:evenodd"
       d="M 7,6 V 5 h 1 v 1 z" />
    <path
       id="rect2-2-23-0487-374-02"
       style="display:inline;fill:#ffffff;fill-rule:evenodd"
       d="M 7,7 V 6 h 1 v 1 z" />
    <path
       id="rect2-2-23-0487-374-5"
       style="display:inline;fill:#ffffff;fill-rule:evenodd"
       d="M 6,8 V 7 h 1 v 1 z" />
    <path
       id="rect2-2-23-0487-374-35"
       style="display:inline;fill:#ffffff;fill-rule:evenodd"
       d="M 7,9 V 8 h 1 v 1 z" />
    <path
       id="rect2-2-23-0487-374-630"
       style="display:inline;fill:#ffffff;fill-rule:evenodd"
       d="M 8,8 V 7 h 1 v 1 z" />
    <path
       id="rect2-2-23-0487-374-47"
       style="display:inline;fill:#ffffff;fill-rule:evenodd"
       d="M 8,10 V 9 h 1 v 1 z" />
    <path
       id="rect2-2-23-0487-374-675"
       style="display:inline;fill:#ffffff;fill-rule:evenodd"
       d="M 9,9 V 8 h 1 v 1 z" />
    <path
       id="rect2-2-23-0487-374-90"
       style="display:inline;fill:#ffffff;fill-rule:evenodd"
       d="M 10,10 V 9 h 1 v 1 z" />
    <path
       id="rect2-2-23-0487-374-31"
       style="display:inline;fill:#ffffff;fill-rule:evenodd"
       d="m 9,11 v -1 h 1 v 1 z" />
    <path
       id="rect2-2-23-0487-374-73"
       style="display:inline;fill:#ffffff;fill-rule:evenodd"
       d="m 10,11 v -1 h 1 v 1 z" />
    <path
       id="rect2-2-23-0487-374-8"
       style="display:inline;fill:#ffffff;fill-rule:evenodd"
       d="m 10,12 v -1 h 1 v 1 z" />
    <path
       id="rect2-2-23-0487-374-86"
       style="display:inline;fill:#ffffff;fill-rule:evenodd"
       d="m 11,11 v -1 h 1 v 1 z" />
    <path
       id="rect2-2-23-0487-374-74"
       style="display:inline;fill:#ffffff;fill-rule:evenodd"
       d="m 11,12 v -1 h 1 v 1 z" />
    <path
       id="rect2-2-23-0487-374-0"
       style="display:inline;fill:#ffffff;fill-rule:evenodd"
       d="M 7,8 V 7 h 1 v 1 z" />
    <path
       id="rect2-2-23-0487-374-04"
       style="display:inline;fill:#ffffff;fill-rule:evenodd"
       d="M 8,9 V 8 h 1 v 1 z" />
    <path
       id="rect2-2-23-0487-374-24"
       style="display:inline;fill:#ffffff;fill-rule:evenodd"
       d="M 9,10 V 9 h 1 v 1 z" />
    <path
       id="rect2-2-23-0487-374-11"
       style="display:inline;fill:#ffffff;fill-rule:evenodd"
       d="M 1,6 V 5 h 1 v 1 z" />
    <path
       id="rect2-2-23-0487-374-81"
       style="display:inline;fill:#ffffff;fill-rule:evenodd"
       d="M 5,2 V 1 h 1 v 1 z" />
    <path
       id="rect2-2-23-0487-374-75"
       style="display:inline;fill:#ffffff;fill-rule:evenodd"
       d="M 6,3 V 2 h 1 v 1 z" />
    <path
       id="rect2-2-23-0487-374-67"
       style="display:inline;fill:#ffffff;fill-rule:evenodd"
       d="M 7,4 V 3 h 1 v 1 z" />
    <path
       id="rect2-2-23-0487-374-1"
       style="display:inline;fill:#ffffff;fill-rule:evenodd"
       d="M 7,5 V 4 h 1 v 1 z" />
    <path
       id="rect2-2-23-0487-374-63"
       style="display:inline;fill:#ffffff;fill-rule:evenodd"
       d="M 2,7 V 6 h 1 v 1 z" />
    <path
       id="rect2-2-23-0487-374-41"
       style="display:inline;fill:#ffffff;fill-rule:evenodd"
       d="M 3,8 V 7 h 1 v 1 z" />
    <path
       id="rect2-2-23-0487-374-43"
       style="display:inline;fill:#ffffff;fill-rule:evenodd"
       d="M 4,8 V 7 h 1 v 1 z" />
    <path
       id="rect2-2-23-0487-374-39"
       style="display:inline;fill:#ffffff;fill-rule:evenodd"
       d="m 12,12 v -1 h 1 v 1 z" />
    <path
       id="rect2-2-23-0487-374-029"
       style="display:inline;fill:#ffffff;fill-rule:evenodd"
       d="m 11,13 v -1 h 1 v 1 z" />
    <path
       id="rect2-2-23-0487-374-64"
       style="display:inline;fill:#ffffff;fill-rule:evenodd"
       d="m 12,13 v -1 h 1 v 1 z" />
  </g>
</svg>
