<?xml version="1.0" encoding="UTF-8" standalone="no"?>
<!-- Created with Inkscape (http://www.inkscape.org/) -->

<svg
   width="16"
   height="16"
   viewBox="0 0 16 16"
   version="1.1"
   id="svg1"
   inkscape:version="1.3.2 (091e20ef0f, 2023-11-25)"
   sodipodi:docname="media-eject-symbolic.svg"
   xmlns:inkscape="http://www.inkscape.org/namespaces/inkscape"
   xmlns:sodipodi="http://sodipodi.sourceforge.net/DTD/sodipodi-0.dtd"
   xmlns="http://www.w3.org/2000/svg"
   xmlns:svg="http://www.w3.org/2000/svg">
  <sodipodi:namedview
     id="namedview1"
     pagecolor="#00e927"
     bordercolor="#000000"
     borderopacity="0.25"
     inkscape:showpageshadow="2"
     inkscape:pageopacity="0.0"
     inkscape:pagecheckerboard="0"
     inkscape:deskcolor="#d1d1d1"
     inkscape:document-units="px"
     showgrid="true"
     inkscape:zoom="32"
     inkscape:cx="5.734375"
     inkscape:cy="4.125"
     inkscape:window-width="1261"
     inkscape:window-height="1392"
     inkscape:window-x="0"
     inkscape:window-y="0"
     inkscape:window-maximized="0"
     inkscape:current-layer="svg1">
    <inkscape:grid
       id="grid1"
       units="px"
       originx="0"
       originy="0"
       spacingx="1"
       spacingy="1"
       empcolor="#0099e5"
       empopacity="0.30196078"
       color="#0099e5"
       opacity="0.14901961"
       empspacing="1"
       dotted="false"
       gridanglex="30"
       gridanglez="30"
       visible="true" />
  </sodipodi:namedview>
  <defs
     id="defs1" />
  <g
     inkscape:groupmode="layer"
     id="layer5"
     inkscape:label="media mount" />
  <path
     id="rect2-2-23-0487-374-81"
     style="display:inline;fill:#ffffff;fill-rule:evenodd"
     d="M 7,3 V 2 h 1 v 1 z" />
  <path
     id="rect2-2-23-0487-374-81-1"
     style="display:inline;fill:#ffffff;fill-rule:evenodd"
     d="M 8,3 V 2 h 1 v 1 z" />
  <path
     id="rect2-2-23-0487-374-81-2"
     style="display:inline;fill:#ffffff;fill-rule:evenodd"
     d="M 9,4 V 3 h 1 v 1 z" />
  <path
     id="rect2-2-23-0487-374-81-0"
     style="display:inline;fill:#ffffff;fill-rule:evenodd"
     d="M 10,5 V 4 h 1 v 1 z" />
  <path
     id="rect2-2-23-0487-374-81-3"
     style="display:inline;fill:#ffffff;fill-rule:evenodd"
     d="M 11,6 V 5 h 1 v 1 z" />
  <path
     id="rect2-2-23-0487-374-81-22"
     style="display:inline;fill:#ffffff;fill-rule:evenodd"
     d="M 6,4 V 3 h 1 v 1 z" />
  <path
     id="rect2-2-23-0487-374-81-9"
     style="display:inline;fill:#ffffff;fill-rule:evenodd"
     d="M 5,5 V 4 h 1 v 1 z" />
  <path
     id="rect2-2-23-0487-374-81-7"
     style="display:inline;fill:#ffffff;fill-rule:evenodd"
     d="M 4,6 V 5 h 1 v 1 z" />
  <path
     id="rect2-2-23-0487-374-81-06"
     style="display:inline;fill:#ffffff;fill-rule:evenodd"
     d="M 3,7 V 6 h 1 v 1 z" />
  <path
     id="rect2-2-23-0487-374-81-70"
     style="display:inline;fill:#ffffff;fill-rule:evenodd"
     d="M 12,7 V 6 h 1 v 1 z" />
  <path
     id="rect2-2-23-0487-374-81-8"
     style="display:inline;fill:#ffffff;fill-rule:evenodd"
     d="M 13,8 V 7 h 1 v 1 z" />
  <path
     id="rect2-2-23-0487-374-81-85"
     style="display:inline;fill:#ffffff;fill-rule:evenodd"
     d="M 13,9 V 8 h 1 v 1 z" />
  <path
     id="rect2-2-23-0487-374-81-97"
     style="display:inline;fill:#ffffff;fill-rule:evenodd"
     d="M 2,8 V 7 h 1 v 1 z" />
  <path
     id="rect2-2-23-0487-374-81-89"
     style="display:inline;fill:#ffffff;fill-rule:evenodd"
     d="M 2,9 V 8 h 1 v 1 z" />
  <path
     id="rect2-2-23-0487-374-81-72"
     style="display:inline;fill:#ffffff;fill-rule:evenodd"
     d="M 3,9 V 8 h 1 v 1 z" />
  <path
     id="rect2-2-23-0487-374-81-79"
     style="display:inline;fill:#ffffff;fill-rule:evenodd"
     d="M 4,9 V 8 h 1 v 1 z" />
  <path
     id="rect2-2-23-0487-374-81-898"
     style="display:inline;fill:#ffffff;fill-rule:evenodd"
     d="M 5,9 V 8 h 1 v 1 z" />
  <path
     id="rect2-2-23-0487-374-81-02"
     style="display:inline;fill:#ffffff;fill-rule:evenodd"
     d="M 6,9 V 8 h 1 v 1 z" />
  <path
     id="rect2-2-23-0487-374-81-30"
     style="display:inline;fill:#ffffff;fill-rule:evenodd"
     d="M 7,9 V 8 h 1 v 1 z" />
  <path
     id="rect2-2-23-0487-374-81-80"
     style="display:inline;fill:#ffffff;fill-rule:evenodd"
     d="M 8,9 V 8 h 1 v 1 z" />
  <path
     id="rect2-2-23-0487-374-81-75"
     style="display:inline;fill:#ffffff;fill-rule:evenodd"
     d="M 9,9 V 8 h 1 v 1 z" />
  <path
     id="rect2-2-23-0487-374-81-20"
     style="display:inline;fill:#ffffff;fill-rule:evenodd"
     d="M 10,9 V 8 h 1 v 1 z" />
  <path
     id="rect2-2-23-0487-374-81-04"
     style="display:inline;fill:#ffffff;fill-rule:evenodd"
     d="M 11,9 V 8 h 1 v 1 z" />
  <path
     id="rect2-2-23-0487-374-81-024"
     style="display:inline;fill:#ffffff;fill-rule:evenodd"
     d="M 12,9 V 8 h 1 v 1 z" />
  <path
     id="rect2-2-23-0487-374-81-08"
     style="display:inline;fill:#ffffff;fill-rule:evenodd"
     d="M 12,8 V 7 h 1 v 1 z" />
  <path
     id="rect2-2-23-0487-374-81-4"
     style="display:inline;fill:#ffffff;fill-rule:evenodd"
     d="M 11,8 V 7 h 1 v 1 z" />
  <path
     id="rect2-2-23-0487-374-81-752"
     style="display:inline;fill:#ffffff;fill-rule:evenodd"
     d="M 10,8 V 7 h 1 v 1 z" />
  <path
     id="rect2-2-23-0487-374-81-6"
     style="display:inline;fill:#ffffff;fill-rule:evenodd"
     d="M 9,8 V 7 h 1 v 1 z" />
  <path
     id="rect2-2-23-0487-374-81-12"
     style="display:inline;fill:#ffffff;fill-rule:evenodd"
     d="M 8,8 V 7 h 1 v 1 z" />
  <path
     id="rect2-2-23-0487-374-81-82"
     style="display:inline;fill:#ffffff;fill-rule:evenodd"
     d="M 7,8 V 7 h 1 v 1 z" />
  <path
     id="rect2-2-23-0487-374-81-86"
     style="display:inline;fill:#ffffff;fill-rule:evenodd"
     d="M 6,8 V 7 h 1 v 1 z" />
  <path
     id="rect2-2-23-0487-374-81-94"
     style="display:inline;fill:#ffffff;fill-rule:evenodd"
     d="M 5,8 V 7 h 1 v 1 z" />
  <path
     id="rect2-2-23-0487-374-81-23"
     style="display:inline;fill:#ffffff;fill-rule:evenodd"
     d="M 4,8 V 7 h 1 v 1 z" />
  <path
     id="rect2-2-23-0487-374-81-74"
     style="display:inline;fill:#ffffff;fill-rule:evenodd"
     d="M 3,8 V 7 h 1 v 1 z" />
  <path
     id="rect2-2-23-0487-374-81-40"
     style="display:inline;fill:#ffffff;fill-rule:evenodd"
     d="M 4,7 V 6 h 1 v 1 z" />
  <path
     id="rect2-2-23-0487-374-81-28"
     style="display:inline;fill:#ffffff;fill-rule:evenodd"
     d="M 5,7 V 6 h 1 v 1 z" />
  <path
     id="rect2-2-23-0487-374-81-11"
     style="display:inline;fill:#ffffff;fill-rule:evenodd"
     d="M 6,7 V 6 h 1 v 1 z" />
  <path
     id="rect2-2-23-0487-374-81-025"
     style="display:inline;fill:#ffffff;fill-rule:evenodd"
     d="M 7,7 V 6 h 1 v 1 z" />
  <path
     id="rect2-2-23-0487-374-81-19"
     style="display:inline;fill:#ffffff;fill-rule:evenodd"
     d="M 8,7 V 6 h 1 v 1 z" />
  <path
     id="rect2-2-23-0487-374-81-5"
     style="display:inline;fill:#ffffff;fill-rule:evenodd"
     d="M 9,7 V 6 h 1 v 1 z" />
  <path
     id="rect2-2-23-0487-374-81-857"
     style="display:inline;fill:#ffffff;fill-rule:evenodd"
     d="M 10,7 V 6 h 1 v 1 z" />
  <path
     id="rect2-2-23-0487-374-81-14"
     style="display:inline;fill:#ffffff;fill-rule:evenodd"
     d="M 11,7 V 6 h 1 v 1 z" />
  <path
     id="rect2-2-23-0487-374-81-69"
     style="display:inline;fill:#ffffff;fill-rule:evenodd"
     d="M 10,6 V 5 h 1 v 1 z" />
  <path
     id="rect2-2-23-0487-374-81-90"
     style="display:inline;fill:#ffffff;fill-rule:evenodd"
     d="M 9,6 V 5 h 1 v 1 z" />
  <path
     id="rect2-2-23-0487-374-81-87"
     style="display:inline;fill:#ffffff;fill-rule:evenodd"
     d="M 8,6 V 5 h 1 v 1 z" />
  <path
     id="rect2-2-23-0487-374-81-53"
     style="display:inline;fill:#ffffff;fill-rule:evenodd"
     d="M 7,6 V 5 h 1 v 1 z" />
  <path
     id="rect2-2-23-0487-374-81-726"
     style="display:inline;fill:#ffffff;fill-rule:evenodd"
     d="M 6,6 V 5 h 1 v 1 z" />
  <path
     id="rect2-2-23-0487-374-81-54"
     style="display:inline;fill:#ffffff;fill-rule:evenodd"
     d="M 5,6 V 5 h 1 v 1 z" />
  <path
     id="rect2-2-23-0487-374-81-801"
     style="display:inline;fill:#ffffff;fill-rule:evenodd"
     d="M 6,5 V 4 h 1 v 1 z" />
  <path
     id="rect2-2-23-0487-374-81-71"
     style="display:inline;fill:#ffffff;fill-rule:evenodd"
     d="M 7,5 V 4 h 1 v 1 z" />
  <path
     id="rect2-2-23-0487-374-81-535"
     style="display:inline;fill:#ffffff;fill-rule:evenodd"
     d="M 8,5 V 4 h 1 v 1 z" />
  <path
     id="rect2-2-23-0487-374-81-07"
     style="display:inline;fill:#ffffff;fill-rule:evenodd"
     d="M 9,5 V 4 h 1 v 1 z" />
  <path
     id="rect2-2-23-0487-374-81-64"
     style="display:inline;fill:#ffffff;fill-rule:evenodd"
     d="M 8,4 V 3 h 1 v 1 z" />
  <path
     id="rect2-2-23-0487-374-81-862"
     style="display:inline;fill:#ffffff;fill-rule:evenodd"
     d="M 7,4 V 3 h 1 v 1 z" />
  <path
     id="rect2-2-23-0487-374-81-32"
     style="display:inline;fill:#ffffff;fill-rule:evenodd"
     d="m 2,11 v -1 h 1 v 1 z" />
  <path
     id="rect2-2-23-0487-374-81-01"
     style="display:inline;fill:#ffffff;fill-rule:evenodd"
     d="m 2,12 v -1 h 1 v 1 z" />
  <path
     id="rect2-2-23-0487-374-81-979"
     style="display:inline;fill:#ffffff;fill-rule:evenodd"
     d="m 3,11 v -1 h 1 v 1 z" />
  <path
     id="rect2-2-23-0487-374-81-98"
     style="display:inline;fill:#ffffff;fill-rule:evenodd"
     d="m 3,12 v -1 h 1 v 1 z" />
  <path
     id="rect2-2-23-0487-374-81-36"
     style="display:inline;fill:#ffffff;fill-rule:evenodd"
     d="m 4,11 v -1 h 1 v 1 z" />
  <path
     id="rect2-2-23-0487-374-81-96"
     style="display:inline;fill:#ffffff;fill-rule:evenodd"
     d="m 4,12 v -1 h 1 v 1 z" />
  <path
     id="rect2-2-23-0487-374-81-980"
     style="display:inline;fill:#ffffff;fill-rule:evenodd"
     d="m 5,11 v -1 h 1 v 1 z" />
  <path
     id="rect2-2-23-0487-374-81-55"
     style="display:inline;fill:#ffffff;fill-rule:evenodd"
     d="m 5,12 v -1 h 1 v 1 z" />
  <path
     id="rect2-2-23-0487-374-81-028"
     style="display:inline;fill:#ffffff;fill-rule:evenodd"
     d="m 6,11 v -1 h 1 v 1 z" />
  <path
     id="rect2-2-23-0487-374-81-83"
     style="display:inline;fill:#ffffff;fill-rule:evenodd"
     d="m 6,12 v -1 h 1 v 1 z" />
  <path
     id="rect2-2-23-0487-374-81-17"
     style="display:inline;fill:#ffffff;fill-rule:evenodd"
     d="m 7,11 v -1 h 1 v 1 z" />
  <path
     id="rect2-2-23-0487-374-81-24"
     style="display:inline;fill:#ffffff;fill-rule:evenodd"
     d="m 7,12 v -1 h 1 v 1 z" />
  <path
     id="rect2-2-23-0487-374-81-05"
     style="display:inline;fill:#ffffff;fill-rule:evenodd"
     d="m 8,11 v -1 h 1 v 1 z" />
  <path
     id="rect2-2-23-0487-374-81-76"
     style="display:inline;fill:#ffffff;fill-rule:evenodd"
     d="m 8,12 v -1 h 1 v 1 z" />
  <path
     id="rect2-2-23-0487-374-81-03"
     style="display:inline;fill:#ffffff;fill-rule:evenodd"
     d="m 9,11 v -1 h 1 v 1 z" />
  <path
     id="rect2-2-23-0487-374-81-46"
     style="display:inline;fill:#ffffff;fill-rule:evenodd"
     d="m 9,12 v -1 h 1 v 1 z" />
  <path
     id="rect2-2-23-0487-374-81-49"
     style="display:inline;fill:#ffffff;fill-rule:evenodd"
     d="m 10,11 v -1 h 1 v 1 z" />
  <path
     id="rect2-2-23-0487-374-81-51"
     style="display:inline;fill:#ffffff;fill-rule:evenodd"
     d="m 10,12 v -1 h 1 v 1 z" />
  <path
     id="rect2-2-23-0487-374-81-09"
     style="display:inline;fill:#ffffff;fill-rule:evenodd"
     d="m 11,11 v -1 h 1 v 1 z" />
  <path
     id="rect2-2-23-0487-374-81-327"
     style="display:inline;fill:#ffffff;fill-rule:evenodd"
     d="m 11,12 v -1 h 1 v 1 z" />
  <path
     id="rect2-2-23-0487-374-81-38"
     style="display:inline;fill:#ffffff;fill-rule:evenodd"
     d="m 12,11 v -1 h 1 v 1 z" />
  <path
     id="rect2-2-23-0487-374-81-091"
     style="display:inline;fill:#ffffff;fill-rule:evenodd"
     d="m 12,12 v -1 h 1 v 1 z" />
  <path
     id="rect2-2-23-0487-374-81-094"
     style="display:inline;fill:#ffffff;fill-rule:evenodd"
     d="m 13,11 v -1 h 1 v 1 z" />
  <path
     id="rect2-2-23-0487-374-81-246"
     style="display:inline;fill:#ffffff;fill-rule:evenodd"
     d="m 13,12 v -1 h 1 v 1 z" />
</svg>
