<?xml version="1.0" encoding="UTF-8" standalone="no"?>
<!-- Created with Inkscape (http://www.inkscape.org/) -->

<svg
   width="16"
   height="16"
   viewBox="0 0 16 16"
   version="1.1"
   id="svg1"
   inkscape:version="1.3.2 (091e20ef0f, 2023-11-25)"
   sodipodi:docname="media-mount-symbolic.svg"
   xmlns:inkscape="http://www.inkscape.org/namespaces/inkscape"
   xmlns:sodipodi="http://sodipodi.sourceforge.net/DTD/sodipodi-0.dtd"
   xmlns="http://www.w3.org/2000/svg"
   xmlns:svg="http://www.w3.org/2000/svg">
  <sodipodi:namedview
     id="namedview1"
     pagecolor="#00e927"
     bordercolor="#000000"
     borderopacity="0.25"
     inkscape:showpageshadow="2"
     inkscape:pageopacity="0.0"
     inkscape:pagecheckerboard="0"
     inkscape:deskcolor="#d1d1d1"
     inkscape:document-units="px"
     showgrid="true"
     inkscape:zoom="32"
     inkscape:cx="5.734375"
     inkscape:cy="4.125"
     inkscape:window-width="1261"
     inkscape:window-height="1392"
     inkscape:window-x="0"
     inkscape:window-y="0"
     inkscape:window-maximized="0"
     inkscape:current-layer="layer5">
    <inkscape:grid
       id="grid1"
       units="px"
       originx="0"
       originy="0"
       spacingx="1"
       spacingy="1"
       empcolor="#0099e5"
       empopacity="0.30196078"
       color="#0099e5"
       opacity="0.14901961"
       empspacing="1"
       dotted="false"
       gridanglex="30"
       gridanglez="30"
       visible="true" />
  </sodipodi:namedview>
  <defs
     id="defs1" />
  <g
     inkscape:groupmode="layer"
     id="layer5"
     inkscape:label="media mount"
     transform="translate(0,-1)">
    <path
       id="rect2-2-23-0487-374-81"
       style="display:inline;fill:#ffffff;fill-rule:evenodd"
       d="m 2,14 v -1 h 1 v 1 z" />
    <path
       id="rect2-2-23-0487-374-81-4"
       style="display:inline;fill:#ffffff;fill-rule:evenodd"
       d="m 2,13 v -1 h 1 v 1 z" />
    <path
       id="rect2-2-23-0487-374-81-46"
       style="display:inline;fill:#ffffff;fill-rule:evenodd"
       d="m 3,13 v -1 h 1 v 1 z" />
    <path
       id="rect2-2-23-0487-374-81-466"
       style="display:inline;fill:#ffffff;fill-rule:evenodd"
       d="m 3,14 v -1 h 1 v 1 z" />
    <path
       id="rect2-2-23-0487-374-81-5"
       style="display:inline;fill:#ffffff;fill-rule:evenodd"
       d="m 4,14 v -1 h 1 v 1 z" />
    <path
       id="rect2-2-23-0487-374-81-0"
       style="display:inline;fill:#ffffff;fill-rule:evenodd"
       d="m 4,13 v -1 h 1 v 1 z" />
    <path
       id="rect2-2-23-0487-374-81-3"
       style="display:inline;fill:#ffffff;fill-rule:evenodd"
       d="m 5,13 v -1 h 1 v 1 z" />
    <path
       id="rect2-2-23-0487-374-81-56"
       style="display:inline;fill:#ffffff;fill-rule:evenodd"
       d="m 5,14 v -1 h 1 v 1 z" />
    <path
       id="rect2-2-23-0487-374-81-40"
       style="display:inline;fill:#ffffff;fill-rule:evenodd"
       d="m 6,14 v -1 h 1 v 1 z" />
    <path
       id="rect2-2-23-0487-374-81-1"
       style="display:inline;fill:#ffffff;fill-rule:evenodd"
       d="m 6,13 v -1 h 1 v 1 z" />
    <path
       id="rect2-2-23-0487-374-81-11"
       style="display:inline;fill:#ffffff;fill-rule:evenodd"
       d="m 7,13 v -1 h 1 v 1 z" />
    <path
       id="rect2-2-23-0487-374-81-18"
       style="display:inline;fill:#ffffff;fill-rule:evenodd"
       d="m 7,14 v -1 h 1 v 1 z" />
    <path
       id="rect2-2-23-0487-374-81-51"
       style="display:inline;fill:#ffffff;fill-rule:evenodd"
       d="m 8,14 v -1 h 1 v 1 z" />
    <path
       id="rect2-2-23-0487-374-81-12"
       style="display:inline;fill:#ffffff;fill-rule:evenodd"
       d="m 8,13 v -1 h 1 v 1 z" />
    <path
       id="rect2-2-23-0487-374-81-14"
       style="display:inline;fill:#ffffff;fill-rule:evenodd"
       d="m 9,14 v -1 h 1 v 1 z" />
    <path
       id="rect2-2-23-0487-374-81-513"
       style="display:inline;fill:#ffffff;fill-rule:evenodd"
       d="m 9,13 v -1 h 1 v 1 z" />
    <path
       id="rect2-2-23-0487-374-81-6"
       style="display:inline;fill:#ffffff;fill-rule:evenodd"
       d="m 10,13 v -1 h 1 v 1 z" />
    <path
       id="rect2-2-23-0487-374-81-08"
       style="display:inline;fill:#ffffff;fill-rule:evenodd"
       d="m 10,14 v -1 h 1 v 1 z" />
    <path
       id="rect2-2-23-0487-374-81-44"
       style="display:inline;fill:#ffffff;fill-rule:evenodd"
       d="m 11,14 v -1 h 1 v 1 z" />
    <path
       id="rect2-2-23-0487-374-81-53"
       style="display:inline;fill:#ffffff;fill-rule:evenodd"
       d="m 11,13 v -1 h 1 v 1 z" />
    <path
       id="rect2-2-23-0487-374-81-04"
       style="display:inline;fill:#ffffff;fill-rule:evenodd"
       d="m 12,13 v -1 h 1 v 1 z" />
    <path
       id="rect2-2-23-0487-374-81-43"
       style="display:inline;fill:#ffffff;fill-rule:evenodd"
       d="m 12,14 v -1 h 1 v 1 z" />
    <path
       id="rect2-2-23-0487-374-81-60"
       style="display:inline;fill:#ffffff;fill-rule:evenodd"
       d="m 13,14 v -1 h 1 v 1 z" />
    <path
       id="rect2-2-23-0487-374-81-2"
       style="display:inline;fill:#ffffff;fill-rule:evenodd"
       d="m 13,13 v -1 h 1 v 1 z" />
    <path
       id="rect2-2-23-0487-374-81-67"
       style="display:inline;fill:#ffffff;fill-rule:evenodd"
       d="m 7,11 v -1 h 1 v 1 z" />
    <path
       id="rect2-2-23-0487-374-81-13"
       style="display:inline;fill:#ffffff;fill-rule:evenodd"
       d="m 8,11 v -1 h 1 v 1 z" />
    <path
       id="rect2-2-23-0487-374-81-54"
       style="display:inline;fill:#ffffff;fill-rule:evenodd"
       d="M 9,10 V 9 h 1 v 1 z" />
    <path
       id="rect2-2-23-0487-374-81-7"
       style="display:inline;fill:#ffffff;fill-rule:evenodd"
       d="M 10,9 V 8 h 1 v 1 z" />
    <path
       id="rect2-2-23-0487-374-81-404"
       style="display:inline;fill:#ffffff;fill-rule:evenodd"
       d="M 11,8 V 7 h 1 v 1 z" />
    <path
       id="rect2-2-23-0487-374-81-68"
       style="display:inline;fill:#ffffff;fill-rule:evenodd"
       d="M 12,7 V 6 h 1 v 1 z" />
    <path
       id="rect2-2-23-0487-374-81-145"
       style="display:inline;fill:#ffffff;fill-rule:evenodd"
       d="M 13,6 V 5 h 1 v 1 z" />
    <path
       id="rect2-2-23-0487-374-81-38"
       style="display:inline;fill:#ffffff;fill-rule:evenodd"
       d="M 13,5 V 4 h 1 v 1 z" />
    <path
       id="rect2-2-23-0487-374-81-50"
       style="display:inline;fill:#ffffff;fill-rule:evenodd"
       d="M 6,10 V 9 h 1 v 1 z" />
    <path
       id="rect2-2-23-0487-374-81-462"
       style="display:inline;fill:#ffffff;fill-rule:evenodd"
       d="M 5,9 V 8 h 1 v 1 z" />
    <path
       id="rect2-2-23-0487-374-81-00"
       style="display:inline;fill:#ffffff;fill-rule:evenodd"
       d="M 4,8 V 7 h 1 v 1 z" />
    <path
       id="rect2-2-23-0487-374-81-09"
       style="display:inline;fill:#ffffff;fill-rule:evenodd"
       d="M 3,7 V 6 h 1 v 1 z" />
    <path
       id="rect2-2-23-0487-374-81-144"
       style="display:inline;fill:#ffffff;fill-rule:evenodd"
       d="M 2,6 V 5 h 1 v 1 z" />
    <path
       id="rect2-2-23-0487-374-81-8"
       style="display:inline;fill:#ffffff;fill-rule:evenodd"
       d="M 2,5 V 4 h 1 v 1 z" />
    <path
       id="rect2-2-23-0487-374-81-9"
       style="display:inline;fill:#ffffff;fill-rule:evenodd"
       d="M 3,5 V 4 h 1 v 1 z" />
    <path
       id="rect2-2-23-0487-374-81-93"
       style="display:inline;fill:#ffffff;fill-rule:evenodd"
       d="M 4,5 V 4 h 1 v 1 z" />
    <path
       id="rect2-2-23-0487-374-81-95"
       style="display:inline;fill:#ffffff;fill-rule:evenodd"
       d="M 5,5 V 4 h 1 v 1 z" />
    <path
       id="rect2-2-23-0487-374-81-19"
       style="display:inline;fill:#ffffff;fill-rule:evenodd"
       d="M 6,5 V 4 h 1 v 1 z" />
    <path
       id="rect2-2-23-0487-374-81-75"
       style="display:inline;fill:#ffffff;fill-rule:evenodd"
       d="M 7,5 V 4 h 1 v 1 z" />
    <path
       id="rect2-2-23-0487-374-81-97"
       style="display:inline;fill:#ffffff;fill-rule:evenodd"
       d="M 8,5 V 4 h 1 v 1 z" />
    <path
       id="rect2-2-23-0487-374-81-504"
       style="display:inline;fill:#ffffff;fill-rule:evenodd"
       d="M 9,5 V 4 h 1 v 1 z" />
    <path
       id="rect2-2-23-0487-374-81-143"
       style="display:inline;fill:#ffffff;fill-rule:evenodd"
       d="M 10,5 V 4 h 1 v 1 z" />
    <path
       id="rect2-2-23-0487-374-81-27"
       style="display:inline;fill:#ffffff;fill-rule:evenodd"
       d="M 11,5 V 4 h 1 v 1 z" />
    <path
       id="rect2-2-23-0487-374-81-511"
       style="display:inline;fill:#ffffff;fill-rule:evenodd"
       d="M 12,5 V 4 h 1 v 1 z" />
    <path
       id="rect2-2-23-0487-374-81-447"
       style="display:inline;fill:#ffffff;fill-rule:evenodd"
       d="M 12,6 V 5 h 1 v 1 z" />
    <path
       id="rect2-2-23-0487-374-81-273"
       style="display:inline;fill:#ffffff;fill-rule:evenodd"
       d="M 10,6 V 5 h 1 v 1 z" />
    <path
       id="rect2-2-23-0487-374-81-48"
       style="display:inline;fill:#ffffff;fill-rule:evenodd"
       d="M 11,6 V 5 h 1 v 1 z" />
    <path
       id="rect2-2-23-0487-374-81-64"
       style="display:inline;fill:#ffffff;fill-rule:evenodd"
       d="M 11,7 V 6 h 1 v 1 z" />
    <path
       id="rect2-2-23-0487-374-81-122"
       style="display:inline;fill:#ffffff;fill-rule:evenodd"
       d="M 10,7 V 6 h 1 v 1 z" />
    <path
       id="rect2-2-23-0487-374-81-463"
       style="display:inline;fill:#ffffff;fill-rule:evenodd"
       d="M 10,8 V 7 h 1 v 1 z" />
    <path
       id="rect2-2-23-0487-374-81-65"
       style="display:inline;fill:#ffffff;fill-rule:evenodd"
       d="M 9,9 V 8 h 1 v 1 z" />
    <path
       id="rect2-2-23-0487-374-81-468"
       style="display:inline;fill:#ffffff;fill-rule:evenodd"
       d="M 8,9 V 8 h 1 v 1 z" />
    <path
       id="rect2-2-23-0487-374-81-129"
       style="display:inline;fill:#ffffff;fill-rule:evenodd"
       d="M 8,10 V 9 h 1 v 1 z" />
    <path
       id="rect2-2-23-0487-374-81-82"
       style="display:inline;fill:#ffffff;fill-rule:evenodd"
       d="M 7,10 V 9 h 1 v 1 z" />
    <path
       id="rect2-2-23-0487-374-81-98"
       style="display:inline;fill:#ffffff;fill-rule:evenodd"
       d="M 7,9 V 8 h 1 v 1 z" />
    <path
       id="rect2-2-23-0487-374-81-4686"
       style="display:inline;fill:#ffffff;fill-rule:evenodd"
       d="M 6,9 V 8 h 1 v 1 z" />
    <path
       id="rect2-2-23-0487-374-81-42"
       style="display:inline;fill:#ffffff;fill-rule:evenodd"
       d="M 5,8 V 7 h 1 v 1 z" />
    <path
       id="rect2-2-23-0487-374-81-72"
       style="display:inline;fill:#ffffff;fill-rule:evenodd"
       d="M 4,7 V 6 h 1 v 1 z" />
    <path
       id="rect2-2-23-0487-374-81-194"
       style="display:inline;fill:#ffffff;fill-rule:evenodd"
       d="M 3,6 V 5 h 1 v 1 z" />
    <path
       id="rect2-2-23-0487-374-81-94"
       style="display:inline;fill:#ffffff;fill-rule:evenodd"
       d="M 4,6 V 5 h 1 v 1 z" />
    <path
       id="rect2-2-23-0487-374-81-36"
       style="display:inline;fill:#ffffff;fill-rule:evenodd"
       d="M 5,6 V 5 h 1 v 1 z" />
    <path
       id="rect2-2-23-0487-374-81-86"
       style="display:inline;fill:#ffffff;fill-rule:evenodd"
       d="M 6,6 V 5 h 1 v 1 z" />
    <path
       id="rect2-2-23-0487-374-81-35"
       style="display:inline;fill:#ffffff;fill-rule:evenodd"
       d="M 7,6 V 5 h 1 v 1 z" />
    <path
       id="rect2-2-23-0487-374-81-79"
       style="display:inline;fill:#ffffff;fill-rule:evenodd"
       d="M 8,6 V 5 h 1 v 1 z" />
    <path
       id="rect2-2-23-0487-374-81-21"
       style="display:inline;fill:#ffffff;fill-rule:evenodd"
       d="M 9,6 V 5 h 1 v 1 z" />
    <path
       id="rect2-2-23-0487-374-81-63"
       style="display:inline;fill:#ffffff;fill-rule:evenodd"
       d="M 9,7 V 6 h 1 v 1 z" />
    <path
       id="rect2-2-23-0487-374-81-84"
       style="display:inline;fill:#ffffff;fill-rule:evenodd"
       d="M 8,7 V 6 h 1 v 1 z" />
    <path
       id="rect2-2-23-0487-374-81-482"
       style="display:inline;fill:#ffffff;fill-rule:evenodd"
       d="M 7,7 V 6 h 1 v 1 z" />
    <path
       id="rect2-2-23-0487-374-81-799"
       style="display:inline;fill:#ffffff;fill-rule:evenodd"
       d="M 6,7 V 6 h 1 v 1 z" />
    <path
       id="rect2-2-23-0487-374-81-408"
       style="display:inline;fill:#ffffff;fill-rule:evenodd"
       d="M 5,7 V 6 h 1 v 1 z" />
    <path
       id="rect2-2-23-0487-374-81-091"
       style="display:inline;fill:#ffffff;fill-rule:evenodd"
       d="M 6,8 V 7 h 1 v 1 z" />
    <path
       id="rect2-2-23-0487-374-81-76"
       style="display:inline;fill:#ffffff;fill-rule:evenodd"
       d="M 7,8 V 7 h 1 v 1 z" />
    <path
       id="rect2-2-23-0487-374-81-983"
       style="display:inline;fill:#ffffff;fill-rule:evenodd"
       d="M 8,8 V 7 h 1 v 1 z" />
    <path
       id="rect2-2-23-0487-374-81-196"
       style="display:inline;fill:#ffffff;fill-rule:evenodd"
       d="M 9,8 V 7 h 1 v 1 z" />
  </g>
</svg>
