<?xml version="1.0" encoding="UTF-8" standalone="no"?>
<!-- Created with Inkscape (http://www.inkscape.org/) -->

<svg
   width="16"
   height="16"
   viewBox="0 0 16 16"
   version="1.1"
   id="svg1"
   inkscape:version="1.3.2 (091e20ef0f, 2023-11-25)"
   sodipodi:docname="user-desktop-symbolic.svg"
   xmlns:inkscape="http://www.inkscape.org/namespaces/inkscape"
   xmlns:sodipodi="http://sodipodi.sourceforge.net/DTD/sodipodi-0.dtd"
   xmlns="http://www.w3.org/2000/svg"
   xmlns:svg="http://www.w3.org/2000/svg">
  <sodipodi:namedview
     id="namedview1"
     pagecolor="#00e927"
     bordercolor="#000000"
     borderopacity="0.25"
     inkscape:showpageshadow="2"
     inkscape:pageopacity="0.0"
     inkscape:pagecheckerboard="0"
     inkscape:deskcolor="#d1d1d1"
     inkscape:document-units="px"
     showgrid="true"
     inkscape:zoom="45.254834"
     inkscape:cx="8.3637474"
     inkscape:cy="5.590563"
     inkscape:window-width="1261"
     inkscape:window-height="1392"
     inkscape:window-x="0"
     inkscape:window-y="0"
     inkscape:window-maximized="0"
     inkscape:current-layer="layer3">
    <inkscape:grid
       id="grid1"
       units="px"
       originx="0"
       originy="0"
       spacingx="1"
       spacingy="1"
       empcolor="#0099e5"
       empopacity="0.30196078"
       color="#0099e5"
       opacity="0.14901961"
       empspacing="1"
       dotted="false"
       gridanglex="30"
       gridanglez="30"
       visible="true" />
  </sodipodi:namedview>
  <defs
     id="defs1" />
  <g
     inkscape:groupmode="layer"
     id="layer3"
     inkscape:label="desktop">
    <path
       id="rect2-2-23-0487-374"
       style="display:inline;fill:#ffffff;fill-rule:evenodd"
       d="m 1,14 v -1 h 1 v 1 z" />
    <path
       id="rect2-2-23-0487-374-1"
       style="display:inline;fill:#ffffff;fill-rule:evenodd"
       d="m 1,15 v -1 h 1 v 1 z" />
    <path
       id="rect2-2-23-0487-374-8"
       style="display:inline;fill:#ffffff;fill-rule:evenodd"
       d="m 2,15 v -1 h 1 v 1 z" />
    <path
       id="rect2-2-23-0487-374-3"
       style="display:inline;fill:#ffffff;fill-rule:evenodd"
       d="m 3,15 v -1 h 1 v 1 z" />
    <path
       id="rect2-2-23-0487-374-5"
       style="display:inline;fill:#ffffff;fill-rule:evenodd"
       d="m 4,15 v -1 h 1 v 1 z" />
    <path
       id="rect2-2-23-0487-374-0"
       style="display:inline;fill:#ffffff;fill-rule:evenodd"
       d="m 5,15 v -1 h 1 v 1 z" />
    <path
       id="rect2-2-23-0487-374-18"
       style="display:inline;fill:#ffffff;fill-rule:evenodd"
       d="m 6,15 v -1 h 1 v 1 z" />
    <path
       id="rect2-2-23-0487-374-11"
       style="display:inline;fill:#ffffff;fill-rule:evenodd"
       d="m 7,15 v -1 h 1 v 1 z" />
    <path
       id="rect2-2-23-0487-374-04"
       style="display:inline;fill:#ffffff;fill-rule:evenodd"
       d="m 9,15 v -1 h 1 v 1 z" />
    <path
       id="rect2-2-23-0487-374-4"
       style="display:inline;fill:#ffffff;fill-rule:evenodd"
       d="m 8,15 v -1 h 1 v 1 z" />
    <path
       id="rect2-2-23-0487-374-6"
       style="display:inline;fill:#ffffff;fill-rule:evenodd"
       d="m 10,15 v -1 h 1 v 1 z" />
    <path
       id="rect2-2-23-0487-374-34"
       style="display:inline;fill:#ffffff;fill-rule:evenodd"
       d="m 11,15 v -1 h 1 v 1 z" />
    <path
       id="rect2-2-23-0487-374-61"
       style="display:inline;fill:#ffffff;fill-rule:evenodd"
       d="m 12,15 v -1 h 1 v 1 z" />
    <path
       id="rect2-2-23-0487-374-9"
       style="display:inline;fill:#ffffff;fill-rule:evenodd"
       d="m 13,15 v -1 h 1 v 1 z" />
    <path
       id="rect2-2-23-0487-374-2"
       style="display:inline;fill:#ffffff;fill-rule:evenodd"
       d="m 14,15 v -1 h 1 v 1 z" />
    <path
       id="rect2-2-23-0487-374-63"
       style="display:inline;fill:#ffffff;fill-rule:evenodd"
       d="m 14,14 v -1 h 1 v 1 z" />
    <path
       id="rect2-2-23-0487-374-37"
       style="display:inline;fill:#ffffff;fill-rule:evenodd"
       d="m 14,12 v -1 h 1 v 1 z" />
    <path
       id="rect2-2-23-0487-374-7"
       style="display:inline;fill:#ffffff;fill-rule:evenodd"
       d="m 14,13 v -1 h 1 v 1 z" />
    <path
       id="rect2-2-23-0487-374-36"
       style="display:inline;fill:#ffffff;fill-rule:evenodd"
       d="m 14,11 v -1 h 1 v 1 z" />
    <path
       id="rect2-2-23-0487-374-58"
       style="display:inline;fill:#ffffff;fill-rule:evenodd"
       d="M 14,10 V 9 h 1 v 1 z" />
    <path
       id="rect2-2-23-0487-374-98"
       style="display:inline;fill:#ffffff;fill-rule:evenodd"
       d="M 14,9 V 8 h 1 v 1 z" />
    <path
       id="rect2-2-23-0487-374-90"
       style="display:inline;fill:#ffffff;fill-rule:evenodd"
       d="M 14,8 V 7 h 1 v 1 z" />
    <path
       id="rect2-2-23-0487-374-06"
       style="display:inline;fill:#ffffff;fill-rule:evenodd"
       d="M 14,7 V 6 h 1 v 1 z" />
    <path
       id="rect2-2-23-0487-374-83"
       style="display:inline;fill:#ffffff;fill-rule:evenodd"
       d="M 14,6 V 5 h 1 v 1 z" />
    <path
       id="rect2-2-23-0487-374-10"
       style="display:inline;fill:#ffffff;fill-rule:evenodd"
       d="M 14,5 V 4 h 1 v 1 z" />
    <path
       id="rect2-2-23-0487-374-31"
       style="display:inline;fill:#ffffff;fill-rule:evenodd"
       d="M 14,4 V 3 h 1 v 1 z" />
    <path
       id="rect2-2-23-0487-374-79"
       style="display:inline;fill:#ffffff;fill-rule:evenodd"
       d="M 14,3 V 2 h 1 v 1 z" />
    <path
       id="rect2-2-23-0487-374-59"
       style="display:inline;fill:#ffffff;fill-rule:evenodd"
       d="M 14,2 V 1 h 1 v 1 z" />
    <path
       id="rect2-2-23-0487-374-69"
       style="display:inline;fill:#ffffff;fill-rule:evenodd"
       d="M 13,2 V 1 h 1 v 1 z" />
    <path
       id="rect2-2-23-0487-374-30"
       style="display:inline;fill:#ffffff;fill-rule:evenodd"
       d="M 12,2 V 1 h 1 v 1 z" />
    <path
       id="rect2-2-23-0487-374-94"
       style="display:inline;fill:#ffffff;fill-rule:evenodd"
       d="M 11,2 V 1 h 1 v 1 z" />
    <path
       id="rect2-2-23-0487-374-942"
       style="display:inline;fill:#ffffff;fill-rule:evenodd"
       d="M 10,2 V 1 h 1 v 1 z" />
    <path
       id="rect2-2-23-0487-374-95"
       style="display:inline;fill:#ffffff;fill-rule:evenodd"
       d="M 9,2 V 1 h 1 v 1 z" />
    <path
       id="rect2-2-23-0487-374-43"
       style="display:inline;fill:#ffffff;fill-rule:evenodd"
       d="m 1,13 v -1 h 1 v 1 z" />
    <path
       id="rect2-2-23-0487-374-33"
       style="display:inline;fill:#ffffff;fill-rule:evenodd"
       d="m 1,12 v -1 h 1 v 1 z" />
    <path
       id="rect2-2-23-0487-374-44"
       style="display:inline;fill:#ffffff;fill-rule:evenodd"
       d="m 1,11 v -1 h 1 v 1 z" />
    <path
       id="rect2-2-23-0487-374-832"
       style="display:inline;fill:#ffffff;fill-rule:evenodd"
       d="M 1,10 V 9 h 1 v 1 z" />
    <path
       id="rect2-2-23-0487-374-39"
       style="display:inline;fill:#ffffff;fill-rule:evenodd"
       d="M 1,9 V 8 h 1 v 1 z" />
    <path
       id="rect2-2-23-0487-374-57"
       style="display:inline;fill:#ffffff;fill-rule:evenodd"
       d="M 1,8 V 7 h 1 v 1 z" />
    <path
       id="rect2-2-23-0487-374-72"
       style="display:inline;fill:#ffffff;fill-rule:evenodd"
       d="M 1,7 V 6 h 1 v 1 z" />
    <path
       id="rect2-2-23-0487-374-05"
       style="display:inline;fill:#ffffff;fill-rule:evenodd"
       d="M 1,6 V 5 h 1 v 1 z" />
    <path
       id="rect2-2-23-0487-374-793"
       style="display:inline;fill:#ffffff;fill-rule:evenodd"
       d="M 1,5 V 4 h 1 v 1 z" />
    <path
       id="rect2-2-23-0487-374-25"
       style="display:inline;fill:#ffffff;fill-rule:evenodd"
       d="M 1,4 V 3 h 1 v 1 z" />
    <path
       id="rect2-2-23-0487-374-88"
       style="display:inline;fill:#ffffff;fill-rule:evenodd"
       d="M 1,3 V 2 h 1 v 1 z" />
    <path
       id="rect2-2-23-0487-374-27"
       style="display:inline;fill:#ffffff;fill-rule:evenodd"
       d="M 1,2 V 1 h 1 v 1 z" />
    <path
       id="rect2-2-23-0487-374-636"
       style="display:inline;fill:#ffffff;fill-rule:evenodd"
       d="M 2,2 V 1 h 1 v 1 z" />
    <path
       id="rect2-2-23-0487-374-67"
       style="display:inline;fill:#ffffff;fill-rule:evenodd"
       d="M 3,2 V 1 h 1 v 1 z" />
    <path
       id="rect2-2-23-0487-374-100"
       style="display:inline;fill:#ffffff;fill-rule:evenodd"
       d="M 4,2 V 1 h 1 v 1 z" />
    <path
       id="rect2-2-23-0487-374-373"
       style="display:inline;fill:#ffffff;fill-rule:evenodd"
       d="M 5,2 V 1 h 1 v 1 z" />
    <path
       id="rect2-2-23-0487-374-17"
       style="display:inline;fill:#ffffff;fill-rule:evenodd"
       d="M 6,2 V 1 h 1 v 1 z" />
    <path
       id="rect2-2-23-0487-374-89"
       style="display:inline;fill:#ffffff;fill-rule:evenodd"
       d="M 7,2 V 1 h 1 v 1 z" />
    <path
       id="rect2-2-23-0487-374-15"
       style="display:inline;fill:#ffffff;fill-rule:evenodd"
       d="M 8,2 V 1 h 1 v 1 z" />
    <path
       id="rect2-2-23-0487-374-62"
       style="display:inline;fill:#ffffff;fill-rule:evenodd"
       d="m 2,13 v -1 h 1 v 1 z" />
    <path
       id="rect2-2-23-0487-374-32"
       style="display:inline;fill:#ffffff;fill-rule:evenodd"
       d="m 3,13 v -1 h 1 v 1 z" />
    <path
       id="rect2-2-23-0487-374-68"
       style="display:inline;fill:#ffffff;fill-rule:evenodd"
       d="m 4,13 v -1 h 1 v 1 z" />
    <path
       id="rect2-2-23-0487-374-433"
       style="display:inline;fill:#ffffff;fill-rule:evenodd"
       d="m 5,13 v -1 h 1 v 1 z" />
    <path
       id="rect2-2-23-0487-374-48"
       style="display:inline;fill:#ffffff;fill-rule:evenodd"
       d="m 6,13 v -1 h 1 v 1 z" />
    <path
       id="rect2-2-23-0487-374-97"
       style="display:inline;fill:#ffffff;fill-rule:evenodd"
       d="m 7,13 v -1 h 1 v 1 z" />
    <path
       id="rect2-2-23-0487-374-92"
       style="display:inline;fill:#ffffff;fill-rule:evenodd"
       d="m 8,13 v -1 h 1 v 1 z" />
    <path
       id="rect2-2-23-0487-374-74"
       style="display:inline;fill:#ffffff;fill-rule:evenodd"
       d="m 9,13 v -1 h 1 v 1 z" />
    <path
       id="rect2-2-23-0487-374-85"
       style="display:inline;fill:#ffffff;fill-rule:evenodd"
       d="m 10,13 v -1 h 1 v 1 z" />
    <path
       id="rect2-2-23-0487-374-26"
       style="display:inline;fill:#ffffff;fill-rule:evenodd"
       d="m 11,13 v -1 h 1 v 1 z" />
    <path
       id="rect2-2-23-0487-374-625"
       style="display:inline;fill:#ffffff;fill-rule:evenodd"
       d="m 13,13 v -1 h 1 v 1 z" />
    <path
       id="rect2-2-23-0487-374-13"
       style="display:inline;fill:#ffffff;fill-rule:evenodd"
       d="m 12,13 v -1 h 1 v 1 z" />
    <path
       id="rect2-2-23-0487-374-269"
       style="display:inline;fill:#ffffff;fill-rule:evenodd"
       d="m 3,14 v -1 h 1 v 1 z" />
    <path
       id="rect2-2-23-0487-374-07"
       style="display:inline;fill:#ffffff;fill-rule:evenodd"
       d="m 5,14 v -1 h 1 v 1 z" />
    <path
       id="rect2-2-23-0487-374-900"
       style="display:inline;fill:#ffffff;fill-rule:evenodd"
       d="m 7,14 v -1 h 1 v 1 z" />
    <path
       id="rect2-2-23-0487-374-71"
       style="display:inline;fill:#ffffff;fill-rule:evenodd"
       d="M 3,4 V 3 h 1 v 1 z" />
    <path
       id="rect2-2-23-0487-374-041"
       style="display:inline;fill:#ffffff;fill-rule:evenodd"
       d="M 5,4 V 3 h 1 v 1 z" />
    <path
       id="rect2-2-23-0487-374-96"
       style="display:inline;fill:#ffffff;fill-rule:evenodd"
       d="M 3,6 V 5 h 1 v 1 z" />
    <path
       id="rect2-2-23-0487-374-54"
       style="display:inline;fill:#ffffff;fill-rule:evenodd"
       d="M 5,6 V 5 h 1 v 1 z" />
    <path
       id="rect2-2-23-0487-374-319"
       style="display:inline;fill:#ffffff;fill-rule:evenodd"
       d="M 3,8 V 7 h 1 v 1 z" />
    <path
       id="rect2-2-23-0487-374-45"
       style="display:inline;fill:#ffffff;fill-rule:evenodd"
       d="M 5,8 V 7 h 1 v 1 z" />
    <path
       id="rect2-2-23-0487-374-91"
       style="display:inline;fill:#ffffff;fill-rule:evenodd"
       d="M 3,10 V 9 h 1 v 1 z" />
    <path
       id="rect2-2-23-0487-374-119"
       style="display:inline;fill:#ffffff;fill-rule:evenodd"
       d="M 5,10 V 9 h 1 v 1 z" />
  </g>
</svg>
