<?xml version="1.0" encoding="UTF-8" standalone="no"?>
<!-- Created with Inkscape (http://www.inkscape.org/) -->

<svg
   width="16"
   height="16"
   viewBox="0 0 16 16"
   version="1.1"
   id="svg1"
   inkscape:version="1.3.2 (091e20ef0f, 2023-11-25)"
   sodipodi:docname="audacity.svg"
   xml:space="preserve"
   xmlns:inkscape="http://www.inkscape.org/namespaces/inkscape"
   xmlns:sodipodi="http://sodipodi.sourceforge.net/DTD/sodipodi-0.dtd"
   xmlns="http://www.w3.org/2000/svg"
   xmlns:svg="http://www.w3.org/2000/svg"><sodipodi:namedview
     id="namedview1"
     pagecolor="#30d100"
     bordercolor="#000000"
     borderopacity="0.25"
     inkscape:showpageshadow="2"
     inkscape:pageopacity="0.0"
     inkscape:pagecheckerboard="0"
     inkscape:deskcolor="#d1d1d1"
     inkscape:document-units="px"
     showgrid="true"
     inkscape:zoom="32"
     inkscape:cx="7.15625"
     inkscape:cy="2.75"
     inkscape:window-width="1390"
     inkscape:window-height="1392"
     inkscape:window-x="0"
     inkscape:window-y="0"
     inkscape:window-maximized="0"
     inkscape:current-layer="layer2"><inkscape:grid
       id="grid1"
       units="px"
       originx="0"
       originy="0"
       spacingx="1"
       spacingy="1"
       empcolor="#0099e5"
       empopacity="0.30196078"
       color="#0099e5"
       opacity="0.14901961"
       empspacing="1"
       dotted="false"
       gridanglex="30"
       gridanglez="30"
       visible="true" /></sodipodi:namedview><defs
     id="defs1" /><g
     inkscape:groupmode="layer"
     id="layer2"
     inkscape:label="audacity"
     transform="translate(0,1)"><path
       id="path48-14-98"
       style="display:inline;fill:#ffffff;fill-rule:evenodd"
       d="M 8,2 H 7 V 1 h 1 z" /><path
       id="path48-14-98-9"
       style="display:inline;fill:#ffffff;fill-rule:evenodd"
       d="M 9,2 H 8 V 1 h 1 z" /><path
       id="path48-14-98-8"
       style="display:inline;fill:#ffffff;fill-rule:evenodd"
       d="M 10,3 H 9 V 2 h 1 z" /><path
       id="path48-14-98-4"
       style="display:inline;fill:#ffffff;fill-rule:evenodd"
       d="M 10,2 H 9 V 1 h 1 z" /><path
       id="path48-14-98-7"
       style="display:inline;fill:#ffffff;fill-rule:evenodd"
       d="M 9,3 H 8 V 2 h 1 z" /><path
       id="path48-14-98-3"
       style="display:inline;fill:#ffffff;fill-rule:evenodd"
       d="M 8,3 H 7 V 2 h 1 z" /><path
       id="path48-14-98-0"
       style="display:inline;fill:#ffffff;fill-rule:evenodd"
       d="M 7,3 H 6 V 2 h 1 z" /><path
       id="path48-14-98-35"
       style="display:inline;fill:#ffffff;fill-rule:evenodd"
       d="M 7,2 H 6 V 1 h 1 z" /><path
       id="path48-14-98-41"
       style="display:inline;fill:#ffffff;fill-rule:evenodd"
       d="M 6,2 H 5 V 1 h 1 z" /><path
       id="path48-14-98-93"
       style="display:inline;fill:#ffffff;fill-rule:evenodd"
       d="M 6,3 H 5 V 2 h 1 z" /><path
       id="path48-14-98-08"
       style="display:inline;fill:#ffffff;fill-rule:evenodd"
       d="M 11,2 H 10 V 1 h 1 z" /><path
       id="path48-14-98-5"
       style="display:inline;fill:#ffffff;fill-rule:evenodd"
       d="M 11,3 H 10 V 2 h 1 z" /><path
       id="path48-14-98-2"
       style="display:inline;fill:#ffffff;fill-rule:evenodd"
       d="M 12,3 H 11 V 2 h 1 z" /><path
       id="path48-14-98-04"
       style="display:inline;fill:#ffffff;fill-rule:evenodd"
       d="M 5,3 H 4 V 2 h 1 z" /><path
       id="path48-14-98-37"
       style="display:inline;fill:#ffffff;fill-rule:evenodd"
       d="M 5,4 H 4 V 3 h 1 z" /><path
       id="path48-14-98-49"
       style="display:inline;fill:#ffffff;fill-rule:evenodd"
       d="M 12,4 H 11 V 3 h 1 z" /><path
       id="path48-14-98-25"
       style="display:inline;fill:#ffffff;fill-rule:evenodd"
       d="M 13,4 H 12 V 3 h 1 z" /><path
       id="path48-14-98-38"
       style="display:inline;fill:#ffffff;fill-rule:evenodd"
       d="M 13,5 H 12 V 4 h 1 z" /><path
       id="path48-14-98-92"
       style="display:inline;fill:#ffffff;fill-rule:evenodd"
       d="M 4,4 H 3 V 3 h 1 z" /><path
       id="path48-14-98-83"
       style="display:inline;fill:#ffffff;fill-rule:evenodd"
       d="M 4,5 H 3 V 4 h 1 z" /><path
       id="path48-14-98-45"
       style="display:inline;fill:#ffffff;fill-rule:evenodd"
       d="M 3,5 H 2 V 4 h 1 z" /><path
       id="path48-14-98-71"
       style="display:inline;fill:#ffffff;fill-rule:evenodd"
       d="M 3,6 H 2 V 5 h 1 z" /><path
       id="path48-14-98-1"
       style="display:inline;fill:#ffffff;fill-rule:evenodd"
       d="M 14,5 H 13 V 4 h 1 z" /><path
       id="path48-14-98-79"
       style="display:inline;fill:#ffffff;fill-rule:evenodd"
       d="M 14,6 H 13 V 5 h 1 z" /><path
       id="path48-14-98-048"
       style="display:inline;fill:#ffffff;fill-rule:evenodd"
       d="M 3,8 H 2 V 7 h 1 z" /><path
       id="path48-14-98-6"
       style="display:inline;fill:#ffffff;fill-rule:evenodd"
       d="M 3,7 H 2 V 6 h 1 z" /><path
       id="path48-14-98-19"
       style="display:inline;fill:#ffffff;fill-rule:evenodd"
       d="M 2,9 H 1 V 8 h 1 z" /><path
       id="path48-14-98-64"
       style="display:inline;fill:#ffffff;fill-rule:evenodd"
       d="M 3,9 H 2 V 8 h 1 z" /><path
       id="path48-14-98-89"
       style="display:inline;fill:#ffffff;fill-rule:evenodd"
       d="M 4,9 H 3 V 8 h 1 z" /><path
       id="path48-14-98-896"
       style="display:inline;fill:#ffffff;fill-rule:evenodd"
       d="M 5,8 H 4 V 7 h 1 z" /><path
       id="path48-14-98-712"
       style="display:inline;fill:#ffffff;fill-rule:evenodd"
       d="M 2,10 H 1 V 9 h 1 z" /><path
       id="path48-14-98-09"
       style="display:inline;fill:#ffffff;fill-rule:evenodd"
       d="M 2,11 H 1 v -1 h 1 z" /><path
       id="path48-14-98-13"
       style="display:inline;fill:#ffffff;fill-rule:evenodd"
       d="M 3,12 H 2 v -1 h 1 z" /><path
       id="path48-14-98-17"
       style="display:inline;fill:#ffffff;fill-rule:evenodd"
       d="M 4,12 H 3 v -1 h 1 z" /><path
       id="path48-14-98-42"
       style="display:inline;fill:#ffffff;fill-rule:evenodd"
       d="M 5,13 H 4 v -1 h 1 z" /><path
       id="path48-14-98-24"
       style="display:inline;fill:#ffffff;fill-rule:evenodd"
       d="M 5,12 H 4 v -1 h 1 z" /><path
       id="path48-14-98-78"
       style="display:inline;fill:#ffffff;fill-rule:evenodd"
       d="M 5,11 H 4 v -1 h 1 z" /><path
       id="path48-14-98-73"
       style="display:inline;fill:#ffffff;fill-rule:evenodd"
       d="M 5,10 H 4 V 9 h 1 z" /><path
       id="path48-14-98-97"
       style="display:inline;fill:#ffffff;fill-rule:evenodd"
       d="M 5,9 H 4 V 8 h 1 z" /><path
       id="path48-14-98-63"
       style="display:inline;fill:#ffffff;fill-rule:evenodd"
       d="M 4,10 H 3 V 9 h 1 z" /><path
       id="path48-14-98-56"
       style="display:inline;fill:#ffffff;fill-rule:evenodd"
       d="M 3,10 H 2 V 9 h 1 z" /><path
       id="path48-14-98-34"
       style="display:inline;fill:#ffffff;fill-rule:evenodd"
       d="M 3,11 H 2 v -1 h 1 z" /><path
       id="path48-14-98-258"
       style="display:inline;fill:#ffffff;fill-rule:evenodd"
       d="M 4,11 H 3 v -1 h 1 z" /><path
       id="path48-14-98-60"
       style="display:inline;fill:#ffffff;fill-rule:evenodd"
       d="M 14,7 H 13 V 6 h 1 z" /><path
       id="path48-14-98-82"
       style="display:inline;fill:#ffffff;fill-rule:evenodd"
       d="M 14,8 H 13 V 7 h 1 z" /><path
       id="path48-14-98-85"
       style="display:inline;fill:#ffffff;fill-rule:evenodd"
       d="M 15,9 H 14 V 8 h 1 z" /><path
       id="path48-14-98-382"
       style="display:inline;fill:#ffffff;fill-rule:evenodd"
       d="M 14,9 H 13 V 8 h 1 z" /><path
       id="path48-14-98-77"
       style="display:inline;fill:#ffffff;fill-rule:evenodd"
       d="M 13,9 H 12 V 8 h 1 z" /><path
       id="path48-14-98-190"
       style="display:inline;fill:#ffffff;fill-rule:evenodd"
       d="M 12,8 H 11 V 7 h 1 z" /><path
       id="path48-14-98-80"
       style="display:inline;fill:#ffffff;fill-rule:evenodd"
       d="M 12,9 H 11 V 8 h 1 z" /><path
       id="path48-14-98-69"
       style="display:inline;fill:#ffffff;fill-rule:evenodd"
       d="M 12,10 H 11 V 9 h 1 z" /><path
       id="path48-14-98-797"
       style="display:inline;fill:#ffffff;fill-rule:evenodd"
       d="m 12,11 h -1 v -1 h 1 z" /><path
       id="path48-14-98-15"
       style="display:inline;fill:#ffffff;fill-rule:evenodd"
       d="m 12,12 h -1 v -1 h 1 z" /><path
       id="path48-14-98-565"
       style="display:inline;fill:#ffffff;fill-rule:evenodd"
       d="m 12,13 h -1 v -1 h 1 z" /><path
       id="path48-14-98-88"
       style="display:inline;fill:#ffffff;fill-rule:evenodd"
       d="m 13,12 h -1 v -1 h 1 z" /><path
       id="path48-14-98-52"
       style="display:inline;fill:#ffffff;fill-rule:evenodd"
       d="m 14,12 h -1 v -1 h 1 z" /><path
       id="path48-14-98-57"
       style="display:inline;fill:#ffffff;fill-rule:evenodd"
       d="m 15,11 h -1 v -1 h 1 z" /><path
       id="path48-14-98-21"
       style="display:inline;fill:#ffffff;fill-rule:evenodd"
       d="M 15,10 H 14 V 9 h 1 z" /><path
       id="path48-14-98-419"
       style="display:inline;fill:#ffffff;fill-rule:evenodd"
       d="M 14,10 H 13 V 9 h 1 z" /><path
       id="path48-14-98-12"
       style="display:inline;fill:#ffffff;fill-rule:evenodd"
       d="m 14,11 h -1 v -1 h 1 z" /><path
       id="path48-14-98-20"
       style="display:inline;fill:#ffffff;fill-rule:evenodd"
       d="m 13,11 h -1 v -1 h 1 z" /><path
       id="path48-14-98-74"
       style="display:inline;fill:#ffffff;fill-rule:evenodd"
       d="M 13,10 H 12 V 9 h 1 z" /><path
       id="path48-14-98-14"
       style="display:inline;fill:#ffffff;fill-rule:evenodd"
       d="M 6,11 H 5 v -1 h 1 z" /><path
       id="path48-14-98-27"
       style="display:inline;fill:#ffffff;fill-rule:evenodd"
       d="M 7,10 H 6 V 9 h 1 z" /><path
       id="path48-14-98-10"
       style="display:inline;fill:#ffffff;fill-rule:evenodd"
       d="M 7,9 H 6 V 8 h 1 z" /><path
       id="path48-14-98-102"
       style="display:inline;fill:#ffffff;fill-rule:evenodd"
       d="M 8,11 H 7 v -1 h 1 z" /><path
       id="path48-14-98-713"
       style="display:inline;fill:#ffffff;fill-rule:evenodd"
       d="M 9,12 H 8 v -1 h 1 z" /><path
       id="path48-14-98-68"
       style="display:inline;fill:#ffffff;fill-rule:evenodd"
       d="M 10,11 H 9 v -1 h 1 z" /><path
       id="path48-14-98-244"
       style="display:inline;fill:#ffffff;fill-rule:evenodd"
       d="M 10,10 H 9 V 9 h 1 z" /><path
       id="path48-14-98-28"
       style="display:inline;fill:#ffffff;fill-rule:evenodd"
       d="M 11,9 H 10 V 8 h 1 z" /><path
       id="path48-14-98-640"
       style="display:inline;fill:#ffffff;fill-rule:evenodd"
       d="M 6,8 H 5 V 7 h 1 z" /><path
       id="path48-14-98-46"
       style="display:inline;fill:#ffffff;fill-rule:evenodd"
       d="M 7,7 H 6 V 6 h 1 z" /><path
       id="path48-14-98-099"
       style="display:inline;fill:#ffffff;fill-rule:evenodd"
       d="M 8,8 H 7 V 7 h 1 z" /><path
       id="path48-14-98-58"
       style="display:inline;fill:#ffffff;fill-rule:evenodd"
       d="M 9,9 H 8 V 8 h 1 z" /><path
       id="path48-14-98-389"
       style="display:inline;fill:#ffffff;fill-rule:evenodd"
       d="M 10,8 H 9 V 7 h 1 z" /><path
       id="path48-14-98-86"
       style="display:inline;fill:#ffffff;fill-rule:evenodd"
       d="M 6,13 H 5 v -1 h 1 z" /><path
       id="path48-14-98-61"
       style="display:inline;fill:#ffffff;fill-rule:evenodd"
       d="M 7,12 H 6 v -1 h 1 z" /><path
       id="path48-14-98-51"
       style="display:inline;fill:#ffffff;fill-rule:evenodd"
       d="M 8,13 H 7 v -1 h 1 z" /><path
       id="path48-14-98-00"
       style="display:inline;fill:#ffffff;fill-rule:evenodd"
       d="M 10,13 H 9 v -1 h 1 z" /><path
       id="path48-14-98-249"
       style="display:inline;fill:#ffffff;fill-rule:evenodd"
       d="m 11,12 h -1 v -1 h 1 z" /></g></svg>
