<?xml version="1.0" encoding="UTF-8" standalone="no"?>
<!-- Created with Inkscape (http://www.inkscape.org/) -->

<svg
   width="16"
   height="16"
   viewBox="0 0 16 16"
   version="1.1"
   id="svg1"
   inkscape:version="1.3.2 (091e20ef0f, 2023-11-25)"
   sodipodi:docname="blueman.svg"
   xmlns:inkscape="http://www.inkscape.org/namespaces/inkscape"
   xmlns:sodipodi="http://sodipodi.sourceforge.net/DTD/sodipodi-0.dtd"
   xmlns="http://www.w3.org/2000/svg"
   xmlns:svg="http://www.w3.org/2000/svg">
  <sodipodi:namedview
     id="namedview1"
     pagecolor="#1feb07"
     bordercolor="#000000"
     borderopacity="0.25"
     inkscape:showpageshadow="2"
     inkscape:pageopacity="0.0"
     inkscape:pagecheckerboard="0"
     inkscape:deskcolor="#d1d1d1"
     inkscape:document-units="px"
     showgrid="true"
     inkscape:zoom="32"
     inkscape:cx="8.171875"
     inkscape:cy="5.78125"
     inkscape:window-width="1390"
     inkscape:window-height="1392"
     inkscape:window-x="0"
     inkscape:window-y="0"
     inkscape:window-maximized="0"
     inkscape:current-layer="layer2">
    <inkscape:grid
       id="grid1"
       units="px"
       originx="0"
       originy="0"
       spacingx="1"
       spacingy="1"
       empcolor="#0099e5"
       empopacity="0.30196078"
       color="#0099e5"
       opacity="0.14901961"
       empspacing="1"
       dotted="false"
       gridanglex="30"
       gridanglez="30"
       visible="true" />
  </sodipodi:namedview>
  <defs
     id="defs1" />
  <g
     inkscape:groupmode="layer"
     id="layer2"
     inkscape:label="blueman">
    <path
       id="rect2-54"
       style="display:inline;fill:#ffffff;fill-rule:evenodd"
       d="M 7,1 H 8 V 2 H 7 Z" />
    <path
       id="rect2-54-6"
       style="display:inline;fill:#ffffff;fill-rule:evenodd"
       d="M 8,1 H 9 V 2 H 8 Z" />
    <path
       id="rect2-54-8"
       style="display:inline;fill:#ffffff;fill-rule:evenodd"
       d="M 6,1 H 7 V 2 H 6 Z" />
    <path
       id="rect2-54-3"
       style="display:inline;fill:#ffffff;fill-rule:evenodd"
       d="m 9,1 h 1 V 2 H 9 Z" />
    <path
       id="rect2-54-0"
       style="display:inline;fill:#ffffff;fill-rule:evenodd"
       d="m 10,2 h 1 v 1 h -1 z" />
    <path
       id="rect2-54-10"
       style="display:inline;fill:#ffffff;fill-rule:evenodd"
       d="M 4,2 H 5 V 3 H 4 Z" />
    <path
       id="rect2-54-80"
       style="display:inline;fill:#ffffff;fill-rule:evenodd"
       d="m 11,2 h 1 v 1 h -1 z" />
    <path
       id="rect2-54-34"
       style="display:inline;fill:#ffffff;fill-rule:evenodd"
       d="M 5,2 H 6 V 3 H 5 Z" />
    <path
       id="rect2-54-5"
       style="display:inline;fill:#ffffff;fill-rule:evenodd"
       d="M 3,3 H 4 V 4 H 3 Z" />
    <path
       id="rect2-54-7"
       style="display:inline;fill:#ffffff;fill-rule:evenodd"
       d="m 12,3 h 1 v 1 h -1 z" />
    <path
       id="rect2-54-81"
       style="display:inline;fill:#ffffff;fill-rule:evenodd"
       d="m 13,4 h 1 v 1 h -1 z" />
    <path
       id="rect2-54-79"
       style="display:inline;fill:#ffffff;fill-rule:evenodd"
       d="m 13,5 h 1 v 1 h -1 z" />
    <path
       id="rect2-54-04"
       style="display:inline;fill:#ffffff;fill-rule:evenodd"
       d="m 13,6 h 1 v 1 h -1 z" />
    <path
       id="rect2-54-1"
       style="display:inline;fill:#ffffff;fill-rule:evenodd"
       d="m 6,14 h 1 v 1 H 6 Z" />
    <path
       id="rect2-54-2"
       style="display:inline;fill:#ffffff;fill-rule:evenodd"
       d="m 7,14 h 1 v 1 H 7 Z" />
    <path
       id="rect2-54-60"
       style="display:inline;fill:#ffffff;fill-rule:evenodd"
       d="m 8,14 h 1 v 1 H 8 Z" />
    <path
       id="rect2-54-9"
       style="display:inline;fill:#ffffff;fill-rule:evenodd"
       d="m 9,14 h 1 v 1 H 9 Z" />
    <path
       id="rect2-54-31"
       style="display:inline;fill:#ffffff;fill-rule:evenodd"
       d="m 10,13 h 1 v 1 h -1 z" />
    <path
       id="rect2-54-67"
       style="display:inline;fill:#ffffff;fill-rule:evenodd"
       d="m 11,13 h 1 v 1 h -1 z" />
    <path
       id="rect2-54-12"
       style="display:inline;fill:#ffffff;fill-rule:evenodd"
       d="m 5,13 h 1 v 1 H 5 Z" />
    <path
       id="rect2-54-09"
       style="display:inline;fill:#ffffff;fill-rule:evenodd"
       d="m 4,13 h 1 v 1 H 4 Z" />
    <path
       id="rect2-54-13"
       style="display:inline;fill:#ffffff;fill-rule:evenodd"
       d="m 3,12 h 1 v 1 H 3 Z" />
    <path
       id="rect2-54-130"
       style="display:inline;fill:#ffffff;fill-rule:evenodd"
       d="m 2,11 h 1 v 1 H 2 Z" />
    <path
       id="rect2-54-75"
       style="display:inline;fill:#ffffff;fill-rule:evenodd"
       d="m 2,10 h 1 v 1 H 2 Z" />
    <path
       id="rect2-54-22"
       style="display:inline;fill:#ffffff;fill-rule:evenodd"
       d="m 2,9 h 1 v 1 H 2 Z" />
    <path
       id="rect2-54-4"
       style="display:inline;fill:#ffffff;fill-rule:evenodd"
       d="M 2,8 H 3 V 9 H 2 Z" />
    <path
       id="rect2-54-78"
       style="display:inline;fill:#ffffff;fill-rule:evenodd"
       d="M 2,7 H 3 V 8 H 2 Z" />
    <path
       id="rect2-54-73"
       style="display:inline;fill:#ffffff;fill-rule:evenodd"
       d="M 2,6 H 3 V 7 H 2 Z" />
    <path
       id="rect2-54-97"
       style="display:inline;fill:#ffffff;fill-rule:evenodd"
       d="M 2,5 H 3 V 6 H 2 Z" />
    <path
       id="rect2-54-63"
       style="display:inline;fill:#ffffff;fill-rule:evenodd"
       d="M 2,4 H 3 V 5 H 2 Z" />
    <path
       id="rect2-54-56"
       style="display:inline;fill:#ffffff;fill-rule:evenodd"
       d="m 13,7 h 1 v 1 h -1 z" />
    <path
       id="rect2-54-346"
       style="display:inline;fill:#ffffff;fill-rule:evenodd"
       d="m 13,8 h 1 v 1 h -1 z" />
    <path
       id="rect2-54-58"
       style="display:inline;fill:#ffffff;fill-rule:evenodd"
       d="m 13,9 h 1 v 1 h -1 z" />
    <path
       id="rect2-54-608"
       style="display:inline;fill:#ffffff;fill-rule:evenodd"
       d="m 13,10 h 1 v 1 h -1 z" />
    <path
       id="rect2-54-21"
       style="display:inline;fill:#ffffff;fill-rule:evenodd"
       d="m 13,11 h 1 v 1 h -1 z" />
    <path
       id="rect2-54-82"
       style="display:inline;fill:#ffffff;fill-rule:evenodd"
       d="m 12,12 h 1 v 1 h -1 z" />
    <path
       id="rect2-54-06"
       style="display:inline;fill:#ffffff;fill-rule:evenodd"
       d="M 5,5 H 6 V 6 H 5 Z" />
    <path
       id="rect2-54-77"
       style="display:inline;fill:#ffffff;fill-rule:evenodd"
       d="M 6,6 H 7 V 7 H 6 Z" />
    <path
       id="rect2-54-27"
       style="display:inline;fill:#ffffff;fill-rule:evenodd"
       d="m 5,10 h 1 v 1 H 5 Z" />
    <path
       id="rect2-54-84"
       style="display:inline;fill:#ffffff;fill-rule:evenodd"
       d="m 6,9 h 1 v 1 H 6 Z" />
    <path
       id="rect2-54-68"
       style="display:inline;fill:#ffffff;fill-rule:evenodd"
       d="m 7,9 h 1 v 1 H 7 Z" />
    <path
       id="rect2-54-38"
       style="display:inline;fill:#ffffff;fill-rule:evenodd"
       d="M 7,8 H 8 V 9 H 7 Z" />
    <path
       id="rect2-54-45"
       style="display:inline;fill:#ffffff;fill-rule:evenodd"
       d="M 7,7 H 8 V 8 H 7 Z" />
    <path
       id="rect2-54-32"
       style="display:inline;fill:#ffffff;fill-rule:evenodd"
       d="M 7,6 H 8 V 7 H 7 Z" />
    <path
       id="rect2-54-349"
       style="display:inline;fill:#ffffff;fill-rule:evenodd"
       d="M 7,5 H 8 V 6 H 7 Z" />
    <path
       id="rect2-54-216"
       style="display:inline;fill:#ffffff;fill-rule:evenodd"
       d="M 7,5 H 8 V 4 H 7 Z" />
    <path
       id="rect2-54-29"
       style="display:inline;fill:#ffffff;fill-rule:evenodd"
       d="M 7,3 H 8 V 4 H 7 Z" />
    <path
       id="rect2-54-127"
       style="display:inline;fill:#ffffff;fill-rule:evenodd"
       d="m 7,10 h 1 v 1 H 7 Z" />
    <path
       id="rect2-54-107"
       style="display:inline;fill:#ffffff;fill-rule:evenodd"
       d="m 7,11 h 1 v 1 H 7 Z" />
    <path
       id="rect2-54-02"
       style="display:inline;fill:#ffffff;fill-rule:evenodd"
       d="m 7,12 h 1 v 1 H 7 Z" />
    <path
       id="rect2-54-71"
       style="display:inline;fill:#ffffff;fill-rule:evenodd"
       d="m 8,11 h 1 v 1 H 8 Z" />
    <path
       id="rect2-54-068"
       style="display:inline;fill:#ffffff;fill-rule:evenodd"
       d="m 9,10 h 1 v 1 H 9 Z" />
    <path
       id="rect2-54-128"
       style="display:inline;fill:#ffffff;fill-rule:evenodd"
       d="M 8,7 H 9 V 8 H 8 Z" />
    <path
       id="rect2-54-54"
       style="display:inline;fill:#ffffff;fill-rule:evenodd"
       d="m 9,6 h 1 V 7 H 9 Z" />
    <path
       id="rect2-54-345"
       style="display:inline;fill:#ffffff;fill-rule:evenodd"
       d="M 8,4 H 9 V 5 H 8 Z" />
    <path
       id="rect2-54-33"
       style="display:inline;fill:#ffffff;fill-rule:evenodd"
       d="m 9,5 h 1 V 6 H 9 Z" />
    <path
       id="rect2-54-53"
       style="display:inline;fill:#ffffff;fill-rule:evenodd"
       d="M 8,8 H 9 V 9 H 8 Z" />
    <path
       id="rect2-54-336"
       style="display:inline;fill:#ffffff;fill-rule:evenodd"
       d="m 9,9 h 1 v 1 H 9 Z" />
  </g>
</svg>
