<?xml version="1.0" encoding="UTF-8" standalone="no"?>
<!-- Created with Inkscape (http://www.inkscape.org/) -->

<svg
   width="16"
   height="16"
   viewBox="0 0 16 16"
   version="1.1"
   id="svg1"
   inkscape:version="1.3.2 (091e20ef0f, 2023-11-25)"
   sodipodi:docname="boxes.svg"
   xml:space="preserve"
   xmlns:inkscape="http://www.inkscape.org/namespaces/inkscape"
   xmlns:sodipodi="http://sodipodi.sourceforge.net/DTD/sodipodi-0.dtd"
   xmlns="http://www.w3.org/2000/svg"
   xmlns:svg="http://www.w3.org/2000/svg"><sodipodi:namedview
     id="namedview1"
     pagecolor="#30d100"
     bordercolor="#000000"
     borderopacity="0.25"
     inkscape:showpageshadow="2"
     inkscape:pageopacity="0.0"
     inkscape:pagecheckerboard="0"
     inkscape:deskcolor="#d1d1d1"
     inkscape:document-units="px"
     showgrid="true"
     inkscape:zoom="32"
     inkscape:cx="7.140625"
     inkscape:cy="10.25"
     inkscape:window-width="1390"
     inkscape:window-height="1392"
     inkscape:window-x="0"
     inkscape:window-y="0"
     inkscape:window-maximized="0"
     inkscape:current-layer="layer1"><inkscape:grid
       id="grid1"
       units="px"
       originx="0"
       originy="0"
       spacingx="1"
       spacingy="1"
       empcolor="#0099e5"
       empopacity="0.30196078"
       color="#0099e5"
       opacity="0.14901961"
       empspacing="1"
       dotted="false"
       gridanglex="30"
       gridanglez="30"
       visible="true" /></sodipodi:namedview><defs
     id="defs1" /><g
     inkscape:groupmode="layer"
     id="layer1"
     inkscape:label="boxes"><path
       id="path48-14-98-2"
       style="display:inline;fill:#ffffff;fill-rule:evenodd"
       d="M 3,3 H 2 V 2 h 1 z" /><path
       id="path48-14-98-2-6"
       style="display:inline;fill:#ffffff;fill-rule:evenodd"
       d="M 3,2 H 2 V 1 h 1 z" /><path
       id="path48-14-98-2-2"
       style="display:inline;fill:#ffffff;fill-rule:evenodd"
       d="M 4,3 H 3 V 2 h 1 z" /><path
       id="path48-14-98-2-3"
       style="display:inline;fill:#ffffff;fill-rule:evenodd"
       d="M 3,4 H 2 V 3 h 1 z" /><path
       id="path48-14-98-2-26"
       style="display:inline;fill:#ffffff;fill-rule:evenodd"
       d="M 2,3 H 1 V 2 h 1 z" /><path
       id="path48-14-98-2-9"
       style="display:inline;fill:#ffffff;fill-rule:evenodd"
       d="M 15,3 H 14 V 2 h 1 z" /><path
       id="path48-14-98-2-37"
       style="display:inline;fill:#ffffff;fill-rule:evenodd"
       d="M 13,3 H 12 V 2 h 1 z" /><path
       id="path48-14-98-2-28"
       style="display:inline;fill:#ffffff;fill-rule:evenodd"
       d="M 14,2 H 13 V 1 h 1 z" /><path
       id="path48-14-98-2-61"
       style="display:inline;fill:#ffffff;fill-rule:evenodd"
       d="M 14,3 H 13 V 2 h 1 z" /><path
       id="path48-14-98-2-1"
       style="display:inline;fill:#ffffff;fill-rule:evenodd"
       d="M 14,4 H 13 V 3 h 1 z" /><path
       id="path48-14-98-2-8"
       style="display:inline;fill:#ffffff;fill-rule:evenodd"
       d="m 14,15 h -1 v -1 h 1 z" /><path
       id="path48-14-98-2-36"
       style="display:inline;fill:#ffffff;fill-rule:evenodd"
       d="m 14,14 h -1 v -1 h 1 z" /><path
       id="path48-14-98-2-32"
       style="display:inline;fill:#ffffff;fill-rule:evenodd"
       d="m 14,13 h -1 v -1 h 1 z" /><path
       id="path48-14-98-2-5"
       style="display:inline;fill:#ffffff;fill-rule:evenodd"
       d="m 13,14 h -1 v -1 h 1 z" /><path
       id="path48-14-98-2-65"
       style="display:inline;fill:#ffffff;fill-rule:evenodd"
       d="m 15,14 h -1 v -1 h 1 z" /><path
       id="path48-14-98-2-7"
       style="display:inline;fill:#ffffff;fill-rule:evenodd"
       d="M 3,14 H 2 v -1 h 1 z" /><path
       id="path48-14-98-2-54"
       style="display:inline;fill:#ffffff;fill-rule:evenodd"
       d="M 3,13 H 2 v -1 h 1 z" /><path
       id="path48-14-98-2-30"
       style="display:inline;fill:#ffffff;fill-rule:evenodd"
       d="M 2,14 H 1 v -1 h 1 z" /><path
       id="path48-14-98-2-88"
       style="display:inline;fill:#ffffff;fill-rule:evenodd"
       d="M 3,15 H 2 v -1 h 1 z" /><path
       id="path48-14-98-2-4"
       style="display:inline;fill:#ffffff;fill-rule:evenodd"
       d="M 4,14 H 3 v -1 h 1 z" /><path
       id="path48-14-98-2-68"
       style="display:inline;fill:#ffffff;fill-rule:evenodd"
       d="M 4,4 H 3 V 3 h 1 z" /><path
       id="path48-14-98-2-64"
       style="display:inline;fill:#ffffff;fill-rule:evenodd"
       d="M 5,5 H 4 V 4 h 1 z" /><path
       id="path48-14-98-2-48"
       style="display:inline;fill:#ffffff;fill-rule:evenodd"
       d="M 5,3 H 4 V 2 h 1 z" /><path
       id="path48-14-98-2-27"
       style="display:inline;fill:#ffffff;fill-rule:evenodd"
       d="M 6,3 H 5 V 2 h 1 z" /><path
       id="path48-14-98-2-10"
       style="display:inline;fill:#ffffff;fill-rule:evenodd"
       d="M 8,3 H 7 V 2 h 1 z" /><path
       id="path48-14-98-2-94"
       style="display:inline;fill:#ffffff;fill-rule:evenodd"
       d="M 7,3 H 6 V 2 h 1 z" /><path
       id="path48-14-98-2-17"
       style="display:inline;fill:#ffffff;fill-rule:evenodd"
       d="M 9,3 H 8 V 2 h 1 z" /><path
       id="path48-14-98-2-59"
       style="display:inline;fill:#ffffff;fill-rule:evenodd"
       d="M 10,3 H 9 V 2 h 1 z" /><path
       id="path48-14-98-2-73"
       style="display:inline;fill:#ffffff;fill-rule:evenodd"
       d="M 12,3 H 11 V 2 h 1 z" /><path
       id="path48-14-98-2-39"
       style="display:inline;fill:#ffffff;fill-rule:evenodd"
       d="M 11,3 H 10 V 2 h 1 z" /><path
       id="path48-14-98-2-29"
       style="display:inline;fill:#ffffff;fill-rule:evenodd"
       d="M 3,5 H 2 V 4 h 1 z" /><path
       id="path48-14-98-2-885"
       style="display:inline;fill:#ffffff;fill-rule:evenodd"
       d="M 3,6 H 2 V 5 h 1 z" /><path
       id="path48-14-98-2-38"
       style="display:inline;fill:#ffffff;fill-rule:evenodd"
       d="M 3,7 H 2 V 6 h 1 z" /><path
       id="path48-14-98-2-15"
       style="display:inline;fill:#ffffff;fill-rule:evenodd"
       d="M 3,9 H 2 V 8 h 1 z" /><path
       id="path48-14-98-2-81"
       style="display:inline;fill:#ffffff;fill-rule:evenodd"
       d="M 3,8 H 2 V 7 h 1 z" /><path
       id="path48-14-98-2-44"
       style="display:inline;fill:#ffffff;fill-rule:evenodd"
       d="M 3,10 H 2 V 9 h 1 z" /><path
       id="path48-14-98-2-63"
       style="display:inline;fill:#ffffff;fill-rule:evenodd"
       d="M 3,11 H 2 v -1 h 1 z" /><path
       id="path48-14-98-2-96"
       style="display:inline;fill:#ffffff;fill-rule:evenodd"
       d="M 3,12 H 2 v -1 h 1 z" /><path
       id="path48-14-98-2-85"
       style="display:inline;fill:#ffffff;fill-rule:evenodd"
       d="m 14,12 h -1 v -1 h 1 z" /><path
       id="path48-14-98-2-859"
       style="display:inline;fill:#ffffff;fill-rule:evenodd"
       d="m 14,11 h -1 v -1 h 1 z" /><path
       id="path48-14-98-2-883"
       style="display:inline;fill:#ffffff;fill-rule:evenodd"
       d="M 14,10 H 13 V 9 h 1 z" /><path
       id="path48-14-98-2-643"
       style="display:inline;fill:#ffffff;fill-rule:evenodd"
       d="M 14,9 H 13 V 8 h 1 z" /><path
       id="path48-14-98-2-60"
       style="display:inline;fill:#ffffff;fill-rule:evenodd"
       d="M 14,8 H 13 V 7 h 1 z" /><path
       id="path48-14-98-2-89"
       style="display:inline;fill:#ffffff;fill-rule:evenodd"
       d="M 14,7 H 13 V 6 h 1 z" /><path
       id="path48-14-98-2-43"
       style="display:inline;fill:#ffffff;fill-rule:evenodd"
       d="M 14,6 H 13 V 5 h 1 z" /><path
       id="path48-14-98-2-92"
       style="display:inline;fill:#ffffff;fill-rule:evenodd"
       d="M 14,5 H 13 V 4 h 1 z" /><path
       id="path48-14-98-2-594"
       style="display:inline;fill:#ffffff;fill-rule:evenodd"
       d="m 12,14 h -1 v -1 h 1 z" /><path
       id="path48-14-98-2-24"
       style="display:inline;fill:#ffffff;fill-rule:evenodd"
       d="m 11,14 h -1 v -1 h 1 z" /><path
       id="path48-14-98-2-481"
       style="display:inline;fill:#ffffff;fill-rule:evenodd"
       d="M 10,14 H 9 v -1 h 1 z" /><path
       id="path48-14-98-2-368"
       style="display:inline;fill:#ffffff;fill-rule:evenodd"
       d="M 9,14 H 8 v -1 h 1 z" /><path
       id="path48-14-98-2-0"
       style="display:inline;fill:#ffffff;fill-rule:evenodd"
       d="M 8,14 H 7 v -1 h 1 z" /><path
       id="path48-14-98-2-08"
       style="display:inline;fill:#ffffff;fill-rule:evenodd"
       d="M 7,14 H 6 v -1 h 1 z" /><path
       id="path48-14-98-2-46"
       style="display:inline;fill:#ffffff;fill-rule:evenodd"
       d="M 6,14 H 5 v -1 h 1 z" /><path
       id="path48-14-98-2-62"
       style="display:inline;fill:#ffffff;fill-rule:evenodd"
       d="M 5,14 H 4 v -1 h 1 z" /><path
       id="path48-14-98-2-240"
       style="display:inline;fill:#ffffff;fill-rule:evenodd"
       d="m 13,13 h -1 v -1 h 1 z" /><path
       id="path48-14-98-2-90"
       style="display:inline;fill:#ffffff;fill-rule:evenodd"
       d="m 12,12 h -1 v -1 h 1 z" /><path
       id="path48-14-98-2-11"
       style="display:inline;fill:#ffffff;fill-rule:evenodd"
       d="m 11,11 h -1 v -1 h 1 z" /><path
       id="path48-14-98-2-03"
       style="display:inline;fill:#ffffff;fill-rule:evenodd"
       d="M 13,4 H 12 V 3 h 1 z" /><path
       id="path48-14-98-2-69"
       style="display:inline;fill:#ffffff;fill-rule:evenodd"
       d="M 12,5 H 11 V 4 h 1 z" /><path
       id="path48-14-98-2-05"
       style="display:inline;fill:#ffffff;fill-rule:evenodd"
       d="M 11,6 H 10 V 5 h 1 z" /><path
       id="path48-14-98-2-00"
       style="display:inline;fill:#ffffff;fill-rule:evenodd"
       d="M 6,6 H 5 V 5 h 1 z" /><path
       id="path48-14-98-2-67"
       style="display:inline;fill:#ffffff;fill-rule:evenodd"
       d="M 6,11 H 5 v -1 h 1 z" /><path
       id="path48-14-98-2-87"
       style="display:inline;fill:#ffffff;fill-rule:evenodd"
       d="M 5,12 H 4 v -1 h 1 z" /><path
       id="path48-14-98-2-99"
       style="display:inline;fill:#ffffff;fill-rule:evenodd"
       d="M 4,13 H 3 v -1 h 1 z" /><path
       id="path48-14-98-2-76"
       style="display:inline;fill:#ffffff;fill-rule:evenodd"
       d="M 6,10 H 5 V 9 h 1 z" /><path
       id="path48-14-98-2-159"
       style="display:inline;fill:#ffffff;fill-rule:evenodd"
       d="M 6,9 H 5 V 8 h 1 z" /><path
       id="path48-14-98-2-91"
       style="display:inline;fill:#ffffff;fill-rule:evenodd"
       d="M 6,8 H 5 V 7 h 1 z" /><path
       id="path48-14-98-2-870"
       style="display:inline;fill:#ffffff;fill-rule:evenodd"
       d="M 6,7 H 5 V 6 h 1 z" /><path
       id="path48-14-98-2-42"
       style="display:inline;fill:#ffffff;fill-rule:evenodd"
       d="M 7,6 H 6 V 5 h 1 z" /><path
       id="path48-14-98-2-04"
       style="display:inline;fill:#ffffff;fill-rule:evenodd"
       d="M 8,6 H 7 V 5 h 1 z" /><path
       id="path48-14-98-2-055"
       style="display:inline;fill:#ffffff;fill-rule:evenodd"
       d="M 9,6 H 8 V 5 h 1 z" /><path
       id="path48-14-98-2-283"
       style="display:inline;fill:#ffffff;fill-rule:evenodd"
       d="M 10,6 H 9 V 5 h 1 z" /><path
       id="path48-14-98-2-09"
       style="display:inline;fill:#ffffff;fill-rule:evenodd"
       d="M 11,7 H 10 V 6 h 1 z" /><path
       id="path48-14-98-2-25"
       style="display:inline;fill:#ffffff;fill-rule:evenodd"
       d="M 11,8 H 10 V 7 h 1 z" /><path
       id="path48-14-98-2-93"
       style="display:inline;fill:#ffffff;fill-rule:evenodd"
       d="M 11,9 H 10 V 8 h 1 z" /><path
       id="path48-14-98-2-02"
       style="display:inline;fill:#ffffff;fill-rule:evenodd"
       d="M 11,10 H 10 V 9 h 1 z" /><path
       id="path48-14-98-2-51"
       style="display:inline;fill:#ffffff;fill-rule:evenodd"
       d="M 10,11 H 9 v -1 h 1 z" /><path
       id="path48-14-98-2-14"
       style="display:inline;fill:#ffffff;fill-rule:evenodd"
       d="M 9,11 H 8 v -1 h 1 z" /><path
       id="path48-14-98-2-22"
       style="display:inline;fill:#ffffff;fill-rule:evenodd"
       d="M 8,11 H 7 v -1 h 1 z" /><path
       id="path48-14-98-2-288"
       style="display:inline;fill:#ffffff;fill-rule:evenodd"
       d="M 7,11 H 6 v -1 h 1 z" /></g></svg>
