<?xml version="1.0" encoding="UTF-8" standalone="no"?>
<!-- Created with Inkscape (http://www.inkscape.org/) -->

<svg
   width="16"
   height="16"
   viewBox="0 0 16 16"
   version="1.1"
   id="svg1"
   inkscape:version="1.3.2 (091e20ef0f, 2023-11-25)"
   sodipodi:docname="btop.svg"
   xml:space="preserve"
   xmlns:inkscape="http://www.inkscape.org/namespaces/inkscape"
   xmlns:sodipodi="http://sodipodi.sourceforge.net/DTD/sodipodi-0.dtd"
   xmlns="http://www.w3.org/2000/svg"
   xmlns:svg="http://www.w3.org/2000/svg"><sodipodi:namedview
     id="namedview1"
     pagecolor="#30d100"
     bordercolor="#000000"
     borderopacity="0.25"
     inkscape:showpageshadow="2"
     inkscape:pageopacity="0.0"
     inkscape:pagecheckerboard="0"
     inkscape:deskcolor="#d1d1d1"
     inkscape:document-units="px"
     showgrid="true"
     inkscape:zoom="32"
     inkscape:cx="7.140625"
     inkscape:cy="10.25"
     inkscape:window-width="1390"
     inkscape:window-height="1392"
     inkscape:window-x="0"
     inkscape:window-y="0"
     inkscape:window-maximized="0"
     inkscape:current-layer="layer2"><inkscape:grid
       id="grid1"
       units="px"
       originx="0"
       originy="0"
       spacingx="1"
       spacingy="1"
       empcolor="#0099e5"
       empopacity="0.30196078"
       color="#0099e5"
       opacity="0.14901961"
       empspacing="1"
       dotted="false"
       gridanglex="30"
       gridanglez="30"
       visible="true" /></sodipodi:namedview><defs
     id="defs1" /><g
     inkscape:groupmode="layer"
     id="layer2"
     inkscape:label="btop"><path
       id="path48-14-98-2"
       style="display:inline;fill:#ffffff;fill-rule:evenodd"
       d="M 5,2 H 4 V 1 h 1 z" /><path
       id="path48-14-98-2-3"
       style="display:inline;fill:#ffffff;fill-rule:evenodd"
       d="M 5,3 H 4 V 2 h 1 z" /><path
       id="path48-14-98-2-0"
       style="display:inline;fill:#ffffff;fill-rule:evenodd"
       d="M 6,2 H 5 V 1 h 1 z" /><path
       id="path48-14-98-2-8"
       style="display:inline;fill:#ffffff;fill-rule:evenodd"
       d="M 6,3 H 5 V 2 h 1 z" /><path
       id="path48-14-98-2-87"
       style="display:inline;fill:#ffffff;fill-rule:evenodd"
       d="M 7,2 H 6 V 1 h 1 z" /><path
       id="path48-14-98-2-33"
       style="display:inline;fill:#ffffff;fill-rule:evenodd"
       d="M 7,3 H 6 V 2 h 1 z" /><path
       id="path48-14-98-2-6"
       style="display:inline;fill:#ffffff;fill-rule:evenodd"
       d="M 8,2 H 7 V 1 h 1 z" /><path
       id="path48-14-98-2-5"
       style="display:inline;fill:#ffffff;fill-rule:evenodd"
       d="M 8,3 H 7 V 2 h 1 z" /><path
       id="path48-14-98-2-60"
       style="display:inline;fill:#ffffff;fill-rule:evenodd"
       d="M 5,4 H 4 V 3 h 1 z" /><path
       id="path48-14-98-2-4"
       style="display:inline;fill:#ffffff;fill-rule:evenodd"
       d="M 6,4 H 5 V 3 h 1 z" /><path
       id="path48-14-98-2-86"
       style="display:inline;fill:#ffffff;fill-rule:evenodd"
       d="M 6,5 H 5 V 4 h 1 z" /><path
       id="path48-14-98-2-9"
       style="display:inline;fill:#ffffff;fill-rule:evenodd"
       d="M 5,5 H 4 V 4 h 1 z" /><path
       id="path48-14-98-2-83"
       style="display:inline;fill:#ffffff;fill-rule:evenodd"
       d="M 5,6 H 4 V 5 h 1 z" /><path
       id="path48-14-98-2-89"
       style="display:inline;fill:#ffffff;fill-rule:evenodd"
       d="M 6,6 H 5 V 5 h 1 z" /><path
       id="path48-14-98-2-92"
       style="display:inline;fill:#ffffff;fill-rule:evenodd"
       d="M 5,7 H 4 V 6 h 1 z" /><path
       id="path48-14-98-2-99"
       style="display:inline;fill:#ffffff;fill-rule:evenodd"
       d="M 6,7 H 5 V 6 h 1 z" /><path
       id="path48-14-98-2-35"
       style="display:inline;fill:#ffffff;fill-rule:evenodd"
       d="M 5,8 H 4 V 7 h 1 z" /><path
       id="path48-14-98-2-1"
       style="display:inline;fill:#ffffff;fill-rule:evenodd"
       d="M 6,8 H 5 V 7 h 1 z" /><path
       id="path48-14-98-2-82"
       style="display:inline;fill:#ffffff;fill-rule:evenodd"
       d="M 5,9 H 4 V 8 h 1 z" /><path
       id="path48-14-98-2-90"
       style="display:inline;fill:#ffffff;fill-rule:evenodd"
       d="M 6,9 H 5 V 8 h 1 z" /><path
       id="path48-14-98-2-96"
       style="display:inline;fill:#ffffff;fill-rule:evenodd"
       d="M 5,11 H 4 v -1 h 1 z" /><path
       id="path48-14-98-2-07"
       style="display:inline;fill:#ffffff;fill-rule:evenodd"
       d="M 6,10 H 5 V 9 h 1 z" /><path
       id="path48-14-98-2-905"
       style="display:inline;fill:#ffffff;fill-rule:evenodd"
       d="M 5,10 H 4 V 9 h 1 z" /><path
       id="path48-14-98-2-40"
       style="display:inline;fill:#ffffff;fill-rule:evenodd"
       d="M 6,11 H 5 v -1 h 1 z" /><path
       id="path48-14-98-2-48"
       style="display:inline;fill:#ffffff;fill-rule:evenodd"
       d="M 5,12 H 4 v -1 h 1 z" /><path
       id="path48-14-98-2-606"
       style="display:inline;fill:#ffffff;fill-rule:evenodd"
       d="M 6,12 H 5 v -1 h 1 z" /><path
       id="path48-14-98-2-2"
       style="display:inline;fill:#ffffff;fill-rule:evenodd"
       d="M 5,13 H 4 v -1 h 1 z" /><path
       id="path48-14-98-2-070"
       style="display:inline;fill:#ffffff;fill-rule:evenodd"
       d="M 6,13 H 5 v -1 h 1 z" /><path
       id="path48-14-98-2-37"
       style="display:inline;fill:#ffffff;fill-rule:evenodd"
       d="M 5,14 H 4 v -1 h 1 z" /><path
       id="path48-14-98-2-45"
       style="display:inline;fill:#ffffff;fill-rule:evenodd"
       d="M 6,14 H 5 v -1 h 1 z" /><path
       id="path48-14-98-2-909"
       style="display:inline;fill:#ffffff;fill-rule:evenodd"
       d="M 5,15 H 4 v -1 h 1 z" /><path
       id="path48-14-98-2-10"
       style="display:inline;fill:#ffffff;fill-rule:evenodd"
       d="M 6,15 H 5 v -1 h 1 z" /><path
       id="path48-14-98-2-860"
       style="display:inline;fill:#ffffff;fill-rule:evenodd"
       d="M 7,15 H 6 v -1 h 1 z" /><path
       id="path48-14-98-2-609"
       style="display:inline;fill:#ffffff;fill-rule:evenodd"
       d="M 7,14 H 6 v -1 h 1 z" /><path
       id="path48-14-98-2-7"
       style="display:inline;fill:#ffffff;fill-rule:evenodd"
       d="M 8,15 H 7 v -1 h 1 z" /><path
       id="path48-14-98-2-38"
       style="display:inline;fill:#ffffff;fill-rule:evenodd"
       d="M 8,14 H 7 v -1 h 1 z" /><path
       id="path48-14-98-2-378"
       style="display:inline;fill:#ffffff;fill-rule:evenodd"
       d="M 9,15 H 8 v -1 h 1 z" /><path
       id="path48-14-98-2-9098"
       style="display:inline;fill:#ffffff;fill-rule:evenodd"
       d="M 9,14 H 8 v -1 h 1 z" /><path
       id="path48-14-98-2-43"
       style="display:inline;fill:#ffffff;fill-rule:evenodd"
       d="M 10,15 H 9 v -1 h 1 z" /><path
       id="path48-14-98-2-80"
       style="display:inline;fill:#ffffff;fill-rule:evenodd"
       d="M 10,14 H 9 v -1 h 1 z" /><path
       id="path48-14-98-2-71"
       style="display:inline;fill:#ffffff;fill-rule:evenodd"
       d="m 11,13 h -1 v -1 h 1 z" /><path
       id="path48-14-98-2-21"
       style="display:inline;fill:#ffffff;fill-rule:evenodd"
       d="m 11,12 h -1 v -1 h 1 z" /><path
       id="path48-14-98-2-62"
       style="display:inline;fill:#ffffff;fill-rule:evenodd"
       d="m 12,12 h -1 v -1 h 1 z" /><path
       id="path48-14-98-2-480"
       style="display:inline;fill:#ffffff;fill-rule:evenodd"
       d="m 12,11 h -1 v -1 h 1 z" /><path
       id="path48-14-98-2-22"
       style="display:inline;fill:#ffffff;fill-rule:evenodd"
       d="m 11,11 h -1 v -1 h 1 z" /><path
       id="path48-14-98-2-97"
       style="display:inline;fill:#ffffff;fill-rule:evenodd"
       d="M 11,10 H 10 V 9 h 1 z" /><path
       id="path48-14-98-2-70"
       style="display:inline;fill:#ffffff;fill-rule:evenodd"
       d="M 7,9 H 6 V 8 h 1 z" /><path
       id="path48-14-98-2-53"
       style="display:inline;fill:#ffffff;fill-rule:evenodd"
       d="M 7,8 H 6 V 7 h 1 z" /><path
       id="path48-14-98-2-54"
       style="display:inline;fill:#ffffff;fill-rule:evenodd"
       d="M 8,8 H 7 V 7 h 1 z" /><path
       id="path48-14-98-2-49"
       style="display:inline;fill:#ffffff;fill-rule:evenodd"
       d="M 8,9 H 7 V 8 h 1 z" /><path
       id="path48-14-98-2-52"
       style="display:inline;fill:#ffffff;fill-rule:evenodd"
       d="M 9,8 H 8 V 7 h 1 z" /><path
       id="path48-14-98-2-03"
       style="display:inline;fill:#ffffff;fill-rule:evenodd"
       d="M 9,9 H 8 V 8 h 1 z" /><path
       id="path48-14-98-2-63"
       style="display:inline;fill:#ffffff;fill-rule:evenodd"
       d="M 10,8 H 9 V 7 h 1 z" /><path
       id="path48-14-98-2-39"
       style="display:inline;fill:#ffffff;fill-rule:evenodd"
       d="M 10,9 H 9 V 8 h 1 z" /><path
       id="path48-14-98-2-338"
       style="display:inline;fill:#ffffff;fill-rule:evenodd"
       d="M 11,9 H 10 V 8 h 1 z" /><path
       id="path48-14-98-2-876"
       style="display:inline;fill:#ffffff;fill-rule:evenodd"
       d="M 11,8 H 10 V 7 h 1 z" /><path
       id="path48-14-98-2-804"
       style="display:inline;fill:#ffffff;fill-rule:evenodd"
       d="M 9,3 H 8 V 2 h 1 z" /><path
       id="path48-14-98-2-59"
       style="display:inline;fill:#ffffff;fill-rule:evenodd"
       d="M 9,2 H 8 V 1 h 1 z" /><path
       id="path48-14-98-2-50"
       style="display:inline;fill:#ffffff;fill-rule:evenodd"
       d="M 10,2 H 9 V 1 h 1 z" /><path
       id="path48-14-98-2-659"
       style="display:inline;fill:#ffffff;fill-rule:evenodd"
       d="M 10,3 H 9 V 2 h 1 z" /><path
       id="path48-14-98-2-637"
       style="display:inline;fill:#ffffff;fill-rule:evenodd"
       d="M 11,4 H 10 V 3 h 1 z" /><path
       id="path48-14-98-2-06"
       style="display:inline;fill:#ffffff;fill-rule:evenodd"
       d="M 11,5 H 10 V 4 h 1 z" /><path
       id="path48-14-98-2-12"
       style="display:inline;fill:#ffffff;fill-rule:evenodd"
       d="M 12,4 H 11 V 3 h 1 z" /><path
       id="path48-14-98-2-104"
       style="display:inline;fill:#ffffff;fill-rule:evenodd"
       d="M 12,5 H 11 V 4 h 1 z" /><path
       id="path48-14-98-2-032"
       style="display:inline;fill:#ffffff;fill-rule:evenodd"
       d="M 11,3 H 10 V 2 h 1 z" /><path
       id="path48-14-98-2-700"
       style="display:inline;fill:#ffffff;fill-rule:evenodd"
       d="M 11,6 H 10 V 5 h 1 z" /><path
       id="path48-14-98-2-27"
       style="display:inline;fill:#ffffff;fill-rule:evenodd"
       d="M 12,6 H 11 V 5 h 1 z" /><path
       id="path48-14-98-2-24"
       style="display:inline;fill:#ffffff;fill-rule:evenodd"
       d="M 11,7 H 10 V 6 h 1 z" /><path
       id="path48-14-98-2-608"
       style="display:inline;fill:#ffffff;fill-rule:evenodd"
       d="m 12,13 h -1 v -1 h 1 z" /><path
       id="path48-14-98-2-31"
       style="display:inline;fill:#ffffff;fill-rule:evenodd"
       d="m 11,14 h -1 v -1 h 1 z" /></g></svg>
