<?xml version="1.0" encoding="UTF-8" standalone="no"?>
<!-- Created with Inkscape (http://www.inkscape.org/) -->

<svg
   width="16"
   height="16"
   viewBox="0 0 16 16"
   version="1.1"
   id="svg1"
   inkscape:version="1.3.2 (091e20ef0f, 2023-11-25)"
   sodipodi:docname="androidstudio.svg"
   xml:space="preserve"
   xmlns:inkscape="http://www.inkscape.org/namespaces/inkscape"
   xmlns:sodipodi="http://sodipodi.sourceforge.net/DTD/sodipodi-0.dtd"
   xmlns="http://www.w3.org/2000/svg"
   xmlns:svg="http://www.w3.org/2000/svg"><sodipodi:namedview
     id="namedview1"
     pagecolor="#30d100"
     bordercolor="#000000"
     borderopacity="0.25"
     inkscape:showpageshadow="2"
     inkscape:pageopacity="0.0"
     inkscape:pagecheckerboard="0"
     inkscape:deskcolor="#d1d1d1"
     inkscape:document-units="px"
     showgrid="true"
     inkscape:zoom="32"
     inkscape:cx="7.140625"
     inkscape:cy="10.25"
     inkscape:window-width="1390"
     inkscape:window-height="1392"
     inkscape:window-x="0"
     inkscape:window-y="0"
     inkscape:window-maximized="0"
     inkscape:current-layer="layer1"><inkscape:grid
       id="grid1"
       units="px"
       originx="0"
       originy="0"
       spacingx="1"
       spacingy="1"
       empcolor="#0099e5"
       empopacity="0.30196078"
       color="#0099e5"
       opacity="0.14901961"
       empspacing="1"
       dotted="false"
       gridanglex="30"
       gridanglez="30"
       visible="true" /></sodipodi:namedview><defs
     id="defs1" /><g
     inkscape:groupmode="layer"
     id="layer1"
     inkscape:label="android studio"><path
       id="path48-14-98"
       style="display:inline;fill:#ffffff;fill-rule:evenodd"
       d="M 8,3 H 7 V 2 h 1 z" /><path
       id="path48-14-98-6"
       style="display:inline;fill:#ffffff;fill-rule:evenodd"
       d="M 9,3 H 8 V 2 h 1 z" /><path
       id="path48-14-98-8"
       style="display:inline;fill:#ffffff;fill-rule:evenodd"
       d="M 10,3 H 9 V 2 h 1 z" /><path
       id="path48-14-98-3"
       style="display:inline;fill:#ffffff;fill-rule:evenodd"
       d="M 7,3 H 6 V 2 h 1 z" /><path
       id="path48-14-98-85"
       style="display:inline;fill:#ffffff;fill-rule:evenodd"
       d="M 6,2 H 5 V 1 h 1 z" /><path
       id="path48-14-98-38"
       style="display:inline;fill:#ffffff;fill-rule:evenodd"
       d="M 11,2 H 10 V 1 h 1 z" /><path
       id="path48-14-98-1"
       style="display:inline;fill:#ffffff;fill-rule:evenodd"
       d="M 11,4 H 10 V 3 h 1 z" /><path
       id="path48-14-98-4"
       style="display:inline;fill:#ffffff;fill-rule:evenodd"
       d="M 6,4 H 5 V 3 h 1 z" /><path
       id="path48-14-98-30"
       style="display:inline;fill:#ffffff;fill-rule:evenodd"
       d="M 5,5 H 4 V 4 h 1 z" /><path
       id="path48-14-98-47"
       style="display:inline;fill:#ffffff;fill-rule:evenodd"
       d="M 5,6 H 4 V 5 h 1 z" /><path
       id="path48-14-98-7"
       style="display:inline;fill:#ffffff;fill-rule:evenodd"
       d="M 12,5 H 11 V 4 h 1 z" /><path
       id="path48-14-98-2"
       style="display:inline;fill:#ffffff;fill-rule:evenodd"
       d="M 12,6 H 11 V 5 h 1 z" /><path
       id="path48-14-98-5"
       style="display:inline;fill:#ffffff;fill-rule:evenodd"
       d="M 11,6 H 10 V 5 h 1 z" /><path
       id="path48-14-98-859"
       style="display:inline;fill:#ffffff;fill-rule:evenodd"
       d="M 9,6 H 8 V 5 h 1 z" /><path
       id="path48-14-98-88"
       style="display:inline;fill:#ffffff;fill-rule:evenodd"
       d="M 7,6 H 6 V 5 h 1 z" /><path
       id="path48-14-98-9"
       style="display:inline;fill:#ffffff;fill-rule:evenodd"
       d="M 6,6 H 5 V 5 h 1 z" /><path
       id="path48-14-98-33"
       style="display:inline;fill:#ffffff;fill-rule:evenodd"
       d="M 6,5 H 5 V 4 h 1 z" /><path
       id="path48-14-98-48"
       style="display:inline;fill:#ffffff;fill-rule:evenodd"
       d="M 7,4 H 6 V 3 h 1 z" /><path
       id="path48-14-98-0"
       style="display:inline;fill:#ffffff;fill-rule:evenodd"
       d="M 8,4 H 7 V 3 h 1 z" /><path
       id="path48-14-98-25"
       style="display:inline;fill:#ffffff;fill-rule:evenodd"
       d="M 8,5 H 7 V 4 h 1 z" /><path
       id="path48-14-98-94"
       style="display:inline;fill:#ffffff;fill-rule:evenodd"
       d="M 8,6 H 7 V 5 h 1 z" /><path
       id="path48-14-98-24"
       style="display:inline;fill:#ffffff;fill-rule:evenodd"
       d="M 9,5 H 8 V 4 h 1 z" /><path
       id="path48-14-98-481"
       style="display:inline;fill:#ffffff;fill-rule:evenodd"
       d="M 9,4 H 8 V 3 h 1 z" /><path
       id="path48-14-98-36"
       style="display:inline;fill:#ffffff;fill-rule:evenodd"
       d="M 10,4 H 9 V 3 h 1 z" /><path
       id="path48-14-98-08"
       style="display:inline;fill:#ffffff;fill-rule:evenodd"
       d="M 10,6 H 9 V 5 h 1 z" /><path
       id="path48-14-98-46"
       style="display:inline;fill:#ffffff;fill-rule:evenodd"
       d="M 11,5 H 10 V 4 h 1 z" /><path
       id="path48-14-98-62"
       style="display:inline;fill:#ffffff;fill-rule:evenodd"
       d="M 5,8 H 4 V 7 h 1 z" /><path
       id="path48-14-98-240"
       style="display:inline;fill:#ffffff;fill-rule:evenodd"
       d="M 5,9 H 4 V 8 h 1 z" /><path
       id="path48-14-98-90"
       style="display:inline;fill:#ffffff;fill-rule:evenodd"
       d="M 5,10 H 4 V 9 h 1 z" /><path
       id="path48-14-98-00"
       style="display:inline;fill:#ffffff;fill-rule:evenodd"
       d="M 5,12 H 4 v -1 h 1 z" /><path
       id="path48-14-98-67"
       style="display:inline;fill:#ffffff;fill-rule:evenodd"
       d="M 5,11 H 4 v -1 h 1 z" /><path
       id="path48-14-98-87"
       style="display:inline;fill:#ffffff;fill-rule:evenodd"
       d="M 12,8 H 11 V 7 h 1 z" /><path
       id="path48-14-98-99"
       style="display:inline;fill:#ffffff;fill-rule:evenodd"
       d="M 12,9 H 11 V 8 h 1 z" /><path
       id="path48-14-98-76"
       style="display:inline;fill:#ffffff;fill-rule:evenodd"
       d="M 12,10 H 11 V 9 h 1 z" /><path
       id="path48-14-98-15"
       style="display:inline;fill:#ffffff;fill-rule:evenodd"
       d="m 12,11 h -1 v -1 h 1 z" /><path
       id="path48-14-98-49"
       style="display:inline;fill:#ffffff;fill-rule:evenodd"
       d="m 12,12 h -1 v -1 h 1 z" /><path
       id="path48-14-98-29"
       style="display:inline;fill:#ffffff;fill-rule:evenodd"
       d="m 11,12 h -1 v -1 h 1 z" /><path
       id="path48-14-98-380"
       style="display:inline;fill:#ffffff;fill-rule:evenodd"
       d="M 11,8 H 10 V 7 h 1 z" /><path
       id="path48-14-98-19"
       style="display:inline;fill:#ffffff;fill-rule:evenodd"
       d="M 10,8 H 9 V 7 h 1 z" /><path
       id="path48-14-98-44"
       style="display:inline;fill:#ffffff;fill-rule:evenodd"
       d="M 9,8 H 8 V 7 h 1 z" /><path
       id="path48-14-98-60"
       style="display:inline;fill:#ffffff;fill-rule:evenodd"
       d="M 8,8 H 7 V 7 h 1 z" /><path
       id="path48-14-98-943"
       style="display:inline;fill:#ffffff;fill-rule:evenodd"
       d="M 7,8 H 6 V 7 h 1 z" /><path
       id="path48-14-98-43"
       style="display:inline;fill:#ffffff;fill-rule:evenodd"
       d="M 6,8 H 5 V 7 h 1 z" /><path
       id="path48-14-98-942"
       style="display:inline;fill:#ffffff;fill-rule:evenodd"
       d="M 6,9 H 5 V 8 h 1 z" /><path
       id="path48-14-98-12"
       style="display:inline;fill:#ffffff;fill-rule:evenodd"
       d="M 7,9 H 6 V 8 h 1 z" /><path
       id="path48-14-98-28"
       style="display:inline;fill:#ffffff;fill-rule:evenodd"
       d="M 8,9 H 7 V 8 h 1 z" /><path
       id="path48-14-98-83"
       style="display:inline;fill:#ffffff;fill-rule:evenodd"
       d="M 9,9 H 8 V 8 h 1 z" /><path
       id="path48-14-98-3804"
       style="display:inline;fill:#ffffff;fill-rule:evenodd"
       d="M 10,9 H 9 V 8 h 1 z" /><path
       id="path48-14-98-906"
       style="display:inline;fill:#ffffff;fill-rule:evenodd"
       d="M 11,9 H 10 V 8 h 1 z" /><path
       id="path48-14-98-033"
       style="display:inline;fill:#ffffff;fill-rule:evenodd"
       d="M 11,10 H 10 V 9 h 1 z" /><path
       id="path48-14-98-26"
       style="display:inline;fill:#ffffff;fill-rule:evenodd"
       d="m 11,11 h -1 v -1 h 1 z" /><path
       id="path48-14-98-587"
       style="display:inline;fill:#ffffff;fill-rule:evenodd"
       d="M 10,10 H 9 V 9 h 1 z" /><path
       id="path48-14-98-41"
       style="display:inline;fill:#ffffff;fill-rule:evenodd"
       d="M 9,10 H 8 V 9 h 1 z" /><path
       id="path48-14-98-70"
       style="display:inline;fill:#ffffff;fill-rule:evenodd"
       d="M 8,10 H 7 V 9 h 1 z" /><path
       id="path48-14-98-479"
       style="display:inline;fill:#ffffff;fill-rule:evenodd"
       d="M 7,10 H 6 V 9 h 1 z" /><path
       id="path48-14-98-830"
       style="display:inline;fill:#ffffff;fill-rule:evenodd"
       d="M 6,10 H 5 V 9 h 1 z" /><path
       id="path48-14-98-91"
       style="display:inline;fill:#ffffff;fill-rule:evenodd"
       d="M 6,11 H 5 v -1 h 1 z" /><path
       id="path48-14-98-257"
       style="display:inline;fill:#ffffff;fill-rule:evenodd"
       d="M 6,12 H 5 v -1 h 1 z" /><path
       id="path48-14-98-45"
       style="display:inline;fill:#ffffff;fill-rule:evenodd"
       d="M 7,11 H 6 v -1 h 1 z" /><path
       id="path48-14-98-708"
       style="display:inline;fill:#ffffff;fill-rule:evenodd"
       d="M 7,12 H 6 v -1 h 1 z" /><path
       id="path48-14-98-78"
       style="display:inline;fill:#ffffff;fill-rule:evenodd"
       d="M 8,11 H 7 v -1 h 1 z" /><path
       id="path48-14-98-490"
       style="display:inline;fill:#ffffff;fill-rule:evenodd"
       d="M 8,12 H 7 v -1 h 1 z" /><path
       id="path48-14-98-96"
       style="display:inline;fill:#ffffff;fill-rule:evenodd"
       d="M 9,11 H 8 v -1 h 1 z" /><path
       id="path48-14-98-07"
       style="display:inline;fill:#ffffff;fill-rule:evenodd"
       d="M 9,12 H 8 v -1 h 1 z" /><path
       id="path48-14-98-905"
       style="display:inline;fill:#ffffff;fill-rule:evenodd"
       d="M 10,11 H 9 v -1 h 1 z" /><path
       id="path48-14-98-40"
       style="display:inline;fill:#ffffff;fill-rule:evenodd"
       d="M 10,12 H 9 v -1 h 1 z" /><path
       id="path48-14-98-485"
       style="display:inline;fill:#ffffff;fill-rule:evenodd"
       d="m 11,15 h -1 v -1 h 1 z" /><path
       id="path48-14-98-06"
       style="display:inline;fill:#ffffff;fill-rule:evenodd"
       d="m 12,16 h -1 v -1 h 1 z" /><path
       id="path48-14-98-289"
       style="display:inline;fill:#ffffff;fill-rule:evenodd"
       d="m 12,15 h -1 v -1 h 1 z" /><path
       id="path48-14-98-01"
       style="display:inline;fill:#ffffff;fill-rule:evenodd"
       d="m 11,16 h -1 v -1 h 1 z" /><path
       id="path48-14-98-772"
       style="display:inline;fill:#ffffff;fill-rule:evenodd"
       d="M 5,15 H 4 v -1 h 1 z" /><path
       id="path48-14-98-20"
       style="display:inline;fill:#ffffff;fill-rule:evenodd"
       d="M 5,16 H 4 v -1 h 1 z" /><path
       id="path48-14-98-994"
       style="display:inline;fill:#ffffff;fill-rule:evenodd"
       d="M 6,15 H 5 v -1 h 1 z" /><path
       id="path48-14-98-37"
       style="display:inline;fill:#ffffff;fill-rule:evenodd"
       d="M 6,16 H 5 v -1 h 1 z" /><path
       id="path48-14-98-04"
       style="display:inline;fill:#ffffff;fill-rule:evenodd"
       d="M 5,14 H 4 v -1 h 1 z" /><path
       id="path48-14-98-09"
       style="display:inline;fill:#ffffff;fill-rule:evenodd"
       d="M 6,14 H 5 v -1 h 1 z" /><path
       id="path48-14-98-785"
       style="display:inline;fill:#ffffff;fill-rule:evenodd"
       d="m 11,14 h -1 v -1 h 1 z" /><path
       id="path48-14-98-379"
       style="display:inline;fill:#ffffff;fill-rule:evenodd"
       d="m 12,14 h -1 v -1 h 1 z" /><path
       id="path48-14-98-74"
       style="display:inline;fill:#ffffff;fill-rule:evenodd"
       d="M 3,9 H 2 V 8 h 1 z" /><path
       id="path48-14-98-98"
       style="display:inline;fill:#ffffff;fill-rule:evenodd"
       d="M 3,8 H 2 V 7 h 1 z" /><path
       id="path48-14-98-437"
       style="display:inline;fill:#ffffff;fill-rule:evenodd"
       d="M 3,10 H 2 V 9 h 1 z" /><path
       id="path48-14-98-097"
       style="display:inline;fill:#ffffff;fill-rule:evenodd"
       d="M 3,11 H 2 v -1 h 1 z" /><path
       id="path48-14-98-243"
       style="display:inline;fill:#ffffff;fill-rule:evenodd"
       d="M 3,12 H 2 v -1 h 1 z" /><path
       id="path48-14-98-202"
       style="display:inline;fill:#ffffff;fill-rule:evenodd"
       d="M 2,12 H 1 v -1 h 1 z" /><path
       id="path48-14-98-17"
       style="display:inline;fill:#ffffff;fill-rule:evenodd"
       d="M 2,11 H 1 v -1 h 1 z" /><path
       id="path48-14-98-11"
       style="display:inline;fill:#ffffff;fill-rule:evenodd"
       d="M 2,10 H 1 V 9 h 1 z" /><path
       id="path48-14-98-408"
       style="display:inline;fill:#ffffff;fill-rule:evenodd"
       d="M 2,9 H 1 V 8 h 1 z" /><path
       id="path48-14-98-621"
       style="display:inline;fill:#ffffff;fill-rule:evenodd"
       d="M 2,8 H 1 V 7 h 1 z" /><path
       id="path48-14-98-80"
       style="display:inline;fill:#ffffff;fill-rule:evenodd"
       d="M 14,8 H 13 V 7 h 1 z" /><path
       id="path48-14-98-22"
       style="display:inline;fill:#ffffff;fill-rule:evenodd"
       d="M 15,8 H 14 V 7 h 1 z" /><path
       id="path48-14-98-64"
       style="display:inline;fill:#ffffff;fill-rule:evenodd"
       d="M 15,9 H 14 V 8 h 1 z" /><path
       id="path48-14-98-97"
       style="display:inline;fill:#ffffff;fill-rule:evenodd"
       d="M 14,9 H 13 V 8 h 1 z" /><path
       id="path48-14-98-706"
       style="display:inline;fill:#ffffff;fill-rule:evenodd"
       d="M 14,10 H 13 V 9 h 1 z" /><path
       id="path48-14-98-39"
       style="display:inline;fill:#ffffff;fill-rule:evenodd"
       d="M 15,10 H 14 V 9 h 1 z" /><path
       id="path48-14-98-415"
       style="display:inline;fill:#ffffff;fill-rule:evenodd"
       d="m 15,11 h -1 v -1 h 1 z" /><path
       id="path48-14-98-838"
       style="display:inline;fill:#ffffff;fill-rule:evenodd"
       d="m 14,11 h -1 v -1 h 1 z" /><path
       id="path48-14-98-27"
       style="display:inline;fill:#ffffff;fill-rule:evenodd"
       d="m 14,12 h -1 v -1 h 1 z" /><path
       id="path48-14-98-63"
       style="display:inline;fill:#ffffff;fill-rule:evenodd"
       d="m 15,12 h -1 v -1 h 1 z" /></g></svg>
