<?xml version="1.0" encoding="UTF-8" standalone="no"?>
<!-- Created with Inkscape (http://www.inkscape.org/) -->

<svg
   width="16"
   height="16"
   viewBox="0 0 16 16"
   version="1.1"
   id="svg1"
   inkscape:version="1.3.2 (091e20ef0f, 2023-11-25)"
   sodipodi:docname="dnfdragora.svg"
   xml:space="preserve"
   xmlns:inkscape="http://www.inkscape.org/namespaces/inkscape"
   xmlns:sodipodi="http://sodipodi.sourceforge.net/DTD/sodipodi-0.dtd"
   xmlns="http://www.w3.org/2000/svg"
   xmlns:svg="http://www.w3.org/2000/svg"><sodipodi:namedview
     id="namedview1"
     pagecolor="#0adc11"
     bordercolor="#000000"
     borderopacity="0.25"
     inkscape:showpageshadow="2"
     inkscape:pageopacity="0.0"
     inkscape:pagecheckerboard="0"
     inkscape:deskcolor="#d1d1d1"
     inkscape:document-units="px"
     showgrid="true"
     inkscape:zoom="32"
     inkscape:cx="7.140625"
     inkscape:cy="10.25"
     inkscape:window-width="1390"
     inkscape:window-height="1392"
     inkscape:window-x="0"
     inkscape:window-y="0"
     inkscape:window-maximized="0"
     inkscape:current-layer="layer2"><inkscape:grid
       id="grid1"
       units="px"
       originx="0"
       originy="0"
       spacingx="1"
       spacingy="1"
       empcolor="#0099e5"
       empopacity="0.30196078"
       color="#0099e5"
       opacity="0.14901961"
       empspacing="1"
       dotted="false"
       gridanglex="30"
       gridanglez="30"
       visible="true" /></sodipodi:namedview><defs
     id="defs1" /><g
     inkscape:label="Visibility"
     inkscape:groupmode="layer"
     id="layer1"
     style="display:none"><rect
       style="display:inline;fill:#00ffff;fill-rule:evenodd;stroke:none"
       id="rect3"
       width="16"
       height="16"
       x="0"
       y="0" /></g><g
     inkscape:groupmode="layer"
     id="layer2"
     inkscape:label="dnfdragora"><path
       id="path48-14-3"
       style="display:inline;fill:#ffffff;fill-rule:evenodd"
       d="M 3,3 H 2 V 2 h 1 z" /><path
       id="path48-14-3-0"
       style="display:inline;fill:#ffffff;fill-rule:evenodd"
       d="M 3,4 H 2 V 3 h 1 z" /><path
       id="path48-14-3-06"
       style="display:inline;fill:#ffffff;fill-rule:evenodd"
       d="M 3,5 H 2 V 4 h 1 z" /><path
       id="path48-14-3-8"
       style="display:inline;fill:#ffffff;fill-rule:evenodd"
       d="M 4,3 H 3 V 2 h 1 z" /><path
       id="path48-14-3-02"
       style="display:inline;fill:#ffffff;fill-rule:evenodd"
       d="M 5,3 H 4 V 2 h 1 z" /><path
       id="path48-14-3-9"
       style="display:inline;fill:#ffffff;fill-rule:evenodd"
       d="M 6,3 H 5 V 2 h 1 z" /><path
       id="path48-14-3-97"
       style="display:inline;fill:#ffffff;fill-rule:evenodd"
       d="M 7,3 H 6 V 2 h 1 z" /><path
       id="path48-14-3-2"
       style="display:inline;fill:#ffffff;fill-rule:evenodd"
       d="M 8,3 H 7 V 2 h 1 z" /><path
       id="path48-14-3-94"
       style="display:inline;fill:#ffffff;fill-rule:evenodd"
       d="M 9,3 H 8 V 2 h 1 z" /><path
       id="path48-14-3-5"
       style="display:inline;fill:#ffffff;fill-rule:evenodd"
       d="M 10,3 H 9 V 2 h 1 z" /><path
       id="path48-14-3-1"
       style="display:inline;fill:#ffffff;fill-rule:evenodd"
       d="M 12,3 H 11 V 2 h 1 z" /><path
       id="path48-14-3-20"
       style="display:inline;fill:#ffffff;fill-rule:evenodd"
       d="M 11,3 H 10 V 2 h 1 z" /><path
       id="path48-14-3-54"
       style="display:inline;fill:#ffffff;fill-rule:evenodd"
       d="M 13,3 H 12 V 2 h 1 z" /><path
       id="path48-14-3-6"
       style="display:inline;fill:#ffffff;fill-rule:evenodd"
       d="M 14,3 H 13 V 2 h 1 z" /><path
       id="path48-14-3-4"
       style="display:inline;fill:#ffffff;fill-rule:evenodd"
       d="M 14,4 H 13 V 3 h 1 z" /><path
       id="path48-14-3-47"
       style="display:inline;fill:#ffffff;fill-rule:evenodd"
       d="M 14,5 H 13 V 4 h 1 z" /><path
       id="path48-14-3-07"
       style="display:inline;fill:#ffffff;fill-rule:evenodd"
       d="M 14,6 H 13 V 5 h 1 z" /><path
       id="path48-14-3-84"
       style="display:inline;fill:#ffffff;fill-rule:evenodd"
       d="m 14,14 h -1 v -1 h 1 z" /><path
       id="path48-14-3-92"
       style="display:inline;fill:#ffffff;fill-rule:evenodd"
       d="M 3,14 H 2 v -1 h 1 z" /><path
       id="path48-14-3-926"
       style="display:inline;fill:#ffffff;fill-rule:evenodd"
       d="M 3,13 H 2 v -1 h 1 z" /><path
       id="path48-14-3-50"
       style="display:inline;fill:#ffffff;fill-rule:evenodd"
       d="M 3,12 H 2 v -1 h 1 z" /><path
       id="path48-14-3-17"
       style="display:inline;fill:#ffffff;fill-rule:evenodd"
       d="M 3,11 H 2 v -1 h 1 z" /><path
       id="path48-14-3-26"
       style="display:inline;fill:#ffffff;fill-rule:evenodd"
       d="M 3,10 H 2 V 9 h 1 z" /><path
       id="path48-14-3-15"
       style="display:inline;fill:#ffffff;fill-rule:evenodd"
       d="M 3,9 H 2 V 8 h 1 z" /><path
       id="path48-14-3-09"
       style="display:inline;fill:#ffffff;fill-rule:evenodd"
       d="M 3,8 H 2 V 7 h 1 z" /><path
       id="path48-14-3-11"
       style="display:inline;fill:#ffffff;fill-rule:evenodd"
       d="M 3,7 H 2 V 6 h 1 z" /><path
       id="path48-14-3-7"
       style="display:inline;fill:#ffffff;fill-rule:evenodd"
       d="M 3,6 H 2 V 5 h 1 z" /><path
       id="path48-14-3-65"
       style="display:inline;fill:#ffffff;fill-rule:evenodd"
       d="M 4,14 H 3 v -1 h 1 z" /><path
       id="path48-14-3-48"
       style="display:inline;fill:#ffffff;fill-rule:evenodd"
       d="M 5,14 H 4 v -1 h 1 z" /><path
       id="path48-14-3-3"
       style="display:inline;fill:#ffffff;fill-rule:evenodd"
       d="M 6,14 H 5 v -1 h 1 z" /><path
       id="path48-14-3-85"
       style="display:inline;fill:#ffffff;fill-rule:evenodd"
       d="M 7,14 H 6 v -1 h 1 z" /><path
       id="path48-14-3-38"
       style="display:inline;fill:#ffffff;fill-rule:evenodd"
       d="M 8,14 H 7 v -1 h 1 z" /><path
       id="path48-14-3-159"
       style="display:inline;fill:#ffffff;fill-rule:evenodd"
       d="M 9,14 H 8 v -1 h 1 z" /><path
       id="path48-14-3-10"
       style="display:inline;fill:#ffffff;fill-rule:evenodd"
       d="M 10,14 H 9 v -1 h 1 z" /><path
       id="path48-14-3-44"
       style="display:inline;fill:#ffffff;fill-rule:evenodd"
       d="m 11,14 h -1 v -1 h 1 z" /><path
       id="path48-14-3-31"
       style="display:inline;fill:#ffffff;fill-rule:evenodd"
       d="m 12,14 h -1 v -1 h 1 z" /><path
       id="path48-14-3-62"
       style="display:inline;fill:#ffffff;fill-rule:evenodd"
       d="m 13,14 h -1 v -1 h 1 z" /><path
       id="path48-14-3-57"
       style="display:inline;fill:#ffffff;fill-rule:evenodd"
       d="m 14,13 h -1 v -1 h 1 z" /><path
       id="path48-14-3-59"
       style="display:inline;fill:#ffffff;fill-rule:evenodd"
       d="m 14,12 h -1 v -1 h 1 z" /><path
       id="path48-14-3-88"
       style="display:inline;fill:#ffffff;fill-rule:evenodd"
       d="m 14,11 h -1 v -1 h 1 z" /><path
       id="path48-14-3-96"
       style="display:inline;fill:#ffffff;fill-rule:evenodd"
       d="M 14,10 H 13 V 9 h 1 z" /><path
       id="path48-14-3-386"
       style="display:inline;fill:#ffffff;fill-rule:evenodd"
       d="M 14,9 H 13 V 8 h 1 z" /><path
       id="path48-14-3-889"
       style="display:inline;fill:#ffffff;fill-rule:evenodd"
       d="M 14,8 H 13 V 7 h 1 z" /><path
       id="path48-14-3-43"
       style="display:inline;fill:#ffffff;fill-rule:evenodd"
       d="M 14,7 H 13 V 6 h 1 z" /><path
       id="path48-14-3-925"
       style="display:inline;fill:#ffffff;fill-rule:evenodd"
       d="M 6,5 H 5 V 4 h 1 z" /><path
       id="path48-14-3-946"
       style="display:inline;fill:#ffffff;fill-rule:evenodd"
       d="M 6,6 H 5 V 5 h 1 z" /><path
       id="path48-14-3-477"
       style="display:inline;fill:#ffffff;fill-rule:evenodd"
       d="M 6,7 H 5 V 6 h 1 z" /><path
       id="path48-14-3-12"
       style="display:inline;fill:#ffffff;fill-rule:evenodd"
       d="M 6,8 H 5 V 7 h 1 z" /><path
       id="path48-14-3-68"
       style="display:inline;fill:#ffffff;fill-rule:evenodd"
       d="M 5,6 H 4 V 5 h 1 z" /><path
       id="path48-14-3-05"
       style="display:inline;fill:#ffffff;fill-rule:evenodd"
       d="M 7,6 H 6 V 5 h 1 z" /><path
       id="path48-14-3-850"
       style="display:inline;fill:#ffffff;fill-rule:evenodd"
       d="M 8,7 H 7 V 6 h 1 z" /><path
       id="path48-14-3-25"
       style="display:inline;fill:#ffffff;fill-rule:evenodd"
       d="M 4,7 H 3 V 6 h 1 z" /><path
       id="path48-14-3-847"
       style="display:inline;fill:#ffffff;fill-rule:evenodd"
       d="M 6,9 H 5 V 8 h 1 z" /><path
       id="path48-14-3-629"
       style="display:inline;fill:#ffffff;fill-rule:evenodd"
       d="M 6,10 H 5 V 9 h 1 z" /><path
       id="path48-14-3-13"
       style="display:inline;fill:#ffffff;fill-rule:evenodd"
       d="m 11,12 h -1 v -1 h 1 z" /><path
       id="path48-14-3-34"
       style="display:inline;fill:#ffffff;fill-rule:evenodd"
       d="m 11,11 h -1 v -1 h 1 z" /><path
       id="path48-14-3-19"
       style="display:inline;fill:#ffffff;fill-rule:evenodd"
       d="M 11,10 H 10 V 9 h 1 z" /><path
       id="path48-14-3-380"
       style="display:inline;fill:#ffffff;fill-rule:evenodd"
       d="M 11,9 H 10 V 8 h 1 z" /><path
       id="path48-14-3-40"
       style="display:inline;fill:#ffffff;fill-rule:evenodd"
       d="M 11,8 H 10 V 7 h 1 z" /><path
       id="path48-14-3-267"
       style="display:inline;fill:#ffffff;fill-rule:evenodd"
       d="M 11,7 H 10 V 6 h 1 z" /><path
       id="path48-14-3-87"
       style="display:inline;fill:#ffffff;fill-rule:evenodd"
       d="M 10,11 H 9 v -1 h 1 z" /><path
       id="path48-14-3-99"
       style="display:inline;fill:#ffffff;fill-rule:evenodd"
       d="m 12,11 h -1 v -1 h 1 z" /><path
       id="path48-14-3-76"
       style="display:inline;fill:#ffffff;fill-rule:evenodd"
       d="M 13,10 H 12 V 9 h 1 z" /><path
       id="path48-14-3-1599"
       style="display:inline;fill:#ffffff;fill-rule:evenodd"
       d="M 9,10 H 8 V 9 h 1 z" /></g></svg>
