<?xml version="1.0" encoding="UTF-8" standalone="no"?>
<!-- Created with Inkscape (http://www.inkscape.org/) -->

<svg
   width="16"
   height="16"
   viewBox="0 0 16 16"
   version="1.1"
   id="svg1"
   inkscape:version="1.3.2 (091e20ef0f, 2023-11-25)"
   sodipodi:docname="firefox.svg"
   xml:space="preserve"
   xmlns:inkscape="http://www.inkscape.org/namespaces/inkscape"
   xmlns:sodipodi="http://sodipodi.sourceforge.net/DTD/sodipodi-0.dtd"
   xmlns="http://www.w3.org/2000/svg"
   xmlns:svg="http://www.w3.org/2000/svg"><sodipodi:namedview
     id="namedview1"
     pagecolor="#ffffff"
     bordercolor="#000000"
     borderopacity="0.25"
     inkscape:showpageshadow="2"
     inkscape:pageopacity="0.0"
     inkscape:pagecheckerboard="0"
     inkscape:deskcolor="#d1d1d1"
     inkscape:document-units="px"
     showgrid="true"
     inkscape:zoom="32"
     inkscape:cx="8.21875"
     inkscape:cy="10.25"
     inkscape:window-width="1390"
     inkscape:window-height="1392"
     inkscape:window-x="0"
     inkscape:window-y="0"
     inkscape:window-maximized="0"
     inkscape:current-layer="layer11"><inkscape:grid
       id="grid1"
       units="px"
       originx="0"
       originy="0"
       spacingx="1"
       spacingy="1"
       empcolor="#0099e5"
       empopacity="0.30196078"
       color="#0099e5"
       opacity="0.14901961"
       empspacing="1"
       dotted="false"
       gridanglex="30"
       gridanglez="30"
       visible="true" /></sodipodi:namedview><defs
     id="defs1" /><g
     inkscape:label="Visibility"
     inkscape:groupmode="layer"
     id="layer1"
     style="display:none"><rect
       style="display:inline;fill:#00ffff;fill-rule:evenodd;stroke:none"
       id="rect3"
       width="16"
       height="16"
       x="0"
       y="0" /></g><g
     inkscape:groupmode="layer"
     id="layer11"
     inkscape:label="firefox"><path
       id="path48"
       style="display:inline;fill:#ffffff;fill-rule:evenodd"
       d="M 8,4 H 7 V 3 h 1 z" /><path
       id="path48-8"
       style="display:inline;fill:#ffffff;fill-rule:evenodd"
       d="M 9,4 H 8 V 3 h 1 z" /><path
       id="path48-9"
       style="display:inline;fill:#ffffff;fill-rule:evenodd"
       d="M 10,4 H 9 V 3 h 1 z" /><path
       id="path48-1"
       style="display:inline;fill:#ffffff;fill-rule:evenodd"
       d="M 7,4 H 6 V 3 h 1 z" /><path
       id="path48-4"
       style="display:inline;fill:#ffffff;fill-rule:evenodd"
       d="M 6,5 H 5 V 4 h 1 z" /><path
       id="path48-51"
       style="display:inline;fill:#ffffff;fill-rule:evenodd"
       d="M 5,11 H 4 v -1 h 1 z" /><path
       id="path48-0"
       style="display:inline;fill:#ffffff;fill-rule:evenodd"
       d="M 6,12 H 5 v -1 h 1 z" /><path
       id="path48-56"
       style="display:inline;fill:#ffffff;fill-rule:evenodd"
       d="M 7,13 H 6 v -1 h 1 z" /><path
       id="path48-57"
       style="display:inline;fill:#ffffff;fill-rule:evenodd"
       d="M 8,13 H 7 v -1 h 1 z" /><path
       id="path48-32"
       style="display:inline;fill:#ffffff;fill-rule:evenodd"
       d="M 9,13 H 8 v -1 h 1 z" /><path
       id="path48-13"
       style="display:inline;fill:#ffffff;fill-rule:evenodd"
       d="M 10,13 H 9 v -1 h 1 z" /><path
       id="path48-90"
       style="display:inline;fill:#ffffff;fill-rule:evenodd"
       d="m 11,12 h -1 v -1 h 1 z" /><path
       id="path48-42"
       style="display:inline;fill:#ffffff;fill-rule:evenodd"
       d="m 12,11 h -1 v -1 h 1 z" /><path
       id="path48-579"
       style="display:inline;fill:#ffffff;fill-rule:evenodd"
       d="M 5,8 H 4 V 7 h 1 z" /><path
       id="path48-50"
       style="display:inline;fill:#ffffff;fill-rule:evenodd"
       d="M 6,7 H 5 V 6 h 1 z" /><path
       id="path48-507"
       style="display:inline;fill:#ffffff;fill-rule:evenodd"
       d="M 7,7 H 6 V 6 h 1 z" /><path
       id="path48-02"
       style="display:inline;fill:#ffffff;fill-rule:evenodd"
       d="M 6,6 H 5 V 5 h 1 z" /><path
       id="path48-11"
       style="display:inline;fill:#ffffff;fill-rule:evenodd"
       d="M 4,5 H 3 V 4 h 1 z" /><path
       id="path48-16"
       style="display:inline;fill:#ffffff;fill-rule:evenodd"
       d="M 3,6 H 2 V 5 h 1 z" /><path
       id="path48-38"
       style="display:inline;fill:#ffffff;fill-rule:evenodd"
       d="M 2,7 H 1 V 6 h 1 z" /><path
       id="path48-49"
       style="display:inline;fill:#ffffff;fill-rule:evenodd"
       d="M 2,8 H 1 V 7 h 1 z" /><path
       id="path48-52"
       style="display:inline;fill:#ffffff;fill-rule:evenodd"
       d="M 2,10 H 1 V 9 h 1 z" /><path
       id="path48-024"
       style="display:inline;fill:#ffffff;fill-rule:evenodd"
       d="M 2,9 H 1 V 8 h 1 z" /><path
       id="path48-6"
       style="display:inline;fill:#ffffff;fill-rule:evenodd"
       d="M 2,11 H 1 v -1 h 1 z" /><path
       id="path48-63"
       style="display:inline;fill:#ffffff;fill-rule:evenodd"
       d="M 3,12 H 2 v -1 h 1 z" /><path
       id="path48-79"
       style="display:inline;fill:#ffffff;fill-rule:evenodd"
       d="M 3,13 H 2 v -1 h 1 z" /><path
       id="path48-420"
       style="display:inline;fill:#ffffff;fill-rule:evenodd"
       d="M 4,14 H 3 v -1 h 1 z" /><path
       id="path48-549"
       style="display:inline;fill:#ffffff;fill-rule:evenodd"
       d="M 5,15 H 4 v -1 h 1 z" /><path
       id="path48-36"
       style="display:inline;fill:#ffffff;fill-rule:evenodd"
       d="M 6,15 H 5 v -1 h 1 z" /><path
       id="path48-72"
       style="display:inline;fill:#ffffff;fill-rule:evenodd"
       d="M 7,15 H 6 v -1 h 1 z" /><path
       id="path48-58"
       style="display:inline;fill:#ffffff;fill-rule:evenodd"
       d="M 8,15 H 7 v -1 h 1 z" /><path
       id="path48-81"
       style="display:inline;fill:#ffffff;fill-rule:evenodd"
       d="M 9,15 H 8 v -1 h 1 z" /><path
       id="path48-03"
       style="display:inline;fill:#ffffff;fill-rule:evenodd"
       d="M 10,15 H 9 v -1 h 1 z" /><path
       id="path48-98"
       style="display:inline;fill:#ffffff;fill-rule:evenodd"
       d="m 11,15 h -1 v -1 h 1 z" /><path
       id="path48-5"
       style="display:inline;fill:#ffffff;fill-rule:evenodd"
       d="M 5,10 H 4 V 9 h 1 z" /><path
       id="path48-47"
       style="display:inline;fill:#ffffff;fill-rule:evenodd"
       d="M 6,10 H 5 V 9 h 1 z" /><path
       id="path48-07"
       style="display:inline;fill:#ffffff;fill-rule:evenodd"
       d="M 5,9 H 4 V 8 h 1 z" /><path
       id="path48-89"
       style="display:inline;fill:#ffffff;fill-rule:evenodd"
       d="M 5,5 H 4 V 4 h 1 z" /><path
       id="path48-441"
       style="display:inline;fill:#ffffff;fill-rule:evenodd"
       d="M 4,4 H 3 V 3 h 1 z" /><path
       id="path48-26"
       style="display:inline;fill:#ffffff;fill-rule:evenodd"
       d="m 12,15 h -1 v -1 h 1 z" /><path
       id="path48-7"
       style="display:inline;fill:#ffffff;fill-rule:evenodd"
       d="m 13,14 h -1 v -1 h 1 z" /><path
       id="path48-82"
       style="display:inline;fill:#ffffff;fill-rule:evenodd"
       d="m 14,13 h -1 v -1 h 1 z" /><path
       id="path48-070"
       style="display:inline;fill:#ffffff;fill-rule:evenodd"
       d="m 15,12 h -1 v -1 h 1 z" /><path
       id="path48-636"
       style="display:inline;fill:#ffffff;fill-rule:evenodd"
       d="m 15,11 h -1 v -1 h 1 z" /><path
       id="path48-65"
       style="display:inline;fill:#ffffff;fill-rule:evenodd"
       d="M 15,10 H 14 V 9 h 1 z" /><path
       id="path48-46"
       style="display:inline;fill:#ffffff;fill-rule:evenodd"
       d="M 15,9 H 14 V 8 h 1 z" /><path
       id="path48-27"
       style="display:inline;fill:#ffffff;fill-rule:evenodd"
       d="M 15,8 H 14 V 7 h 1 z" /><path
       id="path48-95"
       style="display:inline;fill:#ffffff;fill-rule:evenodd"
       d="M 15,7 H 14 V 6 h 1 z" /><path
       id="path48-898"
       style="display:inline;fill:#ffffff;fill-rule:evenodd"
       d="M 15,6 H 14 V 5 h 1 z" /><path
       id="path48-21"
       style="display:inline;fill:#ffffff;fill-rule:evenodd"
       d="M 14,5 H 13 V 4 h 1 z" /><path
       id="path48-06"
       style="display:inline;fill:#ffffff;fill-rule:evenodd"
       d="M 14,4 H 13 V 3 h 1 z" /><path
       id="path48-15"
       style="display:inline;fill:#ffffff;fill-rule:evenodd"
       d="M 13,5 H 12 V 4 h 1 z" /><path
       id="path48-68"
       style="display:inline;fill:#ffffff;fill-rule:evenodd"
       d="M 12,4 H 11 V 3 h 1 z" /><path
       id="path48-76"
       style="display:inline;fill:#ffffff;fill-rule:evenodd"
       d="M 12,3 H 11 V 2 h 1 z" /><path
       id="path48-74"
       style="display:inline;fill:#ffffff;fill-rule:evenodd"
       d="M 11,4 H 10 V 3 h 1 z" /><path
       id="path48-723"
       style="display:inline;fill:#ffffff;fill-rule:evenodd"
       d="M 11,5 H 10 V 4 h 1 z" /><path
       id="path48-2"
       style="display:inline;fill:#ffffff;fill-rule:evenodd"
       d="M 11,6 H 10 V 5 h 1 z" /><path
       id="path48-18"
       style="display:inline;fill:#ffffff;fill-rule:evenodd"
       d="M 12,7 H 11 V 6 h 1 z" /><path
       id="path48-73"
       style="display:inline;fill:#ffffff;fill-rule:evenodd"
       d="M 12,8 H 11 V 7 h 1 z" /><path
       id="path48-950"
       style="display:inline;fill:#ffffff;fill-rule:evenodd"
       d="M 12,9 H 11 V 8 h 1 z" /><path
       id="path48-94"
       style="display:inline;fill:#ffffff;fill-rule:evenodd"
       d="M 12,10 H 11 V 9 h 1 z" /><path
       id="path48-48"
       style="display:inline;fill:#ffffff;fill-rule:evenodd"
       d="M 11,3 H 10 V 2 h 1 z" /><path
       id="path48-17"
       style="display:inline;fill:#ffffff;fill-rule:evenodd"
       d="M 11,2 H 10 V 1 h 1 z" /><path
       id="path48-41"
       style="display:inline;fill:#ffffff;fill-rule:evenodd"
       d="M 12,2 H 11 V 1 h 1 z" /><path
       id="path48-502"
       style="display:inline;fill:#ffffff;fill-rule:evenodd"
       d="M 5,6 H 4 V 5 h 1 z" /><path
       id="path48-118"
       style="display:inline;fill:#ffffff;fill-rule:evenodd"
       d="M 4,6 H 3 V 5 h 1 z" /><path
       id="path48-93"
       style="display:inline;fill:#ffffff;fill-rule:evenodd"
       d="M 4,7 H 3 V 6 h 1 z" /><path
       id="path48-416"
       style="display:inline;fill:#ffffff;fill-rule:evenodd"
       d="M 5,7 H 4 V 6 h 1 z" /><path
       id="path48-473"
       style="display:inline;fill:#ffffff;fill-rule:evenodd"
       d="M 3,7 H 2 V 6 h 1 z" /><path
       id="path48-60"
       style="display:inline;fill:#ffffff;fill-rule:evenodd"
       d="M 3,8 H 2 V 7 h 1 z" /><path
       id="path48-168"
       style="display:inline;fill:#ffffff;fill-rule:evenodd"
       d="M 4,8 H 3 V 7 h 1 z" /><path
       id="path48-97"
       style="display:inline;fill:#ffffff;fill-rule:evenodd"
       d="M 4,9 H 3 V 8 h 1 z" /><path
       id="path48-411"
       style="display:inline;fill:#ffffff;fill-rule:evenodd"
       d="M 3,9 H 2 V 8 h 1 z" /><path
       id="path48-29"
       style="display:inline;fill:#ffffff;fill-rule:evenodd"
       d="M 3,10 H 2 V 9 h 1 z" /><path
       id="path48-688"
       style="display:inline;fill:#ffffff;fill-rule:evenodd"
       d="M 4,10 H 3 V 9 h 1 z" /><path
       id="path48-523"
       style="display:inline;fill:#ffffff;fill-rule:evenodd"
       d="M 3,11 H 2 v -1 h 1 z" /><path
       id="path48-10"
       style="display:inline;fill:#ffffff;fill-rule:evenodd"
       d="M 4,11 H 3 v -1 h 1 z" /><path
       id="path48-891"
       style="display:inline;fill:#ffffff;fill-rule:evenodd"
       d="M 4,12 H 3 v -1 h 1 z" /><path
       id="path48-494"
       style="display:inline;fill:#ffffff;fill-rule:evenodd"
       d="M 4,13 H 3 v -1 h 1 z" /><path
       id="path48-78"
       style="display:inline;fill:#ffffff;fill-rule:evenodd"
       d="M 5,12 H 4 v -1 h 1 z" /><path
       id="path48-3"
       style="display:inline;fill:#ffffff;fill-rule:evenodd"
       d="M 5,13 H 4 v -1 h 1 z" /><path
       id="path48-139"
       style="display:inline;fill:#ffffff;fill-rule:evenodd"
       d="M 5,14 H 4 v -1 h 1 z" /><path
       id="path48-69"
       style="display:inline;fill:#ffffff;fill-rule:evenodd"
       d="M 6,13 H 5 v -1 h 1 z" /><path
       id="path48-484"
       style="display:inline;fill:#ffffff;fill-rule:evenodd"
       d="M 6,14 H 5 v -1 h 1 z" /><path
       id="path48-069"
       style="display:inline;fill:#ffffff;fill-rule:evenodd"
       d="M 7,14 H 6 v -1 h 1 z" /><path
       id="path48-91"
       style="display:inline;fill:#ffffff;fill-rule:evenodd"
       d="M 8,14 H 7 v -1 h 1 z" /><path
       id="path48-30"
       style="display:inline;fill:#ffffff;fill-rule:evenodd"
       d="M 9,14 H 8 v -1 h 1 z" /><path
       id="path48-813"
       style="display:inline;fill:#ffffff;fill-rule:evenodd"
       d="M 10,14 H 9 v -1 h 1 z" /><path
       id="path48-5231"
       style="display:inline;fill:#ffffff;fill-rule:evenodd"
       d="m 11,14 h -1 v -1 h 1 z" /><path
       id="path48-680"
       style="display:inline;fill:#ffffff;fill-rule:evenodd"
       d="m 11,13 h -1 v -1 h 1 z" /><path
       id="path48-063"
       style="display:inline;fill:#ffffff;fill-rule:evenodd"
       d="m 12,14 h -1 v -1 h 1 z" /><path
       id="path48-036"
       style="display:inline;fill:#ffffff;fill-rule:evenodd"
       d="m 12,13 h -1 v -1 h 1 z" /><path
       id="path48-83"
       style="display:inline;fill:#ffffff;fill-rule:evenodd"
       d="m 12,12 h -1 v -1 h 1 z" /><path
       id="path48-96"
       style="display:inline;fill:#ffffff;fill-rule:evenodd"
       d="m 13,12 h -1 v -1 h 1 z" /><path
       id="path48-607"
       style="display:inline;fill:#ffffff;fill-rule:evenodd"
       d="m 13,13 h -1 v -1 h 1 z" /><path
       id="path48-00"
       style="display:inline;fill:#ffffff;fill-rule:evenodd"
       d="m 14,12 h -1 v -1 h 1 z" /><path
       id="path48-85"
       style="display:inline;fill:#ffffff;fill-rule:evenodd"
       d="m 14,11 h -1 v -1 h 1 z" /><path
       id="path48-218"
       style="display:inline;fill:#ffffff;fill-rule:evenodd"
       d="M 14,10 H 13 V 9 h 1 z" /><path
       id="path48-88"
       style="display:inline;fill:#ffffff;fill-rule:evenodd"
       d="M 14,9 H 13 V 8 h 1 z" /><path
       id="path48-55"
       style="display:inline;fill:#ffffff;fill-rule:evenodd"
       d="M 14,8 H 13 V 7 h 1 z" /><path
       id="path48-418"
       style="display:inline;fill:#ffffff;fill-rule:evenodd"
       d="M 14,7 H 13 V 6 h 1 z" /><path
       id="path48-86"
       style="display:inline;fill:#ffffff;fill-rule:evenodd"
       d="M 14,6 H 13 V 5 h 1 z" /><path
       id="path48-631"
       style="display:inline;fill:#ffffff;fill-rule:evenodd"
       d="M 13,6 H 12 V 5 h 1 z" /><path
       id="path48-296"
       style="display:inline;fill:#ffffff;fill-rule:evenodd"
       d="M 12,6 H 11 V 5 h 1 z" /><path
       id="path48-28"
       style="display:inline;fill:#ffffff;fill-rule:evenodd"
       d="M 12,5 H 11 V 4 h 1 z" /><path
       id="path48-008"
       style="display:inline;fill:#ffffff;fill-rule:evenodd"
       d="M 13,7 H 12 V 6 h 1 z" /><path
       id="path48-44"
       style="display:inline;fill:#ffffff;fill-rule:evenodd"
       d="M 13,8 H 12 V 7 h 1 z" /><path
       id="path48-890"
       style="display:inline;fill:#ffffff;fill-rule:evenodd"
       d="M 13,9 H 12 V 8 h 1 z" /><path
       id="path48-897"
       style="display:inline;fill:#ffffff;fill-rule:evenodd"
       d="M 13,10 H 12 V 9 h 1 z" /><path
       id="path48-40"
       style="display:inline;fill:#ffffff;fill-rule:evenodd"
       d="m 13,11 h -1 v -1 h 1 z" /><path
       id="path48-14"
       style="display:inline;fill:#ffffff;fill-rule:evenodd"
       d="M 11,1 H 10 V 0 h 1 z" /><path
       id="path48-14-0"
       style="display:inline;fill:#ffffff;fill-rule:evenodd"
       d="M 10,3 H 9 V 2 h 1 z" /><path
       id="path48-14-1"
       style="display:inline;fill:#ffffff;fill-rule:evenodd"
       d="M 10,2 H 9 V 1 h 1 z" /><path
       id="path48-14-9"
       style="display:inline;fill:#ffffff;fill-rule:evenodd"
       d="M 7,10 H 6 V 9 h 1 z" /><path
       id="path48-14-2"
       style="display:inline;fill:#ffffff;fill-rule:evenodd"
       d="M 8,9 H 7 V 8 h 1 z" /></g></svg>
