<?xml version="1.0" encoding="UTF-8" standalone="no"?>
<!-- Created with Inkscape (http://www.inkscape.org/) -->

<svg
   width="16"
   height="16"
   viewBox="0 0 16 16"
   version="1.1"
   id="svg1"
   inkscape:version="1.3.2 (091e20ef0f, 2023-11-25)"
   sodipodi:docname="internet-news.svg"
   xml:space="preserve"
   xmlns:inkscape="http://www.inkscape.org/namespaces/inkscape"
   xmlns:sodipodi="http://sodipodi.sourceforge.net/DTD/sodipodi-0.dtd"
   xmlns="http://www.w3.org/2000/svg"
   xmlns:svg="http://www.w3.org/2000/svg"><sodipodi:namedview
     id="namedview1"
     pagecolor="#ffffff"
     bordercolor="#000000"
     borderopacity="0.25"
     inkscape:showpageshadow="2"
     inkscape:pageopacity="0.0"
     inkscape:pagecheckerboard="0"
     inkscape:deskcolor="#d1d1d1"
     inkscape:document-units="px"
     showgrid="true"
     inkscape:zoom="32"
     inkscape:cx="8.21875"
     inkscape:cy="10.25"
     inkscape:window-width="1390"
     inkscape:window-height="1392"
     inkscape:window-x="0"
     inkscape:window-y="0"
     inkscape:window-maximized="0"
     inkscape:current-layer="layer13"><inkscape:grid
       id="grid1"
       units="px"
       originx="0"
       originy="0"
       spacingx="1"
       spacingy="1"
       empcolor="#0099e5"
       empopacity="0.30196078"
       color="#0099e5"
       opacity="0.14901961"
       empspacing="1"
       dotted="false"
       gridanglex="30"
       gridanglez="30"
       visible="true" /></sodipodi:namedview><defs
     id="defs1" /><g
     inkscape:label="Visibility"
     inkscape:groupmode="layer"
     id="layer1"
     style="display:none"><rect
       style="display:inline;fill:#00ffff;fill-rule:evenodd;stroke:none"
       id="rect3"
       width="16"
       height="16"
       x="0"
       y="0" /></g><g
     inkscape:groupmode="layer"
     id="layer13"
     inkscape:label="internet-news"
     transform="translate(3,-3)"><path
       id="path48-14"
       style="display:inline;fill:#ffffff;fill-rule:evenodd"
       d="M 3,14 H 2 v -1 h 1 z" /><path
       id="path48-14-9"
       style="display:inline;fill:#ffffff;fill-rule:evenodd"
       d="M 4,14 H 3 v -1 h 1 z" /><path
       id="path48-14-4"
       style="display:inline;fill:#ffffff;fill-rule:evenodd"
       d="M 3,13 H 2 v -1 h 1 z" /><path
       id="path48-14-2"
       style="display:inline;fill:#ffffff;fill-rule:evenodd"
       d="M 4,11 H 3 v -1 h 1 z" /><path
       id="path48-14-7"
       style="display:inline;fill:#ffffff;fill-rule:evenodd"
       d="M 5,11 H 4 v -1 h 1 z" /><path
       id="path48-14-5"
       style="display:inline;fill:#ffffff;fill-rule:evenodd"
       d="M 6,12 H 5 v -1 h 1 z" /><path
       id="path48-14-97"
       style="display:inline;fill:#ffffff;fill-rule:evenodd"
       d="M 6,13 H 5 v -1 h 1 z" /><path
       id="path48-14-25"
       style="display:inline;fill:#ffffff;fill-rule:evenodd"
       d="M 3,11 H 2 v -1 h 1 z" /><path
       id="path48-14-56"
       style="display:inline;fill:#ffffff;fill-rule:evenodd"
       d="M 6,14 H 5 v -1 h 1 z" /><path
       id="path48-14-0"
       style="display:inline;fill:#ffffff;fill-rule:evenodd"
       d="M 8,14 H 7 v -1 h 1 z" /><path
       id="path48-14-6"
       style="display:inline;fill:#ffffff;fill-rule:evenodd"
       d="M 3,9 H 2 V 8 h 1 z" /><path
       id="path48-14-8"
       style="display:inline;fill:#ffffff;fill-rule:evenodd"
       d="M 8,10 H 7 V 9 h 1 z" /><path
       id="path48-14-83"
       style="display:inline;fill:#ffffff;fill-rule:evenodd"
       d="M 7,9 H 6 V 8 h 1 z" /><path
       id="path48-14-36"
       style="display:inline;fill:#ffffff;fill-rule:evenodd"
       d="M 10,8 H 9 V 7 h 1 z" /><path
       id="path48-14-62"
       style="display:inline;fill:#ffffff;fill-rule:evenodd"
       d="M 9,7 H 8 V 6 h 1 z" /><path
       id="path48-14-52"
       style="display:inline;fill:#ffffff;fill-rule:evenodd"
       d="M 3,7 H 2 V 6 h 1 z" /><path
       id="path48-14-774"
       style="display:inline;fill:#ffffff;fill-rule:evenodd"
       d="M 10,14 H 9 v -1 h 1 z" /><path
       id="path48-14-41"
       style="display:inline;fill:#ffffff;fill-rule:evenodd"
       d="M 6,9 H 5 V 8 h 1 z" /><path
       id="path48-14-15"
       style="display:inline;fill:#ffffff;fill-rule:evenodd"
       d="M 5,9 H 4 V 8 h 1 z" /><path
       id="path48-14-65"
       style="display:inline;fill:#ffffff;fill-rule:evenodd"
       d="M 4,9 H 3 V 8 h 1 z" /><path
       id="path48-14-32"
       style="display:inline;fill:#ffffff;fill-rule:evenodd"
       d="M 8,13 H 7 v -1 h 1 z" /><path
       id="path48-14-67"
       style="display:inline;fill:#ffffff;fill-rule:evenodd"
       d="M 8,12 H 7 v -1 h 1 z" /><path
       id="path48-14-05"
       style="display:inline;fill:#ffffff;fill-rule:evenodd"
       d="M 8,11 H 7 v -1 h 1 z" /><path
       id="path48-14-50"
       style="display:inline;fill:#ffffff;fill-rule:evenodd"
       d="M 10,13 H 9 v -1 h 1 z" /><path
       id="path48-14-37"
       style="display:inline;fill:#ffffff;fill-rule:evenodd"
       d="M 10,12 H 9 v -1 h 1 z" /><path
       id="path48-14-29"
       style="display:inline;fill:#ffffff;fill-rule:evenodd"
       d="M 10,11 H 9 v -1 h 1 z" /><path
       id="path48-14-28"
       style="display:inline;fill:#ffffff;fill-rule:evenodd"
       d="M 10,10 H 9 V 9 h 1 z" /><path
       id="path48-14-02"
       style="display:inline;fill:#ffffff;fill-rule:evenodd"
       d="M 10,9 H 9 V 8 h 1 z" /><path
       id="path48-14-55"
       style="display:inline;fill:#ffffff;fill-rule:evenodd"
       d="M 7,7 H 6 V 6 h 1 z" /><path
       id="path48-14-70"
       style="display:inline;fill:#ffffff;fill-rule:evenodd"
       d="M 8,7 H 7 V 6 h 1 z" /><path
       id="path48-14-255"
       style="display:inline;fill:#ffffff;fill-rule:evenodd"
       d="M 6,7 H 5 V 6 h 1 z" /><path
       id="path48-14-06"
       style="display:inline;fill:#ffffff;fill-rule:evenodd"
       d="M 5,7 H 4 V 6 h 1 z" /><path
       id="path48-14-00"
       style="display:inline;fill:#ffffff;fill-rule:evenodd"
       d="M 4,7 H 3 V 6 h 1 z" /><path
       id="path48-14-81"
       style="display:inline;fill:#ffffff;fill-rule:evenodd"
       d="M 7,10 H 6 V 9 h 1 z" /><path
       id="path48-14-1"
       style="display:inline;fill:#ffffff;fill-rule:evenodd"
       d="M 9,8 H 8 V 7 h 1 z" /><path
       id="path48-14-75"
       style="display:inline;fill:#ffffff;fill-rule:evenodd"
       d="M 2,14 H 1 v -1 h 1 z" /><path
       id="path48-14-22"
       style="display:inline;fill:#ffffff;fill-rule:evenodd"
       d="M 2,15 H 1 v -1 h 1 z" /><path
       id="path48-14-64"
       style="display:inline;fill:#ffffff;fill-rule:evenodd"
       d="M 3,15 H 2 v -1 h 1 z" /><path
       id="path48-14-76"
       style="display:inline;fill:#ffffff;fill-rule:evenodd"
       d="M 2,13 H 1 v -1 h 1 z" /><path
       id="path48-14-03"
       style="display:inline;fill:#ffffff;fill-rule:evenodd"
       d="M 4,15 H 3 v -1 h 1 z" /><path
       id="path48-14-3"
       style="display:inline;fill:#ffffff;fill-rule:evenodd"
       d="M 1,14 H 0 v -1 h 1 z" /><path
       id="path48-14-811"
       style="display:inline;fill:#ffffff;fill-rule:evenodd"
       d="M 1,15 H 0 v -1 h 1 z" /><path
       id="path48-14-31"
       style="display:inline;fill:#ffffff;fill-rule:evenodd"
       d="M 2,16 H 1 v -1 h 1 z" /><path
       id="path48-14-91"
       style="display:inline;fill:#ffffff;fill-rule:evenodd"
       d="M 3,16 H 2 v -1 h 1 z" /><path
       id="path48-14-000"
       style="display:inline;fill:#ffffff;fill-rule:evenodd"
       d="M 2,11 H 1 v -1 h 1 z" /><path
       id="path48-14-419"
       style="display:inline;fill:#ffffff;fill-rule:evenodd"
       d="M 1,11 H 0 v -1 h 1 z" /><path
       id="path48-14-21"
       style="display:inline;fill:#ffffff;fill-rule:evenodd"
       d="M 6,15 H 5 v -1 h 1 z" /><path
       id="path48-14-280"
       style="display:inline;fill:#ffffff;fill-rule:evenodd"
       d="M 6,16 H 5 v -1 h 1 z" /><path
       id="path48-14-673"
       style="display:inline;fill:#ffffff;fill-rule:evenodd"
       d="M 2,9 H 1 V 8 h 1 z" /><path
       id="path48-14-022"
       style="display:inline;fill:#ffffff;fill-rule:evenodd"
       d="M 1,9 H 0 V 8 h 1 z" /><path
       id="path48-14-85"
       style="display:inline;fill:#ffffff;fill-rule:evenodd"
       d="M 2,7 H 1 V 6 h 1 z" /><path
       id="path48-14-062"
       style="display:inline;fill:#ffffff;fill-rule:evenodd"
       d="M 1,7 H 0 V 6 h 1 z" /><path
       id="path48-14-757"
       style="display:inline;fill:#ffffff;fill-rule:evenodd"
       d="M 8,15 H 7 v -1 h 1 z" /><path
       id="path48-14-11"
       style="display:inline;fill:#ffffff;fill-rule:evenodd"
       d="M 8,16 H 7 v -1 h 1 z" /><path
       id="path48-14-507"
       style="display:inline;fill:#ffffff;fill-rule:evenodd"
       d="M 10,15 H 9 v -1 h 1 z" /><path
       id="path48-14-82"
       style="display:inline;fill:#ffffff;fill-rule:evenodd"
       d="M 10,16 H 9 v -1 h 1 z" /></g></svg>
