<?xml version="1.0" encoding="UTF-8" standalone="no"?>
<!-- Created with Inkscape (http://www.inkscape.org/) -->

<svg
   width="16"
   height="16"
   viewBox="0 0 16 16"
   version="1.1"
   id="svg1"
   inkscape:version="1.3.2 (091e20ef0f, 2023-11-25)"
   sodipodi:docname="internet-mail.svg"
   xml:space="preserve"
   xmlns:inkscape="http://www.inkscape.org/namespaces/inkscape"
   xmlns:sodipodi="http://sodipodi.sourceforge.net/DTD/sodipodi-0.dtd"
   xmlns="http://www.w3.org/2000/svg"
   xmlns:svg="http://www.w3.org/2000/svg"><sodipodi:namedview
     id="namedview1"
     pagecolor="#ffffff"
     bordercolor="#000000"
     borderopacity="0.25"
     inkscape:showpageshadow="2"
     inkscape:pageopacity="0.0"
     inkscape:pagecheckerboard="0"
     inkscape:deskcolor="#d1d1d1"
     inkscape:document-units="px"
     showgrid="true"
     inkscape:zoom="32"
     inkscape:cx="8.21875"
     inkscape:cy="10.25"
     inkscape:window-width="1390"
     inkscape:window-height="1392"
     inkscape:window-x="0"
     inkscape:window-y="0"
     inkscape:window-maximized="0"
     inkscape:current-layer="layer12"><inkscape:grid
       id="grid1"
       units="px"
       originx="0"
       originy="0"
       spacingx="1"
       spacingy="1"
       empcolor="#0099e5"
       empopacity="0.30196078"
       color="#0099e5"
       opacity="0.14901961"
       empspacing="1"
       dotted="false"
       gridanglex="30"
       gridanglez="30"
       visible="true" /></sodipodi:namedview><defs
     id="defs1" /><g
     inkscape:label="Visibility"
     inkscape:groupmode="layer"
     id="layer1"
     style="display:none"><rect
       style="display:inline;fill:#00ffff;fill-rule:evenodd;stroke:none"
       id="rect3"
       width="16"
       height="16"
       x="0"
       y="0" /></g><g
     inkscape:groupmode="layer"
     id="layer12"
     inkscape:label="internet-mail"><path
       id="path48-14"
       style="display:inline;fill:#ffffff;fill-rule:evenodd"
       d="M 3,4 H 2 V 3 h 1 z" /><path
       id="path48-14-4"
       style="display:inline;fill:#ffffff;fill-rule:evenodd"
       d="M 4,4 H 3 V 3 h 1 z" /><path
       id="path48-14-5"
       style="display:inline;fill:#ffffff;fill-rule:evenodd"
       d="M 5,4 H 4 V 3 h 1 z" /><path
       id="path48-14-0"
       style="display:inline;fill:#ffffff;fill-rule:evenodd"
       d="M 6,4 H 5 V 3 h 1 z" /><path
       id="path48-14-8"
       style="display:inline;fill:#ffffff;fill-rule:evenodd"
       d="M 7,4 H 6 V 3 h 1 z" /><path
       id="path48-14-1"
       style="display:inline;fill:#ffffff;fill-rule:evenodd"
       d="M 8,4 H 7 V 3 h 1 z" /><path
       id="path48-14-3"
       style="display:inline;fill:#ffffff;fill-rule:evenodd"
       d="M 9,4 H 8 V 3 h 1 z" /><path
       id="path48-14-35"
       style="display:inline;fill:#ffffff;fill-rule:evenodd"
       d="M 10,4 H 9 V 3 h 1 z" /><path
       id="path48-14-2"
       style="display:inline;fill:#ffffff;fill-rule:evenodd"
       d="M 11,4 H 10 V 3 h 1 z" /><path
       id="path48-14-13"
       style="display:inline;fill:#ffffff;fill-rule:evenodd"
       d="M 12,4 H 11 V 3 h 1 z" /><path
       id="path48-14-355"
       style="display:inline;fill:#ffffff;fill-rule:evenodd"
       d="M 13,4 H 12 V 3 h 1 z" /><path
       id="path48-14-51"
       style="display:inline;fill:#ffffff;fill-rule:evenodd"
       d="M 14,4 H 13 V 3 h 1 z" /><path
       id="path48-14-31"
       style="display:inline;fill:#ffffff;fill-rule:evenodd"
       d="M 14,5 H 13 V 4 h 1 z" /><path
       id="path48-14-9"
       style="display:inline;fill:#ffffff;fill-rule:evenodd"
       d="m 14,13 h -1 v -1 h 1 z" /><path
       id="path48-14-04"
       style="display:inline;fill:#ffffff;fill-rule:evenodd"
       d="m 13,13 h -1 v -1 h 1 z" /><path
       id="path48-14-19"
       style="display:inline;fill:#ffffff;fill-rule:evenodd"
       d="m 11,13 h -1 v -1 h 1 z" /><path
       id="path48-14-06"
       style="display:inline;fill:#ffffff;fill-rule:evenodd"
       d="m 12,13 h -1 v -1 h 1 z" /><path
       id="path48-14-59"
       style="display:inline;fill:#ffffff;fill-rule:evenodd"
       d="M 10,13 H 9 v -1 h 1 z" /><path
       id="path48-14-53"
       style="display:inline;fill:#ffffff;fill-rule:evenodd"
       d="M 9,13 H 8 v -1 h 1 z" /><path
       id="path48-14-133"
       style="display:inline;fill:#ffffff;fill-rule:evenodd"
       d="M 8,13 H 7 v -1 h 1 z" /><path
       id="path48-14-97"
       style="display:inline;fill:#ffffff;fill-rule:evenodd"
       d="M 7,13 H 6 v -1 h 1 z" /><path
       id="path48-14-88"
       style="display:inline;fill:#ffffff;fill-rule:evenodd"
       d="M 6,13 H 5 v -1 h 1 z" /><path
       id="path48-14-38"
       style="display:inline;fill:#ffffff;fill-rule:evenodd"
       d="M 5,13 H 4 v -1 h 1 z" /><path
       id="path48-14-62"
       style="display:inline;fill:#ffffff;fill-rule:evenodd"
       d="M 4,13 H 3 v -1 h 1 z" /><path
       id="path48-14-979"
       style="display:inline;fill:#ffffff;fill-rule:evenodd"
       d="M 3,13 H 2 v -1 h 1 z" /><path
       id="path48-14-58"
       style="display:inline;fill:#ffffff;fill-rule:evenodd"
       d="M 7,8 H 6 V 7 h 1 z" /><path
       id="path48-14-09"
       style="display:inline;fill:#ffffff;fill-rule:evenodd"
       d="M 11,7 H 10 V 6 h 1 z" /><path
       id="path48-14-36"
       style="display:inline;fill:#ffffff;fill-rule:evenodd"
       d="M 10,8 H 9 V 7 h 1 z" /><path
       id="path48-14-54"
       style="display:inline;fill:#ffffff;fill-rule:evenodd"
       d="M 8,9 H 7 V 8 h 1 z" /><path
       id="path48-14-56"
       style="display:inline;fill:#ffffff;fill-rule:evenodd"
       d="M 9,9 H 8 V 8 h 1 z" /><path
       id="path48-14-517"
       style="display:inline;fill:#ffffff;fill-rule:evenodd"
       d="M 2,4 H 1 V 3 h 1 z" /><path
       id="path48-14-60"
       style="display:inline;fill:#ffffff;fill-rule:evenodd"
       d="M 2,5 H 1 V 4 h 1 z" /><path
       id="path48-14-91"
       style="display:inline;fill:#ffffff;fill-rule:evenodd"
       d="M 2,7 H 1 V 6 h 1 z" /><path
       id="path48-14-535"
       style="display:inline;fill:#ffffff;fill-rule:evenodd"
       d="M 2,6 H 1 V 5 h 1 z" /><path
       id="path48-14-79"
       style="display:inline;fill:#ffffff;fill-rule:evenodd"
       d="M 2,8 H 1 V 7 h 1 z" /><path
       id="path48-14-214"
       style="display:inline;fill:#ffffff;fill-rule:evenodd"
       d="M 2,9 H 1 V 8 h 1 z" /><path
       id="path48-14-98"
       style="display:inline;fill:#ffffff;fill-rule:evenodd"
       d="M 2,11 H 1 v -1 h 1 z" /><path
       id="path48-14-71"
       style="display:inline;fill:#ffffff;fill-rule:evenodd"
       d="M 2,10 H 1 V 9 h 1 z" /><path
       id="path48-14-33"
       style="display:inline;fill:#ffffff;fill-rule:evenodd"
       d="M 2,12 H 1 v -1 h 1 z" /><path
       id="path48-14-095"
       style="display:inline;fill:#ffffff;fill-rule:evenodd"
       d="M 2,13 H 1 v -1 h 1 z" /><path
       id="path48-14-080"
       style="display:inline;fill:#ffffff;fill-rule:evenodd"
       d="M 15,5 H 14 V 4 h 1 z" /><path
       id="path48-14-12"
       style="display:inline;fill:#ffffff;fill-rule:evenodd"
       d="M 15,4 H 14 V 3 h 1 z" /><path
       id="path48-14-776"
       style="display:inline;fill:#ffffff;fill-rule:evenodd"
       d="M 15,6 H 14 V 5 h 1 z" /><path
       id="path48-14-542"
       style="display:inline;fill:#ffffff;fill-rule:evenodd"
       d="M 15,7 H 14 V 6 h 1 z" /><path
       id="path48-14-63"
       style="display:inline;fill:#ffffff;fill-rule:evenodd"
       d="M 15,8 H 14 V 7 h 1 z" /><path
       id="path48-14-25"
       style="display:inline;fill:#ffffff;fill-rule:evenodd"
       d="M 15,9 H 14 V 8 h 1 z" /><path
       id="path48-14-739"
       style="display:inline;fill:#ffffff;fill-rule:evenodd"
       d="M 15,10 H 14 V 9 h 1 z" /><path
       id="path48-14-713"
       style="display:inline;fill:#ffffff;fill-rule:evenodd"
       d="m 15,11 h -1 v -1 h 1 z" /><path
       id="path48-14-732"
       style="display:inline;fill:#ffffff;fill-rule:evenodd"
       d="m 15,12 h -1 v -1 h 1 z" /><path
       id="path48-14-136"
       style="display:inline;fill:#ffffff;fill-rule:evenodd"
       d="m 15,13 h -1 v -1 h 1 z" /><path
       id="path48-14-50"
       style="display:inline;fill:#ffffff;fill-rule:evenodd"
       d="M 3,5 H 2 V 4 h 1 z" /><path
       id="path48-14-90"
       style="display:inline;fill:#ffffff;fill-rule:evenodd"
       d="M 4,6 H 3 V 5 h 1 z" /><path
       id="path48-14-41"
       style="display:inline;fill:#ffffff;fill-rule:evenodd"
       d="M 5,7 H 4 V 6 h 1 z" /><path
       id="path48-14-21"
       style="display:inline;fill:#ffffff;fill-rule:evenodd"
       d="M 6,7 H 5 V 6 h 1 z" /><path
       id="path48-14-064"
       style="display:inline;fill:#ffffff;fill-rule:evenodd"
       d="M 12,7 H 11 V 6 h 1 z" /><path
       id="path48-14-534"
       style="display:inline;fill:#ffffff;fill-rule:evenodd"
       d="M 13,6 H 12 V 5 h 1 z" /></g></svg>
