<?xml version="1.0" encoding="UTF-8" standalone="no"?>
<!-- Created with Inkscape (http://www.inkscape.org/) -->

<svg
   width="16"
   height="16"
   viewBox="0 0 16 16"
   version="1.1"
   id="svg1"
   inkscape:version="1.3.2 (091e20ef0f, 2023-11-25)"
   sodipodi:docname="minecraft.svg"
   xml:space="preserve"
   xmlns:inkscape="http://www.inkscape.org/namespaces/inkscape"
   xmlns:sodipodi="http://sodipodi.sourceforge.net/DTD/sodipodi-0.dtd"
   xmlns="http://www.w3.org/2000/svg"
   xmlns:svg="http://www.w3.org/2000/svg"><sodipodi:namedview
     id="namedview1"
     pagecolor="#ffffff"
     bordercolor="#000000"
     borderopacity="0.25"
     inkscape:showpageshadow="2"
     inkscape:pageopacity="0.0"
     inkscape:pagecheckerboard="0"
     inkscape:deskcolor="#d1d1d1"
     inkscape:document-units="px"
     showgrid="true"
     inkscape:zoom="32"
     inkscape:cx="8.21875"
     inkscape:cy="10.25"
     inkscape:window-width="1390"
     inkscape:window-height="1392"
     inkscape:window-x="0"
     inkscape:window-y="0"
     inkscape:window-maximized="0"
     inkscape:current-layer="layer14"><inkscape:grid
       id="grid1"
       units="px"
       originx="0"
       originy="0"
       spacingx="1"
       spacingy="1"
       empcolor="#0099e5"
       empopacity="0.30196078"
       color="#0099e5"
       opacity="0.14901961"
       empspacing="1"
       dotted="false"
       gridanglex="30"
       gridanglez="30"
       visible="true" /></sodipodi:namedview><defs
     id="defs1" /><g
     inkscape:label="Visibility"
     inkscape:groupmode="layer"
     id="layer1"
     style="display:none"><rect
       style="display:inline;fill:#00ffff;fill-rule:evenodd;stroke:none"
       id="rect3"
       width="16"
       height="16"
       x="0"
       y="0" /></g><g
     inkscape:groupmode="layer"
     id="layer14"
     inkscape:label="minecraft"><path
       id="path48-14"
       style="display:inline;fill:#ffffff;fill-rule:evenodd"
       d="M 2,2 H 1 V 1 h 1 z" /><path
       id="path48-14-3"
       style="display:inline;fill:#ffffff;fill-rule:evenodd"
       d="M 2,3 H 1 V 2 h 1 z" /><path
       id="path48-14-2"
       style="display:inline;fill:#ffffff;fill-rule:evenodd"
       d="M 2,4 H 1 V 3 h 1 z" /><path
       id="path48-14-7"
       style="display:inline;fill:#ffffff;fill-rule:evenodd"
       d="M 2,6 H 1 V 5 h 1 z" /><path
       id="path48-14-76"
       style="display:inline;fill:#ffffff;fill-rule:evenodd"
       d="M 2,5 H 1 V 4 h 1 z" /><path
       id="path48-14-0"
       style="display:inline;fill:#ffffff;fill-rule:evenodd"
       d="M 2,7 H 1 V 6 h 1 z" /><path
       id="path48-14-6"
       style="display:inline;fill:#ffffff;fill-rule:evenodd"
       d="M 2,8 H 1 V 7 h 1 z" /><path
       id="path48-14-9"
       style="display:inline;fill:#ffffff;fill-rule:evenodd"
       d="M 2,9 H 1 V 8 h 1 z" /><path
       id="path48-14-5"
       style="display:inline;fill:#ffffff;fill-rule:evenodd"
       d="M 2,10 H 1 V 9 h 1 z" /><path
       id="path48-14-8"
       style="display:inline;fill:#ffffff;fill-rule:evenodd"
       d="M 2,11 H 1 v -1 h 1 z" /><path
       id="path48-14-09"
       style="display:inline;fill:#ffffff;fill-rule:evenodd"
       d="M 2,12 H 1 v -1 h 1 z" /><path
       id="path48-14-80"
       style="display:inline;fill:#ffffff;fill-rule:evenodd"
       d="M 2,13 H 1 v -1 h 1 z" /><path
       id="path48-14-72"
       style="display:inline;fill:#ffffff;fill-rule:evenodd"
       d="M 2,14 H 1 v -1 h 1 z" /><path
       id="path48-14-761"
       style="display:inline;fill:#ffffff;fill-rule:evenodd"
       d="M 2,15 H 1 v -1 h 1 z" /><path
       id="path48-14-55"
       style="display:inline;fill:#ffffff;fill-rule:evenodd"
       d="m 15,15 h -1 v -1 h 1 z" /><path
       id="path48-14-78"
       style="display:inline;fill:#ffffff;fill-rule:evenodd"
       d="m 14,15 h -1 v -1 h 1 z" /><path
       id="path48-14-92"
       style="display:inline;fill:#ffffff;fill-rule:evenodd"
       d="m 13,15 h -1 v -1 h 1 z" /><path
       id="path48-14-65"
       style="display:inline;fill:#ffffff;fill-rule:evenodd"
       d="m 12,15 h -1 v -1 h 1 z" /><path
       id="path48-14-52"
       style="display:inline;fill:#ffffff;fill-rule:evenodd"
       d="m 11,15 h -1 v -1 h 1 z" /><path
       id="path48-14-04"
       style="display:inline;fill:#ffffff;fill-rule:evenodd"
       d="M 10,15 H 9 v -1 h 1 z" /><path
       id="path48-14-727"
       style="display:inline;fill:#ffffff;fill-rule:evenodd"
       d="M 9,15 H 8 v -1 h 1 z" /><path
       id="path48-14-50"
       style="display:inline;fill:#ffffff;fill-rule:evenodd"
       d="M 8,15 H 7 v -1 h 1 z" /><path
       id="path48-14-31"
       style="display:inline;fill:#ffffff;fill-rule:evenodd"
       d="M 7,15 H 6 v -1 h 1 z" /><path
       id="path48-14-20"
       style="display:inline;fill:#ffffff;fill-rule:evenodd"
       d="M 6,15 H 5 v -1 h 1 z" /><path
       id="path48-14-4"
       style="display:inline;fill:#ffffff;fill-rule:evenodd"
       d="M 5,15 H 4 v -1 h 1 z" /><path
       id="path48-14-95"
       style="display:inline;fill:#ffffff;fill-rule:evenodd"
       d="M 4,15 H 3 v -1 h 1 z" /><path
       id="path48-14-1"
       style="display:inline;fill:#ffffff;fill-rule:evenodd"
       d="M 3,15 H 2 v -1 h 1 z" /><path
       id="path48-14-313"
       style="display:inline;fill:#ffffff;fill-rule:evenodd"
       d="M 3,2 H 2 V 1 h 1 z" /><path
       id="path48-14-70"
       style="display:inline;fill:#ffffff;fill-rule:evenodd"
       d="M 4,2 H 3 V 1 h 1 z" /><path
       id="path48-14-51"
       style="display:inline;fill:#ffffff;fill-rule:evenodd"
       d="M 5,2 H 4 V 1 h 1 z" /><path
       id="path48-14-10"
       style="display:inline;fill:#ffffff;fill-rule:evenodd"
       d="M 6,2 H 5 V 1 h 1 z" /><path
       id="path48-14-96"
       style="display:inline;fill:#ffffff;fill-rule:evenodd"
       d="M 7,2 H 6 V 1 h 1 z" /><path
       id="path48-14-82"
       style="display:inline;fill:#ffffff;fill-rule:evenodd"
       d="M 8,2 H 7 V 1 h 1 z" /><path
       id="path48-14-56"
       style="display:inline;fill:#ffffff;fill-rule:evenodd"
       d="M 9,2 H 8 V 1 h 1 z" /><path
       id="path48-14-42"
       style="display:inline;fill:#ffffff;fill-rule:evenodd"
       d="M 10,2 H 9 V 1 h 1 z" /><path
       id="path48-14-67"
       style="display:inline;fill:#ffffff;fill-rule:evenodd"
       d="M 11,2 H 10 V 1 h 1 z" /><path
       id="path48-14-38"
       style="display:inline;fill:#ffffff;fill-rule:evenodd"
       d="M 12,2 H 11 V 1 h 1 z" /><path
       id="path48-14-69"
       style="display:inline;fill:#ffffff;fill-rule:evenodd"
       d="M 13,2 H 12 V 1 h 1 z" /><path
       id="path48-14-97"
       style="display:inline;fill:#ffffff;fill-rule:evenodd"
       d="M 14,2 H 13 V 1 h 1 z" /><path
       id="path48-14-86"
       style="display:inline;fill:#ffffff;fill-rule:evenodd"
       d="M 15,2 H 14 V 1 h 1 z" /><path
       id="path48-14-33"
       style="display:inline;fill:#ffffff;fill-rule:evenodd"
       d="M 15,3 H 14 V 2 h 1 z" /><path
       id="path48-14-74"
       style="display:inline;fill:#ffffff;fill-rule:evenodd"
       d="M 15,4 H 14 V 3 h 1 z" /><path
       id="path48-14-44"
       style="display:inline;fill:#ffffff;fill-rule:evenodd"
       d="M 15,5 H 14 V 4 h 1 z" /><path
       id="path48-14-783"
       style="display:inline;fill:#ffffff;fill-rule:evenodd"
       d="M 15,6 H 14 V 5 h 1 z" /><path
       id="path48-14-49"
       style="display:inline;fill:#ffffff;fill-rule:evenodd"
       d="M 15,7 H 14 V 6 h 1 z" /><path
       id="path48-14-747"
       style="display:inline;fill:#ffffff;fill-rule:evenodd"
       d="M 15,8 H 14 V 7 h 1 z" /><path
       id="path48-14-23"
       style="display:inline;fill:#ffffff;fill-rule:evenodd"
       d="M 15,9 H 14 V 8 h 1 z" /><path
       id="path48-14-57"
       style="display:inline;fill:#ffffff;fill-rule:evenodd"
       d="M 15,10 H 14 V 9 h 1 z" /><path
       id="path48-14-68"
       style="display:inline;fill:#ffffff;fill-rule:evenodd"
       d="m 15,11 h -1 v -1 h 1 z" /><path
       id="path48-14-66"
       style="display:inline;fill:#ffffff;fill-rule:evenodd"
       d="m 15,12 h -1 v -1 h 1 z" /><path
       id="path48-14-48"
       style="display:inline;fill:#ffffff;fill-rule:evenodd"
       d="m 15,13 h -1 v -1 h 1 z" /><path
       id="path48-14-87"
       style="display:inline;fill:#ffffff;fill-rule:evenodd"
       d="m 15,14 h -1 v -1 h 1 z" /><path
       id="path48-14-577"
       style="display:inline;fill:#ffffff;fill-rule:evenodd"
       d="M 7,6 H 6 V 5 h 1 z" /><path
       id="path48-14-43"
       style="display:inline;fill:#ffffff;fill-rule:evenodd"
       d="M 6,6 H 5 V 5 h 1 z" /><path
       id="path48-14-24"
       style="display:inline;fill:#ffffff;fill-rule:evenodd"
       d="M 6,7 H 5 V 6 h 1 z" /><path
       id="path48-14-722"
       style="display:inline;fill:#ffffff;fill-rule:evenodd"
       d="M 7,7 H 6 V 6 h 1 z" /><path
       id="path48-14-59"
       style="display:inline;fill:#ffffff;fill-rule:evenodd"
       d="M 11,6 H 10 V 5 h 1 z" /><path
       id="path48-14-562"
       style="display:inline;fill:#ffffff;fill-rule:evenodd"
       d="M 10,6 H 9 V 5 h 1 z" /><path
       id="path48-14-12"
       style="display:inline;fill:#ffffff;fill-rule:evenodd"
       d="M 10,7 H 9 V 6 h 1 z" /><path
       id="path48-14-680"
       style="display:inline;fill:#ffffff;fill-rule:evenodd"
       d="M 11,7 H 10 V 6 h 1 z" /><path
       id="path48-14-656"
       style="display:inline;fill:#ffffff;fill-rule:evenodd"
       d="M 7,12 H 6 v -1 h 1 z" /><path
       id="path48-14-85"
       style="display:inline;fill:#ffffff;fill-rule:evenodd"
       d="M 7,11 H 6 v -1 h 1 z" /><path
       id="path48-14-45"
       style="display:inline;fill:#ffffff;fill-rule:evenodd"
       d="M 10,12 H 9 v -1 h 1 z" /><path
       id="path48-14-709"
       style="display:inline;fill:#ffffff;fill-rule:evenodd"
       d="M 10,11 H 9 v -1 h 1 z" /><path
       id="path48-14-622"
       style="display:inline;fill:#ffffff;fill-rule:evenodd"
       d="M 8,10 H 7 V 9 h 1 z" /><path
       id="path48-14-821"
       style="display:inline;fill:#ffffff;fill-rule:evenodd"
       d="M 9,10 H 8 V 9 h 1 z" /><path
       id="path48-14-558"
       style="display:inline;fill:#ffffff;fill-rule:evenodd"
       d="M 9,9 H 8 V 8 h 1 z" /><path
       id="path48-14-426"
       style="display:inline;fill:#ffffff;fill-rule:evenodd"
       d="M 8,9 H 7 V 8 h 1 z" /><path
       id="path48-14-682"
       style="display:inline;fill:#ffffff;fill-rule:evenodd"
       d="M 7,10 H 6 V 9 h 1 z" /><path
       id="path48-14-60"
       style="display:inline;fill:#ffffff;fill-rule:evenodd"
       d="M 10,10 H 9 V 9 h 1 z" /><path
       id="path48-14-385"
       style="display:inline;fill:#ffffff;fill-rule:evenodd"
       d="M 10,8 H 9 V 7 h 1 z" /><path
       id="path48-14-53"
       style="display:inline;fill:#ffffff;fill-rule:evenodd"
       d="M 11,8 H 10 V 7 h 1 z" /><path
       id="path48-14-81"
       style="display:inline;fill:#ffffff;fill-rule:evenodd"
       d="M 12,8 H 11 V 7 h 1 z" /><path
       id="path48-14-566"
       style="display:inline;fill:#ffffff;fill-rule:evenodd"
       d="M 12,7 H 11 V 6 h 1 z" /><path
       id="path48-14-40"
       style="display:inline;fill:#ffffff;fill-rule:evenodd"
       d="M 12,6 H 11 V 5 h 1 z" /><path
       id="path48-14-673"
       style="display:inline;fill:#ffffff;fill-rule:evenodd"
       d="M 7,8 H 6 V 7 h 1 z" /><path
       id="path48-14-806"
       style="display:inline;fill:#ffffff;fill-rule:evenodd"
       d="M 6,8 H 5 V 7 h 1 z" /><path
       id="path48-14-30"
       style="display:inline;fill:#ffffff;fill-rule:evenodd"
       d="M 5,8 H 4 V 7 h 1 z" /><path
       id="path48-14-596"
       style="display:inline;fill:#ffffff;fill-rule:evenodd"
       d="M 5,7 H 4 V 6 h 1 z" /><path
       id="path48-14-77"
       style="display:inline;fill:#ffffff;fill-rule:evenodd"
       d="M 5,6 H 4 V 5 h 1 z" /><path
       id="path48-14-491"
       style="display:inline;fill:#ffffff;fill-rule:evenodd"
       d="M 9,11 H 8 v -1 h 1 z" /><path
       id="path48-14-600"
       style="display:inline;fill:#ffffff;fill-rule:evenodd"
       d="M 8,11 H 7 v -1 h 1 z" /></g></svg>
