<?xml version="1.0" encoding="UTF-8" standalone="no"?>
<!-- Created with Inkscape (http://www.inkscape.org/) -->

<svg
   width="16"
   height="16"
   viewBox="0 0 16 16"
   version="1.1"
   id="svg1"
   inkscape:version="1.3.2 (091e20ef0f, 2023-11-25)"
   sodipodi:docname="oneshot.svg"
   xmlns:inkscape="http://www.inkscape.org/namespaces/inkscape"
   xmlns:sodipodi="http://sodipodi.sourceforge.net/DTD/sodipodi-0.dtd"
   xmlns="http://www.w3.org/2000/svg"
   xmlns:svg="http://www.w3.org/2000/svg">
  <sodipodi:namedview
     id="namedview1"
     pagecolor="#ffffff"
     bordercolor="#000000"
     borderopacity="0.25"
     inkscape:showpageshadow="2"
     inkscape:pageopacity="0.0"
     inkscape:pagecheckerboard="0"
     inkscape:deskcolor="#d1d1d1"
     inkscape:document-units="px"
     showgrid="true"
     inkscape:zoom="32"
     inkscape:cx="5.90625"
     inkscape:cy="-1.375"
     inkscape:window-width="1390"
     inkscape:window-height="1392"
     inkscape:window-x="0"
     inkscape:window-y="0"
     inkscape:window-maximized="0"
     inkscape:current-layer="layer3">
    <inkscape:grid
       id="grid1"
       units="px"
       originx="0"
       originy="0"
       spacingx="1"
       spacingy="1"
       empcolor="#0099e5"
       empopacity="0.30196078"
       color="#0099e5"
       opacity="0.14901961"
       empspacing="1"
       dotted="false"
       gridanglex="30"
       gridanglez="30"
       visible="true" />
  </sodipodi:namedview>
  <defs
     id="defs1" />
  <g
     inkscape:label="Visibility"
     inkscape:groupmode="layer"
     id="layer1"
     style="display:inline">
    <rect
       style="display:none;fill:#00ffff;fill-rule:evenodd;stroke:none"
       id="rect3"
       width="16"
       height="16"
       x="0"
       y="0" />
  </g>
  <g
     inkscape:groupmode="layer"
     id="layer3"
     inkscape:label="Oneshot">
    <path
       id="rect2-2-3540-2"
       style="display:inline;fill:#ffffff;fill-rule:evenodd"
       d="m 0,14 h 1 v 1 H 0 Z" />
    <path
       id="rect2-2-3540-2-6"
       style="display:inline;fill:#ffffff;fill-rule:evenodd"
       d="m 1,15 h 1 v 1 H 1 Z" />
    <path
       id="rect2-2-3540-2-60"
       style="display:inline;fill:#ffffff;fill-rule:evenodd"
       d="m 2,15 h 1 v 1 H 2 Z" />
    <path
       id="rect2-2-3540-2-0"
       style="display:inline;fill:#ffffff;fill-rule:evenodd"
       d="m 0,13 h 1 v 1 H 0 Z" />
    <path
       id="rect2-2-3540-2-7"
       style="display:inline;fill:#ffffff;fill-rule:evenodd"
       d="m 1,12 h 1 v 1 H 1 Z" />
    <path
       id="rect2-2-3540-2-5"
       style="display:inline;fill:#ffffff;fill-rule:evenodd"
       d="m 1,11 h 1 v 1 H 1 Z" />
    <path
       id="rect2-2-3540-2-9"
       style="display:inline;fill:#ffffff;fill-rule:evenodd"
       d="m 2,11 h 1 v 1 H 2 Z" />
    <path
       id="rect2-2-3540-2-4"
       style="display:inline;fill:#ffffff;fill-rule:evenodd"
       d="m 3,12 h 1 v 1 H 3 Z" />
    <path
       id="rect2-2-3540-2-3"
       style="display:inline;fill:#ffffff;fill-rule:evenodd"
       d="m 4,13 h 1 v 1 H 4 Z" />
    <path
       id="rect2-2-3540-2-604"
       style="display:inline;fill:#ffffff;fill-rule:evenodd"
       d="m 4,14 h 1 v 1 H 4 Z" />
    <path
       id="rect2-2-3540-2-09"
       style="display:inline;fill:#ffffff;fill-rule:evenodd"
       d="m 3,14 h 1 v 1 H 3 Z" />
    <path
       id="rect2-2-3540-2-78"
       style="display:inline;fill:#ffffff;fill-rule:evenodd"
       d="m 3,13 h 1 v 1 H 3 Z" />
    <path
       id="rect2-2-3540-2-8"
       style="display:inline;fill:#ffffff;fill-rule:evenodd"
       d="m 2,12 h 1 v 1 H 2 Z" />
    <path
       id="rect2-2-3540-2-37"
       style="display:inline;fill:#ffffff;fill-rule:evenodd"
       d="m 2,13 h 1 v 1 H 2 Z" />
    <path
       id="rect2-2-3540-2-1"
       style="display:inline;fill:#ffffff;fill-rule:evenodd"
       d="m 1,13 h 1 v 1 H 1 Z" />
    <path
       id="rect2-2-3540-2-88"
       style="display:inline;fill:#ffffff;fill-rule:evenodd"
       d="m 1,14 h 1 v 1 H 1 Z" />
    <path
       id="rect2-2-3540-2-371"
       style="display:inline;fill:#ffffff;fill-rule:evenodd"
       d="m 2,14 h 1 v 1 H 2 Z" />
    <path
       id="rect2-2-3540-2-97"
       style="display:inline;fill:#ffffff;fill-rule:evenodd"
       d="m 3,10 h 1 v 1 H 3 Z" />
    <path
       id="rect2-2-3540-2-2"
       style="display:inline;fill:#ffffff;fill-rule:evenodd"
       d="m 3,9 h 1 v 1 H 3 Z" />
    <path
       id="rect2-2-3540-2-12"
       style="display:inline;fill:#ffffff;fill-rule:evenodd"
       d="M 3,8 H 4 V 9 H 3 Z" />
    <path
       id="rect2-2-3540-2-17"
       style="display:inline;fill:#ffffff;fill-rule:evenodd"
       d="M 4,7 H 5 V 8 H 4 Z" />
    <path
       id="rect2-2-3540-2-41"
       style="display:inline;fill:#ffffff;fill-rule:evenodd"
       d="M 4,6 H 5 V 7 H 4 Z" />
    <path
       id="rect2-2-3540-2-170"
       style="display:inline;fill:#ffffff;fill-rule:evenodd"
       d="M 5,5 H 6 V 6 H 5 Z" />
    <path
       id="rect2-2-3540-2-51"
       style="display:inline;fill:#ffffff;fill-rule:evenodd"
       d="M 6,5 H 7 V 6 H 6 Z" />
    <path
       id="rect2-2-3540-2-19"
       style="display:inline;fill:#ffffff;fill-rule:evenodd"
       d="M 7,5 H 8 V 6 H 7 Z" />
    <path
       id="rect2-2-3540-2-08"
       style="display:inline;fill:#ffffff;fill-rule:evenodd"
       d="M 8,6 H 9 V 7 H 8 Z" />
    <path
       id="rect2-2-3540-2-29"
       style="display:inline;fill:#ffffff;fill-rule:evenodd"
       d="M 8,7 H 9 V 8 H 8 Z" />
    <path
       id="rect2-2-3540-2-46"
       style="display:inline;fill:#ffffff;fill-rule:evenodd"
       d="M 8,8 H 9 V 9 H 8 Z" />
    <path
       id="rect2-2-3540-2-06"
       style="display:inline;fill:#ffffff;fill-rule:evenodd"
       d="M 7,7 H 8 V 8 H 7 Z" />
    <path
       id="rect2-2-3540-2-39"
       style="display:inline;fill:#ffffff;fill-rule:evenodd"
       d="m 9,7 h 1 V 8 H 9 Z" />
    <path
       id="rect2-2-3540-2-415"
       style="display:inline;fill:#ffffff;fill-rule:evenodd"
       d="m 10,9 h 1 v 1 h -1 z" />
    <path
       id="rect2-2-3540-2-83"
       style="display:inline;fill:#ffffff;fill-rule:evenodd"
       d="m 10,8 h 1 v 1 h -1 z" />
    <path
       id="rect2-2-3540-2-22"
       style="display:inline;fill:#ffffff;fill-rule:evenodd"
       d="m 10,10 h 1 v 1 h -1 z" />
    <path
       id="rect2-2-3540-2-463"
       style="display:inline;fill:#ffffff;fill-rule:evenodd"
       d="m 9,11 h 1 v 1 H 9 Z" />
    <path
       id="rect2-2-3540-2-44"
       style="display:inline;fill:#ffffff;fill-rule:evenodd"
       d="m 8,11 h 1 v 1 H 8 Z" />
    <path
       id="rect2-2-3540-2-25"
       style="display:inline;fill:#ffffff;fill-rule:evenodd"
       d="m 7,12 h 1 v 1 H 7 Z" />
    <path
       id="rect2-2-3540-2-24"
       style="display:inline;fill:#ffffff;fill-rule:evenodd"
       d="m 6,12 h 1 v 1 H 6 Z" />
    <path
       id="rect2-2-3540-2-71"
       style="display:inline;fill:#ffffff;fill-rule:evenodd"
       d="m 5,12 h 1 v 1 H 5 Z" />
    <path
       id="rect2-2-3540-2-85"
       style="display:inline;fill:#ffffff;fill-rule:evenodd"
       d="M 6,8 H 7 V 9 H 6 Z" />
    <path
       id="rect2-2-3540-2-76"
       style="display:inline;fill:#ffffff;fill-rule:evenodd"
       d="m 6,9 h 1 v 1 H 6 Z" />
    <path
       id="rect2-2-3540-2-80"
       style="display:inline;fill:#ffffff;fill-rule:evenodd"
       d="m 7,9 h 1 v 1 H 7 Z" />
    <path
       id="rect2-2-3540-2-35"
       style="display:inline;fill:#ffffff;fill-rule:evenodd"
       d="m 0,10 h 1 v 1 H 0 Z" />
    <path
       id="rect2-2-3540-2-15"
       style="display:inline;fill:#ffffff;fill-rule:evenodd"
       d="M 0,5 H 1 V 6 H 0 Z" />
    <path
       id="rect2-2-3540-2-56"
       style="display:inline;fill:#ffffff;fill-rule:evenodd"
       d="M 0,6 H 1 V 7 H 0 Z" />
    <path
       id="rect2-2-3540-2-07"
       style="display:inline;fill:#ffffff;fill-rule:evenodd"
       d="M 0,7 H 1 V 8 H 0 Z" />
    <path
       id="rect2-2-3540-2-61"
       style="display:inline;fill:#ffffff;fill-rule:evenodd"
       d="M 0,8 H 1 V 9 H 0 Z" />
    <path
       id="rect2-2-3540-2-50"
       style="display:inline;fill:#ffffff;fill-rule:evenodd"
       d="m 0,9 h 1 v 1 H 0 Z" />
    <path
       id="rect2-2-3540-2-26"
       style="display:inline;fill:#ffffff;fill-rule:evenodd"
       d="M 1,4 H 2 V 5 H 1 Z" />
    <path
       id="rect2-2-3540-2-42"
       style="display:inline;fill:#ffffff;fill-rule:evenodd"
       d="M 1,3 H 2 V 4 H 1 Z" />
    <path
       id="rect2-2-3540-2-32"
       style="display:inline;fill:#ffffff;fill-rule:evenodd"
       d="M 2,2 H 3 V 3 H 2 Z" />
    <path
       id="rect2-2-3540-2-70"
       style="display:inline;fill:#ffffff;fill-rule:evenodd"
       d="M 4,1 H 5 V 2 H 4 Z" />
    <path
       id="rect2-2-3540-2-92"
       style="display:inline;fill:#ffffff;fill-rule:evenodd"
       d="M 3,1 H 4 V 2 H 3 Z" />
    <path
       id="rect2-2-3540-2-52"
       style="display:inline;fill:#ffffff;fill-rule:evenodd"
       d="m 10,15 h 1 v 1 h -1 z" />
    <path
       id="rect2-2-3540-2-86"
       style="display:inline;fill:#ffffff;fill-rule:evenodd"
       d="m 9,15 h 1 v 1 H 9 Z" />
    <path
       id="rect2-2-3540-2-223"
       style="display:inline;fill:#ffffff;fill-rule:evenodd"
       d="m 8,15 h 1 v 1 H 8 Z" />
    <path
       id="rect2-2-3540-2-422"
       style="display:inline;fill:#ffffff;fill-rule:evenodd"
       d="m 7,15 h 1 v 1 H 7 Z" />
    <path
       id="rect2-2-3540-2-75"
       style="display:inline;fill:#ffffff;fill-rule:evenodd"
       d="m 6,15 h 1 v 1 H 6 Z" />
    <path
       id="rect2-2-3540-2-98"
       style="display:inline;fill:#ffffff;fill-rule:evenodd"
       d="m 5,15 h 1 v 1 H 5 Z" />
    <path
       id="rect2-2-3540-2-379"
       style="display:inline;fill:#ffffff;fill-rule:evenodd"
       d="m 11,14 h 1 v 1 h -1 z" />
    <path
       id="rect2-2-3540-2-04"
       style="display:inline;fill:#ffffff;fill-rule:evenodd"
       d="m 12,14 h 1 v 1 h -1 z" />
    <path
       id="rect2-2-3540-2-16"
       style="display:inline;fill:#ffffff;fill-rule:evenodd"
       d="m 13,13 h 1 v 1 h -1 z" />
    <path
       id="rect2-2-3540-2-199"
       style="display:inline;fill:#ffffff;fill-rule:evenodd"
       d="m 14,12 h 1 v 1 h -1 z" />
    <path
       id="rect2-2-3540-2-49"
       style="display:inline;fill:#ffffff;fill-rule:evenodd"
       d="m 14,11 h 1 v 1 h -1 z" />
    <path
       id="rect2-2-3540-2-93"
       style="display:inline;fill:#ffffff;fill-rule:evenodd"
       d="m 15,5 h 1 v 1 h -1 z" />
    <path
       id="rect2-2-3540-2-96"
       style="display:inline;fill:#ffffff;fill-rule:evenodd"
       d="m 15,6 h 1 v 1 h -1 z" />
    <path
       id="rect2-2-3540-2-712"
       style="display:inline;fill:#ffffff;fill-rule:evenodd"
       d="m 15,7 h 1 v 1 h -1 z" />
    <path
       id="rect2-2-3540-2-090"
       style="display:inline;fill:#ffffff;fill-rule:evenodd"
       d="m 15,8 h 1 v 1 h -1 z" />
    <path
       id="rect2-2-3540-2-374"
       style="display:inline;fill:#ffffff;fill-rule:evenodd"
       d="m 15,9 h 1 v 1 h -1 z" />
    <path
       id="rect2-2-3540-2-03"
       style="display:inline;fill:#ffffff;fill-rule:evenodd"
       d="m 15,10 h 1 v 1 h -1 z" />
    <path
       id="rect2-2-3540-2-565"
       style="display:inline;fill:#ffffff;fill-rule:evenodd"
       d="m 14,4 h 1 v 1 h -1 z" />
    <path
       id="rect2-2-3540-2-172"
       style="display:inline;fill:#ffffff;fill-rule:evenodd"
       d="m 14,3 h 1 v 1 h -1 z" />
    <path
       id="rect2-2-3540-2-57"
       style="display:inline;fill:#ffffff;fill-rule:evenodd"
       d="m 13,2 h 1 v 1 h -1 z" />
    <path
       id="rect2-2-3540-2-27"
       style="display:inline;fill:#ffffff;fill-rule:evenodd"
       d="m 12,1 h 1 v 1 h -1 z" />
    <path
       id="rect2-2-3540-2-79"
       style="display:inline;fill:#ffffff;fill-rule:evenodd"
       d="m 11,1 h 1 v 1 h -1 z" />
    <path
       id="rect2-2-3540-2-163"
       style="display:inline;fill:#ffffff;fill-rule:evenodd"
       d="m 10,0 h 1 v 1 h -1 z" />
    <path
       id="rect2-2-3540-2-5650"
       style="display:inline;fill:#ffffff;fill-rule:evenodd"
       d="m 9,0 h 1 V 1 H 9 Z" />
    <path
       id="rect2-2-3540-2-66"
       style="display:inline;fill:#ffffff;fill-rule:evenodd"
       d="M 8,0 H 9 V 1 H 8 Z" />
    <path
       id="rect2-2-3540-2-89"
       style="display:inline;fill:#ffffff;fill-rule:evenodd"
       d="M 7,0 H 8 V 1 H 7 Z" />
    <path
       id="rect2-2-3540-2-083"
       style="display:inline;fill:#ffffff;fill-rule:evenodd"
       d="M 6,0 H 7 V 1 H 6 Z" />
    <path
       id="rect2-2-3540-2-10"
       style="display:inline;fill:#ffffff;fill-rule:evenodd"
       d="M 5,0 H 6 V 1 H 5 Z" />
  </g>
</svg>
