<?xml version="1.0" encoding="UTF-8" standalone="no"?>
<!-- Created with Inkscape (http://www.inkscape.org/) -->

<svg
   width="16"
   height="16"
   viewBox="0 0 16 16"
   version="1.1"
   id="svg1"
   inkscape:version="1.3.2 (091e20ef0f, 2023-11-25)"
   sodipodi:docname="org.gnome.Terminal.svg"
   xml:space="preserve"
   xmlns:inkscape="http://www.inkscape.org/namespaces/inkscape"
   xmlns:sodipodi="http://sodipodi.sourceforge.net/DTD/sodipodi-0.dtd"
   xmlns="http://www.w3.org/2000/svg"
   xmlns:svg="http://www.w3.org/2000/svg"><sodipodi:namedview
     id="namedview1"
     pagecolor="#0adc11"
     bordercolor="#000000"
     borderopacity="0.25"
     inkscape:showpageshadow="2"
     inkscape:pageopacity="0.0"
     inkscape:pagecheckerboard="0"
     inkscape:deskcolor="#d1d1d1"
     inkscape:document-units="px"
     showgrid="true"
     inkscape:zoom="32"
     inkscape:cx="7.140625"
     inkscape:cy="10.25"
     inkscape:window-width="1390"
     inkscape:window-height="1392"
     inkscape:window-x="0"
     inkscape:window-y="0"
     inkscape:window-maximized="0"
     inkscape:current-layer="layer19"><inkscape:grid
       id="grid1"
       units="px"
       originx="0"
       originy="0"
       spacingx="1"
       spacingy="1"
       empcolor="#0099e5"
       empopacity="0.30196078"
       color="#0099e5"
       opacity="0.14901961"
       empspacing="1"
       dotted="false"
       gridanglex="30"
       gridanglez="30"
       visible="true" /></sodipodi:namedview><defs
     id="defs1" /><g
     inkscape:label="Visibility"
     inkscape:groupmode="layer"
     id="layer1"
     style="display:none"><rect
       style="display:inline;fill:#00ffff;fill-rule:evenodd;stroke:none"
       id="rect3"
       width="16"
       height="16"
       x="0"
       y="0" /></g><g
     inkscape:groupmode="layer"
     id="layer19"
     inkscape:label="utilities terminal"><path
       id="path48-14"
       style="display:inline;fill:#ffffff;fill-rule:evenodd"
       d="M 4,2 H 3 V 1 h 1 z" /><path
       id="path48-14-8"
       style="display:inline;fill:#ffffff;fill-rule:evenodd"
       d="M 4,3 H 3 V 2 h 1 z" /><path
       id="path48-14-0"
       style="display:inline;fill:#ffffff;fill-rule:evenodd"
       d="M 4,4 H 3 V 3 h 1 z" /><path
       id="path48-14-9"
       style="display:inline;fill:#ffffff;fill-rule:evenodd"
       d="M 4,5 H 3 V 4 h 1 z" /><path
       id="path48-14-5"
       style="display:inline;fill:#ffffff;fill-rule:evenodd"
       d="M 4,6 H 3 V 5 h 1 z" /><path
       id="path48-14-1"
       style="display:inline;fill:#ffffff;fill-rule:evenodd"
       d="M 4,7 H 3 V 6 h 1 z" /><path
       id="path48-14-7"
       style="display:inline;fill:#ffffff;fill-rule:evenodd"
       d="M 4,8 H 3 V 7 h 1 z" /><path
       id="path48-14-92"
       style="display:inline;fill:#ffffff;fill-rule:evenodd"
       d="M 4,9 H 3 V 8 h 1 z" /><path
       id="path48-14-50"
       style="display:inline;fill:#ffffff;fill-rule:evenodd"
       d="M 4,10 H 3 V 9 h 1 z" /><path
       id="path48-14-01"
       style="display:inline;fill:#ffffff;fill-rule:evenodd"
       d="M 6,3 H 5 V 2 h 1 z" /><path
       id="path48-14-71"
       style="display:inline;fill:#ffffff;fill-rule:evenodd"
       d="M 2,5 H 1 V 4 h 1 z" /><path
       id="path48-14-138"
       style="display:inline;fill:#ffffff;fill-rule:evenodd"
       d="M 6,8 H 5 V 7 h 1 z" /><path
       id="path48-14-6"
       style="display:inline;fill:#ffffff;fill-rule:evenodd"
       d="M 5,3 H 4 V 2 h 1 z" /><path
       id="path48-14-3"
       style="display:inline;fill:#ffffff;fill-rule:evenodd"
       d="M 3,3 H 2 V 2 h 1 z" /><path
       id="path48-14-20"
       style="display:inline;fill:#ffffff;fill-rule:evenodd"
       d="M 2,4 H 1 V 3 h 1 z" /><path
       id="path48-14-19"
       style="display:inline;fill:#ffffff;fill-rule:evenodd"
       d="M 3,6 H 2 V 5 h 1 z" /><path
       id="path48-14-382"
       style="display:inline;fill:#ffffff;fill-rule:evenodd"
       d="M 5,6 H 4 V 5 h 1 z" /><path
       id="path48-14-73"
       style="display:inline;fill:#ffffff;fill-rule:evenodd"
       d="M 6,7 H 5 V 6 h 1 z" /><path
       id="path48-14-942"
       style="display:inline;fill:#ffffff;fill-rule:evenodd"
       d="M 5,9 H 4 V 8 h 1 z" /><path
       id="path48-14-08"
       style="display:inline;fill:#ffffff;fill-rule:evenodd"
       d="M 3,9 H 2 V 8 h 1 z" /><path
       id="path48-14-55"
       style="display:inline;fill:#ffffff;fill-rule:evenodd"
       d="M 2,9 H 1 V 8 h 1 z" /><path
       id="path48-14-4"
       style="display:inline;fill:#ffffff;fill-rule:evenodd"
       d="M 8,10 H 7 V 9 h 1 z" /><path
       id="path48-14-98"
       style="display:inline;fill:#ffffff;fill-rule:evenodd"
       d="M 9,10 H 8 V 9 h 1 z" /><path
       id="path48-14-2"
       style="display:inline;fill:#ffffff;fill-rule:evenodd"
       d="M 10,10 H 9 V 9 h 1 z" /><path
       id="path48-14-30"
       style="display:inline;fill:#ffffff;fill-rule:evenodd"
       d="M 11,10 H 10 V 9 h 1 z" /><path
       id="path48-14-91"
       style="display:inline;fill:#ffffff;fill-rule:evenodd"
       d="M 12,10 H 11 V 9 h 1 z" /></g></svg>
