<?xml version="1.0" encoding="UTF-8" standalone="no"?>
<!-- Created with Inkscape (http://www.inkscape.org/) -->

<svg
   width="16"
   height="16"
   viewBox="0 0 16 16"
   version="1.1"
   id="svg1"
   inkscape:version="1.3.2 (091e20ef0f, 2023-11-25)"
   sodipodi:docname="preferences-system.svg"
   xml:space="preserve"
   xmlns:inkscape="http://www.inkscape.org/namespaces/inkscape"
   xmlns:sodipodi="http://sodipodi.sourceforge.net/DTD/sodipodi-0.dtd"
   xmlns="http://www.w3.org/2000/svg"
   xmlns:svg="http://www.w3.org/2000/svg"><sodipodi:namedview
     id="namedview1"
     pagecolor="#ffffff"
     bordercolor="#000000"
     borderopacity="0.25"
     inkscape:showpageshadow="2"
     inkscape:pageopacity="0.0"
     inkscape:pagecheckerboard="0"
     inkscape:deskcolor="#d1d1d1"
     inkscape:document-units="px"
     showgrid="true"
     inkscape:zoom="32"
     inkscape:cx="7.15625"
     inkscape:cy="10.25"
     inkscape:window-width="1390"
     inkscape:window-height="1392"
     inkscape:window-x="0"
     inkscape:window-y="0"
     inkscape:window-maximized="0"
     inkscape:current-layer="layer18"><inkscape:grid
       id="grid1"
       units="px"
       originx="0"
       originy="0"
       spacingx="1"
       spacingy="1"
       empcolor="#0099e5"
       empopacity="0.30196078"
       color="#0099e5"
       opacity="0.14901961"
       empspacing="1"
       dotted="false"
       gridanglex="30"
       gridanglez="30"
       visible="true" /></sodipodi:namedview><defs
     id="defs1" /><g
     inkscape:label="Visibility"
     inkscape:groupmode="layer"
     id="layer1"
     style="display:none"><rect
       style="display:inline;fill:#00ffff;fill-rule:evenodd;stroke:none"
       id="rect3"
       width="16"
       height="16"
       x="0"
       y="0" /></g><g
     inkscape:groupmode="layer"
     id="layer18"
     inkscape:label="system preferences"><path
       id="path48-14"
       style="display:inline;fill:#ffffff;fill-rule:evenodd"
       d="M 15,8 H 14 V 7 h 1 z" /><path
       id="path48-14-9"
       style="display:inline;fill:#ffffff;fill-rule:evenodd"
       d="M 15,9 H 14 V 8 h 1 z" /><path
       id="path48-14-2"
       style="display:inline;fill:#ffffff;fill-rule:evenodd"
       d="M 2,8 H 1 V 7 h 1 z" /><path
       id="path48-14-1"
       style="display:inline;fill:#ffffff;fill-rule:evenodd"
       d="M 2,9 H 1 V 8 h 1 z" /><path
       id="path48-14-10"
       style="display:inline;fill:#ffffff;fill-rule:evenodd"
       d="M 3,7 H 2 V 6 h 1 z" /><path
       id="path48-14-99"
       style="display:inline;fill:#ffffff;fill-rule:evenodd"
       d="M 4,6 H 3 V 5 h 1 z" /><path
       id="path48-14-4"
       style="display:inline;fill:#ffffff;fill-rule:evenodd"
       d="M 4,5 H 3 V 4 h 1 z" /><path
       id="path48-14-93"
       style="display:inline;fill:#ffffff;fill-rule:evenodd"
       d="M 4,4 H 3 V 3 h 1 z" /><path
       id="path48-14-27"
       style="display:inline;fill:#ffffff;fill-rule:evenodd"
       d="M 5,4 H 4 V 3 h 1 z" /><path
       id="path48-14-8"
       style="display:inline;fill:#ffffff;fill-rule:evenodd"
       d="M 6,4 H 5 V 3 h 1 z" /><path
       id="path48-14-49"
       style="display:inline;fill:#ffffff;fill-rule:evenodd"
       d="M 7,3 H 6 V 2 h 1 z" /><path
       id="path48-14-83"
       style="display:inline;fill:#ffffff;fill-rule:evenodd"
       d="M 8,2 H 7 V 1 h 1 z" /><path
       id="path48-14-12"
       style="display:inline;fill:#ffffff;fill-rule:evenodd"
       d="M 9,2 H 8 V 1 h 1 z" /><path
       id="path48-14-43"
       style="display:inline;fill:#ffffff;fill-rule:evenodd"
       d="M 10,3 H 9 V 2 h 1 z" /><path
       id="path48-14-3"
       style="display:inline;fill:#ffffff;fill-rule:evenodd"
       d="M 11,4 H 10 V 3 h 1 z" /><path
       id="path48-14-6"
       style="display:inline;fill:#ffffff;fill-rule:evenodd"
       d="M 12,4 H 11 V 3 h 1 z" /><path
       id="path48-14-64"
       style="display:inline;fill:#ffffff;fill-rule:evenodd"
       d="M 13,4 H 12 V 3 h 1 z" /><path
       id="path48-14-20"
       style="display:inline;fill:#ffffff;fill-rule:evenodd"
       d="M 13,5 H 12 V 4 h 1 z" /><path
       id="path48-14-60"
       style="display:inline;fill:#ffffff;fill-rule:evenodd"
       d="M 13,6 H 12 V 5 h 1 z" /><path
       id="path48-14-25"
       style="display:inline;fill:#ffffff;fill-rule:evenodd"
       d="M 14,7 H 13 V 6 h 1 z" /><path
       id="path48-14-21"
       style="display:inline;fill:#ffffff;fill-rule:evenodd"
       d="M 14,10 H 13 V 9 h 1 z" /><path
       id="path48-14-7"
       style="display:inline;fill:#ffffff;fill-rule:evenodd"
       d="m 13,11 h -1 v -1 h 1 z" /><path
       id="path48-14-40"
       style="display:inline;fill:#ffffff;fill-rule:evenodd"
       d="m 13,12 h -1 v -1 h 1 z" /><path
       id="path48-14-74"
       style="display:inline;fill:#ffffff;fill-rule:evenodd"
       d="m 13,13 h -1 v -1 h 1 z" /><path
       id="path48-14-23"
       style="display:inline;fill:#ffffff;fill-rule:evenodd"
       d="m 12,13 h -1 v -1 h 1 z" /><path
       id="path48-14-67"
       style="display:inline;fill:#ffffff;fill-rule:evenodd"
       d="m 11,13 h -1 v -1 h 1 z" /><path
       id="path48-14-71"
       style="display:inline;fill:#ffffff;fill-rule:evenodd"
       d="M 10,14 H 9 v -1 h 1 z" /><path
       id="path48-14-29"
       style="display:inline;fill:#ffffff;fill-rule:evenodd"
       d="M 9,15 H 8 v -1 h 1 z" /><path
       id="path48-14-5"
       style="display:inline;fill:#ffffff;fill-rule:evenodd"
       d="M 8,15 H 7 v -1 h 1 z" /><path
       id="path48-14-73"
       style="display:inline;fill:#ffffff;fill-rule:evenodd"
       d="M 7,14 H 6 v -1 h 1 z" /><path
       id="path48-14-62"
       style="display:inline;fill:#ffffff;fill-rule:evenodd"
       d="M 6,13 H 5 v -1 h 1 z" /><path
       id="path48-14-0"
       style="display:inline;fill:#ffffff;fill-rule:evenodd"
       d="M 5,13 H 4 v -1 h 1 z" /><path
       id="path48-14-270"
       style="display:inline;fill:#ffffff;fill-rule:evenodd"
       d="M 4,13 H 3 v -1 h 1 z" /><path
       id="path48-14-217"
       style="display:inline;fill:#ffffff;fill-rule:evenodd"
       d="M 4,12 H 3 v -1 h 1 z" /><path
       id="path48-14-75"
       style="display:inline;fill:#ffffff;fill-rule:evenodd"
       d="M 4,11 H 3 v -1 h 1 z" /><path
       id="path48-14-76"
       style="display:inline;fill:#ffffff;fill-rule:evenodd"
       d="M 3,10 H 2 V 9 h 1 z" /><path
       id="path48-14-15"
       style="display:inline;fill:#ffffff;fill-rule:evenodd"
       d="M 8,7 H 7 V 6 h 1 z" /><path
       id="path48-14-96"
       style="display:inline;fill:#ffffff;fill-rule:evenodd"
       d="M 9,7 H 8 V 6 h 1 z" /><path
       id="path48-14-19"
       style="display:inline;fill:#ffffff;fill-rule:evenodd"
       d="M 10,8 H 9 V 7 h 1 z" /><path
       id="path48-14-16"
       style="display:inline;fill:#ffffff;fill-rule:evenodd"
       d="M 10,9 H 9 V 8 h 1 z" /><path
       id="path48-14-51"
       style="display:inline;fill:#ffffff;fill-rule:evenodd"
       d="M 9,10 H 8 V 9 h 1 z" /><path
       id="path48-14-152"
       style="display:inline;fill:#ffffff;fill-rule:evenodd"
       d="M 8,10 H 7 V 9 h 1 z" /><path
       id="path48-14-734"
       style="display:inline;fill:#ffffff;fill-rule:evenodd"
       d="M 7,9 H 6 V 8 h 1 z" /><path
       id="path48-14-715"
       style="display:inline;fill:#ffffff;fill-rule:evenodd"
       d="M 7,8 H 6 V 7 h 1 z" /></g></svg>
