<?xml version="1.0" encoding="UTF-8" standalone="no"?>
<!-- Created with Inkscape (http://www.inkscape.org/) -->

<svg
   width="16"
   height="16"
   viewBox="0 0 16 16"
   version="1.1"
   id="svg1"
   inkscape:version="1.3.2 (091e20ef0f, 2023-11-25)"
   sodipodi:docname="python.svg"
   xml:space="preserve"
   xmlns:inkscape="http://www.inkscape.org/namespaces/inkscape"
   xmlns:sodipodi="http://sodipodi.sourceforge.net/DTD/sodipodi-0.dtd"
   xmlns="http://www.w3.org/2000/svg"
   xmlns:svg="http://www.w3.org/2000/svg"><sodipodi:namedview
     id="namedview1"
     pagecolor="#ffffff"
     bordercolor="#000000"
     borderopacity="0.25"
     inkscape:showpageshadow="2"
     inkscape:pageopacity="0.0"
     inkscape:pagecheckerboard="0"
     inkscape:deskcolor="#d1d1d1"
     inkscape:document-units="px"
     showgrid="true"
     inkscape:zoom="32"
     inkscape:cx="10.4375"
     inkscape:cy="10.34375"
     inkscape:window-width="1390"
     inkscape:window-height="1392"
     inkscape:window-x="0"
     inkscape:window-y="0"
     inkscape:window-maximized="0"
     inkscape:current-layer="g67"><inkscape:grid
       id="grid1"
       units="px"
       originx="0"
       originy="0"
       spacingx="1"
       spacingy="1"
       empcolor="#0099e5"
       empopacity="0.30196078"
       color="#0099e5"
       opacity="0.14901961"
       empspacing="1"
       dotted="false"
       gridanglex="30"
       gridanglez="30"
       visible="true" /></sodipodi:namedview><defs
     id="defs1" /><g
     inkscape:label="Visibility"
     inkscape:groupmode="layer"
     id="layer1"
     style="display:none"><rect
       style="display:inline;fill:#00ffff;fill-rule:evenodd;stroke:none"
       id="rect3"
       width="16"
       height="16"
       x="0"
       y="0" /></g><g
     inkscape:groupmode="layer"
     id="layer8"
     inkscape:label="python 1"
     style="display:inline"><path
       id="rect2-2-3540-2-8-5-7-81"
       style="display:inline;fill:#ffffff;fill-rule:evenodd"
       d="M 5,2 H 6 V 3 H 5 Z" /><path
       id="rect2-2-3540-2-8-5-7-81-5"
       style="display:inline;fill:#ffffff;fill-rule:evenodd"
       d="M 6,2 H 7 V 3 H 6 Z" /><path
       id="rect2-2-3540-2-8-5-7-81-1"
       style="display:inline;fill:#ffffff;fill-rule:evenodd"
       d="M 7,2 H 8 V 3 H 7 Z" /><path
       id="rect2-2-3540-2-8-5-7-81-58"
       style="display:inline;fill:#ffffff;fill-rule:evenodd"
       d="M 8,2 H 9 V 3 H 8 Z" /><path
       id="rect2-2-3540-2-8-5-7-81-3"
       style="display:inline;fill:#ffffff;fill-rule:evenodd"
       d="m 9,2 h 1 V 3 H 9 Z" /><path
       id="rect2-2-3540-2-8-5-7-81-11"
       style="display:inline;fill:#ffffff;fill-rule:evenodd"
       d="m 10,2 h 1 v 1 h -1 z" /><path
       id="rect2-2-3540-2-8-5-7-81-7"
       style="display:inline;fill:#ffffff;fill-rule:evenodd"
       d="m 11,2 h 1 v 1 h -1 z" /><path
       id="rect2-2-3540-2-8-5-7-81-6"
       style="display:inline;fill:#ffffff;fill-rule:evenodd"
       d="m 11,1 h 1 v 1 h -1 z" /><path
       id="rect2-2-3540-2-8-5-7-81-2"
       style="display:inline;fill:#ffffff;fill-rule:evenodd"
       d="m 10,0 h 1 v 1 h -1 z" /><path
       id="rect2-2-3540-2-8-5-7-81-39"
       style="display:inline;fill:#ffffff;fill-rule:evenodd"
       d="m 9,0 h 1 V 1 H 9 Z" /><path
       id="rect2-2-3540-2-8-5-7-81-18"
       style="display:inline;fill:#ffffff;fill-rule:evenodd"
       d="M 8,0 H 9 V 1 H 8 Z" /><path
       id="rect2-2-3540-2-8-5-7-81-0"
       style="display:inline;fill:#ffffff;fill-rule:evenodd"
       d="M 7,0 H 8 V 1 H 7 Z" /><path
       id="rect2-2-3540-2-8-5-7-81-07"
       style="display:inline;fill:#ffffff;fill-rule:evenodd"
       d="M 6,0 H 7 V 1 H 6 Z" /><path
       id="rect2-2-3540-2-8-5-7-81-071"
       style="display:inline;fill:#ffffff;fill-rule:evenodd"
       d="M 5,1 H 6 V 2 H 5 Z" /><path
       id="rect2-2-3540-2-8-5-7-81-59"
       style="display:inline;fill:#ffffff;fill-rule:evenodd"
       d="M 7,1 H 8 V 2 H 7 Z" /><path
       id="rect2-2-3540-2-8-5-7-81-53"
       style="display:inline;fill:#ffffff;fill-rule:evenodd"
       d="M 8,1 H 9 V 2 H 8 Z" /><path
       id="rect2-2-3540-2-8-5-7-81-73"
       style="display:inline;fill:#ffffff;fill-rule:evenodd"
       d="m 9,1 h 1 V 2 H 9 Z" /><path
       id="rect2-2-3540-2-8-5-7-81-55"
       style="display:inline;fill:#ffffff;fill-rule:evenodd"
       d="m 10,1 h 1 v 1 h -1 z" /><path
       id="rect2-2-3540-2-8-5-7-81-25"
       style="display:inline;fill:#ffffff;fill-rule:evenodd"
       d="M 8,3 H 9 V 4 H 8 Z" /><path
       id="rect2-2-3540-2-8-5-7-81-551"
       style="display:inline;fill:#ffffff;fill-rule:evenodd"
       d="m 9,3 h 1 V 4 H 9 Z" /><path
       id="rect2-2-3540-2-8-5-7-81-68"
       style="display:inline;fill:#ffffff;fill-rule:evenodd"
       d="m 10,3 h 1 v 1 h -1 z" /><path
       id="rect2-2-3540-2-8-5-7-81-733"
       style="display:inline;fill:#ffffff;fill-rule:evenodd"
       d="m 11,3 h 1 v 1 h -1 z" /><path
       id="rect2-2-3540-2-8-5-7-81-8"
       style="display:inline;fill:#ffffff;fill-rule:evenodd"
       d="m 10,4 h 1 v 1 h -1 z" /><path
       id="rect2-2-3540-2-8-5-7-81-64"
       style="display:inline;fill:#ffffff;fill-rule:evenodd"
       d="m 9,4 h 1 V 5 H 9 Z" /><path
       id="rect2-2-3540-2-8-5-7-81-09"
       style="display:inline;fill:#ffffff;fill-rule:evenodd"
       d="M 8,4 H 9 V 5 H 8 Z" /><path
       id="rect2-2-3540-2-8-5-7-81-4"
       style="display:inline;fill:#ffffff;fill-rule:evenodd"
       d="M 7,4 H 8 V 5 H 7 Z" /><path
       id="rect2-2-3540-2-8-5-7-81-65"
       style="display:inline;fill:#ffffff;fill-rule:evenodd"
       d="M 6,4 H 7 V 5 H 6 Z" /><path
       id="rect2-2-3540-2-8-5-7-81-52"
       style="display:inline;fill:#ffffff;fill-rule:evenodd"
       d="M 5,4 H 6 V 5 H 5 Z" /><path
       id="rect2-2-3540-2-8-5-7-81-00"
       style="display:inline;fill:#ffffff;fill-rule:evenodd"
       d="M 4,4 H 5 V 5 H 4 Z" /><path
       id="rect2-2-3540-2-8-5-7-81-258"
       style="display:inline;fill:#ffffff;fill-rule:evenodd"
       d="M 3,4 H 4 V 5 H 3 Z" /><path
       id="rect2-2-3540-2-8-5-7-81-03"
       style="display:inline;fill:#ffffff;fill-rule:evenodd"
       d="M 2,4 H 3 V 5 H 2 Z" /><path
       id="rect2-2-3540-2-8-5-7-81-66"
       style="display:inline;fill:#ffffff;fill-rule:evenodd"
       d="M 1,5 H 2 V 6 H 1 Z" /><path
       id="rect2-2-3540-2-8-5-7-81-31"
       style="display:inline;fill:#ffffff;fill-rule:evenodd"
       d="M 0,6 H 1 V 7 H 0 Z" /><path
       id="rect2-2-3540-2-8-5-7-81-110"
       style="display:inline;fill:#ffffff;fill-rule:evenodd"
       d="M 0,7 H 1 V 8 H 0 Z" /><path
       id="rect2-2-3540-2-8-5-7-81-57"
       style="display:inline;fill:#ffffff;fill-rule:evenodd"
       d="M 0,8 H 1 V 9 H 0 Z" /><path
       id="rect2-2-3540-2-8-5-7-81-15"
       style="display:inline;fill:#ffffff;fill-rule:evenodd"
       d="m 0,9 h 1 v 1 H 0 Z" /><path
       id="rect2-2-3540-2-8-5-7-81-19"
       style="display:inline;fill:#ffffff;fill-rule:evenodd"
       d="m 1,10 h 1 v 1 H 1 Z" /><path
       id="rect2-2-3540-2-8-5-7-81-9"
       style="display:inline;fill:#ffffff;fill-rule:evenodd"
       d="m 2,11 h 1 v 1 H 2 Z" /><path
       id="rect2-2-3540-2-8-5-7-81-98"
       style="display:inline;fill:#ffffff;fill-rule:evenodd"
       d="m 2,10 h 1 v 1 H 2 Z" /><path
       id="rect2-2-3540-2-8-5-7-81-13"
       style="display:inline;fill:#ffffff;fill-rule:evenodd"
       d="m 2,9 h 1 v 1 H 2 Z" /><path
       id="rect2-2-3540-2-8-5-7-81-92"
       style="display:inline;fill:#ffffff;fill-rule:evenodd"
       d="M 2,8 H 3 V 9 H 2 Z" /><path
       id="rect2-2-3540-2-8-5-7-81-397"
       style="display:inline;fill:#ffffff;fill-rule:evenodd"
       d="M 2,7 H 3 V 8 H 2 Z" /><path
       id="rect2-2-3540-2-8-5-7-81-33"
       style="display:inline;fill:#ffffff;fill-rule:evenodd"
       d="M 2,6 H 3 V 7 H 2 Z" /><path
       id="rect2-2-3540-2-8-5-7-81-71"
       style="display:inline;fill:#ffffff;fill-rule:evenodd"
       d="M 2,5 H 3 V 6 H 2 Z" /><path
       id="rect2-2-3540-2-8-5-7-81-21"
       style="display:inline;fill:#ffffff;fill-rule:evenodd"
       d="M 1,6 H 2 V 7 H 1 Z" /><path
       id="rect2-2-3540-2-8-5-7-81-45"
       style="display:inline;fill:#ffffff;fill-rule:evenodd"
       d="M 1,7 H 2 V 8 H 1 Z" /><path
       id="rect2-2-3540-2-8-5-7-81-90"
       style="display:inline;fill:#ffffff;fill-rule:evenodd"
       d="M 1,8 H 2 V 9 H 1 Z" /><path
       id="rect2-2-3540-2-8-5-7-81-905"
       style="display:inline;fill:#ffffff;fill-rule:evenodd"
       d="m 1,9 h 1 v 1 H 1 Z" /><path
       id="rect2-2-3540-2-8-5-7-81-10"
       style="display:inline;fill:#ffffff;fill-rule:evenodd"
       d="M 3,5 H 4 V 6 H 3 Z" /><path
       id="rect2-2-3540-2-8-5-7-81-24"
       style="display:inline;fill:#ffffff;fill-rule:evenodd"
       d="M 4,5 H 5 V 6 H 4 Z" /><path
       id="rect2-2-3540-2-8-5-7-81-56"
       style="display:inline;fill:#ffffff;fill-rule:evenodd"
       d="M 5,5 H 6 V 6 H 5 Z" /><path
       id="rect2-2-3540-2-8-5-7-81-74"
       style="display:inline;fill:#ffffff;fill-rule:evenodd"
       d="M 6,5 H 7 V 6 H 6 Z" /><path
       id="rect2-2-3540-2-8-5-7-81-634"
       style="display:inline;fill:#ffffff;fill-rule:evenodd"
       d="M 7,5 H 8 V 6 H 7 Z" /><path
       id="rect2-2-3540-2-8-5-7-81-981"
       style="display:inline;fill:#ffffff;fill-rule:evenodd"
       d="M 8,5 H 9 V 6 H 8 Z" /><path
       id="rect2-2-3540-2-8-5-7-81-985"
       style="display:inline;fill:#ffffff;fill-rule:evenodd"
       d="m 9,5 h 1 V 6 H 9 Z" /><path
       id="rect2-2-3540-2-8-5-7-81-0715"
       style="display:inline;fill:#ffffff;fill-rule:evenodd"
       d="m 10,5 h 1 v 1 h -1 z" /><path
       id="rect2-2-3540-2-8-5-7-81-49"
       style="display:inline;fill:#ffffff;fill-rule:evenodd"
       d="m 9,6 h 1 V 7 H 9 Z" /><path
       id="rect2-2-3540-2-8-5-7-81-72"
       style="display:inline;fill:#ffffff;fill-rule:evenodd"
       d="M 8,6 H 9 V 7 H 8 Z" /><path
       id="rect2-2-3540-2-8-5-7-81-62"
       style="display:inline;fill:#ffffff;fill-rule:evenodd"
       d="M 7,6 H 8 V 7 H 7 Z" /><path
       id="rect2-2-3540-2-8-5-7-81-89"
       style="display:inline;fill:#ffffff;fill-rule:evenodd"
       d="M 6,6 H 7 V 7 H 6 Z" /><path
       id="rect2-2-3540-2-8-5-7-81-554"
       style="display:inline;fill:#ffffff;fill-rule:evenodd"
       d="M 5,6 H 6 V 7 H 5 Z" /><path
       id="rect2-2-3540-2-8-5-7-81-97"
       style="display:inline;fill:#ffffff;fill-rule:evenodd"
       d="M 4,6 H 5 V 7 H 4 Z" /><path
       id="rect2-2-3540-2-8-5-7-81-35"
       style="display:inline;fill:#ffffff;fill-rule:evenodd"
       d="M 3,6 H 4 V 7 H 3 Z" /><path
       id="rect2-2-3540-2-8-5-7-81-51"
       style="display:inline;fill:#ffffff;fill-rule:evenodd"
       d="M 3,7 H 4 V 8 H 3 Z" /><path
       id="rect2-2-3540-2-8-5-7-81-906"
       style="display:inline;fill:#ffffff;fill-rule:evenodd"
       d="M 3,8 H 4 V 9 H 3 Z" /><path
       id="rect2-2-3540-2-8-5-7-81-76"
       style="display:inline;fill:#ffffff;fill-rule:evenodd"
       d="M 4,7 H 5 V 8 H 4 Z" /><path
       id="path48-55"
       style="display:inline;fill:#ffffff;fill-rule:evenodd"
       d="M 4,12 H 3 v -1 h 1 z" /><path
       id="path48-7"
       style="display:inline;fill:#ffffff;fill-rule:evenodd"
       d="M 4,11 H 3 v -1 h 1 z" /><path
       id="path48-37"
       style="display:inline;fill:#ffffff;fill-rule:evenodd"
       d="M 4,10 H 3 V 9 h 1 z" /><path
       id="path48-80"
       style="display:inline;fill:#ffffff;fill-rule:evenodd"
       d="M 11,9 H 10 V 8 h 1 z" /></g><g
     inkscape:groupmode="layer"
     id="g67"
     inkscape:label="python 2"
     transform="rotate(180,8,8)"><path
       id="path1"
       style="display:inline;fill:#ffffff;fill-rule:evenodd"
       d="M 5,2 H 6 V 3 H 5 Z" /><path
       id="path2"
       style="display:inline;fill:#ffffff;fill-rule:evenodd"
       d="M 6,2 H 7 V 3 H 6 Z" /><path
       id="path3"
       style="display:inline;fill:#ffffff;fill-rule:evenodd"
       d="M 7,2 H 8 V 3 H 7 Z" /><path
       id="path4"
       style="display:inline;fill:#ffffff;fill-rule:evenodd"
       d="M 8,2 H 9 V 3 H 8 Z" /><path
       id="path5"
       style="display:inline;fill:#ffffff;fill-rule:evenodd"
       d="m 9,2 h 1 V 3 H 9 Z" /><path
       id="path6"
       style="display:inline;fill:#ffffff;fill-rule:evenodd"
       d="m 10,2 h 1 v 1 h -1 z" /><path
       id="path7"
       style="display:inline;fill:#ffffff;fill-rule:evenodd"
       d="m 11,2 h 1 v 1 h -1 z" /><path
       id="path8"
       style="display:inline;fill:#ffffff;fill-rule:evenodd"
       d="m 11,1 h 1 v 1 h -1 z" /><path
       id="path9"
       style="display:inline;fill:#ffffff;fill-rule:evenodd"
       d="m 10,0 h 1 v 1 h -1 z" /><path
       id="path10"
       style="display:inline;fill:#ffffff;fill-rule:evenodd"
       d="m 9,0 h 1 V 1 H 9 Z" /><path
       id="path11"
       style="display:inline;fill:#ffffff;fill-rule:evenodd"
       d="M 8,0 H 9 V 1 H 8 Z" /><path
       id="path12"
       style="display:inline;fill:#ffffff;fill-rule:evenodd"
       d="M 7,0 H 8 V 1 H 7 Z" /><path
       id="path13"
       style="display:inline;fill:#ffffff;fill-rule:evenodd"
       d="M 6,0 H 7 V 1 H 6 Z" /><path
       id="path14"
       style="display:inline;fill:#ffffff;fill-rule:evenodd"
       d="M 5,1 H 6 V 2 H 5 Z" /><path
       id="path15"
       style="display:inline;fill:#ffffff;fill-rule:evenodd"
       d="M 7,1 H 8 V 2 H 7 Z" /><path
       id="path16"
       style="display:inline;fill:#ffffff;fill-rule:evenodd"
       d="M 8,1 H 9 V 2 H 8 Z" /><path
       id="path17"
       style="display:inline;fill:#ffffff;fill-rule:evenodd"
       d="m 9,1 h 1 V 2 H 9 Z" /><path
       id="path18"
       style="display:inline;fill:#ffffff;fill-rule:evenodd"
       d="m 10,1 h 1 v 1 h -1 z" /><path
       id="path19"
       style="display:inline;fill:#ffffff;fill-rule:evenodd"
       d="M 8,3 H 9 V 4 H 8 Z" /><path
       id="path20"
       style="display:inline;fill:#ffffff;fill-rule:evenodd"
       d="m 9,3 h 1 V 4 H 9 Z" /><path
       id="path21"
       style="display:inline;fill:#ffffff;fill-rule:evenodd"
       d="m 10,3 h 1 v 1 h -1 z" /><path
       id="path24"
       style="display:inline;fill:#ffffff;fill-rule:evenodd"
       d="m 9,4 h 1 V 5 H 9 Z" /><path
       id="path25"
       style="display:inline;fill:#ffffff;fill-rule:evenodd"
       d="M 8,4 H 9 V 5 H 8 Z" /><path
       id="path26"
       style="display:inline;fill:#ffffff;fill-rule:evenodd"
       d="M 7,4 H 8 V 5 H 7 Z" /><path
       id="path27"
       style="display:inline;fill:#ffffff;fill-rule:evenodd"
       d="M 6,4 H 7 V 5 H 6 Z" /><path
       id="path28"
       style="display:inline;fill:#ffffff;fill-rule:evenodd"
       d="M 5,4 H 6 V 5 H 5 Z" /><path
       id="path29"
       style="display:inline;fill:#ffffff;fill-rule:evenodd"
       d="M 4,4 H 5 V 5 H 4 Z" /><path
       id="path30"
       style="display:inline;fill:#ffffff;fill-rule:evenodd"
       d="M 3,4 H 4 V 5 H 3 Z" /><path
       id="path31"
       style="display:inline;fill:#ffffff;fill-rule:evenodd"
       d="M 2,4 H 3 V 5 H 2 Z" /><path
       id="path32"
       style="display:inline;fill:#ffffff;fill-rule:evenodd"
       d="M 1,5 H 2 V 6 H 1 Z" /><path
       id="path39"
       style="display:inline;fill:#ffffff;fill-rule:evenodd"
       d="m 2,10 h 1 v 1 H 2 Z" /><path
       id="path40"
       style="display:inline;fill:#ffffff;fill-rule:evenodd"
       d="m 2,9 h 1 v 1 H 2 Z" /><path
       id="path41"
       style="display:inline;fill:#ffffff;fill-rule:evenodd"
       d="M 2,8 H 3 V 9 H 2 Z" /><path
       id="path42"
       style="display:inline;fill:#ffffff;fill-rule:evenodd"
       d="M 2,7 H 3 V 8 H 2 Z" /><path
       id="path43"
       style="display:inline;fill:#ffffff;fill-rule:evenodd"
       d="M 2,6 H 3 V 7 H 2 Z" /><path
       id="path44"
       style="display:inline;fill:#ffffff;fill-rule:evenodd"
       d="M 2,5 H 3 V 6 H 2 Z" /><path
       id="path45"
       style="display:inline;fill:#ffffff;fill-rule:evenodd"
       d="M 1,6 H 2 V 7 H 1 Z" /><path
       id="path46"
       style="display:inline;fill:#ffffff;fill-rule:evenodd"
       d="M 1,7 H 2 V 8 H 1 Z" /><path
       id="path47"
       style="display:inline;fill:#ffffff;fill-rule:evenodd"
       d="M 1,8 H 2 V 9 H 1 Z" /><path
       id="path48"
       style="display:inline;fill:#ffffff;fill-rule:evenodd"
       d="m 1,9 h 1 v 1 H 1 Z" /><path
       id="path48-3"
       style="display:inline;fill:#ffffff;fill-rule:evenodd"
       d="m 3,9 h 1 v 1 H 3 Z" /><path
       id="path48-0"
       style="display:inline;fill:#ffffff;fill-rule:evenodd"
       d="m 3,10 h 1 v 1 H 3 Z" /><path
       id="path49"
       style="display:inline;fill:#ffffff;fill-rule:evenodd"
       d="M 3,5 H 4 V 6 H 3 Z" /><path
       id="path50"
       style="display:inline;fill:#ffffff;fill-rule:evenodd"
       d="M 4,5 H 5 V 6 H 4 Z" /><path
       id="path51"
       style="display:inline;fill:#ffffff;fill-rule:evenodd"
       d="M 5,5 H 6 V 6 H 5 Z" /><path
       id="path52"
       style="display:inline;fill:#ffffff;fill-rule:evenodd"
       d="M 6,5 H 7 V 6 H 6 Z" /><path
       id="path53"
       style="display:inline;fill:#ffffff;fill-rule:evenodd"
       d="M 7,5 H 8 V 6 H 7 Z" /><path
       id="path54"
       style="display:inline;fill:#ffffff;fill-rule:evenodd"
       d="M 8,5 H 9 V 6 H 8 Z" /><path
       id="path55"
       style="display:inline;fill:#ffffff;fill-rule:evenodd"
       d="m 9,5 h 1 V 6 H 9 Z" /><path
       id="path63"
       style="display:inline;fill:#ffffff;fill-rule:evenodd"
       d="M 4,6 H 5 V 7 H 4 Z" /><path
       id="path64"
       style="display:inline;fill:#ffffff;fill-rule:evenodd"
       d="M 3,6 H 4 V 7 H 3 Z" /><path
       id="path65"
       style="display:inline;fill:#ffffff;fill-rule:evenodd"
       d="M 3,7 H 4 V 8 H 3 Z" /><path
       id="path66"
       style="display:inline;fill:#ffffff;fill-rule:evenodd"
       d="M 3,8 H 4 V 9 H 3 Z" /><path
       id="path67"
       style="display:inline;fill:#ffffff;fill-rule:evenodd"
       d="M 4,7 H 5 V 8 H 4 Z" /><path
       id="path48-2"
       style="display:inline;fill:#ffffff;fill-rule:evenodd"
       d="m 10,4 h 1 v 1 h -1 z" /><path
       id="path48-9"
       style="display:inline;fill:#ffffff;fill-rule:evenodd"
       d="M 5,6 H 6 V 7 H 5 Z" /><path
       id="path48-5"
       style="display:inline;fill:#ffffff;fill-rule:evenodd"
       d="M 6,6 H 7 V 7 H 6 Z" /><path
       id="path48-4"
       style="display:inline;fill:#ffffff;fill-rule:evenodd"
       d="M 7,6 H 8 V 7 H 7 Z" /><path
       id="path48-93"
       style="display:inline;fill:#ffffff;fill-rule:evenodd"
       d="M 8,6 H 9 V 7 H 8 Z" /><path
       id="path48-48"
       style="display:inline;fill:#ffffff;fill-rule:evenodd"
       d="m 9,6 h 1 V 7 H 9 Z" /><path
       id="path48-29"
       style="display:inline;fill:#ffffff;fill-rule:evenodd"
       d="m 10,5 h 1 v 1 h -1 z" /><path
       id="path48-39"
       style="display:inline;fill:#ffffff;fill-rule:evenodd"
       d="M 0,8 H 1 V 9 H 0 Z" /><path
       id="path48-94"
       style="display:inline;fill:#ffffff;fill-rule:evenodd"
       d="M 0,7 H 1 V 8 H 0 Z" /><path
       id="path48-1"
       style="display:inline;fill:#ffffff;fill-rule:evenodd"
       d="M 0,6 H 1 V 7 H 0 Z" /><path
       id="path48-409"
       style="display:inline;fill:#ffffff;fill-rule:evenodd"
       d="m 3,11 h 1 v 1 H 3 Z" /><path
       id="path48-03"
       style="display:inline;fill:#ffffff;fill-rule:evenodd"
       d="m 2,11 h 1 v 1 H 2 Z" /><path
       id="path48-26"
       style="display:inline;fill:#ffffff;fill-rule:evenodd"
       d="m 1,10 h 1 v 1 H 1 Z" /><path
       id="path48-375"
       style="display:inline;fill:#ffffff;fill-rule:evenodd"
       d="m 0,9 h 1 v 1 H 0 Z" /><path
       id="path48-73"
       style="display:inline;fill:#ffffff;fill-rule:evenodd"
       d="m 11,7 h 1 v 1 h -1 z" /><path
       id="path48-99"
       style="display:inline;fill:#ffffff;fill-rule:evenodd"
       d="m 10,8 h 1 v 1 h -1 z" /><path
       id="path48-8"
       style="display:inline;fill:#ffffff;fill-rule:evenodd"
       d="m 11,3 h 1 v 1 h -1 z" /><path
       id="path48-83"
       style="display:inline;fill:#ffffff;fill-rule:evenodd"
       d="M 4,8 H 5 V 9 H 4 Z" /></g></svg>
