<?xml version="1.0" encoding="UTF-8" standalone="no"?>
<!-- Created with Inkscape (http://www.inkscape.org/) -->

<svg
   width="16"
   height="16"
   viewBox="0 0 16 16"
   version="1.1"
   id="svg1"
   inkscape:version="1.3.2 (091e20ef0f, 2023-11-25)"
   sodipodi:docname="selinux.svg"
   xmlns:inkscape="http://www.inkscape.org/namespaces/inkscape"
   xmlns:sodipodi="http://sodipodi.sourceforge.net/DTD/sodipodi-0.dtd"
   xmlns="http://www.w3.org/2000/svg"
   xmlns:svg="http://www.w3.org/2000/svg">
  <sodipodi:namedview
     id="namedview1"
     pagecolor="#1feb07"
     bordercolor="#000000"
     borderopacity="0.25"
     inkscape:showpageshadow="2"
     inkscape:pageopacity="0.0"
     inkscape:pagecheckerboard="0"
     inkscape:deskcolor="#d1d1d1"
     inkscape:document-units="px"
     showgrid="true"
     inkscape:zoom="32"
     inkscape:cx="8.171875"
     inkscape:cy="5.78125"
     inkscape:window-width="1390"
     inkscape:window-height="1392"
     inkscape:window-x="0"
     inkscape:window-y="0"
     inkscape:window-maximized="0"
     inkscape:current-layer="layer3">
    <inkscape:grid
       id="grid1"
       units="px"
       originx="0"
       originy="0"
       spacingx="1"
       spacingy="1"
       empcolor="#0099e5"
       empopacity="0.30196078"
       color="#0099e5"
       opacity="0.14901961"
       empspacing="1"
       dotted="false"
       gridanglex="30"
       gridanglez="30"
       visible="true" />
  </sodipodi:namedview>
  <defs
     id="defs1" />
  <g
     inkscape:groupmode="layer"
     id="layer3"
     inkscape:label="selinux">
    <path
       id="rect2-54"
       style="display:inline;fill:#ffffff;fill-rule:evenodd"
       d="M 2,8 H 3 V 9 H 2 Z" />
    <path
       id="rect2-54-3"
       style="display:inline;fill:#ffffff;fill-rule:evenodd"
       d="M 2,7 H 3 V 8 H 2 Z" />
    <path
       id="rect2-54-37"
       style="display:inline;fill:#ffffff;fill-rule:evenodd"
       d="M 3,7 H 4 V 8 H 3 Z" />
    <path
       id="rect2-54-7"
       style="display:inline;fill:#ffffff;fill-rule:evenodd"
       d="M 4,6 H 5 V 7 H 4 Z" />
    <path
       id="rect2-54-76"
       style="display:inline;fill:#ffffff;fill-rule:evenodd"
       d="M 5,5 H 6 V 6 H 5 Z" />
    <path
       id="rect2-54-6"
       style="display:inline;fill:#ffffff;fill-rule:evenodd"
       d="M 6,4 H 7 V 5 H 6 Z" />
    <path
       id="rect2-54-5"
       style="display:inline;fill:#ffffff;fill-rule:evenodd"
       d="M 7,4 H 8 V 5 H 7 Z" />
    <path
       id="rect2-54-9"
       style="display:inline;fill:#ffffff;fill-rule:evenodd"
       d="M 8,4 H 9 V 5 H 8 Z" />
    <path
       id="rect2-54-2"
       style="display:inline;fill:#ffffff;fill-rule:evenodd"
       d="m 9,5 h 1 V 6 H 9 Z" />
    <path
       id="rect2-54-1"
       style="display:inline;fill:#ffffff;fill-rule:evenodd"
       d="m 10,6 h 1 v 1 h -1 z" />
    <path
       id="rect2-54-63"
       style="display:inline;fill:#ffffff;fill-rule:evenodd"
       d="m 11,6 h 1 v 1 h -1 z" />
    <path
       id="rect2-54-38"
       style="display:inline;fill:#ffffff;fill-rule:evenodd"
       d="m 12,7 h 1 v 1 h -1 z" />
    <path
       id="rect2-54-0"
       style="display:inline;fill:#ffffff;fill-rule:evenodd"
       d="m 12,8 h 1 v 1 h -1 z" />
    <path
       id="rect2-54-31"
       style="display:inline;fill:#ffffff;fill-rule:evenodd"
       d="m 12,9 h 1 v 1 h -1 z" />
    <path
       id="rect2-54-79"
       style="display:inline;fill:#ffffff;fill-rule:evenodd"
       d="m 12,10 h 1 v 1 h -1 z" />
    <path
       id="rect2-54-59"
       style="display:inline;fill:#ffffff;fill-rule:evenodd"
       d="m 11,9 h 1 v 1 h -1 z" />
    <path
       id="rect2-54-69"
       style="display:inline;fill:#ffffff;fill-rule:evenodd"
       d="m 10,10 h 1 v 1 h -1 z" />
    <path
       id="rect2-54-30"
       style="display:inline;fill:#ffffff;fill-rule:evenodd"
       d="m 9,11 h 1 v 1 H 9 Z" />
    <path
       id="rect2-54-94"
       style="display:inline;fill:#ffffff;fill-rule:evenodd"
       d="m 8,11 h 1 v 1 H 8 Z" />
    <path
       id="rect2-54-942"
       style="display:inline;fill:#ffffff;fill-rule:evenodd"
       d="m 7,11 h 1 v 1 H 7 Z" />
    <path
       id="rect2-54-95"
       style="display:inline;fill:#ffffff;fill-rule:evenodd"
       d="m 6,11 h 1 v 1 H 6 Z" />
    <path
       id="rect2-54-4"
       style="display:inline;fill:#ffffff;fill-rule:evenodd"
       d="m 5,11 h 1 v 1 H 5 Z" />
    <path
       id="rect2-54-73"
       style="display:inline;fill:#ffffff;fill-rule:evenodd"
       d="m 4,10 h 1 v 1 H 4 Z" />
    <path
       id="rect2-54-44"
       style="display:inline;fill:#ffffff;fill-rule:evenodd"
       d="m 4,9 h 1 v 1 H 4 Z" />
    <path
       id="rect2-54-383"
       style="display:inline;fill:#ffffff;fill-rule:evenodd"
       d="m 3,9 h 1 v 1 H 3 Z" />
  </g>
</svg>
