<?xml version="1.0" encoding="UTF-8" standalone="no"?>
<!-- Created with Inkscape (http://www.inkscape.org/) -->

<svg
   width="16"
   height="16"
   viewBox="0 0 16 16"
   version="1.1"
   id="svg1"
   inkscape:version="1.3.2 (091e20ef0f, 2023-11-25)"
   sodipodi:docname="steam.svg"
   xml:space="preserve"
   xmlns:inkscape="http://www.inkscape.org/namespaces/inkscape"
   xmlns:sodipodi="http://sodipodi.sourceforge.net/DTD/sodipodi-0.dtd"
   xmlns="http://www.w3.org/2000/svg"
   xmlns:svg="http://www.w3.org/2000/svg"><sodipodi:namedview
     id="namedview1"
     pagecolor="#ffffff"
     bordercolor="#000000"
     borderopacity="0.25"
     inkscape:showpageshadow="2"
     inkscape:pageopacity="0.0"
     inkscape:pagecheckerboard="0"
     inkscape:deskcolor="#d1d1d1"
     inkscape:document-units="px"
     showgrid="true"
     inkscape:zoom="32"
     inkscape:cx="4.9375"
     inkscape:cy="10.1875"
     inkscape:window-width="1390"
     inkscape:window-height="1392"
     inkscape:window-x="0"
     inkscape:window-y="0"
     inkscape:window-maximized="0"
     inkscape:current-layer="layer10"><inkscape:grid
       id="grid1"
       units="px"
       originx="0"
       originy="0"
       spacingx="1"
       spacingy="1"
       empcolor="#0099e5"
       empopacity="0.30196078"
       color="#0099e5"
       opacity="0.14901961"
       empspacing="1"
       dotted="false"
       gridanglex="30"
       gridanglez="30"
       visible="true" /></sodipodi:namedview><defs
     id="defs1" /><g
     inkscape:label="Visibility"
     inkscape:groupmode="layer"
     id="layer1"
     style="display:none"><rect
       style="display:inline;fill:#00ffff;fill-rule:evenodd;stroke:none"
       id="rect3"
       width="16"
       height="16"
       x="0"
       y="0" /></g><g
     inkscape:groupmode="layer"
     id="layer10"
     inkscape:label="steam"><path
       id="path48"
       style="display:inline;fill:#ffffff;fill-rule:evenodd"
       d="M 7,2 H 6 V 1 h 1 z" /><path
       id="path48-7"
       style="display:inline;fill:#ffffff;fill-rule:evenodd"
       d="M 8,2 H 7 V 1 h 1 z" /><path
       id="path48-9"
       style="display:inline;fill:#ffffff;fill-rule:evenodd"
       d="M 9,2 H 8 V 1 h 1 z" /><path
       id="path48-78"
       style="display:inline;fill:#ffffff;fill-rule:evenodd"
       d="M 10,2 H 9 V 1 h 1 z" /><path
       id="path48-8"
       style="display:inline;fill:#ffffff;fill-rule:evenodd"
       d="M 6,3 H 5 V 2 h 1 z" /><path
       id="path48-91"
       style="display:inline;fill:#ffffff;fill-rule:evenodd"
       d="M 5,3 H 4 V 2 h 1 z" /><path
       id="path48-4"
       style="display:inline;fill:#ffffff;fill-rule:evenodd"
       d="M 4,4 H 3 V 3 h 1 z" /><path
       id="path48-6"
       style="display:inline;fill:#ffffff;fill-rule:evenodd"
       d="M 3,5 H 2 V 4 h 1 z" /><path
       id="path48-85"
       style="display:inline;fill:#ffffff;fill-rule:evenodd"
       d="M 3,6 H 2 V 5 h 1 z" /><path
       id="path48-1"
       style="display:inline;fill:#ffffff;fill-rule:evenodd"
       d="M 2,7 H 1 V 6 h 1 z" /><path
       id="path48-69"
       style="display:inline;fill:#ffffff;fill-rule:evenodd"
       d="M 2,8 H 1 V 7 h 1 z" /><path
       id="path48-98"
       style="display:inline;fill:#ffffff;fill-rule:evenodd"
       d="M 2,9 H 1 V 8 h 1 z" /><path
       id="path48-3"
       style="display:inline;fill:#ffffff;fill-rule:evenodd"
       d="M 2,10 H 1 V 9 h 1 z" /><path
       id="path48-65"
       style="display:inline;fill:#ffffff;fill-rule:evenodd"
       d="M 3,11 H 2 v -1 h 1 z" /><path
       id="path48-784"
       style="display:inline;fill:#ffffff;fill-rule:evenodd"
       d="M 3,12 H 2 v -1 h 1 z" /><path
       id="path48-36"
       style="display:inline;fill:#ffffff;fill-rule:evenodd"
       d="M 4,13 H 3 v -1 h 1 z" /><path
       id="path48-2"
       style="display:inline;fill:#ffffff;fill-rule:evenodd"
       d="M 5,14 H 4 v -1 h 1 z" /><path
       id="path48-5"
       style="display:inline;fill:#ffffff;fill-rule:evenodd"
       d="M 6,14 H 5 v -1 h 1 z" /><path
       id="path48-42"
       style="display:inline;fill:#ffffff;fill-rule:evenodd"
       d="M 7,15 H 6 v -1 h 1 z" /><path
       id="path48-0"
       style="display:inline;fill:#ffffff;fill-rule:evenodd"
       d="M 8,15 H 7 v -1 h 1 z" /><path
       id="path48-35"
       style="display:inline;fill:#ffffff;fill-rule:evenodd"
       d="M 9,15 H 8 v -1 h 1 z" /><path
       id="path48-40"
       style="display:inline;fill:#ffffff;fill-rule:evenodd"
       d="M 10,15 H 9 v -1 h 1 z" /><path
       id="path48-21"
       style="display:inline;fill:#ffffff;fill-rule:evenodd"
       d="m 11,14 h -1 v -1 h 1 z" /><path
       id="path48-99"
       style="display:inline;fill:#ffffff;fill-rule:evenodd"
       d="m 12,14 h -1 v -1 h 1 z" /><path
       id="path48-51"
       style="display:inline;fill:#ffffff;fill-rule:evenodd"
       d="m 13,13 h -1 v -1 h 1 z" /><path
       id="path48-26"
       style="display:inline;fill:#ffffff;fill-rule:evenodd"
       d="m 14,12 h -1 v -1 h 1 z" /><path
       id="path48-41"
       style="display:inline;fill:#ffffff;fill-rule:evenodd"
       d="m 14,11 h -1 v -1 h 1 z" /><path
       id="path48-71"
       style="display:inline;fill:#ffffff;fill-rule:evenodd"
       d="M 15,10 H 14 V 9 h 1 z" /><path
       id="path48-19"
       style="display:inline;fill:#ffffff;fill-rule:evenodd"
       d="M 15,9 H 14 V 8 h 1 z" /><path
       id="path48-11"
       style="display:inline;fill:#ffffff;fill-rule:evenodd"
       d="M 15,8 H 14 V 7 h 1 z" /><path
       id="path48-61"
       style="display:inline;fill:#ffffff;fill-rule:evenodd"
       d="M 15,7 H 14 V 6 h 1 z" /><path
       id="path48-719"
       style="display:inline;fill:#ffffff;fill-rule:evenodd"
       d="M 14,6 H 13 V 5 h 1 z" /><path
       id="path48-01"
       style="display:inline;fill:#ffffff;fill-rule:evenodd"
       d="M 14,5 H 13 V 4 h 1 z" /><path
       id="path48-39"
       style="display:inline;fill:#ffffff;fill-rule:evenodd"
       d="M 13,4 H 12 V 3 h 1 z" /><path
       id="path48-87"
       style="display:inline;fill:#ffffff;fill-rule:evenodd"
       d="M 12,3 H 11 V 2 h 1 z" /><path
       id="path48-691"
       style="display:inline;fill:#ffffff;fill-rule:evenodd"
       d="M 11,3 H 10 V 2 h 1 z" /><path
       id="path48-50"
       style="display:inline;fill:#ffffff;fill-rule:evenodd"
       d="M 11,5 H 10 V 4 h 1 z" /><path
       id="path48-47"
       style="display:inline;fill:#ffffff;fill-rule:evenodd"
       d="M 10,8 H 9 V 7 h 1 z" /><path
       id="path48-696"
       style="display:inline;fill:#ffffff;fill-rule:evenodd"
       d="M 11,8 H 10 V 7 h 1 z" /><path
       id="path48-96"
       style="display:inline;fill:#ffffff;fill-rule:evenodd"
       d="M 9,8 H 8 V 7 h 1 z" /><path
       id="path48-16"
       style="display:inline;fill:#ffffff;fill-rule:evenodd"
       d="M 9,9 H 8 V 8 h 1 z" /><path
       id="path48-54"
       style="display:inline;fill:#ffffff;fill-rule:evenodd"
       d="M 8,9 H 7 V 8 h 1 z" /><path
       id="path48-24"
       style="display:inline;fill:#ffffff;fill-rule:evenodd"
       d="M 7,9 H 6 V 8 h 1 z" /><path
       id="path48-15"
       style="display:inline;fill:#ffffff;fill-rule:evenodd"
       d="M 8,10 H 7 V 9 h 1 z" /><path
       id="path48-66"
       style="display:inline;fill:#ffffff;fill-rule:evenodd"
       d="M 6,10 H 5 V 9 h 1 z" /><path
       id="path48-67"
       style="display:inline;fill:#ffffff;fill-rule:evenodd"
       d="M 6,11 H 5 v -1 h 1 z" /><path
       id="path48-853"
       style="display:inline;fill:#ffffff;fill-rule:evenodd"
       d="M 7,11 H 6 v -1 h 1 z" /><path
       id="path48-58"
       style="display:inline;fill:#ffffff;fill-rule:evenodd"
       d="M 5,10 H 4 V 9 h 1 z" /><path
       id="path48-38"
       style="display:inline;fill:#ffffff;fill-rule:evenodd"
       d="M 5,9 H 4 V 8 h 1 z" /><path
       id="path48-22"
       style="display:inline;fill:#ffffff;fill-rule:evenodd"
       d="M 4,9 H 3 V 8 h 1 z" /><path
       id="path48-192"
       style="display:inline;fill:#ffffff;fill-rule:evenodd"
       d="M 3,9 H 2 V 8 h 1 z" /><path
       id="path48-010"
       style="display:inline;fill:#ffffff;fill-rule:evenodd"
       d="M 3,8 H 2 V 7 h 1 z" /><path
       id="path48-365"
       style="display:inline;fill:#ffffff;fill-rule:evenodd"
       d="M 4,10 H 3 V 9 h 1 z" /><path
       id="path48-06"
       style="display:inline;fill:#ffffff;fill-rule:evenodd"
       d="M 12,5 H 11 V 4 h 1 z" /><path
       id="path48-92"
       style="display:inline;fill:#ffffff;fill-rule:evenodd"
       d="M 13,6 H 12 V 5 h 1 z" /><path
       id="path48-04"
       style="display:inline;fill:#ffffff;fill-rule:evenodd"
       d="M 13,7 H 12 V 6 h 1 z" /><path
       id="path48-53"
       style="display:inline;fill:#ffffff;fill-rule:evenodd"
       d="M 10,6 H 9 V 5 h 1 z" /><path
       id="path48-49"
       style="display:inline;fill:#ffffff;fill-rule:evenodd"
       d="M 10,7 H 9 V 6 h 1 z" /><path
       id="path48-86"
       style="display:inline;fill:#ffffff;fill-rule:evenodd"
       d="M 12,8 H 11 V 7 h 1 z" /><path
       id="path48-57"
       style="display:inline;fill:#ffffff;fill-rule:evenodd"
       d="M 10,9 H 9 V 8 h 1 z" /></g></svg>
