<?xml version="1.0" encoding="UTF-8" standalone="no"?>
<!-- Created with Inkscape (http://www.inkscape.org/) -->

<svg
   width="16"
   height="16"
   viewBox="0 0 16 16"
   version="1.1"
   id="svg1"
   inkscape:version="1.3.2 (091e20ef0f, 2023-11-25)"
   sodipodi:docname="access.svg"
   xmlns:inkscape="http://www.inkscape.org/namespaces/inkscape"
   xmlns:sodipodi="http://sodipodi.sourceforge.net/DTD/sodipodi-0.dtd"
   xmlns="http://www.w3.org/2000/svg"
   xmlns:svg="http://www.w3.org/2000/svg">
  <sodipodi:namedview
     id="namedview1"
     pagecolor="#00bd0e"
     bordercolor="#000000"
     borderopacity="0.25"
     inkscape:showpageshadow="2"
     inkscape:pageopacity="0.0"
     inkscape:pagecheckerboard="0"
     inkscape:deskcolor="#d1d1d1"
     inkscape:document-units="px"
     showgrid="true"
     inkscape:zoom="32"
     inkscape:cx="5.890625"
     inkscape:cy="12.75"
     inkscape:window-width="1390"
     inkscape:window-height="1392"
     inkscape:window-x="0"
     inkscape:window-y="0"
     inkscape:window-maximized="0"
     inkscape:current-layer="layer6">
    <inkscape:grid
       id="grid1"
       units="px"
       originx="0"
       originy="0"
       spacingx="1"
       spacingy="1"
       empcolor="#0099e5"
       empopacity="0.30196078"
       color="#0099e5"
       opacity="0.14901961"
       empspacing="1"
       dotted="false"
       gridanglex="30"
       gridanglez="30"
       visible="true" />
  </sodipodi:namedview>
  <defs
     id="defs1" />
  <g
     inkscape:groupmode="layer"
     id="layer6"
     inkscape:label="access">
    <path
       id="rect2-2-776-04"
       style="display:inline;fill:#ffffff;fill-rule:evenodd"
       d="M 7,2 H 8 V 3 H 7 Z" />
    <path
       id="rect2-2-776-04-3"
       style="display:inline;fill:#ffffff;fill-rule:evenodd"
       d="M 7,1 H 8 V 2 H 7 Z" />
    <path
       id="rect2-2-776-04-7"
       style="display:inline;fill:#ffffff;fill-rule:evenodd"
       d="M 8,1 H 9 V 2 H 8 Z" />
    <path
       id="rect2-2-776-04-0"
       style="display:inline;fill:#ffffff;fill-rule:evenodd"
       d="M 8,2 H 9 V 3 H 8 Z" />
    <path
       id="rect2-2-776-04-70"
       style="display:inline;fill:#ffffff;fill-rule:evenodd"
       d="M 5,3 H 6 V 4 H 5 Z" />
    <path
       id="rect2-2-776-04-9"
       style="display:inline;fill:#ffffff;fill-rule:evenodd"
       d="M 3,3 H 4 V 4 H 3 Z" />
    <path
       id="rect2-2-776-04-6"
       style="display:inline;fill:#ffffff;fill-rule:evenodd"
       d="M 4,3 H 5 V 4 H 4 Z" />
    <path
       id="rect2-2-776-04-5"
       style="display:inline;fill:#ffffff;fill-rule:evenodd"
       d="M 2,2 H 3 V 3 H 2 Z" />
    <path
       id="rect2-2-776-04-2"
       style="display:inline;fill:#ffffff;fill-rule:evenodd"
       d="m 10,3 h 1 v 1 h -1 z" />
    <path
       id="rect2-2-776-04-29"
       style="display:inline;fill:#ffffff;fill-rule:evenodd"
       d="m 11,3 h 1 v 1 h -1 z" />
    <path
       id="rect2-2-776-04-38"
       style="display:inline;fill:#ffffff;fill-rule:evenodd"
       d="m 12,3 h 1 v 1 h -1 z" />
    <path
       id="rect2-2-776-04-60"
       style="display:inline;fill:#ffffff;fill-rule:evenodd"
       d="m 13,2 h 1 v 1 h -1 z" />
    <path
       id="rect2-2-776-04-30"
       style="display:inline;fill:#ffffff;fill-rule:evenodd"
       d="m 9,4 h 1 V 5 H 9 Z" />
    <path
       id="rect2-2-776-04-52"
       style="display:inline;fill:#ffffff;fill-rule:evenodd"
       d="M 8,4 H 9 V 5 H 8 Z" />
    <path
       id="rect2-2-776-04-68"
       style="display:inline;fill:#ffffff;fill-rule:evenodd"
       d="M 7,4 H 8 V 5 H 7 Z" />
    <path
       id="rect2-2-776-04-4"
       style="display:inline;fill:#ffffff;fill-rule:evenodd"
       d="M 6,4 H 7 V 5 H 6 Z" />
    <path
       id="rect2-2-776-04-23"
       style="display:inline;fill:#ffffff;fill-rule:evenodd"
       d="M 6,5 H 7 V 6 H 6 Z" />
    <path
       id="rect2-2-776-04-23-3"
       style="display:inline;fill:#ffffff;fill-rule:evenodd"
       d="m 9,5 h 1 V 6 H 9 Z" />
    <path
       id="rect2-2-776-04-23-2"
       style="display:inline;fill:#ffffff;fill-rule:evenodd"
       d="m 9,6 h 1 V 7 H 9 Z" />
    <path
       id="rect2-2-776-04-23-9"
       style="display:inline;fill:#ffffff;fill-rule:evenodd"
       d="m 9,7 h 1 V 8 H 9 Z" />
    <path
       id="rect2-2-776-04-23-4"
       style="display:inline;fill:#ffffff;fill-rule:evenodd"
       d="m 9,8 h 1 V 9 H 9 Z" />
    <path
       id="rect2-2-776-04-23-22"
       style="display:inline;fill:#ffffff;fill-rule:evenodd"
       d="m 6,9 h 1 v 1 H 6 Z" />
    <path
       id="rect2-2-776-04-47"
       style="display:inline;fill:#ffffff;fill-rule:evenodd"
       d="M 6,6 H 7 V 7 H 6 Z" />
    <path
       id="rect2-2-776-04-65"
       style="display:inline;fill:#ffffff;fill-rule:evenodd"
       d="M 6,7 H 7 V 8 H 6 Z" />
    <path
       id="rect2-2-776-04-25"
       style="display:inline;fill:#ffffff;fill-rule:evenodd"
       d="M 6,8 H 7 V 9 H 6 Z" />
    <path
       id="rect2-2-776-04-23-0"
       style="display:inline;fill:#ffffff;fill-rule:evenodd"
       d="m 7,9 h 1 v 1 H 7 Z" />
    <path
       id="rect2-2-776-04-23-42"
       style="display:inline;fill:#ffffff;fill-rule:evenodd"
       d="m 8,9 h 1 v 1 H 8 Z" />
    <path
       id="rect2-2-776-04-23-8"
       style="display:inline;fill:#ffffff;fill-rule:evenodd"
       d="m 9,9 h 1 v 1 H 9 Z" />
    <path
       id="rect2-2-776-04-23-1"
       style="display:inline;fill:#ffffff;fill-rule:evenodd"
       d="M 8,8 H 9 V 9 H 8 Z" />
    <path
       id="rect2-2-776-04-23-33"
       style="display:inline;fill:#ffffff;fill-rule:evenodd"
       d="M 8,7 H 9 V 8 H 8 Z" />
    <path
       id="rect2-2-776-04-23-44"
       style="display:inline;fill:#ffffff;fill-rule:evenodd"
       d="M 8,6 H 9 V 7 H 8 Z" />
    <path
       id="rect2-2-776-04-23-21"
       style="display:inline;fill:#ffffff;fill-rule:evenodd"
       d="M 8,5 H 9 V 6 H 8 Z" />
    <path
       id="rect2-2-776-04-23-7"
       style="display:inline;fill:#ffffff;fill-rule:evenodd"
       d="M 7,5 H 8 V 6 H 7 Z" />
    <path
       id="rect2-2-776-04-23-91"
       style="display:inline;fill:#ffffff;fill-rule:evenodd"
       d="M 7,6 H 8 V 7 H 7 Z" />
    <path
       id="rect2-2-776-04-23-18"
       style="display:inline;fill:#ffffff;fill-rule:evenodd"
       d="M 7,7 H 8 V 8 H 7 Z" />
    <path
       id="rect2-2-776-04-23-47"
       style="display:inline;fill:#ffffff;fill-rule:evenodd"
       d="M 7,8 H 8 V 9 H 7 Z" />
    <path
       id="rect2-2-776-04-23-45"
       style="display:inline;fill:#ffffff;fill-rule:evenodd"
       d="m 6,10 h 1 v 1 H 6 Z" />
    <path
       id="rect2-2-776-04-23-96"
       style="display:inline;fill:#ffffff;fill-rule:evenodd"
       d="m 9,10 h 1 v 1 H 9 Z" />
    <path
       id="rect2-2-776-04-23-02"
       style="display:inline;fill:#ffffff;fill-rule:evenodd"
       d="m 9,11 h 1 v 1 H 9 Z" />
    <path
       id="rect2-2-776-04-23-73"
       style="display:inline;fill:#ffffff;fill-rule:evenodd"
       d="m 6,11 h 1 v 1 H 6 Z" />
    <path
       id="rect2-2-776-04-23-75"
       style="display:inline;fill:#ffffff;fill-rule:evenodd"
       d="m 5,12 h 1 v 1 H 5 Z" />
    <path
       id="rect2-2-776-04-23-90"
       style="display:inline;fill:#ffffff;fill-rule:evenodd"
       d="m 5,13 h 1 v 1 H 5 Z" />
    <path
       id="rect2-2-776-04-23-31"
       style="display:inline;fill:#ffffff;fill-rule:evenodd"
       d="m 5,14 h 1 v 1 H 5 Z" />
    <path
       id="rect2-2-776-04-23-732"
       style="display:inline;fill:#ffffff;fill-rule:evenodd"
       d="m 10,12 h 1 v 1 h -1 z" />
    <path
       id="rect2-2-776-04-23-338"
       style="display:inline;fill:#ffffff;fill-rule:evenodd"
       d="m 10,13 h 1 v 1 h -1 z" />
    <path
       id="rect2-2-776-04-23-80"
       style="display:inline;fill:#ffffff;fill-rule:evenodd"
       d="m 10,14 h 1 v 1 h -1 z" />
  </g>
</svg>
