<?xml version="1.0" encoding="UTF-8" standalone="no"?>
<!-- Created with Inkscape (http://www.inkscape.org/) -->

<svg
   width="16"
   height="16"
   viewBox="0 0 16 16"
   version="1.1"
   id="svg1"
   inkscape:version="1.3.2 (091e20ef0f, 2023-11-25)"
   sodipodi:docname="applications-accessories.svg"
   xmlns:inkscape="http://www.inkscape.org/namespaces/inkscape"
   xmlns:sodipodi="http://sodipodi.sourceforge.net/DTD/sodipodi-0.dtd"
   xmlns="http://www.w3.org/2000/svg"
   xmlns:svg="http://www.w3.org/2000/svg">
  <sodipodi:namedview
     id="namedview1"
     pagecolor="#1feb07"
     bordercolor="#000000"
     borderopacity="0.25"
     inkscape:showpageshadow="2"
     inkscape:pageopacity="0.0"
     inkscape:pagecheckerboard="0"
     inkscape:deskcolor="#d1d1d1"
     inkscape:document-units="px"
     showgrid="true"
     inkscape:zoom="32"
     inkscape:cx="8.171875"
     inkscape:cy="5.78125"
     inkscape:window-width="1390"
     inkscape:window-height="1392"
     inkscape:window-x="0"
     inkscape:window-y="0"
     inkscape:window-maximized="0"
     inkscape:current-layer="layer2">
    <inkscape:grid
       id="grid1"
       units="px"
       originx="0"
       originy="0"
       spacingx="1"
       spacingy="1"
       empcolor="#0099e5"
       empopacity="0.30196078"
       color="#0099e5"
       opacity="0.14901961"
       empspacing="1"
       dotted="false"
       gridanglex="30"
       gridanglez="30"
       visible="true" />
  </sodipodi:namedview>
  <defs
     id="defs1" />
  <g
     inkscape:groupmode="layer"
     id="layer2"
     inkscape:label="acessories"
     transform="translate(1)">
    <path
       id="rect2-54-76"
       style="display:inline;fill:#ffffff;fill-rule:evenodd"
       d="M 7,2 H 8 V 3 H 7 Z" />
    <path
       id="rect2-54-76-8"
       style="display:inline;fill:#ffffff;fill-rule:evenodd"
       d="M 7,3 H 8 V 4 H 7 Z" />
    <path
       id="rect2-54-76-0"
       style="display:inline;fill:#ffffff;fill-rule:evenodd"
       d="M 7,4 H 8 V 5 H 7 Z" />
    <path
       id="rect2-54-76-5"
       style="display:inline;fill:#ffffff;fill-rule:evenodd"
       d="M 7,5 H 8 V 6 H 7 Z" />
    <path
       id="rect2-54-76-89"
       style="display:inline;fill:#ffffff;fill-rule:evenodd"
       d="M 7,6 H 8 V 7 H 7 Z" />
    <path
       id="rect2-54-76-1"
       style="display:inline;fill:#ffffff;fill-rule:evenodd"
       d="M 7,7 H 8 V 8 H 7 Z" />
    <path
       id="rect2-54-76-19"
       style="display:inline;fill:#ffffff;fill-rule:evenodd"
       d="M 8,7 H 9 V 8 H 8 Z" />
    <path
       id="rect2-54-76-4"
       style="display:inline;fill:#ffffff;fill-rule:evenodd"
       d="m 9,6 h 1 V 7 H 9 Z" />
    <path
       id="rect2-54-76-6"
       style="display:inline;fill:#ffffff;fill-rule:evenodd"
       d="m 10,5 h 1 v 1 h -1 z" />
    <path
       id="rect2-54-76-3"
       style="display:inline;fill:#ffffff;fill-rule:evenodd"
       d="m 11,4 h 1 v 1 h -1 z" />
    <path
       id="rect2-54-76-65"
       style="display:inline;fill:#ffffff;fill-rule:evenodd"
       d="M 7,8 H 8 V 9 H 7 Z" />
    <path
       id="rect2-54-76-7"
       style="display:inline;fill:#ffffff;fill-rule:evenodd"
       d="m 7,9 h 1 v 1 H 7 Z" />
    <path
       id="rect2-54-76-54"
       style="display:inline;fill:#ffffff;fill-rule:evenodd"
       d="m 7,10 h 1 v 1 H 7 Z" />
    <path
       id="rect2-54-76-30"
       style="display:inline;fill:#ffffff;fill-rule:evenodd"
       d="m 8,10 h 1 v 1 H 8 Z" />
    <path
       id="rect2-54-76-88"
       style="display:inline;fill:#ffffff;fill-rule:evenodd"
       d="m 9,11 h 1 v 1 H 9 Z" />
    <path
       id="rect2-54-76-49"
       style="display:inline;fill:#ffffff;fill-rule:evenodd"
       d="m 9,12 h 1 v 1 H 9 Z" />
    <path
       id="rect2-54-76-892"
       style="display:inline;fill:#ffffff;fill-rule:evenodd"
       d="m 8,13 h 1 v 1 H 8 Z" />
    <path
       id="rect2-54-76-9"
       style="display:inline;fill:#ffffff;fill-rule:evenodd"
       d="m 7,13 h 1 v 1 H 7 Z" />
    <path
       id="rect2-54-76-87"
       style="display:inline;fill:#ffffff;fill-rule:evenodd"
       d="m 6,12 h 1 v 1 H 6 Z" />
    <path
       id="rect2-54-76-72"
       style="display:inline;fill:#ffffff;fill-rule:evenodd"
       d="m 6,11 h 1 v 1 H 6 Z" />
    <path
       id="rect2-54-76-06"
       style="display:inline;fill:#ffffff;fill-rule:evenodd"
       d="m 6,9 h 1 v 1 H 6 Z" />
    <path
       id="rect2-54-76-490"
       style="display:inline;fill:#ffffff;fill-rule:evenodd"
       d="m 5,10 h 1 v 1 H 5 Z" />
    <path
       id="rect2-54-76-71"
       style="display:inline;fill:#ffffff;fill-rule:evenodd"
       d="m 4,11 h 1 v 1 H 4 Z" />
    <path
       id="rect2-54-76-77"
       style="display:inline;fill:#ffffff;fill-rule:evenodd"
       d="m 3,12 h 1 v 1 H 3 Z" />
    <path
       id="rect2-54-76-656"
       style="display:inline;fill:#ffffff;fill-rule:evenodd"
       d="m 4,10 h 1 v 1 H 4 Z" />
    <path
       id="rect2-54-76-81"
       style="display:inline;fill:#ffffff;fill-rule:evenodd"
       d="m 3,9 h 1 v 1 H 3 Z" />
    <path
       id="rect2-54-76-09"
       style="display:inline;fill:#ffffff;fill-rule:evenodd"
       d="m 1,11 h 1 v 1 H 1 Z" />
    <path
       id="rect2-54-76-56"
       style="display:inline;fill:#ffffff;fill-rule:evenodd"
       d="m 2,12 h 1 v 1 H 2 Z" />
    <path
       id="rect2-54-76-98"
       style="display:inline;fill:#ffffff;fill-rule:evenodd"
       d="m 2,9 h 1 v 1 H 2 Z" />
    <path
       id="rect2-54-76-03"
       style="display:inline;fill:#ffffff;fill-rule:evenodd"
       d="m 1,10 h 1 v 1 H 1 Z" />
    <path
       id="rect2-54-76-44"
       style="display:inline;fill:#ffffff;fill-rule:evenodd"
       d="m 11,5 h 1 v 1 h -1 z" />
    <path
       id="rect2-54-76-17"
       style="display:inline;fill:#ffffff;fill-rule:evenodd"
       d="m 10,6 h 1 v 1 h -1 z" />
    <path
       id="rect2-54-76-2"
       style="display:inline;fill:#ffffff;fill-rule:evenodd"
       d="m 9,7 h 1 V 8 H 9 Z" />
    <path
       id="rect2-54-76-57"
       style="display:inline;fill:#ffffff;fill-rule:evenodd"
       d="M 8,8 H 9 V 9 H 8 Z" />
    <path
       id="rect2-54-76-59"
       style="display:inline;fill:#ffffff;fill-rule:evenodd"
       d="M 6,8 H 7 V 9 H 6 Z" />
    <path
       id="rect2-54-76-883"
       style="display:inline;fill:#ffffff;fill-rule:evenodd"
       d="M 6,7 H 7 V 8 H 6 Z" />
    <path
       id="rect2-54-76-64"
       style="display:inline;fill:#ffffff;fill-rule:evenodd"
       d="M 6,6 H 7 V 7 H 6 Z" />
    <path
       id="rect2-54-76-86"
       style="display:inline;fill:#ffffff;fill-rule:evenodd"
       d="M 6,5 H 7 V 6 H 6 Z" />
    <path
       id="rect2-54-76-889"
       style="display:inline;fill:#ffffff;fill-rule:evenodd"
       d="M 6,4 H 7 V 5 H 6 Z" />
    <path
       id="rect2-54-76-43"
       style="display:inline;fill:#ffffff;fill-rule:evenodd"
       d="M 6,3 H 7 V 4 H 6 Z" />
    <path
       id="rect2-54-76-92"
       style="display:inline;fill:#ffffff;fill-rule:evenodd"
       d="M 6,2 H 7 V 3 H 6 Z" />
    <path
       id="rect2-54-76-594"
       style="display:inline;fill:#ffffff;fill-rule:evenodd"
       d="M 7,1 H 8 V 2 H 7 Z" />
    <path
       id="rect2-54-76-24"
       style="display:inline;fill:#ffffff;fill-rule:evenodd"
       d="m 12,3 h 1 v 1 h -1 z" />
    <path
       id="rect2-54-76-48"
       style="display:inline;fill:#ffffff;fill-rule:evenodd"
       d="m 12,4 h 1 v 1 h -1 z" />
    <path
       id="rect2-54-76-93"
       style="display:inline;fill:#ffffff;fill-rule:evenodd"
       d="m 5,9 h 1 v 1 H 5 Z" />
  </g>
</svg>
