<?xml version="1.0" encoding="UTF-8" standalone="no"?>
<!-- Created with Inkscape (http://www.inkscape.org/) -->

<svg
   width="16"
   height="16"
   viewBox="0 0 16 16"
   version="1.1"
   id="svg1"
   inkscape:version="1.3.2 (091e20ef0f, 2023-11-25)"
   sodipodi:docname="applications-science.svg"
   xmlns:inkscape="http://www.inkscape.org/namespaces/inkscape"
   xmlns:sodipodi="http://sodipodi.sourceforge.net/DTD/sodipodi-0.dtd"
   xmlns="http://www.w3.org/2000/svg"
   xmlns:svg="http://www.w3.org/2000/svg">
  <sodipodi:namedview
     id="namedview1"
     pagecolor="#1feb07"
     bordercolor="#000000"
     borderopacity="0.25"
     inkscape:showpageshadow="2"
     inkscape:pageopacity="0.0"
     inkscape:pagecheckerboard="0"
     inkscape:deskcolor="#d1d1d1"
     inkscape:document-units="px"
     showgrid="true"
     inkscape:zoom="32"
     inkscape:cx="8.171875"
     inkscape:cy="5.78125"
     inkscape:window-width="1390"
     inkscape:window-height="1392"
     inkscape:window-x="0"
     inkscape:window-y="0"
     inkscape:window-maximized="0"
     inkscape:current-layer="layer4">
    <inkscape:grid
       id="grid1"
       units="px"
       originx="0"
       originy="0"
       spacingx="1"
       spacingy="1"
       empcolor="#0099e5"
       empopacity="0.30196078"
       color="#0099e5"
       opacity="0.14901961"
       empspacing="1"
       dotted="false"
       gridanglex="30"
       gridanglez="30"
       visible="true" />
  </sodipodi:namedview>
  <defs
     id="defs1" />
  <g
     inkscape:groupmode="layer"
     id="layer4"
     inkscape:label="graphics">
    <path
       id="rect2-54-76-43-75"
       style="display:inline;fill:#ffffff;fill-rule:evenodd"
       d="m 10,4 h 1 v 1 h -1 z" />
    <path
       id="rect2-54-76-43-3"
       style="display:inline;fill:#ffffff;fill-rule:evenodd"
       d="M 5,4 H 6 V 5 H 5 Z" />
    <path
       id="rect2-54-76-43-6"
       style="display:inline;fill:#ffffff;fill-rule:evenodd"
       d="M 5,6 H 6 V 7 H 5 Z" />
    <path
       id="rect2-54-76-43-39"
       style="display:inline;fill:#ffffff;fill-rule:evenodd"
       d="M 5,7 H 6 V 8 H 5 Z" />
    <path
       id="rect2-54-76-43-41"
       style="display:inline;fill:#ffffff;fill-rule:evenodd"
       d="M 5,8 H 6 V 9 H 5 Z" />
    <path
       id="rect2-54-76-43-9"
       style="display:inline;fill:#ffffff;fill-rule:evenodd"
       d="m 5,9 h 1 v 1 H 5 Z" />
    <path
       id="rect2-54-76-43-63"
       style="display:inline;fill:#ffffff;fill-rule:evenodd"
       d="m 5,11 h 1 v 1 H 5 Z" />
    <path
       id="rect2-54-76-43-90"
       style="display:inline;fill:#ffffff;fill-rule:evenodd"
       d="m 10,6 h 1 v 1 h -1 z" />
    <path
       id="rect2-54-76-43-65"
       style="display:inline;fill:#ffffff;fill-rule:evenodd"
       d="m 10,7 h 1 v 1 h -1 z" />
    <path
       id="rect2-54-76-43-33"
       style="display:inline;fill:#ffffff;fill-rule:evenodd"
       d="m 10,8 h 1 v 1 h -1 z" />
    <path
       id="rect2-54-76-43-08"
       style="display:inline;fill:#ffffff;fill-rule:evenodd"
       d="m 10,9 h 1 v 1 h -1 z" />
    <path
       id="rect2-54-76-43-11"
       style="display:inline;fill:#ffffff;fill-rule:evenodd"
       d="m 10,11 h 1 v 1 h -1 z" />
    <path
       id="rect2-54-76-43-37"
       style="display:inline;fill:#ffffff;fill-rule:evenodd"
       d="m 11,5 h 1 v 1 h -1 z" />
    <path
       id="rect2-54-76-43-06"
       style="display:inline;fill:#ffffff;fill-rule:evenodd"
       d="m 11,10 h 1 v 1 h -1 z" />
    <path
       id="rect2-54-76-43-10"
       style="display:inline;fill:#ffffff;fill-rule:evenodd"
       d="m 4,10 h 1 v 1 H 4 Z" />
    <path
       id="rect2-54-76-43-037"
       style="display:inline;fill:#ffffff;fill-rule:evenodd"
       d="M 4,5 H 5 V 6 H 4 Z" />
    <path
       id="rect2-54-76-43-492"
       style="display:inline;fill:#ffffff;fill-rule:evenodd"
       d="M 6,5 H 7 V 6 H 6 Z" />
    <path
       id="rect2-54-76-43-524"
       style="display:inline;fill:#ffffff;fill-rule:evenodd"
       d="M 7,5 H 8 V 6 H 7 Z" />
    <path
       id="rect2-54-76-43-60"
       style="display:inline;fill:#ffffff;fill-rule:evenodd"
       d="M 8,5 H 9 V 6 H 8 Z" />
    <path
       id="rect2-54-76-43-23"
       style="display:inline;fill:#ffffff;fill-rule:evenodd"
       d="m 9,5 h 1 V 6 H 9 Z" />
    <path
       id="rect2-54-76-43-42"
       style="display:inline;fill:#ffffff;fill-rule:evenodd"
       d="m 6,10 h 1 v 1 H 6 Z" />
    <path
       id="rect2-54-76-43-17"
       style="display:inline;fill:#ffffff;fill-rule:evenodd"
       d="m 7,10 h 1 v 1 H 7 Z" />
    <path
       id="rect2-54-76-43-69"
       style="display:inline;fill:#ffffff;fill-rule:evenodd"
       d="m 8,10 h 1 v 1 H 8 Z" />
    <path
       id="rect2-54-76-43-337"
       style="display:inline;fill:#ffffff;fill-rule:evenodd"
       d="m 9,10 h 1 v 1 H 9 Z" />
    <path
       id="rect2-54-76-43-704"
       style="display:inline;fill:#ffffff;fill-rule:evenodd"
       d="M 7,7 H 8 V 8 H 7 Z" />
    <path
       id="rect2-54-76-43-16"
       style="display:inline;fill:#ffffff;fill-rule:evenodd"
       d="M 7,8 H 8 V 9 H 7 Z" />
    <path
       id="rect2-54-76-43-19"
       style="display:inline;fill:#ffffff;fill-rule:evenodd"
       d="M 8,8 H 9 V 9 H 8 Z" />
    <path
       id="rect2-54-76-43-64"
       style="display:inline;fill:#ffffff;fill-rule:evenodd"
       d="M 8,7 H 9 V 8 H 8 Z" />
    <path
       id="rect2-54-76-43-89"
       style="display:inline;fill:#ffffff;fill-rule:evenodd"
       d="M 7,1 H 8 V 2 H 7 Z" />
    <path
       id="rect2-54-76-43-896"
       style="display:inline;fill:#ffffff;fill-rule:evenodd"
       d="M 8,1 H 9 V 2 H 8 Z" />
    <path
       id="rect2-54-76-43-50"
       style="display:inline;fill:#ffffff;fill-rule:evenodd"
       d="m 9,2 h 1 V 3 H 9 Z" />
    <path
       id="rect2-54-76-43-01"
       style="display:inline;fill:#ffffff;fill-rule:evenodd"
       d="M 6,2 H 7 V 3 H 6 Z" />
    <path
       id="rect2-54-76-43"
       style="display:inline;fill:#ffffff;fill-rule:evenodd"
       d="m 10,3 h 1 v 1 h -1 z" />
    <path
       id="rect2-54-76-43-0"
       style="display:inline;fill:#ffffff;fill-rule:evenodd"
       d="M 5,3 H 6 V 4 H 5 Z" />
    <path
       id="rect2-54-76-43-756"
       style="display:inline;fill:#ffffff;fill-rule:evenodd"
       d="M 1,7 H 2 V 8 H 1 Z" />
    <path
       id="rect2-54-76-43-2"
       style="display:inline;fill:#ffffff;fill-rule:evenodd"
       d="M 1,8 H 2 V 9 H 1 Z" />
    <path
       id="rect2-54-76-43-4"
       style="display:inline;fill:#ffffff;fill-rule:evenodd"
       d="M 2,6 H 3 V 7 H 2 Z" />
    <path
       id="rect2-54-76-43-78"
       style="display:inline;fill:#ffffff;fill-rule:evenodd"
       d="m 2,9 h 1 v 1 H 2 Z" />
    <path
       id="rect2-54-76-43-73"
       style="display:inline;fill:#ffffff;fill-rule:evenodd"
       d="m 7,14 h 1 v 1 H 7 Z" />
    <path
       id="rect2-54-76-43-97"
       style="display:inline;fill:#ffffff;fill-rule:evenodd"
       d="m 8,14 h 1 v 1 H 8 Z" />
    <path
       id="rect2-54-76-43-630"
       style="display:inline;fill:#ffffff;fill-rule:evenodd"
       d="m 6,13 h 1 v 1 H 6 Z" />
    <path
       id="rect2-54-76-43-650"
       style="display:inline;fill:#ffffff;fill-rule:evenodd"
       d="m 9,13 h 1 v 1 H 9 Z" />
    <path
       id="rect2-54-76-43-66"
       style="display:inline;fill:#ffffff;fill-rule:evenodd"
       d="m 13,9 h 1 v 1 h -1 z" />
    <path
       id="rect2-54-76-43-895"
       style="display:inline;fill:#ffffff;fill-rule:evenodd"
       d="m 14,8 h 1 v 1 h -1 z" />
    <path
       id="rect2-54-76-43-837"
       style="display:inline;fill:#ffffff;fill-rule:evenodd"
       d="m 14,7 h 1 v 1 h -1 z" />
    <path
       id="rect2-54-76-43-05"
       style="display:inline;fill:#ffffff;fill-rule:evenodd"
       d="m 13,6 h 1 v 1 h -1 z" />
    <path
       id="rect2-54-76-43-07"
       style="display:inline;fill:#ffffff;fill-rule:evenodd"
       d="m 3,10 h 1 v 1 H 3 Z" />
    <path
       id="rect2-54-76-43-30"
       style="display:inline;fill:#ffffff;fill-rule:evenodd"
       d="M 3,5 H 4 V 6 H 3 Z" />
    <path
       id="rect2-54-76-43-691"
       style="display:inline;fill:#ffffff;fill-rule:evenodd"
       d="m 12,10 h 1 v 1 h -1 z" />
    <path
       id="rect2-54-76-43-8"
       style="display:inline;fill:#ffffff;fill-rule:evenodd"
       d="m 12,5 h 1 v 1 h -1 z" />
    <path
       id="rect2-54-76-43-7"
       style="display:inline;fill:#ffffff;fill-rule:evenodd"
       d="m 5,12 h 1 v 1 H 5 Z" />
    <path
       id="rect2-54-76-43-1"
       style="display:inline;fill:#ffffff;fill-rule:evenodd"
       d="m 10,12 h 1 v 1 h -1 z" />
    <path
       id="rect2-54-76-43-45"
       style="display:inline;fill:#ffffff;fill-rule:evenodd"
       d="m 2,11 h 1 v 1 H 2 Z" />
    <path
       id="rect2-54-76-43-87"
       style="display:inline;fill:#ffffff;fill-rule:evenodd"
       d="m 2,12 h 1 v 1 H 2 Z" />
    <path
       id="rect2-54-76-43-5"
       style="display:inline;fill:#ffffff;fill-rule:evenodd"
       d="m 3,13 h 1 v 1 H 3 Z" />
    <path
       id="rect2-54-76-43-32"
       style="display:inline;fill:#ffffff;fill-rule:evenodd"
       d="m 4,13 h 1 v 1 H 4 Z" />
    <path
       id="rect2-54-76-43-22"
       style="display:inline;fill:#ffffff;fill-rule:evenodd"
       d="m 13,12 h 1 v 1 h -1 z" />
    <path
       id="rect2-54-76-43-02"
       style="display:inline;fill:#ffffff;fill-rule:evenodd"
       d="m 13,11 h 1 v 1 h -1 z" />
    <path
       id="rect2-54-76-43-43"
       style="display:inline;fill:#ffffff;fill-rule:evenodd"
       d="m 11,13 h 1 v 1 h -1 z" />
    <path
       id="rect2-54-76-43-40"
       style="display:inline;fill:#ffffff;fill-rule:evenodd"
       d="m 12,13 h 1 v 1 h -1 z" />
    <path
       id="rect2-54-76-43-77"
       style="display:inline;fill:#ffffff;fill-rule:evenodd"
       d="m 11,2 h 1 v 1 h -1 z" />
    <path
       id="rect2-54-76-43-076"
       style="display:inline;fill:#ffffff;fill-rule:evenodd"
       d="m 12,2 h 1 v 1 h -1 z" />
    <path
       id="rect2-54-76-43-25"
       style="display:inline;fill:#ffffff;fill-rule:evenodd"
       d="m 13,4 h 1 v 1 h -1 z" />
    <path
       id="rect2-54-76-43-13"
       style="display:inline;fill:#ffffff;fill-rule:evenodd"
       d="m 13,3 h 1 v 1 h -1 z" />
    <path
       id="rect2-54-76-43-68"
       style="display:inline;fill:#ffffff;fill-rule:evenodd"
       d="M 3,2 H 4 V 3 H 3 Z" />
    <path
       id="rect2-54-76-43-24"
       style="display:inline;fill:#ffffff;fill-rule:evenodd"
       d="M 4,2 H 5 V 3 H 4 Z" />
    <path
       id="rect2-54-76-43-12"
       style="display:inline;fill:#ffffff;fill-rule:evenodd"
       d="M 2,3 H 3 V 4 H 2 Z" />
    <path
       id="rect2-54-76-43-064"
       style="display:inline;fill:#ffffff;fill-rule:evenodd"
       d="M 2,4 H 3 V 5 H 2 Z" />
  </g>
</svg>
