<?xml version="1.0" encoding="UTF-8" standalone="no"?>
<!-- Created with Inkscape (http://www.inkscape.org/) -->

<svg
   width="16"
   height="16"
   viewBox="0 0 16 16"
   version="1.1"
   id="svg1"
   inkscape:version="1.3.2 (091e20ef0f, 2023-11-25)"
   sodipodi:docname="applications-web.svg"
   xmlns:inkscape="http://www.inkscape.org/namespaces/inkscape"
   xmlns:sodipodi="http://sodipodi.sourceforge.net/DTD/sodipodi-0.dtd"
   xmlns="http://www.w3.org/2000/svg"
   xmlns:svg="http://www.w3.org/2000/svg">
  <sodipodi:namedview
     id="namedview1"
     pagecolor="#1feb07"
     bordercolor="#000000"
     borderopacity="0.25"
     inkscape:showpageshadow="2"
     inkscape:pageopacity="0.0"
     inkscape:pagecheckerboard="0"
     inkscape:deskcolor="#d1d1d1"
     inkscape:document-units="px"
     showgrid="true"
     inkscape:zoom="32"
     inkscape:cx="8.171875"
     inkscape:cy="5.78125"
     inkscape:window-width="1390"
     inkscape:window-height="1392"
     inkscape:window-x="0"
     inkscape:window-y="0"
     inkscape:window-maximized="0"
     inkscape:current-layer="layer1">
    <inkscape:grid
       id="grid1"
       units="px"
       originx="0"
       originy="0"
       spacingx="1"
       spacingy="1"
       empcolor="#0099e5"
       empopacity="0.30196078"
       color="#0099e5"
       opacity="0.14901961"
       empspacing="1"
       dotted="false"
       gridanglex="30"
       gridanglez="30"
       visible="true" />
  </sodipodi:namedview>
  <defs
     id="defs1" />
  <g
     inkscape:groupmode="layer"
     id="layer1"
     inkscape:label="pcloud"
     transform="translate(0,-1)">
    <path
       id="rect2-54"
       style="display:inline;fill:#ffffff;fill-rule:evenodd"
       d="m 4,13 h 1 v 1 H 4 Z" />
    <path
       id="rect2-54-6"
       style="display:inline;fill:#ffffff;fill-rule:evenodd"
       d="m 5,13 h 1 v 1 H 5 Z" />
    <path
       id="rect2-54-2"
       style="display:inline;fill:#ffffff;fill-rule:evenodd"
       d="m 6,13 h 1 v 1 H 6 Z" />
    <path
       id="rect2-54-3"
       style="display:inline;fill:#ffffff;fill-rule:evenodd"
       d="m 7,13 h 1 v 1 H 7 Z" />
    <path
       id="rect2-54-26"
       style="display:inline;fill:#ffffff;fill-rule:evenodd"
       d="m 8,13 h 1 v 1 H 8 Z" />
    <path
       id="rect2-54-9"
       style="display:inline;fill:#ffffff;fill-rule:evenodd"
       d="m 9,13 h 1 v 1 H 9 Z" />
    <path
       id="rect2-54-37"
       style="display:inline;fill:#ffffff;fill-rule:evenodd"
       d="m 10,13 h 1 v 1 h -1 z" />
    <path
       id="rect2-54-28"
       style="display:inline;fill:#ffffff;fill-rule:evenodd"
       d="m 11,13 h 1 v 1 h -1 z" />
    <path
       id="rect2-54-61"
       style="display:inline;fill:#ffffff;fill-rule:evenodd"
       d="m 12,13 h 1 v 1 h -1 z" />
    <path
       id="rect2-54-1"
       style="display:inline;fill:#ffffff;fill-rule:evenodd"
       d="m 13,12 h 1 v 1 h -1 z" />
    <path
       id="rect2-54-5"
       style="display:inline;fill:#ffffff;fill-rule:evenodd"
       d="m 14,11 h 1 v 1 h -1 z" />
    <path
       id="rect2-54-65"
       style="display:inline;fill:#ffffff;fill-rule:evenodd"
       d="m 14,10 h 1 v 1 h -1 z" />
    <path
       id="rect2-54-7"
       style="display:inline;fill:#ffffff;fill-rule:evenodd"
       d="m 13,9 h 1 v 1 h -1 z" />
    <path
       id="rect2-54-54"
       style="display:inline;fill:#ffffff;fill-rule:evenodd"
       d="m 12,8 h 1 v 1 h -1 z" />
    <path
       id="rect2-54-30"
       style="display:inline;fill:#ffffff;fill-rule:evenodd"
       d="m 12,7 h 1 v 1 h -1 z" />
    <path
       id="rect2-54-8"
       style="display:inline;fill:#ffffff;fill-rule:evenodd"
       d="m 11,7 h 1 v 1 h -1 z" />
    <path
       id="rect2-54-96"
       style="display:inline;fill:#ffffff;fill-rule:evenodd"
       d="m 10,6 h 1 v 1 h -1 z" />
    <path
       id="rect2-54-76"
       style="display:inline;fill:#ffffff;fill-rule:evenodd"
       d="m 9,6 h 1 V 7 H 9 Z" />
    <path
       id="rect2-54-59"
       style="display:inline;fill:#ffffff;fill-rule:evenodd"
       d="M 8,5 H 9 V 6 H 8 Z" />
    <path
       id="rect2-54-78"
       style="display:inline;fill:#ffffff;fill-rule:evenodd"
       d="M 7,4 H 8 V 5 H 7 Z" />
    <path
       id="rect2-54-18"
       style="display:inline;fill:#ffffff;fill-rule:evenodd"
       d="M 6,4 H 7 V 5 H 6 Z" />
    <path
       id="rect2-54-53"
       style="display:inline;fill:#ffffff;fill-rule:evenodd"
       d="M 5,4 H 6 V 5 H 5 Z" />
    <path
       id="rect2-54-189"
       style="display:inline;fill:#ffffff;fill-rule:evenodd"
       d="M 4,5 H 5 V 6 H 4 Z" />
    <path
       id="rect2-54-33"
       style="display:inline;fill:#ffffff;fill-rule:evenodd"
       d="M 3,6 H 4 V 7 H 3 Z" />
    <path
       id="rect2-54-4"
       style="display:inline;fill:#ffffff;fill-rule:evenodd"
       d="M 2,6 H 3 V 7 H 2 Z" />
    <path
       id="rect2-54-97"
       style="display:inline;fill:#ffffff;fill-rule:evenodd"
       d="M 1,7 H 2 V 8 H 1 Z" />
    <path
       id="rect2-54-303"
       style="display:inline;fill:#ffffff;fill-rule:evenodd"
       d="M 1,8 H 2 V 9 H 1 Z" />
    <path
       id="rect2-54-540"
       style="display:inline;fill:#ffffff;fill-rule:evenodd"
       d="m 0,9 h 1 v 1 H 0 Z" />
    <path
       id="rect2-54-69"
       style="display:inline;fill:#ffffff;fill-rule:evenodd"
       d="m 0,10 h 1 v 1 H 0 Z" />
    <path
       id="rect2-54-77"
       style="display:inline;fill:#ffffff;fill-rule:evenodd"
       d="m 0,11 h 1 v 1 H 0 Z" />
    <path
       id="rect2-54-12"
       style="display:inline;fill:#ffffff;fill-rule:evenodd"
       d="m 1,12 h 1 v 1 H 1 Z" />
    <path
       id="rect2-54-68"
       style="display:inline;fill:#ffffff;fill-rule:evenodd"
       d="m 2,13 h 1 v 1 H 2 Z" />
    <path
       id="rect2-54-0"
       style="display:inline;fill:#ffffff;fill-rule:evenodd"
       d="m 3,13 h 1 v 1 H 3 Z" />
    <path
       id="rect2-54-42"
       style="display:inline;fill:#ffffff;fill-rule:evenodd"
       d="M 5,8 H 6 V 9 H 5 Z" />
    <path
       id="rect2-54-04"
       style="display:inline;fill:#ffffff;fill-rule:evenodd"
       d="M 5,7 H 6 V 8 H 5 Z" />
    <path
       id="rect2-54-055"
       style="display:inline;fill:#ffffff;fill-rule:evenodd"
       d="M 6,6 H 7 V 7 H 6 Z" />
    <path
       id="rect2-54-283"
       style="display:inline;fill:#ffffff;fill-rule:evenodd"
       d="M 7,6 H 8 V 7 H 7 Z" />
    <path
       id="rect2-54-09"
       style="display:inline;fill:#ffffff;fill-rule:evenodd"
       d="M 8,7 H 9 V 8 H 8 Z" />
    <path
       id="rect2-54-25"
       style="display:inline;fill:#ffffff;fill-rule:evenodd"
       d="m 8,9 h 1 v 1 H 8 Z" />
    <path
       id="rect2-54-93"
       style="display:inline;fill:#ffffff;fill-rule:evenodd"
       d="m 7,10 h 1 v 1 H 7 Z" />
    <path
       id="rect2-54-02"
       style="display:inline;fill:#ffffff;fill-rule:evenodd"
       d="m 7,11 h 1 v 1 H 7 Z" />
    <path
       id="rect2-54-14"
       style="display:inline;fill:#ffffff;fill-rule:evenodd"
       d="m 5,11 h 1 v 1 H 5 Z" />
    <path
       id="rect2-54-22"
       style="display:inline;fill:#ffffff;fill-rule:evenodd"
       d="m 5,10 h 1 v 1 H 5 Z" />
    <path
       id="rect2-54-288"
       style="display:inline;fill:#ffffff;fill-rule:evenodd"
       d="m 5,9 h 1 v 1 H 5 Z" />
    <path
       id="rect2-54-88"
       style="display:inline;fill:#ffffff;fill-rule:evenodd"
       d="m 7,12 h 1 v 1 H 7 Z" />
    <path
       id="rect2-54-83"
       style="display:inline;fill:#ffffff;fill-rule:evenodd"
       d="m 6,12 h 1 v 1 H 6 Z" />
    <path
       id="rect2-54-047"
       style="display:inline;fill:#ffffff;fill-rule:evenodd"
       d="m 5,12 h 1 v 1 H 5 Z" />
    <path
       id="rect2-54-06"
       style="display:inline;fill:#ffffff;fill-rule:evenodd"
       d="M 7,8 H 8 V 9 H 7 Z" />
    <path
       id="rect2-54-03"
       style="display:inline;fill:#ffffff;fill-rule:evenodd"
       d="m 9,8 h 1 V 9 H 9 Z" />
    <path
       id="rect2-54-32"
       style="display:inline;fill:#ffffff;fill-rule:evenodd"
       d="m 9,9 h 1 v 1 H 9 Z" />
    <path
       id="rect2-54-658"
       style="display:inline;fill:#ffffff;fill-rule:evenodd"
       d="m 8,10 h 1 v 1 H 8 Z" />
    <path
       id="rect2-54-041"
       style="display:inline;fill:#ffffff;fill-rule:evenodd"
       d="M 8,6 H 9 V 7 H 8 Z" />
    <path
       id="rect2-54-041-5"
       style="display:inline;fill:#ffffff;fill-rule:evenodd"
       d="M 6,7 H 7 V 8 H 6 Z" />
    <path
       id="rect2-54-041-2"
       style="display:inline;fill:#ffffff;fill-rule:evenodd"
       d="M 7,7 H 8 V 8 H 7 Z" />
    <path
       id="rect2-54-041-7"
       style="display:inline;fill:#ffffff;fill-rule:evenodd"
       d="M 8,8 H 9 V 9 H 8 Z" />
    <path
       id="rect2-54-041-6"
       style="display:inline;fill:#ffffff;fill-rule:evenodd"
       d="m 7,9 h 1 v 1 H 7 Z" />
    <path
       id="rect2-54-041-61"
       style="display:inline;fill:#ffffff;fill-rule:evenodd"
       d="M 6,8 H 7 V 9 H 6 Z" />
    <path
       id="rect2-54-041-20"
       style="display:inline;fill:#ffffff;fill-rule:evenodd"
       d="m 6,9 h 1 v 1 H 6 Z" />
    <path
       id="rect2-54-041-59"
       style="display:inline;fill:#ffffff;fill-rule:evenodd"
       d="m 6,10 h 1 v 1 H 6 Z" />
    <path
       id="rect2-54-041-9"
       style="display:inline;fill:#ffffff;fill-rule:evenodd"
       d="m 6,11 h 1 v 1 H 6 Z" />
    <path
       id="rect2-54-70"
       style="display:inline;fill:#ffffff;fill-rule:evenodd"
       d="m 9,7 h 1 V 8 H 9 Z" />
    <path
       id="rect2-54-47"
       style="display:inline;fill:#ffffff;fill-rule:evenodd"
       d="m 10,7 h 1 v 1 h -1 z" />
    <path
       id="rect2-54-2830"
       style="display:inline;fill:#ffffff;fill-rule:evenodd"
       d="m 10,8 h 1 v 1 h -1 z" />
    <path
       id="rect2-54-91"
       style="display:inline;fill:#ffffff;fill-rule:evenodd"
       d="m 11,8 h 1 v 1 h -1 z" />
    <path
       id="rect2-54-257"
       style="display:inline;fill:#ffffff;fill-rule:evenodd"
       d="m 10,9 h 1 v 1 h -1 z" />
    <path
       id="rect2-54-45"
       style="display:inline;fill:#ffffff;fill-rule:evenodd"
       d="m 11,9 h 1 v 1 h -1 z" />
    <path
       id="rect2-54-708"
       style="display:inline;fill:#ffffff;fill-rule:evenodd"
       d="m 12,9 h 1 v 1 h -1 z" />
    <path
       id="rect2-54-782"
       style="display:inline;fill:#ffffff;fill-rule:evenodd"
       d="m 12,10 h 1 v 1 h -1 z" />
    <path
       id="rect2-54-90"
       style="display:inline;fill:#ffffff;fill-rule:evenodd"
       d="m 11,10 h 1 v 1 h -1 z" />
    <path
       id="rect2-54-962"
       style="display:inline;fill:#ffffff;fill-rule:evenodd"
       d="m 10,10 h 1 v 1 h -1 z" />
    <path
       id="rect2-54-73"
       style="display:inline;fill:#ffffff;fill-rule:evenodd"
       d="m 9,10 h 1 v 1 H 9 Z" />
    <path
       id="rect2-54-05"
       style="display:inline;fill:#ffffff;fill-rule:evenodd"
       d="m 8,11 h 1 v 1 H 8 Z" />
    <path
       id="rect2-54-40"
       style="display:inline;fill:#ffffff;fill-rule:evenodd"
       d="m 9,11 h 1 v 1 H 9 Z" />
    <path
       id="rect2-54-48"
       style="display:inline;fill:#ffffff;fill-rule:evenodd"
       d="m 10,11 h 1 v 1 h -1 z" />
    <path
       id="rect2-54-60"
       style="display:inline;fill:#ffffff;fill-rule:evenodd"
       d="m 11,11 h 1 v 1 h -1 z" />
    <path
       id="rect2-54-62"
       style="display:inline;fill:#ffffff;fill-rule:evenodd"
       d="m 12,11 h 1 v 1 h -1 z" />
    <path
       id="rect2-54-07"
       style="display:inline;fill:#ffffff;fill-rule:evenodd"
       d="m 13,11 h 1 v 1 h -1 z" />
    <path
       id="rect2-54-13"
       style="display:inline;fill:#ffffff;fill-rule:evenodd"
       d="m 13,10 h 1 v 1 h -1 z" />
    <path
       id="rect2-54-64"
       style="display:inline;fill:#ffffff;fill-rule:evenodd"
       d="m 12,12 h 1 v 1 h -1 z" />
    <path
       id="rect2-54-29"
       style="display:inline;fill:#ffffff;fill-rule:evenodd"
       d="m 11,12 h 1 v 1 h -1 z" />
    <path
       id="rect2-54-451"
       style="display:inline;fill:#ffffff;fill-rule:evenodd"
       d="m 9,12 h 1 v 1 H 9 Z" />
    <path
       id="rect2-54-886"
       style="display:inline;fill:#ffffff;fill-rule:evenodd"
       d="m 10,12 h 1 v 1 h -1 z" />
    <path
       id="rect2-54-760"
       style="display:inline;fill:#ffffff;fill-rule:evenodd"
       d="m 8,12 h 1 v 1 H 8 Z" />
    <path
       id="rect2-54-978"
       style="display:inline;fill:#ffffff;fill-rule:evenodd"
       d="m 4,12 h 1 v 1 H 4 Z" />
    <path
       id="rect2-54-837"
       style="display:inline;fill:#ffffff;fill-rule:evenodd"
       d="m 4,11 h 1 v 1 H 4 Z" />
    <path
       id="rect2-54-87"
       style="display:inline;fill:#ffffff;fill-rule:evenodd"
       d="m 4,10 h 1 v 1 H 4 Z" />
    <path
       id="rect2-54-098"
       style="display:inline;fill:#ffffff;fill-rule:evenodd"
       d="m 4,9 h 1 v 1 H 4 Z" />
    <path
       id="rect2-54-43"
       style="display:inline;fill:#ffffff;fill-rule:evenodd"
       d="M 4,8 H 5 V 9 H 4 Z" />
    <path
       id="rect2-54-80"
       style="display:inline;fill:#ffffff;fill-rule:evenodd"
       d="M 4,7 H 5 V 8 H 4 Z" />
    <path
       id="rect2-54-932"
       style="display:inline;fill:#ffffff;fill-rule:evenodd"
       d="M 4,6 H 5 V 7 H 4 Z" />
    <path
       id="rect2-54-122"
       style="display:inline;fill:#ffffff;fill-rule:evenodd"
       d="M 5,6 H 6 V 7 H 5 Z" />
    <path
       id="rect2-54-75"
       style="display:inline;fill:#ffffff;fill-rule:evenodd"
       d="M 5,5 H 6 V 6 H 5 Z" />
    <path
       id="rect2-54-17"
       style="display:inline;fill:#ffffff;fill-rule:evenodd"
       d="M 6,5 H 7 V 6 H 6 Z" />
    <path
       id="rect2-54-704"
       style="display:inline;fill:#ffffff;fill-rule:evenodd"
       d="M 7,5 H 8 V 6 H 7 Z" />
    <path
       id="rect2-54-16"
       style="display:inline;fill:#ffffff;fill-rule:evenodd"
       d="M 3,7 H 4 V 8 H 3 Z" />
    <path
       id="rect2-54-964"
       style="display:inline;fill:#ffffff;fill-rule:evenodd"
       d="M 2,7 H 3 V 8 H 2 Z" />
    <path
       id="rect2-54-10"
       style="display:inline;fill:#ffffff;fill-rule:evenodd"
       d="M 2,8 H 3 V 9 H 2 Z" />
    <path
       id="rect2-54-756"
       style="display:inline;fill:#ffffff;fill-rule:evenodd"
       d="M 3,8 H 4 V 9 H 3 Z" />
    <path
       id="rect2-54-79"
       style="display:inline;fill:#ffffff;fill-rule:evenodd"
       d="m 3,9 h 1 v 1 H 3 Z" />
    <path
       id="rect2-54-170"
       style="display:inline;fill:#ffffff;fill-rule:evenodd"
       d="m 2,9 h 1 v 1 H 2 Z" />
    <path
       id="rect2-54-539"
       style="display:inline;fill:#ffffff;fill-rule:evenodd"
       d="m 1,9 h 1 v 1 H 1 Z" />
    <path
       id="rect2-54-41"
       style="display:inline;fill:#ffffff;fill-rule:evenodd"
       d="m 1,10 h 1 v 1 H 1 Z" />
    <path
       id="rect2-54-98"
       style="display:inline;fill:#ffffff;fill-rule:evenodd"
       d="m 2,10 h 1 v 1 H 2 Z" />
    <path
       id="rect2-54-222"
       style="display:inline;fill:#ffffff;fill-rule:evenodd"
       d="m 3,10 h 1 v 1 H 3 Z" />
    <path
       id="rect2-54-46"
       style="display:inline;fill:#ffffff;fill-rule:evenodd"
       d="m 3,11 h 1 v 1 H 3 Z" />
    <path
       id="rect2-54-34"
       style="display:inline;fill:#ffffff;fill-rule:evenodd"
       d="m 2,11 h 1 v 1 H 2 Z" />
    <path
       id="rect2-54-72"
       style="display:inline;fill:#ffffff;fill-rule:evenodd"
       d="m 1,11 h 1 v 1 H 1 Z" />
    <path
       id="rect2-54-024"
       style="display:inline;fill:#ffffff;fill-rule:evenodd"
       d="m 2,12 h 1 v 1 H 2 Z" />
    <path
       id="rect2-54-71"
       style="display:inline;fill:#ffffff;fill-rule:evenodd"
       d="m 3,12 h 1 v 1 H 3 Z" />
  </g>
</svg>
