<?xml version="1.0" encoding="UTF-8" standalone="no"?>
<!-- Created with Inkscape (http://www.inkscape.org/) -->

<svg
   width="16"
   height="16"
   viewBox="0 0 16 16"
   version="1.1"
   id="svg1"
   inkscape:version="1.3.2 (091e20ef0f, 2023-11-25)"
   sodipodi:docname="applications-education.svg"
   xmlns:inkscape="http://www.inkscape.org/namespaces/inkscape"
   xmlns:sodipodi="http://sodipodi.sourceforge.net/DTD/sodipodi-0.dtd"
   xmlns="http://www.w3.org/2000/svg"
   xmlns:svg="http://www.w3.org/2000/svg">
  <sodipodi:namedview
     id="namedview1"
     pagecolor="#1feb07"
     bordercolor="#000000"
     borderopacity="0.25"
     inkscape:showpageshadow="2"
     inkscape:pageopacity="0.0"
     inkscape:pagecheckerboard="0"
     inkscape:deskcolor="#d1d1d1"
     inkscape:document-units="px"
     showgrid="true"
     inkscape:zoom="32"
     inkscape:cx="8.171875"
     inkscape:cy="5.78125"
     inkscape:window-width="1390"
     inkscape:window-height="1392"
     inkscape:window-x="0"
     inkscape:window-y="0"
     inkscape:window-maximized="0"
     inkscape:current-layer="layer3">
    <inkscape:grid
       id="grid1"
       units="px"
       originx="0"
       originy="0"
       spacingx="1"
       spacingy="1"
       empcolor="#0099e5"
       empopacity="0.30196078"
       color="#0099e5"
       opacity="0.14901961"
       empspacing="1"
       dotted="false"
       gridanglex="30"
       gridanglez="30"
       visible="true" />
  </sodipodi:namedview>
  <defs
     id="defs1" />
  <g
     inkscape:groupmode="layer"
     id="layer3"
     inkscape:label="education">
    <path
       id="rect2-54-76-43"
       style="display:inline;fill:#ffffff;fill-rule:evenodd"
       d="M 2,1 H 3 V 2 H 2 Z" />
    <path
       id="rect2-54-76-43-5"
       style="display:inline;fill:#ffffff;fill-rule:evenodd"
       d="M 4,1 H 5 V 2 H 4 Z" />
    <path
       id="rect2-54-76-43-8"
       style="display:inline;fill:#ffffff;fill-rule:evenodd"
       d="M 3,1 H 4 V 2 H 3 Z" />
    <path
       id="rect2-54-76-43-4"
       style="display:inline;fill:#ffffff;fill-rule:evenodd"
       d="M 5,1 H 6 V 2 H 5 Z" />
    <path
       id="rect2-54-76-43-86"
       style="display:inline;fill:#ffffff;fill-rule:evenodd"
       d="M 6,1 H 7 V 2 H 6 Z" />
    <path
       id="rect2-54-76-43-7"
       style="display:inline;fill:#ffffff;fill-rule:evenodd"
       d="M 7,1 H 8 V 2 H 7 Z" />
    <path
       id="rect2-54-76-43-6"
       style="display:inline;fill:#ffffff;fill-rule:evenodd"
       d="M 8,1 H 9 V 2 H 8 Z" />
    <path
       id="rect2-54-76-43-0"
       style="display:inline;fill:#ffffff;fill-rule:evenodd"
       d="m 9,1 h 1 V 2 H 9 Z" />
    <path
       id="rect2-54-76-43-1"
       style="display:inline;fill:#ffffff;fill-rule:evenodd"
       d="m 10,1 h 1 v 1 h -1 z" />
    <path
       id="rect2-54-76-43-40"
       style="display:inline;fill:#ffffff;fill-rule:evenodd"
       d="m 11,1 h 1 v 1 h -1 z" />
    <path
       id="rect2-54-76-43-9"
       style="display:inline;fill:#ffffff;fill-rule:evenodd"
       d="m 12,1 h 1 v 1 h -1 z" />
    <path
       id="rect2-54-76-43-3"
       style="display:inline;fill:#ffffff;fill-rule:evenodd"
       d="m 13,1 h 1 v 1 h -1 z" />
    <path
       id="rect2-54-76-43-66"
       style="display:inline;fill:#ffffff;fill-rule:evenodd"
       d="m 14,2 h 1 v 1 h -1 z" />
    <path
       id="rect2-54-76-43-46"
       style="display:inline;fill:#ffffff;fill-rule:evenodd"
       d="m 14,3 h 1 v 1 h -1 z" />
    <path
       id="rect2-54-76-43-56"
       style="display:inline;fill:#ffffff;fill-rule:evenodd"
       d="m 14,4 h 1 v 1 h -1 z" />
    <path
       id="rect2-54-76-43-2"
       style="display:inline;fill:#ffffff;fill-rule:evenodd"
       d="m 14,5 h 1 v 1 h -1 z" />
    <path
       id="rect2-54-76-43-96"
       style="display:inline;fill:#ffffff;fill-rule:evenodd"
       d="m 14,6 h 1 v 1 h -1 z" />
    <path
       id="rect2-54-76-43-61"
       style="display:inline;fill:#ffffff;fill-rule:evenodd"
       d="m 14,7 h 1 v 1 h -1 z" />
    <path
       id="rect2-54-76-43-59"
       style="display:inline;fill:#ffffff;fill-rule:evenodd"
       d="m 14,8 h 1 v 1 h -1 z" />
    <path
       id="rect2-54-76-43-91"
       style="display:inline;fill:#ffffff;fill-rule:evenodd"
       d="m 14,9 h 1 v 1 h -1 z" />
    <path
       id="rect2-54-76-43-87"
       style="display:inline;fill:#ffffff;fill-rule:evenodd"
       d="m 14,10 h 1 v 1 h -1 z" />
    <path
       id="rect2-54-76-43-04"
       style="display:inline;fill:#ffffff;fill-rule:evenodd"
       d="m 14,11 h 1 v 1 h -1 z" />
    <path
       id="rect2-54-76-43-10"
       style="display:inline;fill:#ffffff;fill-rule:evenodd"
       d="m 14,12 h 1 v 1 h -1 z" />
    <path
       id="rect2-54-76-43-20"
       style="display:inline;fill:#ffffff;fill-rule:evenodd"
       d="m 14,13 h 1 v 1 h -1 z" />
    <path
       id="rect2-54-76-43-90"
       style="display:inline;fill:#ffffff;fill-rule:evenodd"
       d="m 13,14 h 1 v 1 h -1 z" />
    <path
       id="rect2-54-76-43-80"
       style="display:inline;fill:#ffffff;fill-rule:evenodd"
       d="m 12,14 h 1 v 1 h -1 z" />
    <path
       id="rect2-54-76-43-19"
       style="display:inline;fill:#ffffff;fill-rule:evenodd"
       d="m 11,14 h 1 v 1 h -1 z" />
    <path
       id="rect2-54-76-43-44"
       style="display:inline;fill:#ffffff;fill-rule:evenodd"
       d="m 10,14 h 1 v 1 h -1 z" />
    <path
       id="rect2-54-76-43-60"
       style="display:inline;fill:#ffffff;fill-rule:evenodd"
       d="m 9,14 h 1 v 1 H 9 Z" />
    <path
       id="rect2-54-76-43-94"
       style="display:inline;fill:#ffffff;fill-rule:evenodd"
       d="m 8,14 h 1 v 1 H 8 Z" />
    <path
       id="rect2-54-76-43-74"
       style="display:inline;fill:#ffffff;fill-rule:evenodd"
       d="m 7,14 h 1 v 1 H 7 Z" />
    <path
       id="rect2-54-76-43-69"
       style="display:inline;fill:#ffffff;fill-rule:evenodd"
       d="m 6,14 h 1 v 1 H 6 Z" />
    <path
       id="rect2-54-76-43-64"
       style="display:inline;fill:#ffffff;fill-rule:evenodd"
       d="m 5,14 h 1 v 1 H 5 Z" />
    <path
       id="rect2-54-76-43-89"
       style="display:inline;fill:#ffffff;fill-rule:evenodd"
       d="m 4,14 h 1 v 1 H 4 Z" />
    <path
       id="rect2-54-76-43-868"
       style="display:inline;fill:#ffffff;fill-rule:evenodd"
       d="m 3,14 h 1 v 1 H 3 Z" />
    <path
       id="rect2-54-76-43-33"
       style="display:inline;fill:#ffffff;fill-rule:evenodd"
       d="m 2,14 h 1 v 1 H 2 Z" />
    <path
       id="rect2-54-76-43-76"
       style="display:inline;fill:#ffffff;fill-rule:evenodd"
       d="m 1,13 h 1 v 1 H 1 Z" />
    <path
       id="rect2-54-76-43-68"
       style="display:inline;fill:#ffffff;fill-rule:evenodd"
       d="m 1,12 h 1 v 1 H 1 Z" />
    <path
       id="rect2-54-76-43-333"
       style="display:inline;fill:#ffffff;fill-rule:evenodd"
       d="m 1,11 h 1 v 1 H 1 Z" />
    <path
       id="rect2-54-76-43-65"
       style="display:inline;fill:#ffffff;fill-rule:evenodd"
       d="m 1,10 h 1 v 1 H 1 Z" />
    <path
       id="rect2-54-76-43-879"
       style="display:inline;fill:#ffffff;fill-rule:evenodd"
       d="m 1,9 h 1 v 1 H 1 Z" />
    <path
       id="rect2-54-76-43-104"
       style="display:inline;fill:#ffffff;fill-rule:evenodd"
       d="M 1,8 H 2 V 9 H 1 Z" />
    <path
       id="rect2-54-76-43-862"
       style="display:inline;fill:#ffffff;fill-rule:evenodd"
       d="M 1,7 H 2 V 8 H 1 Z" />
    <path
       id="rect2-54-76-43-39"
       style="display:inline;fill:#ffffff;fill-rule:evenodd"
       d="M 1,6 H 2 V 7 H 1 Z" />
    <path
       id="rect2-54-76-43-01"
       style="display:inline;fill:#ffffff;fill-rule:evenodd"
       d="M 1,5 H 2 V 6 H 1 Z" />
    <path
       id="rect2-54-76-43-15"
       style="display:inline;fill:#ffffff;fill-rule:evenodd"
       d="M 1,4 H 2 V 5 H 1 Z" />
    <path
       id="rect2-54-76-43-57"
       style="display:inline;fill:#ffffff;fill-rule:evenodd"
       d="M 1,3 H 2 V 4 H 1 Z" />
    <path
       id="rect2-54-76-43-45"
       style="display:inline;fill:#ffffff;fill-rule:evenodd"
       d="M 1,2 H 2 V 3 H 1 Z" />
    <path
       id="rect2-54-76-43-70"
       style="display:inline;fill:#ffffff;fill-rule:evenodd"
       d="M 7,3 H 8 V 4 H 7 Z" />
    <path
       id="rect2-54-76-43-97"
       style="display:inline;fill:#ffffff;fill-rule:evenodd"
       d="M 8,3 H 9 V 4 H 8 Z" />
    <path
       id="rect2-54-76-43-34"
       style="display:inline;fill:#ffffff;fill-rule:evenodd"
       d="m 9,4 h 1 V 5 H 9 Z" />
    <path
       id="rect2-54-76-43-019"
       style="display:inline;fill:#ffffff;fill-rule:evenodd"
       d="m 9,5 h 1 V 6 H 9 Z" />
    <path
       id="rect2-54-76-43-207"
       style="display:inline;fill:#ffffff;fill-rule:evenodd"
       d="m 9,7 h 1 V 8 H 9 Z" />
    <path
       id="rect2-54-76-43-905"
       style="display:inline;fill:#ffffff;fill-rule:evenodd"
       d="m 9,6 h 1 V 7 H 9 Z" />
    <path
       id="rect2-54-76-43-406"
       style="display:inline;fill:#ffffff;fill-rule:evenodd"
       d="M 6,4 H 7 V 5 H 6 Z" />
    <path
       id="rect2-54-76-43-85"
       style="display:inline;fill:#ffffff;fill-rule:evenodd"
       d="M 6,5 H 7 V 6 H 6 Z" />
    <path
       id="rect2-54-76-43-06"
       style="display:inline;fill:#ffffff;fill-rule:evenodd"
       d="M 6,6 H 7 V 7 H 6 Z" />
    <path
       id="rect2-54-76-43-28"
       style="display:inline;fill:#ffffff;fill-rule:evenodd"
       d="M 6,7 H 7 V 8 H 6 Z" />
    <path
       id="rect2-54-76-43-701"
       style="display:inline;fill:#ffffff;fill-rule:evenodd"
       d="M 6,8 H 7 V 9 H 6 Z" />
    <path
       id="rect2-54-76-43-77"
       style="display:inline;fill:#ffffff;fill-rule:evenodd"
       d="m 6,9 h 1 v 1 H 6 Z" />
    <path
       id="rect2-54-76-43-52"
       style="display:inline;fill:#ffffff;fill-rule:evenodd"
       d="m 6,10 h 1 v 1 H 6 Z" />
    <path
       id="rect2-54-76-43-09"
       style="display:inline;fill:#ffffff;fill-rule:evenodd"
       d="m 6,11 h 1 v 1 H 6 Z" />
    <path
       id="rect2-54-76-43-103"
       style="display:inline;fill:#ffffff;fill-rule:evenodd"
       d="m 6,12 h 1 v 1 H 6 Z" />
    <path
       id="rect2-54-76-43-604"
       style="display:inline;fill:#ffffff;fill-rule:evenodd"
       d="m 9,8 h 1 V 9 H 9 Z" />
    <path
       id="rect2-54-76-43-097"
       style="display:inline;fill:#ffffff;fill-rule:evenodd"
       d="m 9,10 h 1 v 1 H 9 Z" />
    <path
       id="rect2-54-76-43-853"
       style="display:inline;fill:#ffffff;fill-rule:evenodd"
       d="m 9,11 h 1 v 1 H 9 Z" />
    <path
       id="rect2-54-76-43-79"
       style="display:inline;fill:#ffffff;fill-rule:evenodd"
       d="m 9,12 h 1 v 1 H 9 Z" />
    <path
       id="rect2-54-76-43-741"
       style="display:inline;fill:#ffffff;fill-rule:evenodd"
       d="m 9,9 h 1 v 1 H 9 Z" />
    <path
       id="rect2-54-76-43-88"
       style="display:inline;fill:#ffffff;fill-rule:evenodd"
       d="M 7,8 H 8 V 9 H 7 Z" />
    <path
       id="rect2-54-76-43-37"
       style="display:inline;fill:#ffffff;fill-rule:evenodd"
       d="M 8,8 H 9 V 9 H 8 Z" />
  </g>
</svg>
