<?xml version="1.0" encoding="UTF-8" standalone="no"?>
<!-- Created with Inkscape (http://www.inkscape.org/) -->

<svg
   width="16"
   height="16"
   viewBox="0 0 16 16"
   version="1.1"
   id="svg1"
   inkscape:version="1.3.2 (091e20ef0f, 2023-11-25)"
   sodipodi:docname="goa-account.svg"
   xmlns:inkscape="http://www.inkscape.org/namespaces/inkscape"
   xmlns:sodipodi="http://sodipodi.sourceforge.net/DTD/sodipodi-0.dtd"
   xmlns="http://www.w3.org/2000/svg"
   xmlns:svg="http://www.w3.org/2000/svg">
  <sodipodi:namedview
     id="namedview1"
     pagecolor="#00bd0e"
     bordercolor="#000000"
     borderopacity="0.25"
     inkscape:showpageshadow="2"
     inkscape:pageopacity="0.0"
     inkscape:pagecheckerboard="0"
     inkscape:deskcolor="#d1d1d1"
     inkscape:document-units="px"
     showgrid="true"
     inkscape:zoom="32"
     inkscape:cx="5.875"
     inkscape:cy="12.75"
     inkscape:window-width="1390"
     inkscape:window-height="1392"
     inkscape:window-x="0"
     inkscape:window-y="0"
     inkscape:window-maximized="0"
     inkscape:current-layer="layer7">
    <inkscape:grid
       id="grid1"
       units="px"
       originx="0"
       originy="0"
       spacingx="1"
       spacingy="1"
       empcolor="#0099e5"
       empopacity="0.30196078"
       color="#0099e5"
       opacity="0.14901961"
       empspacing="1"
       dotted="false"
       gridanglex="30"
       gridanglez="30"
       visible="true" />
  </sodipodi:namedview>
  <defs
     id="defs1" />
  <g
     inkscape:groupmode="layer"
     id="layer7"
     inkscape:label="account">
    <path
       id="rect2-2-776-04-52"
       style="display:inline;fill:#ffffff;fill-rule:evenodd"
       d="M 1,1 H 2 V 2 H 1 Z" />
    <path
       id="rect2-2-776-04-52-4"
       style="display:inline;fill:#ffffff;fill-rule:evenodd"
       d="M 1,2 H 2 V 3 H 1 Z" />
    <path
       id="rect2-2-776-04-52-3"
       style="display:inline;fill:#ffffff;fill-rule:evenodd"
       d="M 1,3 H 2 V 4 H 1 Z" />
    <path
       id="rect2-2-776-04-52-2"
       style="display:inline;fill:#ffffff;fill-rule:evenodd"
       d="M 1,4 H 2 V 5 H 1 Z" />
    <path
       id="rect2-2-776-04-52-5"
       style="display:inline;fill:#ffffff;fill-rule:evenodd"
       d="M 1,5 H 2 V 6 H 1 Z" />
    <path
       id="rect2-2-776-04-52-49"
       style="display:inline;fill:#ffffff;fill-rule:evenodd"
       d="M 1,6 H 2 V 7 H 1 Z" />
    <path
       id="rect2-2-776-04-52-1"
       style="display:inline;fill:#ffffff;fill-rule:evenodd"
       d="M 1,7 H 2 V 8 H 1 Z" />
    <path
       id="rect2-2-776-04-52-8"
       style="display:inline;fill:#ffffff;fill-rule:evenodd"
       d="M 1,8 H 2 V 9 H 1 Z" />
    <path
       id="rect2-2-776-04-52-51"
       style="display:inline;fill:#ffffff;fill-rule:evenodd"
       d="m 1,9 h 1 v 1 H 1 Z" />
    <path
       id="rect2-2-776-04-52-33"
       style="display:inline;fill:#ffffff;fill-rule:evenodd"
       d="m 1,10 h 1 v 1 H 1 Z" />
    <path
       id="rect2-2-776-04-52-22"
       style="display:inline;fill:#ffffff;fill-rule:evenodd"
       d="m 1,11 h 1 v 1 H 1 Z" />
    <path
       id="rect2-2-776-04-52-9"
       style="display:inline;fill:#ffffff;fill-rule:evenodd"
       d="m 1,12 h 1 v 1 H 1 Z" />
    <path
       id="rect2-2-776-04-52-7"
       style="display:inline;fill:#ffffff;fill-rule:evenodd"
       d="m 1,13 h 1 v 1 H 1 Z" />
    <path
       id="rect2-2-776-04-52-0"
       style="display:inline;fill:#ffffff;fill-rule:evenodd"
       d="m 1,14 h 1 v 1 H 1 Z" />
    <path
       id="rect2-2-776-04-52-75"
       style="display:inline;fill:#ffffff;fill-rule:evenodd"
       d="m 2,14 h 1 v 1 H 2 Z" />
    <path
       id="rect2-2-776-04-52-93"
       style="display:inline;fill:#ffffff;fill-rule:evenodd"
       d="m 3,14 h 1 v 1 H 3 Z" />
    <path
       id="rect2-2-776-04-52-43"
       style="display:inline;fill:#ffffff;fill-rule:evenodd"
       d="m 4,14 h 1 v 1 H 4 Z" />
    <path
       id="rect2-2-776-04-52-08"
       style="display:inline;fill:#ffffff;fill-rule:evenodd"
       d="m 5,14 h 1 v 1 H 5 Z" />
    <path
       id="rect2-2-776-04-52-16"
       style="display:inline;fill:#ffffff;fill-rule:evenodd"
       d="m 6,14 h 1 v 1 H 6 Z" />
    <path
       id="rect2-2-776-04-52-01"
       style="display:inline;fill:#ffffff;fill-rule:evenodd"
       d="m 7,14 h 1 v 1 H 7 Z" />
    <path
       id="rect2-2-776-04-52-06"
       style="display:inline;fill:#ffffff;fill-rule:evenodd"
       d="m 8,14 h 1 v 1 H 8 Z" />
    <path
       id="rect2-2-776-04-52-50"
       style="display:inline;fill:#ffffff;fill-rule:evenodd"
       d="m 9,14 h 1 v 1 H 9 Z" />
    <path
       id="rect2-2-776-04-52-81"
       style="display:inline;fill:#ffffff;fill-rule:evenodd"
       d="m 10,14 h 1 v 1 h -1 z" />
    <path
       id="rect2-2-776-04-52-79"
       style="display:inline;fill:#ffffff;fill-rule:evenodd"
       d="m 12,14 h 1 v 1 h -1 z" />
    <path
       id="rect2-2-776-04-52-80"
       style="display:inline;fill:#ffffff;fill-rule:evenodd"
       d="m 11,14 h 1 v 1 h -1 z" />
    <path
       id="rect2-2-776-04-52-24"
       style="display:inline;fill:#ffffff;fill-rule:evenodd"
       d="m 13,14 h 1 v 1 h -1 z" />
    <path
       id="rect2-2-776-04-52-00"
       style="display:inline;fill:#ffffff;fill-rule:evenodd"
       d="m 14,14 h 1 v 1 h -1 z" />
    <path
       id="rect2-2-776-04-52-000"
       style="display:inline;fill:#ffffff;fill-rule:evenodd"
       d="m 14,13 h 1 v 1 h -1 z" />
    <path
       id="rect2-2-776-04-52-31"
       style="display:inline;fill:#ffffff;fill-rule:evenodd"
       d="m 14,12 h 1 v 1 h -1 z" />
    <path
       id="rect2-2-776-04-52-13"
       style="display:inline;fill:#ffffff;fill-rule:evenodd"
       d="m 14,11 h 1 v 1 h -1 z" />
    <path
       id="rect2-2-776-04-52-82"
       style="display:inline;fill:#ffffff;fill-rule:evenodd"
       d="m 14,10 h 1 v 1 h -1 z" />
    <path
       id="rect2-2-776-04-52-45"
       style="display:inline;fill:#ffffff;fill-rule:evenodd"
       d="m 14,9 h 1 v 1 h -1 z" />
    <path
       id="rect2-2-776-04-52-27"
       style="display:inline;fill:#ffffff;fill-rule:evenodd"
       d="m 14,8 h 1 v 1 h -1 z" />
    <path
       id="rect2-2-776-04-52-228"
       style="display:inline;fill:#ffffff;fill-rule:evenodd"
       d="m 14,7 h 1 v 1 h -1 z" />
    <path
       id="rect2-2-776-04-52-09"
       style="display:inline;fill:#ffffff;fill-rule:evenodd"
       d="m 14,6 h 1 v 1 h -1 z" />
    <path
       id="rect2-2-776-04-52-94"
       style="display:inline;fill:#ffffff;fill-rule:evenodd"
       d="m 14,5 h 1 v 1 h -1 z" />
    <path
       id="rect2-2-776-04-52-278"
       style="display:inline;fill:#ffffff;fill-rule:evenodd"
       d="m 14,4 h 1 v 1 h -1 z" />
    <path
       id="rect2-2-776-04-52-094"
       style="display:inline;fill:#ffffff;fill-rule:evenodd"
       d="m 14,3 h 1 v 1 h -1 z" />
    <path
       id="rect2-2-776-04-52-23"
       style="display:inline;fill:#ffffff;fill-rule:evenodd"
       d="m 14,2 h 1 v 1 h -1 z" />
    <path
       id="rect2-2-776-04-52-74"
       style="display:inline;fill:#ffffff;fill-rule:evenodd"
       d="m 14,1 h 1 v 1 h -1 z" />
    <path
       id="rect2-2-776-04-52-40"
       style="display:inline;fill:#ffffff;fill-rule:evenodd"
       d="m 13,1 h 1 v 1 h -1 z" />
    <path
       id="rect2-2-776-04-52-28"
       style="display:inline;fill:#ffffff;fill-rule:evenodd"
       d="m 12,1 h 1 v 1 h -1 z" />
    <path
       id="rect2-2-776-04-52-11"
       style="display:inline;fill:#ffffff;fill-rule:evenodd"
       d="m 11,1 h 1 v 1 h -1 z" />
    <path
       id="rect2-2-776-04-52-02"
       style="display:inline;fill:#ffffff;fill-rule:evenodd"
       d="m 10,1 h 1 v 1 h -1 z" />
    <path
       id="rect2-2-776-04-52-91"
       style="display:inline;fill:#ffffff;fill-rule:evenodd"
       d="m 9,1 h 1 V 2 H 9 Z" />
    <path
       id="rect2-2-776-04-52-6"
       style="display:inline;fill:#ffffff;fill-rule:evenodd"
       d="M 8,1 H 9 V 2 H 8 Z" />
    <path
       id="rect2-2-776-04-52-48"
       style="display:inline;fill:#ffffff;fill-rule:evenodd"
       d="M 7,1 H 8 V 2 H 7 Z" />
    <path
       id="rect2-2-776-04-52-69"
       style="display:inline;fill:#ffffff;fill-rule:evenodd"
       d="M 5,1 H 6 V 2 H 5 Z" />
    <path
       id="rect2-2-776-04-52-67"
       style="display:inline;fill:#ffffff;fill-rule:evenodd"
       d="M 6,1 H 7 V 2 H 6 Z" />
    <path
       id="rect2-2-776-04-52-60"
       style="display:inline;fill:#ffffff;fill-rule:evenodd"
       d="M 4,1 H 5 V 2 H 4 Z" />
    <path
       id="rect2-2-776-04-52-66"
       style="display:inline;fill:#ffffff;fill-rule:evenodd"
       d="M 3,1 H 4 V 2 H 3 Z" />
    <path
       id="rect2-2-776-04-52-665"
       style="display:inline;fill:#ffffff;fill-rule:evenodd"
       d="M 2,1 H 3 V 2 H 2 Z" />
    <path
       id="rect2-2-776-04-52-07"
       style="display:inline;fill:#ffffff;fill-rule:evenodd"
       d="M 7,3 H 8 V 4 H 7 Z" />
    <path
       id="rect2-2-776-04-52-12"
       style="display:inline;fill:#ffffff;fill-rule:evenodd"
       d="M 8,3 H 9 V 4 H 8 Z" />
    <path
       id="rect2-2-776-04-52-52"
       style="display:inline;fill:#ffffff;fill-rule:evenodd"
       d="m 9,3 h 1 V 4 H 9 Z" />
    <path
       id="rect2-2-776-04-52-64"
       style="display:inline;fill:#ffffff;fill-rule:evenodd"
       d="M 6,3 H 7 V 4 H 6 Z" />
    <path
       id="rect2-2-776-04-52-511"
       style="display:inline;fill:#ffffff;fill-rule:evenodd"
       d="M 5,4 H 6 V 5 H 5 Z" />
    <path
       id="rect2-2-776-04-52-90"
       style="display:inline;fill:#ffffff;fill-rule:evenodd"
       d="m 10,4 h 1 v 1 h -1 z" />
    <path
       id="rect2-2-776-04-52-697"
       style="display:inline;fill:#ffffff;fill-rule:evenodd"
       d="M 4,5 H 5 V 6 H 4 Z" />
    <path
       id="rect2-2-776-04-52-99"
       style="display:inline;fill:#ffffff;fill-rule:evenodd"
       d="M 4,6 H 5 V 7 H 4 Z" />
    <path
       id="rect2-2-776-04-52-63"
       style="display:inline;fill:#ffffff;fill-rule:evenodd"
       d="m 11,5 h 1 v 1 h -1 z" />
    <path
       id="rect2-2-776-04-52-496"
       style="display:inline;fill:#ffffff;fill-rule:evenodd"
       d="m 11,6 h 1 v 1 h -1 z" />
    <path
       id="rect2-2-776-04-52-98"
       style="display:inline;fill:#ffffff;fill-rule:evenodd"
       d="M 4,7 H 5 V 8 H 4 Z" />
    <path
       id="rect2-2-776-04-52-05"
       style="display:inline;fill:#ffffff;fill-rule:evenodd"
       d="M 4,8 H 5 V 9 H 4 Z" />
    <path
       id="rect2-2-776-04-52-602"
       style="display:inline;fill:#ffffff;fill-rule:evenodd"
       d="m 11,7 h 1 v 1 h -1 z" />
    <path
       id="rect2-2-776-04-52-983"
       style="display:inline;fill:#ffffff;fill-rule:evenodd"
       d="m 11,8 h 1 v 1 h -1 z" />
    <path
       id="rect2-2-776-04-52-17"
       style="display:inline;fill:#ffffff;fill-rule:evenodd"
       d="m 5,9 h 1 v 1 H 5 Z" />
    <path
       id="rect2-2-776-04-52-242"
       style="display:inline;fill:#ffffff;fill-rule:evenodd"
       d="m 10,9 h 1 v 1 h -1 z" />
    <path
       id="rect2-2-776-04-52-529"
       style="display:inline;fill:#ffffff;fill-rule:evenodd"
       d="m 9,10 h 1 v 1 H 9 Z" />
    <path
       id="rect2-2-776-04-52-812"
       style="display:inline;fill:#ffffff;fill-rule:evenodd"
       d="m 6,10 h 1 v 1 H 6 Z" />
    <path
       id="rect2-2-776-04-52-87"
       style="display:inline;fill:#ffffff;fill-rule:evenodd"
       d="m 5,11 h 1 v 1 H 5 Z" />
    <path
       id="rect2-2-776-04-52-804"
       style="display:inline;fill:#ffffff;fill-rule:evenodd"
       d="m 10,11 h 1 v 1 h -1 z" />
    <path
       id="rect2-2-776-04-52-751"
       style="display:inline;fill:#ffffff;fill-rule:evenodd"
       d="m 11,11 h 1 v 1 h -1 z" />
    <path
       id="rect2-2-776-04-52-095"
       style="display:inline;fill:#ffffff;fill-rule:evenodd"
       d="m 4,11 h 1 v 1 H 4 Z" />
    <path
       id="rect2-2-776-04-52-273"
       style="display:inline;fill:#ffffff;fill-rule:evenodd"
       d="m 3,12 h 1 v 1 H 3 Z" />
    <path
       id="rect2-2-776-04-52-86"
       style="display:inline;fill:#ffffff;fill-rule:evenodd"
       d="m 3,13 h 1 v 1 H 3 Z" />
    <path
       id="rect2-2-776-04-52-919"
       style="display:inline;fill:#ffffff;fill-rule:evenodd"
       d="m 12,12 h 1 v 1 h -1 z" />
    <path
       id="rect2-2-776-04-52-949"
       style="display:inline;fill:#ffffff;fill-rule:evenodd"
       d="m 12,13 h 1 v 1 h -1 z" />
  </g>
</svg>
