<?xml version="1.0" encoding="UTF-8" standalone="no"?>
<!-- Created with Inkscape (http://www.inkscape.org/) -->

<svg
   width="16"
   height="16"
   viewBox="0 0 16 16"
   version="1.1"
   id="svg1"
   inkscape:version="1.3.2 (091e20ef0f, 2023-11-25)"
   sodipodi:docname="gtk-network.svg"
   xmlns:inkscape="http://www.inkscape.org/namespaces/inkscape"
   xmlns:sodipodi="http://sodipodi.sourceforge.net/DTD/sodipodi-0.dtd"
   xmlns="http://www.w3.org/2000/svg"
   xmlns:svg="http://www.w3.org/2000/svg">
  <sodipodi:namedview
     id="namedview1"
     pagecolor="#ffffff"
     bordercolor="#000000"
     borderopacity="0.25"
     inkscape:showpageshadow="2"
     inkscape:pageopacity="0.0"
     inkscape:pagecheckerboard="0"
     inkscape:deskcolor="#d1d1d1"
     inkscape:document-units="px"
     showgrid="true"
     inkscape:zoom="16"
     inkscape:cx="16.84375"
     inkscape:cy="15.5625"
     inkscape:window-width="1390"
     inkscape:window-height="1392"
     inkscape:window-x="0"
     inkscape:window-y="0"
     inkscape:window-maximized="0"
     inkscape:current-layer="layer2">
    <inkscape:grid
       id="grid1"
       units="px"
       originx="0"
       originy="0"
       spacingx="1"
       spacingy="1"
       empcolor="#0099e5"
       empopacity="0.30196078"
       color="#0099e5"
       opacity="0.14901961"
       empspacing="1"
       dotted="false"
       gridanglex="30"
       gridanglez="30"
       visible="true" />
  </sodipodi:namedview>
  <defs
     id="defs1" />
  <g
     inkscape:groupmode="layer"
     id="layer2"
     inkscape:label="Folder Outline"
     style="display:inline">
    <path
       id="rect2"
       style="fill:#ffffff;fill-rule:evenodd"
       d="m 13,2 h 1 v 1 h -1 z" />
    <path
       id="rect2-5"
       style="display:inline;fill:#ffffff;fill-rule:evenodd"
       d="m 12,2 h 1 v 1 h -1 z" />
    <path
       id="rect2-6"
       style="display:inline;fill:#ffffff;fill-rule:evenodd"
       d="m 9,2 h 1 V 3 H 9 Z" />
    <path
       id="rect2-7"
       style="display:inline;fill:#ffffff;fill-rule:evenodd"
       d="m 10,2 h 1 v 1 h -1 z" />
    <path
       id="rect2-2"
       style="display:inline;fill:#ffffff;fill-rule:evenodd"
       d="m 11,2 h 1 v 1 h -1 z" />
    <path
       id="rect2-59"
       style="display:inline;fill:#ffffff;fill-rule:evenodd"
       d="m 14,3 h 1 v 1 h -1 z" />
    <path
       id="rect2-9"
       style="display:inline;fill:#ffffff;fill-rule:evenodd"
       d="M 8,3 H 9 V 4 H 8 Z" />
    <path
       id="rect2-1"
       style="display:inline;fill:#ffffff;fill-rule:evenodd"
       d="M 7,4 H 8 V 5 H 7 Z" />
    <path
       id="rect2-19"
       style="display:inline;fill:#ffffff;fill-rule:evenodd"
       d="M 6,4 H 7 V 5 H 6 Z" />
    <path
       id="rect2-4"
       style="display:inline;fill:#ffffff;fill-rule:evenodd"
       d="M 5,4 H 6 V 5 H 5 Z" />
    <path
       id="rect2-61"
       style="display:inline;fill:#ffffff;fill-rule:evenodd"
       d="M 4,4 H 5 V 5 H 4 Z" />
    <path
       id="rect2-20"
       style="display:inline;fill:#ffffff;fill-rule:evenodd"
       d="M 3,4 H 4 V 5 H 3 Z" />
    <path
       id="rect2-54"
       style="display:inline;fill:#ffffff;fill-rule:evenodd"
       d="M 2,4 H 3 V 5 H 2 Z" />
    <path
       id="rect2-69"
       style="display:inline;fill:#ffffff;fill-rule:evenodd"
       d="M 1,5 H 2 V 6 H 1 Z" />
    <path
       id="rect2-52"
       style="display:inline;fill:#ffffff;fill-rule:evenodd"
       d="M 1,6 H 2 V 7 H 1 Z" />
    <path
       id="rect2-44"
       style="display:inline;fill:#ffffff;fill-rule:evenodd"
       d="M 1,7 H 2 V 8 H 1 Z" />
    <path
       id="rect2-8"
       style="display:inline;fill:#ffffff;fill-rule:evenodd"
       d="M 1,8 H 2 V 9 H 1 Z" />
    <path
       id="rect2-43"
       style="display:inline;fill:#ffffff;fill-rule:evenodd"
       d="m 1,9 h 1 v 1 H 1 Z" />
    <path
       id="rect2-206"
       style="display:inline;fill:#ffffff;fill-rule:evenodd"
       d="m 1,10 h 1 v 1 H 1 Z" />
    <path
       id="rect2-66"
       style="display:inline;fill:#ffffff;fill-rule:evenodd"
       d="m 1,11 h 1 v 1 H 1 Z" />
    <path
       id="rect2-0"
       style="display:inline;fill:#ffffff;fill-rule:evenodd"
       d="m 1,12 h 1 v 1 H 1 Z" />
    <path
       id="rect2-17"
       style="display:inline;fill:#ffffff;fill-rule:evenodd"
       d="m 1,13 h 1 v 1 H 1 Z" />
    <path
       id="rect2-26"
       style="display:inline;fill:#ffffff;fill-rule:evenodd"
       d="m 1,14 h 1 v 1 H 1 Z" />
    <path
       id="rect2-15"
       style="display:inline;fill:#ffffff;fill-rule:evenodd"
       d="M 8,5 H 9 V 6 H 8 Z" />
    <path
       id="rect2-09"
       style="display:inline;fill:#ffffff;fill-rule:evenodd"
       d="m 9,5 h 1 V 6 H 9 Z" />
    <path
       id="rect2-11"
       style="display:inline;fill:#ffffff;fill-rule:evenodd"
       d="m 10,5 h 1 v 1 h -1 z" />
    <path
       id="rect2-76"
       style="display:inline;fill:#ffffff;fill-rule:evenodd"
       d="m 11,5 h 1 v 1 h -1 z" />
    <path
       id="rect2-56"
       style="display:inline;fill:#ffffff;fill-rule:evenodd"
       d="m 12,5 h 1 v 1 h -1 z" />
    <path
       id="rect2-81"
       style="display:inline;fill:#ffffff;fill-rule:evenodd"
       d="m 13,5 h 1 v 1 h -1 z" />
    <path
       id="rect2-90"
       style="display:inline;fill:#ffffff;fill-rule:evenodd"
       d="m 14,5 h 1 v 1 h -1 z" />
    <path
       id="rect2-096"
       style="display:inline;fill:#ffffff;fill-rule:evenodd"
       d="m 14,4 h 1 v 1 h -1 z" />
    <path
       id="rect2-611"
       style="display:inline;fill:#ffffff;fill-rule:evenodd"
       d="m 14,6 h 1 v 1 h -1 z" />
    <path
       id="rect2-48"
       style="display:inline;fill:#ffffff;fill-rule:evenodd"
       d="m 14,7 h 1 v 1 h -1 z" />
    <path
       id="rect2-04"
       style="display:inline;fill:#ffffff;fill-rule:evenodd"
       d="m 14,8 h 1 v 1 h -1 z" />
    <path
       id="rect2-763"
       style="display:inline;fill:#ffffff;fill-rule:evenodd"
       d="m 14,9 h 1 v 1 h -1 z" />
    <path
       id="rect2-96"
       style="display:inline;fill:#ffffff;fill-rule:evenodd"
       d="m 14,10 h 1 v 1 h -1 z" />
    <path
       id="rect2-85"
       style="display:inline;fill:#ffffff;fill-rule:evenodd"
       d="m 14,11 h 1 v 1 h -1 z" />
    <path
       id="rect2-859"
       style="display:inline;fill:#ffffff;fill-rule:evenodd"
       d="m 14,12 h 1 v 1 h -1 z" />
    <path
       id="rect2-88"
       style="display:inline;fill:#ffffff;fill-rule:evenodd"
       d="m 14,13 h 1 v 1 h -1 z" />
    <path
       id="rect2-964"
       style="display:inline;fill:#ffffff;fill-rule:evenodd"
       d="m 14,14 h 1 v 1 h -1 z" />
    <path
       id="rect2-86"
       style="display:inline;fill:#ffffff;fill-rule:evenodd"
       d="m 13,14 h 1 v 1 h -1 z" />
    <path
       id="rect2-889"
       style="display:inline;fill:#ffffff;fill-rule:evenodd"
       d="m 12,14 h 1 v 1 h -1 z" />
    <path
       id="rect2-430"
       style="display:inline;fill:#ffffff;fill-rule:evenodd"
       d="m 11,14 h 1 v 1 h -1 z" />
    <path
       id="rect2-25"
       style="display:inline;fill:#ffffff;fill-rule:evenodd"
       d="m 10,14 h 1 v 1 h -1 z" />
    <path
       id="rect2-94"
       style="display:inline;fill:#ffffff;fill-rule:evenodd"
       d="m 9,14 h 1 v 1 H 9 Z" />
    <path
       id="rect2-24"
       style="display:inline;fill:#ffffff;fill-rule:evenodd"
       d="m 8,14 h 1 v 1 H 8 Z" />
    <path
       id="rect2-481"
       style="display:inline;fill:#ffffff;fill-rule:evenodd"
       d="m 7,14 h 1 v 1 H 7 Z" />
    <path
       id="rect2-3"
       style="display:inline;fill:#ffffff;fill-rule:evenodd"
       d="m 6,14 h 1 v 1 H 6 Z" />
    <path
       id="rect2-21"
       style="display:inline;fill:#ffffff;fill-rule:evenodd"
       d="m 5,14 h 1 v 1 H 5 Z" />
    <path
       id="rect2-10"
       style="display:inline;fill:#ffffff;fill-rule:evenodd"
       d="m 4,14 h 1 v 1 H 4 Z" />
    <path
       id="rect2-64"
       style="display:inline;fill:#ffffff;fill-rule:evenodd"
       d="m 3,14 h 1 v 1 H 3 Z" />
    <path
       id="rect2-862"
       style="display:inline;fill:#ffffff;fill-rule:evenodd"
       d="m 2,14 h 1 v 1 H 2 Z" />
  </g>
  <g
     inkscape:groupmode="layer"
     id="layer5"
     inkscape:label="Remote"
     style="display:inline">
    <path
       id="rect2-20-45"
       style="display:inline;fill:#ffffff;fill-rule:evenodd"
       d="m 7,12 h 1 v 1 H 7 Z" />
    <path
       id="rect2-20-7"
       style="display:inline;fill:#ffffff;fill-rule:evenodd"
       d="m 8,12 h 1 v 1 H 8 Z" />
    <path
       id="rect2-20-04"
       style="display:inline;fill:#ffffff;fill-rule:evenodd"
       d="m 8,11 h 1 v 1 H 8 Z" />
    <path
       id="rect2-20-09"
       style="display:inline;fill:#ffffff;fill-rule:evenodd"
       d="m 7,11 h 1 v 1 H 7 Z" />
    <path
       id="rect2-20-83"
       style="display:inline;fill:#ffffff;fill-rule:evenodd"
       d="m 6,10 h 1 v 1 H 6 Z" />
    <path
       id="rect2-20-787"
       style="display:inline;fill:#ffffff;fill-rule:evenodd"
       d="m 7,9 h 1 v 1 H 7 Z" />
    <path
       id="rect2-20-098"
       style="display:inline;fill:#ffffff;fill-rule:evenodd"
       d="m 8,9 h 1 v 1 H 8 Z" />
    <path
       id="rect2-20-43"
       style="display:inline;fill:#ffffff;fill-rule:evenodd"
       d="m 9,10 h 1 v 1 H 9 Z" />
    <path
       id="rect2-20-516"
       style="display:inline;fill:#ffffff;fill-rule:evenodd"
       d="M 7,7 H 8 V 8 H 7 Z" />
    <path
       id="rect2-20-96"
       style="display:inline;fill:#ffffff;fill-rule:evenodd"
       d="M 8,7 H 9 V 8 H 8 Z" />
    <path
       id="rect2-20-49"
       style="display:inline;fill:#ffffff;fill-rule:evenodd"
       d="m 9,7 h 1 V 8 H 9 Z" />
    <path
       id="rect2-20-60"
       style="display:inline;fill:#ffffff;fill-rule:evenodd"
       d="M 6,7 H 7 V 8 H 6 Z" />
    <path
       id="rect2-20-94"
       style="display:inline;fill:#ffffff;fill-rule:evenodd"
       d="m 10,8 h 1 v 1 h -1 z" />
    <path
       id="rect2-20-15"
       style="display:inline;fill:#ffffff;fill-rule:evenodd"
       d="M 5,8 H 6 V 9 H 5 Z" />
    <path
       id="rect2-20-838"
       style="display:inline;fill:#ffffff;fill-rule:evenodd"
       d="m 4,9 h 1 v 1 H 4 Z" />
    <path
       id="rect2-20-27"
       style="display:inline;fill:#ffffff;fill-rule:evenodd"
       d="m 11,9 h 1 v 1 h -1 z" />
  </g>
</svg>
